<svg version="1.1" class="egg-lines" id="egg-lines" xmlns="http://www.w3.org/2000/svg" xmlns:xlink="http://www.w3.org/1999/xlink" x="0px" y="0px"
	 viewBox="0 0 600 600" style="enable-background:new 0 0 600 600;" xml:space="preserve">
<style type="text/css">
	.st0{fill:#FFFFFF;}
	.st1{fill:none;stroke:#FFFFFF;stroke-width:11;stroke-miterlimit:10;}
	.st2{fill:none;stroke:#FFFFFF;stroke-width:2;stroke-miterlimit:10;}
</style>
<g>
	<path class="st0 l5" d="M299.1,146.2c0,0-61.9,26.8-58.6,171.4l29-12.8c0,0-5-52.5,30.7-91L299.1,146.2z"/>
	<path class="st0 l7" d="M204.4,333.9c0,0,127.9,58.1,252.6-41l-43-1.1c0,0-80.4,66.4-173.6,25.7L204.4,333.9z"/>
	<path class="st0 l4" d="M240.5,317.5c0,0,77.6,43.5,173.6-25.7h-56.9c0,0-34.6,36.8-87.6,12.8L240.5,317.5z"/>
	<path class="st0 l1" d="M269.5,304.7c0,0,46.9,22.9,87.6-12.8l-58.1-1.1L269.5,304.7z"/>
	<path class="st0 l2" d="M300.2,213.7c0,0-30.1,18.4-30.7,91l29.6-14L300.2,213.7z"/>
	<path class="st0 l3" d="M300.2,213.7c0,0,49.7,11.2,56.9,78.1l-58-1.1L300.2,213.7z"/>
	<path class="st0 l6" d="M299.1,146.2c0,0,86.5-7.8,115,145.7h-56.9c0,0-6.1-66.4-56.9-78.1L299.1,146.2z"/>
	<path class="st0 l9" d="M299.6,75.8l-0.6,70.3c0,0,83.7-11.2,115,145.7h45.8C459.8,291.8,435.8,78.6,299.6,75.8z"/>
	<path class="st0 l8" d="M299.6,75.8c0,0-102.1,29-94.3,256.7l35.2-15.1c0,0-7.8-131.2,58.6-171.4L299.6,75.8z"/>
	
	<line class="st2" x1="299.5" y1="66.8" x2="299.5" y2="292.1"/>
	<line class="st2" x1="299.5" y1="292.1" x2="464.2" y2="292.1"/>
	<line class="st2" x1="205" y1="332.7" x2="300" y2="291.7"/>
	<path class="st2" d="M299,77.7C194.7,118.2,205.3,333,205.3,333S320,395.7,458,293.7"/>
	<path class="st2" d="M240.4,317.9c0,0,79.6,42.9,173.6-26.1"/>
	<path class="st2" d="M299,146.7c-52.3,29.6-60.9,121.9-59,171"/>
	<path class="st2" d="M300,146.7c0,0,85-8.8,114,145"/>
	<path class="st2" d="M300,214.7c-32.6,25.6-31,90-31,90"/>
	<path class="st2" d="M269,304.7c0,0,46.3,22.9,89.1-12.6c-12.4-74.2-58.5-77.2-58.5-77.2"/>
	
</g>
</svg>
