<?xml version="1.0" encoding="utf-8"?>
<!-- Generator: Adobe Illustrator 26.0.1, SVG Export Plug-In . SVG Version: 6.00 Build 0)  -->
<svg version="1.1" id="cut-egg" xmlns="http://www.w3.org/2000/svg" xmlns:xlink="http://www.w3.org/1999/xlink" x="0px" y="0px"
	 viewBox="0 0 482.8 600" style="enable-background:new 0 0 482.8 600;" xml:space="preserve">
<style type="text/css">
	.st0{fill:#A88B69;}
	.st1{fill:#A3794B;}
	.st2{fill:#A06C36;}
	.st3{fill:#657980;}
	.st4{fill:#45737F;}
	.st5{fill:#31697F;}
	.st6{fill:#193653;}
	.st7{fill:#0C2032;}
	.st8{fill:#0B1D30;}
	.st9{fill:#FFFFFF;}
	.st10{fill:none;stroke:#FFFFFF;stroke-width:11;stroke-miterlimit:10;}
	.st11{fill:none;stroke:#FFFFFF;stroke-width:2;stroke-miterlimit:10;}
	.st12{fill:none;stroke:#FFFFFF;stroke-width:2.2778;stroke-miterlimit:10;}
</style>
<path class="st0" d="M146.4,333c-5.6-229.2,93.4-254.9,93.4-254.9l1.1,69.2c0,0-62.9,24.9-58.8,170L146.4,333z"/>
<path class="st1" d="M240.9,147.3c0,0-64,28.7-58.8,170l27.9-12.3c0,0-4.5-57.3,30.5-89.7L240.9,147.3z"/>
<path class="st2" d="M240.5,215.4c0,0-32.4,23.8-30.5,89.7l31.3-12.7L240.5,215.4z"/>
<path class="st3" d="M239.8,78.1c107.9-4.8,162.6,181.6,158.5,214.7l-42.8-1.1c0,0-22-144.4-114.6-144.4L239.8,78.1z"/>
<path class="st4" d="M240.9,147.3l-0.4,68.1c0,0,47.6,3.3,58.4,75.9l56.6,0.4C355.5,291.7,335,149.5,240.9,147.3z"/>
<path class="st5" d="M240.5,215.4c0,0,47.3,3.7,58.4,75.9l-57.7,1.1L240.5,215.4z"/>
<path class="st6" d="M210,305.1l31.3-12.7l57.7-1.1C298.9,291.3,266.6,326.3,210,305.1z"/>
<path class="st7" d="M210,305.1c0,0,52.5,22,88.9-13.8l56.6,0.4c0,0-80.4,67-173.4,25.7L210,305.1z"/>
<path class="st8" d="M182.1,317.4c91.5,42.8,173.4-25.7,173.4-25.7l42.8,1.1c0,0-112.7,100.1-251.9,40.2
	C146.4,333,169.4,322.9,182.1,317.4z"/>
<g>
	<g>
		<path class="st9" d="M198.3,254.6c0,0,0.8-0.5,0.9-1.3c0.1-0.4-0.1-0.9-0.6-1c-1.1-0.2-1.3,2.6-3.3,2.3c-1-0.2-1.7-1.1-1.5-2.2
			c0.2-1.1,0.9-1.6,0.9-1.6l0.9,0.6c0,0-0.6,0.5-0.7,1.2c-0.1,0.5,0.2,0.9,0.6,1c1.1,0.2,1.3-2.6,3.3-2.3c1,0.2,1.7,1,1.6,2.2
			c-0.2,1.3-1.2,1.9-1.2,1.9L198.3,254.6z"/>
		<path class="st9" d="M194.2,249.9l0.6-3.5l1,0.2l-0.4,2.4l1.7,0.3l0.3-2l1,0.2l-0.3,2l1.7,0.3l0.4-2.5l1,0.2l-0.6,3.6L194.2,249.9
			z"/>
		<path class="st9" d="M195.3,243.1c0.3-1.4,1.2-2,1.2-2l0.8,0.7c0,0-0.7,0.5-0.9,1.4c-0.2,1.3,0.6,2.2,1.8,2.4
			c1.4,0.3,2.4-0.4,2.6-1.5c0.2-0.9-0.4-1.6-0.4-1.6l-0.7-0.1l-0.2,0.9l-1-0.2l0.3-1.8l3.3,0.6l-0.2,0.9l-0.3-0.1
			c-0.1,0-0.3-0.1-0.3-0.1l0,0c0,0,0.6,0.7,0.4,1.8c-0.3,1.5-1.8,2.6-3.8,2.2C196.1,246.4,194.9,244.9,195.3,243.1z"/>
		<path class="st9" d="M195.9,240.2l0.2-1l4,0.8c0.8,0.2,1.4-0.2,1.6-1c0.2-0.8-0.2-1.4-1.1-1.6l-4-0.8l0.2-1l4,0.8
			c1.4,0.3,2.2,1.4,1.9,2.8c-0.3,1.4-1.4,2.1-2.8,1.8L195.9,240.2z"/>
		<path class="st9" d="M197.1,234.6l0.4-1.8c0.1-0.6,0.3-0.9,0.4-1.1c0.4-0.5,1.1-0.7,1.9-0.5c0.7,0.2,1.4,0.7,1.5,1.4l0,0
			c0,0,0.1-0.1,0.4-0.1l2.6-0.6l-0.3,1.2l-2.6,0.6l-0.2,1l2.3,0.5l-0.2,1L197.1,234.6z M200.5,233.3c0.1-0.6-0.2-1-0.8-1.1
			c-0.6-0.1-1,0-1.2,0.8l-0.2,0.8l1.9,0.5L200.5,233.3z"/>
		<path class="st9" d="M203.5,228.1l-0.5,2l1.5,0.9l-0.3,1.1l-5.7-3.6l0.3-1.1l6.7-0.4l-0.3,1.1L203.5,228.1z M199.8,228.3
			c0,0,0.6,0.3,0.9,0.5l1.5,0.9l0.4-1.5l-1.8,0.1C200.4,228.3,199.8,228.2,199.8,228.3L199.8,228.3z"/>
		<path class="st9" d="M199.4,225.2l0.3-1l4.2-1.2c0.4-0.1,1.1-0.2,1.1-0.2l0,0c0,0-0.6-0.1-1-0.2l-3.6-1l0.3-1l6.2,1.7l-0.3,1
			l-4.1,1.2c-0.4,0.1-1.1,0.2-1.1,0.2l0,0c0,0,0.6,0.1,1,0.2l3.5,1l-0.3,1L199.4,225.2z"/>
		<path class="st9" d="M201.7,217c0.4-1.4,1.5-1.8,1.5-1.8l0.7,0.7c0,0-0.8,0.4-1.1,1.3c-0.4,1.2,0.4,2.2,1.5,2.5
			c1.2,0.4,2.4,0,2.8-1.2c0.3-1-0.3-1.9-0.3-1.9l1-0.3c0,0,0.7,1,0.3,2.4l0.3,0.1c0.1-0.3,0.4-0.5,0.8-0.4c0.6,0.2,0.6,0.7,0.5,1.1
			c-0.1,0.3-0.2,0.5-0.2,0.5l-0.6-0.2c0,0,0.1-0.1,0.2-0.3c0.1-0.2,0-0.4-0.1-0.4c-0.2-0.1-0.3,0.1-0.4,0.3c0,0.1,0,0.2,0,0.2
			l-0.6-0.4c-0.6,1.5-2.3,2.1-3.9,1.6C202.1,220.3,201.2,218.6,201.7,217z"/>
		<path class="st9" d="M208.1,213l-0.7,2l1.4,1l-0.4,1l-5.4-4l0.4-1.1l6.7,0.1l-0.4,1L208.1,213z M204.3,212.8c0,0,0.6,0.3,0.9,0.6
			l1.4,1l0.5-1.5l-1.8-0.1C205,212.8,204.3,212.7,204.3,212.8L204.3,212.8z"/>
	</g>
</g>
<g>
	<path class="st9" d="M257,337.6l1.1-0.1l0.5,5.4l2.5-0.2l0.1,1l-3.6,0.3L257,337.6z"/>
	<path class="st9" d="M260.9,337.3l1.1-0.1l0.7,6.4l-1.1,0.1L260.9,337.3z"/>
	<path class="st9" d="M263.2,337.1l1.1-0.1l1.5,3c0.2,0.4,0.4,0.9,0.4,0.9l0,0c0,0,0.1-0.6,0.2-1l0.8-3.3l1.1-0.1l1.2,6.3l-1.1,0.1
		l-0.7-3.5c-0.1-0.4-0.1-1-0.1-1l0,0c0,0-0.1,0.6-0.2,1l-0.6,2.6l-0.9,0.1l-1.2-2.3c-0.2-0.3-0.4-1-0.4-1l0,0c0,0,0.1,0.6,0.1,1
		l0.2,3.6l-1.1,0.1L263.2,337.1z"/>
	<path class="st9" d="M269.5,336.2l1.1-0.2l0.9,6.3l-1.1,0.2L269.5,336.2z"/>
	<path class="st9" d="M272.8,336.7l-1.9,0.3l-0.2-1l4.9-0.8l0.2,1l-1.9,0.3l0.8,5.3l-1.1,0.2L272.8,336.7z"/>
	<path class="st9" d="M275.8,335.3l3.5-0.6l0.2,1l-2.4,0.4l0.3,1.6l1.9-0.3l0.2,1l-1.9,0.3l0.3,1.7l2.5-0.5l0.2,1l-3.6,0.6
		L275.8,335.3z"/>
</g>
<g>
	<path class="st9" d="M248.3,318.6l2.3-0.1c1.1,0,1.9,0.8,2,2s-0.7,2.1-1.8,2.2l-1.2,0l0.1,2.2l-1.1,0L248.3,318.6z M250.5,321.7
		c0.6,0,1-0.5,0.9-1.1c0-0.7-0.4-1.1-1-1l-1,0l0.1,2.2L250.5,321.7z"/>
	<path class="st9" d="M252.9,318.4l1.9-0.1c0.6,0,0.9,0,1.2,0.1c0.6,0.2,1,0.8,1.1,1.7c0.1,0.8-0.3,1.5-0.9,1.8l0,0
		c0,0,0.1,0.1,0.2,0.3l1.4,2.3l-1.2,0.1l-1.3-2.3l-1,0.1l0.2,2.4l-1.1,0.1L252.9,318.4z M255.1,321.2c0.6,0,0.9-0.4,0.9-1.1
		c0-0.6-0.3-1-1.1-0.9l-0.8,0.1l0.1,2L255.1,321.2z"/>
	<path class="st9" d="M257.8,318l3.5-0.4l0.1,1l-2.4,0.2l0.2,1.7l2-0.2l0.1,1l-2,0.2l0.2,1.7l2.6-0.3l0.1,1l-3.6,0.4L257.8,318z"/>
	<path class="st9" d="M262.7,322.3c0,0,0.7,0.6,1.5,0.5c0.4-0.1,0.8-0.4,0.7-0.9c-0.1-1.1-2.9-0.6-3.1-2.5c-0.1-1.1,0.6-1.9,1.7-2.1
		c1.1-0.1,1.8,0.5,1.8,0.5l-0.3,1c0,0-0.6-0.5-1.4-0.4c-0.5,0.1-0.8,0.4-0.8,0.9c0.1,1.1,2.9,0.5,3.1,2.5c0.1,1-0.5,1.9-1.7,2.1
		c-1.3,0.2-2.1-0.6-2.1-0.6L262.7,322.3z"/>
	<path class="st9" d="M266.7,321.7c0,0,0.7,0.6,1.6,0.4c0.4-0.1,0.8-0.4,0.7-0.9c-0.2-1.1-2.9-0.5-3.2-2.4c-0.2-1,0.6-2,1.7-2.1
		c1.1-0.2,1.8,0.4,1.8,0.4l-0.3,1c0,0-0.6-0.5-1.4-0.4c-0.5,0.1-0.8,0.4-0.8,0.9c0.2,1.1,2.9,0.4,3.2,2.4c0.2,1-0.4,2-1.6,2.1
		c-1.3,0.2-2.1-0.6-2.1-0.6L266.7,321.7z"/>
	<path class="st9" d="M270.7,314.6c0.5-0.1,0.8,0.4,1.1,0.4c0.2,0,0.3-0.3,0.2-0.6l0.7-0.1c0.1,0.8-0.1,1.3-0.7,1.4
		c-0.5,0.1-0.8-0.4-1.1-0.4c-0.2,0-0.3,0.3-0.2,0.6l-0.7,0.1C269.9,315.2,270.1,314.7,270.7,314.6z M273.5,320.6l-2,0.4l-0.2,1.7
		l-1.1,0.2l0.9-6.7l1.1-0.2l3.2,5.9l-1.1,0.2L273.5,320.6z M271.8,317.2c0,0,0,0.6-0.1,1l-0.2,1.8l1.5-0.3l-0.8-1.6
		C272.1,317.8,271.8,317.2,271.8,317.2L271.8,317.2z"/>
	<path class="st9" d="M276.8,315c1.7-0.4,3.3,0.8,3.7,2.5c0.4,1.8-0.6,3.6-2.3,3.9c-1.7,0.4-3.3-0.8-3.7-2.6
		C274.1,317,275.1,315.4,276.8,315z M277.9,320.4c1.1-0.2,1.7-1.4,1.4-2.6c-0.3-1.2-1.3-2-2.4-1.7c-1.1,0.2-1.7,1.3-1.4,2.6
		C275.8,319.9,276.9,320.6,277.9,320.4z"/>
</g>
<g>
	<g>
		<path class="st9" d="M242.7,299.5l2.3,0c1.1,0,1.9,0.9,1.8,2.1c0,1.2-0.8,2.1-1.9,2.1l-1.2,0l0,2.2l-1.1,0L242.7,299.5z
			 M244.7,302.7c0.6,0,1-0.4,1-1.1c0-0.7-0.3-1.1-0.9-1.1l-1,0l0,2.2L244.7,302.7z"/>
		<path class="st9" d="M249.8,299.3c1.7-0.1,3.1,1.3,3.2,3.1c0.1,1.9-1.1,3.4-2.9,3.5c-1.7,0.1-3.1-1.3-3.2-3.2
			C246.8,300.9,248,299.4,249.8,299.3z M250.1,304.8c1.1-0.1,1.9-1.1,1.8-2.4c-0.1-1.3-1-2.1-2.1-2.1c-1.1,0.1-1.9,1-1.8,2.3
			C248.1,304,249,304.9,250.1,304.8z"/>
		<path class="st9" d="M253.3,299.2l2-0.3c1.8-0.2,3.1,0.8,3.4,2.8c0.3,2-0.7,3.3-2.5,3.6l-2,0.3L253.3,299.2z M255.9,304.3
			c1.2-0.2,1.8-1,1.6-2.4c-0.2-1.4-1.1-2.1-2.2-1.9l-0.9,0.1l0.6,4.3L255.9,304.3z"/>
		<path class="st9" d="M258.7,298.4l3.4-0.7l0.2,1l-2.4,0.5l0.3,1.6l1.9-0.4l0.2,1l-1.9,0.4l0.4,1.7l2.5-0.5l0.2,1l-3.6,0.7
			L258.7,298.4z"/>
		<path class="st9" d="M262.8,297.5l1.8-0.5c0.6-0.2,0.9-0.2,1.2-0.1c0.6,0.1,1.2,0.6,1.4,1.4c0.2,0.7,0,1.5-0.5,2l0,0
			c0,0,0.1,0.1,0.3,0.2l1.8,2l-1.1,0.3l-1.8-2l-1,0.3l0.6,2.3l-1,0.3L262.8,297.5z M265.6,299.8c0.5-0.2,0.8-0.6,0.6-1.2
			c-0.2-0.6-0.5-0.9-1.3-0.7l-0.8,0.2l0.5,1.9L265.6,299.8z"/>
	</g>
</g>
<g>
	<path class="st9" d="M217.7,294.2l-0.1,1.9l-1-0.1l0.3-4.9l1,0.1l-0.1,1.9l5.4,0.4l-0.1,1.1L217.7,294.2z"/>
	<path class="st9" d="M216.9,290.7l0.2-1.9c0.1-0.6,0.1-0.9,0.3-1.2c0.3-0.6,1-0.9,1.8-0.8c0.8,0.1,1.4,0.5,1.6,1.2l0,0
		c0,0,0.1-0.1,0.3-0.2l2.5-1l-0.1,1.2l-2.5,0.9l-0.1,1l2.4,0.2l-0.1,1.1L216.9,290.7z M220.1,288.9c0.1-0.6-0.3-1-0.9-1
		c-0.6-0.1-1,0.1-1.1,1l-0.1,0.8l2,0.2L220.1,288.9z"/>
	<path class="st9" d="M222.5,283.1l-0.2,2l1.6,0.7l-0.1,1.1l-6.1-2.8l0.1-1.1l6.6-1.3l-0.1,1.1L222.5,283.1z M218.7,283.7
		c0,0,0.6,0.2,1,0.4l1.6,0.7l0.2-1.5l-1.8,0.3C219.4,283.6,218.7,283.7,218.7,283.7L218.7,283.7z"/>
	<path class="st9" d="M218,280.3l0.2-1.1l4-1.7c0.4-0.2,1.1-0.3,1.1-0.3l0,0c0,0-0.6,0-1-0.1l-3.6-0.6l0.2-1l6.3,1l-0.2,1l-4,1.7
		c-0.4,0.2-1.1,0.3-1.1,0.3l0,0c0,0,0.6,0,1,0.1l3.6,0.5l-0.2,1.1L218,280.3z"/>
	<path class="st9" d="M219.4,271.6c0.3-1.7,2-2.7,3.8-2.4c0.8,0.1,1.4,0.5,1.9,1l0.8-0.5l0.6,0.7l-0.8,0.5c0.3,0.6,0.4,1.2,0.3,1.9
		c-0.3,1.7-2,2.7-3.8,2.4C220.2,274.9,219,273.3,219.4,271.6z M224.8,272.7c0.1-0.4,0-0.8-0.1-1.1l-0.8,0.5l-0.6-0.7l0.8-0.5
		c-0.3-0.3-0.7-0.5-1.1-0.5c-1.2-0.2-2.3,0.4-2.5,1.5c-0.2,1.1,0.6,2.1,1.8,2.3C223.5,274.4,224.6,273.7,224.8,272.7z"/>
	<path class="st9" d="M220.3,267.7l0.2-1l4,0.9c0.8,0.2,1.4-0.2,1.6-1c0.2-0.8-0.2-1.4-1-1.6l-4-0.9l0.2-1l4,0.9
		c1.4,0.3,2.1,1.5,1.8,2.9c-0.3,1.4-1.5,2.1-2.9,1.8L220.3,267.7z"/>
	<path class="st9" d="M221.7,261.9l0.3-1l6.2,1.6l-0.3,1L221.7,261.9z"/>
	<path class="st9" d="M222.3,259.6l0.3-1l5.2,1.5l0.7-2.4l1,0.3l-1,3.5L222.3,259.6z"/>
	<path class="st9" d="M223.5,255.4l0.3-1l6.1,2l-0.3,1L223.5,255.4z"/>
	<path class="st9" d="M224.3,253.1l0.7-1.9c0.6-1.7,2.1-2.4,4-1.7s2.6,2.2,2,3.9l-0.7,1.9L224.3,253.1z M230,253.2
		c0.4-1.1,0-2.1-1.4-2.6c-1.3-0.5-2.3,0-2.7,1.1l-0.3,0.8l4.1,1.5L230,253.2z"/>
	<path class="st9" d="M231.9,246.7l-0.8,1.9l1.3,1.1l-0.4,1l-5-4.4l0.4-1l6.7,0.6l-0.4,1L231.9,246.7z M228.2,246.2
		c0,0,0.5,0.4,0.8,0.6l1.4,1.2l0.6-1.4l-1.8-0.2C228.8,246.3,228.2,246.2,228.2,246.2L228.2,246.2z"/>
	<path class="st9" d="M228.5,242.7l0.9-1.8c0.8-1.6,2.4-2.1,4.2-1.2s2.3,2.5,1.5,4.1l-0.9,1.8L228.5,242.7z M234.2,243.4
		c0.5-1.1,0.2-2.1-1.1-2.7c-1.3-0.6-2.3-0.3-2.8,0.7l-0.4,0.8l3.9,2L234.2,243.4z"/>
	<path class="st9" d="M231.4,237.3l1.8-3l0.9,0.5l-1.3,2.1l1.4,0.9l1-1.7l0.9,0.5l-1,1.7l1.5,0.9l1.3-2.2l0.9,0.5l-1.9,3.1
		L231.4,237.3z"/>
</g>
<g>
	<g>
		<path class="st9" d="M266.1,242.1l-1.4-1.5l-1.5,0.8l-0.8-0.8l6-3l0.8,0.8l-3.1,5.9l-0.8-0.8L266.1,242.1z M268,238.8
			c0,0-0.5,0.3-0.9,0.5l-1.6,0.8l1.1,1.1l0.9-1.6C267.7,239.4,268,238.8,268,238.8L268,238.8z"/>
		<path class="st9" d="M270.8,241.8l-1.2-1.5l0.8-0.6l3.1,3.8l-0.8,0.6l-1.2-1.5l-4.2,3.4l-0.7-0.8L270.8,241.8z"/>
		<path class="st9" d="M273.8,244l2,2.9l-0.8,0.6l-1.4-2l-1.4,0.9l1.1,1.6l-0.8,0.6l-1.1-1.6l-1.4,1l1.5,2.1l-0.8,0.6l-2.1-3
			L273.8,244z"/>
		<path class="st9" d="M276.4,247.8l0.5,0.9l-2.1,3.8c-0.2,0.4-0.6,0.9-0.6,0.9l0,0c0,0,0.5-0.4,0.8-0.6l3.2-1.9l0.5,0.9l-5.5,3.2
			l-0.5-0.9l2.1-3.8c0.2-0.4,0.6-0.9,0.6-0.9l0,0c0,0-0.5,0.4-0.8,0.6l-3.2,1.9l-0.5-0.9L276.4,247.8z"/>
		<path class="st9" d="M280.7,255.4c0.6,1.3,0.2,2.3,0.2,2.3l-1-0.1c0,0,0.3-0.9-0.1-1.7c-0.6-1.1-1.8-1.3-2.8-0.8
			c-1.1,0.5-1.7,1.7-1.2,2.8c0.5,0.9,1.5,1.2,1.5,1.2l-0.5,0.9c0,0-1.2-0.2-1.9-1.5l-0.3,0.1c0.1,0.3,0,0.7-0.3,0.8
			c-0.5,0.3-0.9,0-1.1-0.4c-0.1-0.3-0.2-0.5-0.2-0.5l0.6-0.3c0,0,0,0.2,0.1,0.4c0.1,0.2,0.2,0.3,0.4,0.2c0.2-0.1,0.1-0.3,0-0.5
			c0-0.1-0.1-0.1-0.1-0.1l0.7-0.2c-0.6-1.5,0.2-3.1,1.8-3.9C278.1,253.4,280,253.9,280.7,255.4z"/>
		<path class="st9" d="M278.8,262.8l-0.8-1.9l-1.7,0.2l-0.4-1l6.7-0.7l0.5,1l-5,4.5l-0.4-1L278.8,262.8z M281.7,260.4
			c0,0-0.6,0.1-1,0.2l-1.8,0.2l0.6,1.4l1.4-1.2C281.2,260.8,281.7,260.4,281.7,260.4L281.7,260.4z M284,258.8
			c0.2,0.5-0.2,0.9-0.1,1.2c0.1,0.2,0.4,0.2,0.6,0.1l0.3,0.7c-0.7,0.3-1.2,0.2-1.5-0.3c-0.2-0.5,0.2-0.9,0.1-1.2
			c-0.1-0.2-0.4-0.2-0.6-0.1l-0.3-0.7C283.3,258.1,283.8,258.2,284,258.8z"/>
		<path class="st9" d="M285,265.2c0.6,1.6-0.2,3.4-1.9,4c-1.7,0.7-3.6,0-4.2-1.6s0.2-3.4,2-4.1C282.6,262.9,284.4,263.6,285,265.2z
			 M279.9,267.2c0.4,1,1.6,1.4,2.8,1c1.2-0.5,1.7-1.6,1.3-2.6c-0.4-1-1.6-1.5-2.8-1C280.1,265.1,279.5,266.2,279.9,267.2z"/>
	</g>
</g>
<g>
	<g>
		<path class="st9" d="M297.5,181.8c1,1,0.9,2.2,0.9,2.2l-1,0.2c0,0,0-1-0.7-1.6c-0.9-0.9-2.1-0.7-2.9,0.2c-0.9,0.9-1.1,2.1-0.2,3
			c0.7,0.7,1.8,0.6,1.8,0.6l-0.2,1c0,0-1.3,0.2-2.4-0.9c-1.3-1.3-1.1-3.2,0.2-4.5C294.4,180.7,296.3,180.6,297.5,181.8z"/>
		<path class="st9" d="M301.4,186c1.2,1.3,1,3.2-0.4,4.4c-1.4,1.3-3.4,1.3-4.5,0c-1.2-1.3-0.9-3.2,0.5-4.5
			C298.3,184.7,300.3,184.7,301.4,186z M297.3,189.7c0.7,0.8,2,0.8,3-0.1c0.9-0.8,1.1-2.1,0.3-2.9c-0.7-0.8-2-0.8-2.9,0
			C296.7,187.6,296.6,188.9,297.3,189.7z"/>
		<path class="st9" d="M303.9,188.9l0.7,0.8l-1.5,4.1c-0.1,0.4-0.5,1-0.5,1l0,0c0,0,0.4-0.4,0.7-0.7l2.9-2.3l0.7,0.8l-5,4l-0.7-0.8
			l1.5-4c0.1-0.4,0.5-1,0.5-1l0,0c0,0-0.4,0.4-0.7,0.7l-2.9,2.3l-0.7-0.8L303.9,188.9z"/>
		<path class="st9" d="M309.3,195.7c0.9,1.2,0.6,2.3,0.6,2.3l-1,0.1c0,0,0.1-0.9-0.4-1.7c-0.7-1-2-1-2.9-0.3c-1,0.7-1.4,2-0.7,3
			c0.6,0.8,1.7,0.9,1.7,0.9l-0.3,1c0,0-1.3,0-2.2-1.2c-1.1-1.4-0.6-3.3,0.9-4.4C306.4,194.1,308.3,194.3,309.3,195.7z"/>
		<path class="st9" d="M311,198.2l2,2.9l-0.8,0.6l-1.4-2l-1.4,0.9l1.1,1.6l-0.8,0.6l-1.1-1.6l-1.4,1l1.5,2.1l-0.8,0.6l-2.1-3
			L311,198.2z"/>
		<path class="st9" d="M313.5,201.9l0.6,0.9l-1.9,3.9c-0.2,0.4-0.6,0.9-0.6,0.9l0,0c0,0,0.5-0.4,0.8-0.6l3.1-2l0.6,0.9l-5.4,3.4
			l-0.6-0.9l1.9-3.8c0.2-0.4,0.6-0.9,0.6-0.9l0,0c0,0-0.5,0.4-0.8,0.6l-3.1,2l-0.6-0.9L313.5,201.9z"/>
		<path class="st9" d="M316.4,208.5l-1-1.7l0.9-0.5l2.5,4.2l-0.9,0.5l-1-1.7l-4.7,2.7l-0.5-0.9L316.4,208.5z"/>
		<path class="st9" d="M319,211l0.9,1.7c0.3,0.6,0.4,0.8,0.4,1.1c0,0.7-0.3,1.3-1.1,1.7c-0.7,0.4-1.5,0.4-2,0l0,0c0,0,0,0.1-0.2,0.3
			l-1.5,2.2l-0.6-1l1.5-2.2l-0.5-0.9l-2.1,1.1l-0.5-0.9L319,211z M317.3,214.2c0.3,0.5,0.8,0.6,1.3,0.3c0.5-0.3,0.8-0.7,0.4-1.4
			l-0.4-0.7l-1.8,1L317.3,214.2z"/>
		<path class="st9" d="M318.5,220.2l-0.9-1.8l-1.7,0.3l-0.5-1l6.6-1.1l0.5,1l-4.7,4.8l-0.5-1L318.5,220.2z M321.3,217.7
			c0,0-0.6,0.2-1,0.2l-1.8,0.3l0.7,1.4l1.3-1.2C320.8,218.1,321.3,217.7,321.3,217.7L321.3,217.7z"/>
		<path class="st9" d="M324.9,222.2c0.6,1.3,0.1,2.3,0.1,2.3l-1-0.1c0,0,0.3-0.9-0.1-1.7c-0.5-1.1-1.8-1.3-2.8-0.8
			c-1.1,0.5-1.7,1.7-1.2,2.8c0.4,0.9,1.5,1.2,1.5,1.2l-0.5,0.9c0,0-1.2-0.3-1.9-1.5l-0.3,0.1c0.1,0.3,0,0.7-0.4,0.8
			c-0.5,0.3-0.9-0.1-1.1-0.5c-0.1-0.3-0.2-0.5-0.2-0.5l0.6-0.3c0,0,0,0.2,0.1,0.4c0.1,0.2,0.2,0.3,0.4,0.2c0.2-0.1,0.1-0.3,0-0.5
			c0-0.1-0.1-0.1-0.1-0.1l0.7-0.1c-0.5-1.5,0.3-3.1,1.8-3.8C322.3,220.1,324.2,220.6,324.9,222.2z"/>
		<path class="st9" d="M322.9,229.5l-0.8-1.9l-1.7,0.2l-0.4-1l6.7-0.7l0.5,1l-5,4.5l-0.4-1L322.9,229.5z M325.8,227
			c0,0-0.6,0.1-1,0.2l-1.8,0.2l0.6,1.4l1.4-1.2C325.3,227.4,325.8,227.1,325.8,227L325.8,227z M328.1,225.4c0.2,0.5-0.2,0.9-0.1,1.2
			c0.1,0.2,0.4,0.2,0.6,0.1l0.3,0.7c-0.7,0.3-1.2,0.2-1.5-0.3c-0.2-0.5,0.2-0.9,0.1-1.2c-0.1-0.2-0.4-0.2-0.6-0.1l-0.3-0.7
			C327.3,224.7,327.8,224.8,328.1,225.4z"/>
		<path class="st9" d="M329.1,231.6c0.7,1.6-0.2,3.4-1.8,4.1c-1.7,0.7-3.6,0.1-4.3-1.5c-0.7-1.6,0.2-3.4,1.9-4.1
			C326.6,229.3,328.4,230,329.1,231.6z M323.9,233.7c0.4,1,1.6,1.4,2.9,0.9c1.2-0.5,1.7-1.6,1.3-2.6c-0.4-1-1.6-1.4-2.8-0.9
			C324.1,231.5,323.5,232.7,323.9,233.7z"/>
	</g>
</g>
<g>
	<g>
		<path class="st9" d="M342.4,157.6l0.6,1l-2,2.7c-0.2,0.3-0.6,0.8-0.6,0.8l0,0c0,0,0.6-0.2,0.9-0.3l3.3-0.7l0.6,1l-5.1,3.8
			l-0.6-0.9l2.9-2.1c0.3-0.2,0.8-0.5,0.8-0.5l0,0c0,0-0.6,0.2-1,0.3l-2.6,0.5l-0.5-0.8l1.6-2.1c0.2-0.3,0.7-0.8,0.7-0.8l0,0
			c0,0-0.5,0.3-0.8,0.5l-3.1,1.7l-0.6-0.9L342.4,157.6z"/>
		<path class="st9" d="M345.8,163.1l1.8,3l-0.9,0.5l-1.3-2.1l-1.4,0.9l1,1.7l-0.9,0.5l-1-1.7l-1.5,0.9l1.3,2.2l-0.9,0.5l-1.9-3.1
			L345.8,163.1z"/>
		<path class="st9" d="M348.2,167l0.6,1l-2.2,2.6c-0.3,0.3-0.7,0.7-0.7,0.7l0,0c0,0,0.6-0.1,1-0.2l3.3-0.6l0.6,1l-5.3,3.6l-0.5-0.9
			l3-2c0.4-0.2,0.9-0.5,0.9-0.5l0,0c0,0-0.6,0.2-1,0.2l-2.6,0.4l-0.5-0.8l1.7-2.1c0.2-0.3,0.7-0.8,0.7-0.8l0,0c0,0-0.5,0.3-0.9,0.5
			l-3.2,1.6l-0.5-0.9L348.2,167z"/>
		<path class="st9" d="M352.8,174.9c0.8,1.5,0.2,3.4-1.4,4.2c-1.7,0.9-3.6,0.5-4.4-1.1s-0.2-3.4,1.5-4.3
			C350.1,172.9,351.9,173.4,352.8,174.9z M347.9,177.5c0.5,0.9,1.8,1.2,2.9,0.6c1.1-0.6,1.5-1.8,1-2.7c-0.5-0.9-1.8-1.3-2.9-0.6
			C347.8,175.4,347.4,176.6,347.9,177.5z M354.2,174.3l0.5,1l-1.5-0.2l-0.4-0.7L354.2,174.3z"/>
		<path class="st9" d="M354.4,178.1l0.9,1.7c0.3,0.6,0.4,0.8,0.4,1.1c0,0.7-0.4,1.3-1.1,1.7c-0.7,0.4-1.5,0.3-2-0.1l0,0
			c0,0,0,0.1-0.2,0.3l-1.6,2.2l-0.5-1.1l1.6-2.1l-0.5-0.9l-2.1,1.1l-0.5-0.9L354.4,178.1z M352.7,181.3c0.3,0.5,0.8,0.7,1.3,0.4
			c0.5-0.3,0.8-0.7,0.4-1.4l-0.4-0.7l-1.8,0.9L352.7,181.3z"/>
		<path class="st9" d="M356.7,182.5l0.5,1l-5.7,2.9l-0.5-1L356.7,182.5z"/>
		<path class="st9" d="M354.6,189.1l-0.9-1.9l-1.7,0.3l-0.5-1l6.6-0.9l0.5,1l-4.8,4.7l-0.5-1L354.6,189.1z M357.4,186.6
			c0,0-0.6,0.2-1,0.2l-1.8,0.3l0.7,1.4l1.3-1.2C356.9,187,357.4,186.6,357.4,186.6L357.4,186.6z"/>
	</g>
</g>
<g>
	<g>
		<path class="st9" d="M164.6,217.4l0.7-3.4l1,0.2l-0.5,2.4l1.6,0.3l0.4-1.9l1,0.2l-0.4,1.9l1.7,0.3l0.5-2.5l1,0.2l-0.7,3.6
			L164.6,217.4z"/>
		<path class="st9" d="M165.9,210.7c0.4-1.7,2-2.7,3.8-2.3c0.8,0.2,1.4,0.6,1.8,1.1l0.8-0.5l0.6,0.8l-0.8,0.5
			c0.3,0.6,0.4,1.2,0.2,1.9c-0.4,1.7-2.1,2.7-3.9,2.3C166.6,213.9,165.5,212.3,165.9,210.7z M171.3,211.8c0.1-0.3,0-0.8-0.1-1.1
			l-0.8,0.5l-0.6-0.8l0.8-0.5c-0.3-0.3-0.7-0.5-1.1-0.6c-1.2-0.3-2.3,0.4-2.6,1.4c-0.2,1.1,0.5,2.1,1.8,2.4
			C169.9,213.5,171.1,212.9,171.3,211.8z"/>
		<path class="st9" d="M166.8,207.1l0.2-1l4,0.9c0.8,0.2,1.4-0.2,1.6-1c0.2-0.8-0.2-1.4-1-1.6l-4-0.9l0.2-1l4,0.9
			c1.4,0.3,2.1,1.5,1.8,2.9c-0.3,1.4-1.5,2.1-2.9,1.8L166.8,207.1z"/>
		<path class="st9" d="M168.1,201.6l0.3-1l6.2,1.5l-0.3,1L168.1,201.6z"/>
		<path class="st9" d="M168.6,199.6l0.3-1l5.2,1.3l0.6-2.5l1,0.2l-0.9,3.5L168.6,199.6z"/>
		<path class="st9" d="M168.1,194.6l0.3-1l1,1.2l-0.2,0.8L168.1,194.6z M169.6,195.7l0.3-1l6.2,1.6l-0.3,1L169.6,195.7z"/>
		<path class="st9" d="M170.1,193.7l0.6-2c0.3-1,1.1-1.6,2.1-1.3c0.6,0.2,1,0.6,1.1,1.1l0,0c0.4-0.6,1.1-0.7,1.7-0.5
			c1.2,0.3,1.5,1.4,1.2,2.5l-0.6,2.1L170.1,193.7z M173.2,192.4c0.1-0.4-0.2-0.8-0.6-0.9c-0.4-0.1-0.8,0-1,0.5l-0.3,1l1.6,0.4
			L173.2,192.4z M175.9,193c0.1-0.5-0.1-0.9-0.7-1.1c-0.5-0.1-1,0.1-1.1,0.6l-0.3,1.1l1.8,0.5L175.9,193z"/>
		<path class="st9" d="M171.4,189l0.5-1.8c0.2-0.6,0.3-0.9,0.5-1.1c0.4-0.5,1.1-0.7,1.9-0.4c0.7,0.2,1.3,0.8,1.4,1.4l0,0
			c0,0,0.1-0.1,0.4-0.1l2.6-0.5l-0.3,1.1l-2.6,0.4l-0.3,1l2.3,0.7l-0.3,1L171.4,189z M174.8,187.9c0.2-0.5-0.1-1-0.7-1.2
			c-0.6-0.2-1-0.1-1.3,0.8l-0.2,0.8l1.9,0.6L174.8,187.9z"/>
		<path class="st9" d="M172.8,184.3l0.3-1l6.1,1.9l-0.3,1L172.8,184.3z"/>
		<path class="st9" d="M174.1,179.7c0.5-1.6,2.3-2.4,4-1.9c1.8,0.6,2.8,2.3,2.2,3.9c-0.5,1.6-2.3,2.4-4.1,1.9
			C174.5,183.1,173.6,181.4,174.1,179.7z M179.4,181.5c0.3-1-0.3-2.1-1.6-2.5c-1.2-0.4-2.4,0.1-2.7,1.2c-0.3,1,0.3,2.1,1.5,2.5
			C177.9,183,179.1,182.5,179.4,181.5z"/>
	</g>
</g>
<path class="st10" d="M241.4,72.3c-36.7,0-78.2,29.3-111.1,78.3C96.4,200.9,77,263.7,77,322.9c0,59.2,16.9,113.1,47.6,151.5
	c30.3,37.9,71.7,58.8,116.8,58.8s86.5-20.9,116.8-58.8c30.7-38.5,47.6-92.3,47.6-151.5c0-59.9-18.8-122.7-51.6-172.4
	C321.7,101.6,279.6,72.3,241.4,72.3z"/>
<line class="st11" x1="240.9" y1="66.8" x2="240.9" y2="292.1"/>
<line class="st11" x1="240.9" y1="292.1" x2="405.6" y2="292.1"/>
<line class="st11" x1="146.4" y1="332.7" x2="241.4" y2="291.7"/>
<path class="st11" d="M240.4,77.7C136.1,118.2,146.7,333,146.7,333s114.7,62.8,252.7-39.2"/>
<path class="st11" d="M240.4,146.7c-52.3,29.6-60.9,121.9-59,171"/>
<path class="st11" d="M241.4,146.7c0,0,85-8.8,114,145"/>
<path class="st11" d="M241.4,214.7c-32.6,25.6-31,90-31,90"/>
<path class="st11" d="M210.4,304.7c0,0,46.3,22.9,89.1-12.6c-12.4-74.2-58.5-77.2-58.5-77.2"/>
<path class="st11" d="M181.8,317.9c0,0,79.6,42.9,173.6-26.1"/>
<rect x="16" y="29.6" class="st12" width="456.2" height="547.9"/>
<g>
	<path class="st9" d="M335,541.4l3.1-2.2c1.5-1.1,3.3-0.8,4.4,0.8s0.8,3.4-0.7,4.5l-1.7,1.2l2,2.8l-1.5,1L335,541.4z M340.7,543.4
		c0.9-0.6,1-1.5,0.4-2.4c-0.6-0.8-1.5-1-2.3-0.4l-1.4,1l1.9,2.8L340.7,543.4z"/>
	<path class="st9" d="M342.7,535.9l1.4-1.1l5.1,6.6l3.4-2.6l1,1.2l-4.8,3.7L342.7,535.9z"/>
	<path class="st9" d="M358,532.9l-2.6,2.3l1,2.5l-1.4,1.2l-3.8-9.8l1.4-1.2l9.1,5.2l-1.4,1.2L358,532.9z M353,529.8
		c0,0,0.5,0.9,0.7,1.4l1.1,2.6l2-1.7l-2.4-1.4C353.8,530.4,353,529.8,353,529.8L353,529.8z"/>
	<path class="st9" d="M356.8,524.2l1.3-1.3l6.7,1.5c0.7,0.2,1.7,0.5,1.7,0.5l0,0c0,0-0.7-0.6-1.1-1l-4-4.1l1.3-1.2l6.9,7.2l-1.3,1.2
		l-6.7-1.5c-0.7-0.2-1.7-0.5-1.7-0.5l0,0c0,0,0.7,0.6,1.1,1l4,4.1l-1.3,1.3L356.8,524.2z"/>
	<path class="st9" d="M367.8,512.8c2-2.2,5.1-2.3,7.2-0.3c2.2,2,2.3,5.2,0.3,7.3c-2,2.2-5.2,2.2-7.3,0.2
		C366,518.1,365.8,515,367.8,512.8z M374.1,518.6c1.2-1.3,1.1-3.4-0.4-4.8c-1.4-1.3-3.5-1.2-4.7,0.1c-1.2,1.3-1.1,3.4,0.3,4.7
		C370.8,520,372.9,520,374.1,518.6z"/>
	<path class="st9" d="M378.4,500.3c1.8-2.3,4.9-2.7,7.2-0.9c2.3,1.8,2.7,5,0.9,7.3c-1.8,2.3-5,2.6-7.3,0.8
		C377,505.7,376.6,502.6,378.4,500.3z M385.2,505.6c1.1-1.4,0.8-3.5-0.8-4.8c-1.5-1.2-3.6-1-4.7,0.5c-1.1,1.4-0.9,3.5,0.7,4.7
		C382,507.3,384.1,507.1,385.2,505.6z"/>
	<path class="st9" d="M383.3,494.2l1.8-2.6c0.6-0.9,1-1.2,1.4-1.5c0.9-0.6,2.1-0.5,3.2,0.2c1,0.7,1.5,1.8,1.3,2.9l0,0
		c0,0,0.2,0,0.6,0l4.2,0.5l-1.2,1.6l-4.2-0.5l-1,1.4l3,2.1l-1,1.5L383.3,494.2z M389.1,494.1c0.6-0.8,0.4-1.6-0.4-2.2
		c-0.8-0.5-1.5-0.6-2.3,0.6l-0.8,1.1l2.5,1.8L389.1,494.1z"/>
	<path class="st9" d="M391.2,482.2c1.3-2.1,3-2.4,3-2.4l0.7,1.5c0,0-1.4,0.4-2.2,1.7c-1.2,1.9-0.5,3.7,1.1,4.7
		c1.8,1.2,3.8,0.7,4.8-0.9c0.8-1.3,0.5-2.7,0.5-2.7l-1-0.6l-0.8,1.3l-1.3-0.8l1.7-2.7l4.4,2.8l-0.8,1.3l-0.4-0.3
		c-0.2-0.1-0.3-0.2-0.3-0.2l0,0c0,0,0.3,1.4-0.6,3c-1.4,2.2-4.3,3-7,1.4C390.3,487.8,389.6,484.7,391.2,482.2z"/>
	<path class="st9" d="M403.8,475.7l-1.7,3l1.8,2l-0.9,1.6l-6.9-8l0.9-1.6l10.4,1.9l-0.9,1.6L403.8,475.7z M398,474.4
		c0,0,0.7,0.7,1.1,1.1l1.9,2.1l1.3-2.3l-2.7-0.6C399,474.7,398.1,474.4,398,474.4L398,474.4z"/>
	<path class="st9" d="M399.7,467.9l0.8-1.6l6.8-0.7c0.7-0.1,1.7,0,1.7,0l0,0c0,0-0.9-0.3-1.4-0.6l-5.1-2.6l0.8-1.6l8.8,4.5l-0.8,1.6
		l-6.8,0.7c-0.7,0.1-1.7,0-1.7,0l0,0c0,0,0.9,0.3,1.4,0.6l5.1,2.6l-0.8,1.6L399.7,467.9z"/>
	<path class="st9" d="M404.9,457.7l0.8-1.6l9,4.2l-0.8,1.6L404.9,457.7z"/>
	<path class="st9" d="M414.8,457.2l-4-6.6c-0.4-0.6-0.5-1-0.5-1l0,0c0,0-0.1,0.3-0.3,0.7l-1.7,3.8l-1.4-0.6l2.9-6.6l1.1,0.5l4,6.6
		c0.4,0.6,0.5,1,0.5,1l0,0c0,0,0.1-0.3,0.3-0.7l1.8-4.1l1.4,0.6l-3,6.8L414.8,457.2z"/>
	<path class="st9" d="M419.5,442.5l-1.3,3.2l2.1,1.7l-0.7,1.7l-8-6.9l0.7-1.8l10.5,0.4l-0.7,1.7L419.5,442.5z M413.6,442.1
		c0,0,0.8,0.6,1.3,1l2.1,1.8l1-2.4l-2.8-0.2C414.6,442.2,413.6,442,413.6,442.1L413.6,442.1z"/>
	<path class="st9" d="M415.6,431.2c0.8-2.3,2.5-3,2.5-3l1,1.3c0,0-1.4,0.7-1.9,2.2c-0.7,2,0.4,3.7,2.1,4.3c1.8,0.6,3.8,0,4.5-2
		c0.6-1.6-0.2-3.1-0.2-3.1l1.5-0.5c0,0,1.1,1.8,0.2,4.2c-1,2.9-3.8,4.1-6.6,3.1C416,436.7,414.6,433.9,415.6,431.2z"/>
	<path class="st9" d="M417.8,425.1l0.6-1.7l9.5,3l-0.6,1.7L417.8,425.1z"/>
	<path class="st9" d="M420.4,415.9c0.8-2.8,3.6-4.3,6.3-3.5c2.8,0.8,4.4,3.6,3.6,6.4c-0.8,2.8-3.6,4.3-6.4,3.5
		C421.2,421.5,419.6,418.7,420.4,415.9z M428.7,418.3c0.5-1.7-0.5-3.6-2.5-4.1c-1.9-0.5-3.7,0.5-4.2,2.2c-0.5,1.7,0.5,3.5,2.4,4.1
		C426.4,421,428.2,420,428.7,418.3z"/>
	<path class="st9" d="M422.7,408.5l0.4-1.8l6.5-2.3c0.6-0.2,1.7-0.4,1.7-0.4l0,0c0,0-0.9-0.1-1.5-0.3l-5.6-1.4l0.4-1.7l9.7,2.4
		l-0.4,1.7l-6.5,2.3c-0.6,0.2-1.7,0.4-1.7,0.4l0,0c0,0,0.9,0.1,1.5,0.3l5.6,1.4l-0.4,1.8L422.7,408.5z"/>
	<path class="st9" d="M433.6,394l-0.7,3.4l2.3,1.3l-0.4,1.8l-9-5.5l0.4-1.9l10.4-1.4l-0.4,1.8L433.6,394z M427.7,394.6
		c0,0,0.9,0.4,1.4,0.7l2.4,1.4l0.5-2.5l-2.8,0.3C428.7,394.5,427.7,394.5,427.7,394.6L427.7,394.6z"/>
	<path class="st9" d="M427.2,387.8l0.3-1.8l8.3,1.5l0.8-4.2l1.5,0.3l-1.1,6L427.2,387.8z"/>
</g>
<g>
	<path class="st9" d="M348.4,82.2L351,85c1.3,1.4,1.2,3.2-0.2,4.5c-1.4,1.3-3.3,1.3-4.6-0.1l-1.4-1.5l-2.5,2.3l-1.2-1.3L348.4,82.2z
		 M347.1,88.2c0.7,0.8,1.6,0.8,2.4,0.1c0.8-0.7,0.8-1.6,0.1-2.3l-1.2-1.3l-2.5,2.3L347.1,88.2z"/>
	<path class="st9" d="M354.9,89.4l1.2,1.4l-6.3,5.5l2.8,3.3l-1.2,1l-4-4.6L354.9,89.4z"/>
	<path class="st9" d="M358.1,104.7l-2.2-2.7l-2.5,0.9l-1.2-1.4l9.9-3.5l1.2,1.5l-5.5,9l-1.2-1.4L358.1,104.7z M361.4,99.8
		c0,0-0.9,0.4-1.5,0.6l-2.6,1l1.6,2l1.5-2.4C360.8,100.6,361.4,99.8,361.4,99.8L361.4,99.8z"/>
	<path class="st9" d="M367,104.1l1.1,1.4l-2.3,6.5c-0.2,0.6-0.7,1.6-0.7,1.6l0,0c0,0,0.7-0.6,1.2-1l4.6-3.4l1.1,1.4l-8,5.9l-1.1-1.4
		l2.3-6.4c0.2-0.6,0.7-1.6,0.7-1.6l0,0c0,0-0.7,0.6-1.2,1l-4.6,3.4L359,110L367,104.1z"/>
	<path class="st9" d="M376.7,117.1c1.7,2.4,1.1,5.5-1.3,7.1c-2.4,1.7-5.5,1.1-7.2-1.3s-1-5.5,1.4-7.2
		C371.9,114.1,375,114.7,376.7,117.1z M369.6,122c1,1.5,3.1,1.8,4.8,0.7c1.6-1.1,2-3.1,1-4.6s-3.1-1.9-4.7-0.8
		C369,118.4,368.5,120.5,369.6,122z"/>
	<path class="st9" d="M385.9,131.3c1.5,2.5,0.8,5.5-1.6,7c-2.5,1.5-5.6,0.8-7.1-1.7c-1.5-2.5-0.7-5.6,1.8-7.1
		C381.3,128.1,384.3,128.8,385.9,131.3z M378.5,135.8c1,1.6,3,2,4.7,0.9c1.7-1,2.1-3,1.2-4.6c-1-1.6-3-2-4.6-1
		C378.1,132.2,377.6,134.2,378.5,135.8z"/>
	<path class="st9" d="M389.9,138.3l1.6,2.8c0.5,0.9,0.7,1.4,0.7,1.9c0.1,1.1-0.4,2.1-1.6,2.8c-1,0.6-2.3,0.6-3.2-0.1l0,0
		c0,0-0.1,0.2-0.3,0.5l-2.2,3.6l-1-1.8l2.2-3.6l-0.9-1.5l-3.2,1.8l-0.9-1.6L389.9,138.3z M387.5,143.6c0.5,0.8,1.3,1.1,2.1,0.6
		c0.8-0.5,1.1-1.1,0.4-2.3l-0.7-1.2l-2.7,1.5L387.5,143.6z"/>
	<path class="st9" d="M394.9,147.2l0.9,1.6l-8.7,4.7l-0.9-1.6L394.9,147.2z"/>
	<path class="st9" d="M399.6,155.8c1.1,2.2,0.6,3.9,0.6,3.9l-1.6-0.2c0,0,0.4-1.4-0.4-2.8c-1-2-2.9-2.3-4.6-1.5
		c-1.9,1-2.5,2.9-1.7,4.6c0.7,1.3,2.1,1.7,2.1,1.7l1-0.5l-0.7-1.4l1.4-0.7l1.4,2.8l-4.7,2.4l-0.7-1.4l0.4-0.2
		c0.2-0.1,0.4-0.2,0.4-0.2l0,0c0,0-1.4-0.4-2.3-2.1c-1.2-2.3-0.4-5.3,2.4-6.7C395.3,152.2,398.2,153.1,399.6,155.8z"/>
	<path class="st9" d="M402.6,162.3l0.8,1.6l-9,4.3l-0.8-1.6L402.6,162.3z"/>
	<path class="st9" d="M405,167.1l0.7,1.6l-3.7,5.8c-0.4,0.6-1.1,1.4-1.1,1.4l0,0c0,0,0.8-0.5,1.4-0.7l5.2-2.4l0.7,1.6l-9,4.1
		l-0.7-1.6l3.7-5.8c0.4-0.6,1.1-1.4,1.1-1.4l0,0c0,0-0.8,0.5-1.4,0.7l-5.2,2.4l-0.7-1.6L405,167.1z"/>
	<path class="st9" d="M404.8,185.2l-1.3-3.2l-2.7,0.2l-0.7-1.7l10.5-0.6l0.7,1.7l-7.8,7.1l-0.7-1.7L404.8,185.2z M409.4,181.4
		c0,0-1,0.2-1.6,0.2l-2.8,0.2l1,2.4l2.1-1.8C408.6,182,409.4,181.4,409.4,181.4L409.4,181.4z"/>
	<path class="st9" d="M413.5,187l0.7,1.7l-7.8,3.1l1.6,4l-1.4,0.6l-2.2-5.7L413.5,187z"/>
</g>
<g>
	<path class="st9" d="M53.8,236.5l1-3.7c0.5-1.8,2.1-2.7,3.9-2.2c1.9,0.5,2.8,2.1,2.3,3.9l-0.5,2l3.3,0.9l-0.5,1.7L53.8,236.5z
		 M59.5,234.4c0.3-1-0.2-1.8-1.2-2.1c-1-0.3-1.8,0.2-2,1.1l-0.4,1.7L59,236L59.5,234.4z"/>
	<path class="st9" d="M56.3,227.2l0.5-1.7l8,2.4l1.2-4.1l1.5,0.4l-1.7,5.9L56.3,227.2z"/>
	<path class="st9" d="M67.4,216.3l-1.1,3.3l2.2,1.6l-0.6,1.8l-8.4-6.4l0.6-1.8l10.5-0.3l-0.6,1.8L67.4,216.3z M61.5,216.2
		c0,0,0.9,0.5,1.3,0.9l2.3,1.7l0.8-2.5l-2.8,0C62.5,216.3,61.5,216.2,61.5,216.2L61.5,216.2z"/>
	<path class="st9" d="M62,209.2l0.6-1.7l6.7-1.6c0.7-0.2,1.7-0.3,1.7-0.3l0,0c0,0-0.9-0.2-1.5-0.4l-5.4-1.9l0.6-1.7l9.4,3.3
		l-0.6,1.7l-6.7,1.6c-0.7,0.2-1.7,0.3-1.7,0.3l0,0c0,0,0.9,0.2,1.5,0.4l5.4,1.9l-0.6,1.7L62,209.2z"/>
	<path class="st9" d="M67.4,194c1.1-2.7,3.9-4,6.6-2.9c2.7,1.1,4.1,4,3,6.7c-1.1,2.7-4,4-6.7,2.9C67.6,199.6,66.3,196.7,67.4,194z
		 M75.4,197.1c0.7-1.7-0.2-3.6-2.1-4.3c-1.8-0.7-3.7,0.1-4.4,1.8c-0.7,1.7,0.2,3.6,2,4.3C72.8,199.6,74.7,198.8,75.4,197.1z"/>
	<path class="st9" d="M72.2,182.6l2.4-5.5l1.4,0.6l-1.7,3.8l2.4,1l1.3-3.1l1.4,0.6l-1.3,3.1l2.5,1.1l1.7-4l1.4,0.6l-2.5,5.7
		L72.2,182.6z"/>
	<path class="st9" d="M81.1,174.5l-5.7,0.6l0.9-1.9l2.8-0.2c0.7,0,1.4-0.1,1.4-0.1l0,0c0,0-0.5-0.5-0.9-1.1l-1.6-2.3l0.9-1.9
		l3.2,4.8l5.9-0.7l-0.9,1.8l-3.1,0.3c-0.7,0-1.3,0.1-1.3,0.1l0,0c0,0,0.4,0.5,0.8,1.1l1.8,2.5l-0.9,1.8L81.1,174.5z"/>
	<path class="st9" d="M80,165.4l0.8-1.6l8.9,4.4l-0.8,1.6L80,165.4z"/>
	<path class="st9" d="M89.1,163.8c0,0,1.4-0.5,2.1-1.7c0.3-0.7,0.3-1.5-0.4-1.8c-1.6-0.8-3.4,3.5-6.2,2.1c-1.5-0.8-1.9-2.6-1-4.3
		c0.9-1.7,2.3-2.2,2.3-2.2l0.9,1.4c0,0-1.2,0.5-1.8,1.6c-0.4,0.7-0.2,1.6,0.4,1.9c1.6,0.8,3.3-3.6,6.1-2.1c1.4,0.7,2,2.4,1.1,4.2
		c-1,2-2.8,2.4-2.8,2.4L89.1,163.8z"/>
	<path class="st9" d="M88.8,151.8l-1.6,2.9l-1.4-0.7l4-7.3l1.4,0.7l-1.6,2.9l7.4,4l-0.9,1.6L88.8,151.8z"/>
	<path class="st9" d="M91,144.5l3-5.1l1.3,0.8l-2.1,3.6l2.3,1.3l1.7-2.9l1.3,0.8l-1.7,2.9l2.3,1.3l2.2-3.8l1.3,0.8l-3.1,5.3
		L91,144.5z"/>
	<path class="st9" d="M95.6,136.7l0.9-1.5l6.9-0.2c0.7,0,1.7,0.1,1.7,0.1l0,0c0,0-0.9-0.4-1.4-0.7l-4.9-3l0.9-1.5l8.5,5.2l-0.9,1.5
		l-6.8,0.2c-0.7,0-1.7-0.1-1.7-0.1l0,0c0,0,0.9,0.4,1.4,0.7l4.9,3l-0.9,1.5L95.6,136.7z"/>
	<path class="st9" d="M104.1,122.9c1.3-2,3.2-2.3,3.2-2.3l0.6,1.5c0,0-1.5,0.4-2.4,1.7c-1.2,1.7-0.5,3.6,1,4.7
		c1.6,1,3.7,0.9,4.8-0.8c1-1.4,0.5-3.1,0.5-3.1l1.6-0.1c0,0,0.6,2-0.8,4.1c-1.7,2.5-4.7,3-7.2,1.4
		C103.1,128.4,102.5,125.4,104.1,122.9z"/>
	<path class="st9" d="M108,117.6l1-1.5l8.1,5.7l-1,1.5L108,117.6z"/>
	<path class="st9" d="M119.9,113.6l-2.1,2.8l1.6,2.2l-1.1,1.5l-5.9-8.7l1.1-1.5l10.1,3.1l-1.1,1.5L119.9,113.6z M114.3,111.6
		c0,0,0.7,0.8,1,1.2l1.6,2.3l1.5-2.1l-2.7-0.9C115.3,112,114.4,111.6,114.3,111.6L114.3,111.6z"/>
	<path class="st9" d="M117,105.2l1.1-1.4l6.6,5.2l2.6-3.4l1.2,1l-3.8,4.8L117,105.2z"/>
</g>
</svg>
