<?xml version="1.0" encoding="utf-8"?>
<!-- Generator: Adobe Illustrator 24.0.2, SVG Export Plug-In . SVG Version: 6.00 Build 0)  -->
<svg version="1.1" id="cut-egg" xmlns="http://www.w3.org/2000/svg" xmlns:xlink="http://www.w3.org/1999/xlink" x="0px" y="0px"
	 viewBox="0 0 600 600" style="enable-background:new 0 0 600 600;" xml:space="preserve">
<style type="text/css">
	.st0{fill:#CC7A7A;}
	.st1{fill:none;}
	.st2{fill:none;stroke:#FFFFFF;stroke-width:11;stroke-miterlimit:10;}
	.st3{fill:none;stroke:#FFFFFF;stroke-width:2;stroke-miterlimit:10;}
	.st4{fill:none;stroke:#FFFFFF;stroke-width:2.2778;stroke-miterlimit:10;}
</style>
<rect x="-6.8" y="-8.4" class="st0" width="649.2" height="619"/>
<g>
	<path id="SVGID_x5F_1_x5F_" class="st1" d="M247.4,302.2c0.4-38,5.9-85.2,26.7-119.4c4.3-7,8.6-12.4,12.3-16.5"/>
	<text>	<textPath  xlink:href="#SVGID_x5F_1_x5F_" startOffset="0%">
<tspan  style="fill:#FFFFFF; font-family:'MuseoSans-700'; font-size:9px; letter-spacing:-57.6;">SEGURANÇA</tspan>	</textPath>
</text>
</g>
<path id="SVGID_x5F_2_x5F_" class="st1" d="M442.4,294.2c-45.4,33.3-92.6,50.7-146.8,50.7c0,0,0,0,0,0c-37.4,0-64-9.3-77.9-14.2"/>
<text><textPath  xlink:href="#SVGID_x5F_2_x5F_" startOffset="15.2344%">
<tspan  style="fill:#FFFFFF; font-family:'MuseoSans-700'; font-size:9px; letter-spacing:-57.6;">LIMITE</tspan></textPath>
</text>
<path id="SVGID_x5F_3_x5F_" class="st1" d="M401.1,293.9C369,314.5,335.9,325,302.5,325c0,0,0,0,0,0c-24,0-42.4-5.6-52.2-9.5"/>
<text><textPath  xlink:href="#SVGID_x5F_3_x5F_" startOffset="9.2796%">
<tspan  style="fill:#FFFFFF; font-family:'MuseoSans-700'; font-size:9px; letter-spacing:-57.6;">PRESSÃO</tspan></textPath>
</text>
<g>
	<path id="SVGID_x5F_4_x5F_" class="st1" d="M345.6,293.6c-12.3,8.2-26.1,12.3-41.2,12.3c0,0,0,0,0,0c-10,0-18.7-1.9-24.6-3.7"/>
	<text>	<textPath  xlink:href="#SVGID_x5F_4_x5F_" startOffset="8.138021e-03%">
<tspan  style="fill:#FFFFFF; font-family:'MuseoSans-700'; font-size:9px; letter-spacing:-57.6;">PODER</tspan>	</textPath>
</text>
</g>
<path id="SVGID_x5F_5_x5F_" class="st1" d="M273.7,299.7c0.8-18.9,4.1-42.6,14.3-61.5c2.1-3.8,4.2-6.9,6-9.4"/>
<text><textPath  xlink:href="#SVGID_x5F_5_x5F_" startOffset="1.220703e-02%">
<tspan  style="fill:#FFFFFF; font-family:'MuseoSans-700'; font-size:9px; letter-spacing:-34.8;">TRANQUILIDADE</tspan></textPath>
</text>
<g>
	<path id="SVGID_x5F_6_x5F_" class="st1" d="M315.9,228.1c13.6,6.7,24.4,20.3,34,51.5"/>
	<text>	<textPath  xlink:href="#SVGID_x5F_6_x5F_" startOffset="2.441406e-02%">
<tspan  style="fill:#FFFFFF; font-family:'MuseoSans-700'; font-size:9px; letter-spacing:-57.6;">ATENÇÃO</tspan>	</textPath>
</text>
</g>
<g>
	<path id="SVGID_x5F_7_x5F_" class="st1" d="M311.3,155.8c8.8,1.4,22.6,5.6,37.4,17.7c25.8,21,44.3,57.1,55.2,107.4"/>
	<text>	<textPath  xlink:href="#SVGID_x5F_7_x5F_" startOffset="2.441406e-02%">
<tspan  style="fill:#FFFFFF; font-family:'MuseoSans-700'; font-size:9px; letter-spacing:-57.6;">CONCENTRAÇÃO</tspan>	</textPath>
</text>
</g>
<g>
	<path id="SVGID_x5F_8_x5F_" class="st1" d="M311.6,87c19.1,4.7,37,13.8,53.1,27.2c17,14.1,32.2,32.9,45.3,55.8
		c21.6,38,33.4,80.2,37.8,110.8"/>
	<text>	<textPath  xlink:href="#SVGID_x5F_8_x5F_" startOffset="23.7467%">
<tspan  style="fill:#FFFFFF; font-family:'MuseoSans-700'; font-size:9px; letter-spacing:-57.6;">MEMÓRIA</tspan>	</textPath>
</text>
</g>
<g>
	<path id="SVGID_x5F_9_x5F_" class="st1" d="M214,317.6c-2.2-154.5,52.4-210.9,74.6-225.5"/>
	<text>	<textPath  xlink:href="#SVGID_x5F_9_x5F_" startOffset="3.051758e-03%">
<tspan  style="fill:#FFFFFF; font-family:'MuseoSans-700'; font-size:9px; letter-spacing:-57.6;">EQUILÍBRIO</tspan>	</textPath>
</text>
</g>
<path class="st2" d="M300,72.3c-36.7,0-78.2,29.3-111.1,78.3c-33.8,50.3-53.2,113.1-53.2,172.3c0,59.2,16.9,113.1,47.6,151.5
	c30.3,37.9,71.7,58.8,116.8,58.8s86.5-20.9,116.8-58.8c30.7-38.5,47.6-92.3,47.6-151.5c0-59.9-18.8-122.7-51.6-172.4
	C380.3,101.6,338.2,72.3,300,72.3z"/>
<line class="st3" x1="299.5" y1="66.8" x2="299.5" y2="292.1"/>
<line class="st3" x1="299.5" y1="292.1" x2="464.2" y2="292.1"/>
<line class="st3" x1="205" y1="332.7" x2="300" y2="291.7"/>
<path class="st3" d="M299,77.7C194.7,118.2,205.3,333,205.3,333S320,395.7,458,293.7"/>
<path class="st3" d="M299,146.7c-52.3,29.6-60.9,121.9-59,171"/>
<path class="st3" d="M300,146.7c0,0,85-8.8,114,145"/>
<path class="st3" d="M300,214.7c-32.6,25.6-31,90-31,90"/>
<path class="st3" d="M269,304.7c0,0,46.3,22.9,89.1-12.6c-12.4-74.2-58.5-77.2-58.5-77.2"/>
<path class="st3" d="M240.4,317.9c0,0,79.6,42.9,173.6-26.1"/>
<rect x="74.6" y="29.6" class="st4" width="456.2" height="547.9"/>
<path id="SVGID_x5F_10_x5F_" class="st1" d="M430,127.3c37.8,57.2,59.5,129.6,59.5,198.7c0,68.2-19.5,130.3-54.9,174.6
	c-34.9,43.7-82.7,67.8-134.6,67.8s-99.7-24.1-134.6-67.8c-35.4-44.3-54.9-106.3-54.9-174.6c0-68.2,22.4-140.6,61.4-198.6
	c38-56.5,85.8-90.2,128.1-90.2C344,37.2,392.6,70.9,430,127.3z"/>
<text><textPath  xlink:href="#SVGID_x5F_10_x5F_" startOffset="2866.5039%">
<tspan  style="fill:#FFFFFF; font-family:'MuseoSans-700'; font-size:14px; letter-spacing:60;">PLANO ORGANIZACIONAL</tspan></textPath>
</text>
<path id="SVGID_x5F_11_x5F_" class="st1" d="M430,127.3c37.8,57.2,59.5,129.6,59.5,198.7c0,68.2-19.5,130.3-54.9,174.6
	c-34.9,43.7-82.7,67.8-134.6,67.8s-99.7-24.1-134.6-67.8c-35.4-44.3-54.9-106.3-54.9-174.6c0-68.2,22.4-140.6,61.4-198.6
	c38-56.5,85.8-90.2,128.1-90.2C344,37.2,392.6,70.9,430,127.3z"/>
<text><textPath  xlink:href="#SVGID_x5F_11_x5F_" startOffset="2396.2891%">
<tspan  style="fill:#FFFFFF; font-family:'MuseoSans-700'; font-size:14px; letter-spacing:60;">PLANO ORIGINAL</tspan></textPath>
</text>
<path id="SVGID_x5F_12_x5F_" class="st1" d="M430,127.3c37.8,57.2,59.5,129.6,59.5,198.7c0,68.2-19.5,130.3-54.9,174.6
	c-34.9,43.7-82.7,67.8-134.6,67.8s-99.7-24.1-134.6-67.8c-35.4-44.3-54.9-106.3-54.9-174.6c0-68.2,22.4-140.6,61.4-198.6
	c38-56.5,85.8-90.2,128.1-90.2C344,37.2,392.6,70.9,430,127.3z"/>
<text><textPath  xlink:href="#SVGID_x5F_12_x5F_" startOffset="10820.21%">
<tspan  style="fill:#FFFFFF; font-family:'MuseoSans-700'; font-size:14px; letter-spacing:60;">PLANO EXISTENCIAL</tspan></textPath>
</text>
<g id="ki7T7q_1_">
	
		<image style="overflow:visible;" width="1536" height="1670" id="ki7T7q" xlink:href="8718B94B77DAA5F9.png"  transform="matrix(0.5 0 0 0.5 708.7966 -79.0157)">
	</image>
</g>
</svg>
