<svg version="1.1" class="egg-text-1" xmlns="http://www.w3.org/2000/svg" xmlns:xlink="http://www.w3.org/1999/xlink" x="0px" y="0px" viewBox="0 0 600 600" style="enable-background:new 0 0 600 600;" xml:space="preserve">
	<style type="text/css">
	.st0{fill:white; stroke-width:0px;}
</style>
	<g class="g1">

		<path class="st0" d="M251.2,261.2l0.1-1.1l6.3,0.8l-0.1,1.1L251.2,261.2z" />
		<path class="st0" d="M251.5,259.2l0.1-1.1l4-1.7c0.4-0.2,1-0.4,1-0.4l0,0c0,0-0.6,0-1-0.1l-3.7-0.5l0.1-1.1l6.3,0.9l-0.1,1.1
			l-3.9,1.7c-0.4,0.2-1,0.4-1,0.4l0,0c0,0,0.6,0,1,0.1l3.6,0.5l-0.1,1.1L251.5,259.2z" />
		<path class="st0" d="M252.3,253.4l0.2-1.1l4-1.6c0.4-0.2,1.1-0.3,1.1-0.3l0,0c0,0-0.6,0-1-0.1l-3.6-0.6l0.2-1l6.3,1l-0.2,1l-4,1.6
			c-0.4,0.2-1.1,0.3-1.1,0.3l0,0c0,0,0.6,0,1,0.1l3.6,0.6l-0.2,1.1L252.3,253.4z" />
		<path class="st0" d="M253.2,247.7l0.6-3.5l1,0.2l-0.4,2.4l1.6,0.3l0.3-2l1,0.2l-0.3,2l1.7,0.3l0.4-2.5l1,0.2l-0.6,3.6L253.2,247.7
			z" />
		<path class="st0" d="M253.9,243.5l0.4-1.9c0.1-0.6,0.2-0.9,0.4-1.1c0.4-0.5,1.1-0.8,1.9-0.6c0.8,0.1,1.4,0.6,1.5,1.3l0,0
			c0,0,0.1-0.1,0.3-0.1l2.6-0.7l-0.2,1.2l-2.6,0.7l-0.2,1l2.3,0.4l-0.2,1L253.9,243.5z M257.2,242.1c0.1-0.6-0.2-1-0.8-1.1
			c-0.6-0.1-1,0-1.2,0.9l-0.2,0.8l2,0.4L257.2,242.1z" />
		<path class="st0" d="M259.8,238c0,0,0.8-0.5,1-1.3c0.1-0.4-0.1-0.9-0.6-1c-1.1-0.2-1.5,2.5-3.4,2.1c-1-0.2-1.6-1.2-1.4-2.3
			c0.2-1.1,1-1.6,1-1.6l0.8,0.7c0,0-0.7,0.4-0.8,1.2c-0.1,0.5,0.1,0.9,0.6,1c1.1,0.2,1.4-2.5,3.4-2.1c1,0.2,1.7,1.1,1.4,2.3
			c-0.3,1.3-1.3,1.8-1.3,1.8L259.8,238z" />
		<path class="st0" d="M256,233.1l0.8-3.4l1,0.2l-0.6,2.4l1.6,0.4l0.5-1.9l1,0.2l-0.5,1.9l1.7,0.4l0.6-2.5l1,0.2l-0.8,3.6L256,233.1
			z" />
		<path class="st0" d="M257.6,226.5c0.4-1.4,1.4-1.9,1.4-1.9l0.7,0.7c0,0-0.8,0.5-1.1,1.4c-0.3,1.2,0.5,2.2,1.6,2.5
			c1.2,0.3,2.4-0.2,2.7-1.3c0.3-1-0.4-1.9-0.4-1.9l1-0.3c0,0,0.8,1,0.4,2.5c-0.5,1.7-2.2,2.6-4,2.1
			C258.2,229.7,257.1,228.1,257.6,226.5z" />
		<path class="st0" d="M258.4,223.9l0.3-1l3.9,1.1c0.8,0.2,1.4-0.1,1.6-0.9s-0.1-1.4-0.9-1.6l-3.9-1.1l0.3-1l3.9,1.1
			c1.4,0.4,2,1.6,1.7,2.9c-0.4,1.4-1.6,2-3,1.6L258.4,223.9z" />
		<path class="st0" d="M260,218.3l0.6-1.8c0.2-0.6,0.3-0.9,0.5-1.1c0.5-0.5,1.1-0.6,2-0.4c0.7,0.2,1.3,0.8,1.4,1.5l0,0
			c0,0,0.1-0.1,0.4-0.1l2.6-0.4l-0.4,1.1l-2.6,0.4l-0.3,1l2.3,0.7l-0.3,1L260,218.3z M263.4,217.3c0.2-0.5-0.1-1-0.7-1.2
			c-0.6-0.2-1-0.1-1.3,0.7l-0.2,0.8l1.9,0.6L263.4,217.3z" />
		<path class="st0" d="M261.5,213.5l0.3-1l6.1,2l-0.3,1L261.5,213.5z" />
		<path class="st0" d="M263.6,210.6l-0.7,1.8l-0.9-0.3l1.7-4.6l0.9,0.3l-0.7,1.8l5.1,1.8l-0.4,1L263.6,210.6z" />
		<path class="st0" d="M267.8,207l-4.2,0.5l0.4-1.1l2.1-0.2c0.4,0,0.9,0,0.9,0l0,0c0,0-0.4-0.3-0.7-0.6L265,204l0.4-1.1l2.7,3.2
			l2.5,1l-0.4,1L267.8,207z" />

	</g>
	<g class="g2">
		<path class="st0" d="M317.7,337.5l1.1-0.1l0.5,5.4l2.5-0.3l0.1,1l-3.6,0.4L317.7,337.5z" />
		<path class="st0" d="M321.6,337.1l1.1-0.1l0.7,6.3l-1.1,0.1L321.6,337.1z" />
		<path class="st0" d="M323.8,336.8l1.1-0.2l1.6,3c0.2,0.4,0.4,0.9,0.4,0.9l0,0c0,0,0.1-0.6,0.2-1l0.7-3.3l1.1-0.2l1.3,6.3l-1.1,0.1
		l-0.7-3.5c-0.1-0.4-0.1-1-0.1-1l0,0c0,0-0.1,0.6-0.2,1l-0.6,2.6l-0.9,0.1l-1.3-2.3c-0.2-0.3-0.5-0.9-0.5-0.9l0,0c0,0,0.1,0.6,0.1,1
		l0.2,3.6l-1.1,0.1L323.8,336.8z" />
		<path class="st0" d="M330.2,335.9l1.1-0.2l1,6.3l-1.1,0.2L330.2,335.9z" />
		<path class="st0" d="M333.5,336.4l-1.9,0.3l-0.2-1l4.9-0.8l0.2,1l-1.9,0.3l0.9,5.3l-1.1,0.2L333.5,336.4z" />
	</g>
	<g class="g3">
		<path class="st0" d="M305,318.6l2.3-0.1c1.1,0,1.9,0.8,1.9,2c0,1.2-0.7,2.1-1.8,2.2l-1.2,0l0.1,2.2l-1.1,0L305,318.6z M307.2,321.7
		c0.6,0,1-0.5,1-1.1c0-0.7-0.4-1.1-1-1.1l-1,0l0.1,2.2L307.2,321.7z" />
		<path class="st0" d="M309.6,318.5l1.9-0.1c0.6,0,0.9,0,1.2,0.1c0.6,0.3,1,0.8,1.1,1.7c0,0.8-0.3,1.5-0.9,1.8l0,0
		c0,0,0.1,0.1,0.2,0.3l1.3,2.3l-1.2,0.1l-1.3-2.3l-1,0.1l0.1,2.4l-1.1,0.1L309.6,318.5z M311.8,321.4c0.6,0,0.9-0.4,0.9-1.1
		c0-0.6-0.3-1-1.1-0.9l-0.8,0l0.1,2L311.8,321.4z" />
		<path class="st0" d="M314.5,318.2l3.5-0.3l0.1,1l-2.4,0.2l0.1,1.7l2-0.2l0.1,1l-2,0.2l0.2,1.7l2.6-0.2l0.1,1l-3.6,0.3L314.5,318.2z
		" />
		<path class="st0" d="M319.4,322.5c0,0,0.7,0.6,1.5,0.5c0.4-0.1,0.8-0.3,0.8-0.9c-0.1-1.1-2.9-0.6-3.1-2.6c-0.1-1.1,0.6-1.9,1.7-2.1
		c1.2-0.1,1.8,0.5,1.8,0.5l-0.4,1c0,0-0.6-0.5-1.4-0.4c-0.5,0.1-0.8,0.4-0.8,0.9c0.1,1.1,2.8,0.5,3.1,2.6c0.1,1-0.5,1.9-1.7,2.1
		c-1.3,0.2-2.1-0.6-2.1-0.6L319.4,322.5z" />
		<path class="st0" d="M323.5,322c0,0,0.7,0.6,1.5,0.5c0.4-0.1,0.8-0.4,0.7-0.9c-0.2-1.1-2.9-0.5-3.2-2.5c-0.1-1.1,0.6-2,1.7-2.1
		c1.1-0.2,1.8,0.4,1.8,0.4l-0.3,1c0,0-0.6-0.5-1.4-0.4c-0.5,0.1-0.8,0.4-0.8,0.9c0.2,1.1,2.9,0.5,3.1,2.5c0.1,1-0.4,2-1.7,2.1
		c-1.3,0.2-2.1-0.6-2.1-0.6L323.5,322z" />
		<path class="st0" d="M326.5,316.8l1.1-0.2l0.7,4c0.1,0.8,0.7,1.2,1.5,1.1c0.8-0.1,1.2-0.7,1.1-1.6l-0.7-4l1.1-0.2l0.7,4
		c0.2,1.4-0.5,2.5-1.9,2.8c-1.4,0.2-2.5-0.6-2.8-2L326.5,316.8z" />
		<path class="st0" d="M331.9,315.8l1.9-0.4c0.6-0.1,0.9-0.1,1.2-0.1c0.6,0.2,1.1,0.7,1.3,1.5c0.2,0.8-0.1,1.5-0.6,1.9l0,0
		c0,0,0.1,0.1,0.3,0.3l1.7,2.1l-1.2,0.2l-1.6-2.1l-1,0.2l0.5,2.3l-1,0.2L331.9,315.8z M334.4,318.4c0.6-0.1,0.8-0.5,0.7-1.2
		c-0.1-0.6-0.4-0.9-1.3-0.8l-0.8,0.2l0.4,2L334.4,318.4z" />
		<path class="st0" d="M336.5,314.9l3.4-0.8l0.2,1l-2.4,0.6l0.4,1.6l1.9-0.5l0.2,1l-1.9,0.5l0.4,1.7l2.5-0.6l0.2,1l-3.6,0.8
		L336.5,314.9z" />
	</g>
	<g class="g4">

		<path class="st0" d="M300.4,299.4l2.3,0.1c1.1,0,1.8,0.9,1.8,2.1s-0.8,2.1-1.9,2l-1.2,0l-0.1,2.2l-1.1,0L300.4,299.4z
			 M302.4,302.7c0.6,0,1-0.4,1-1.1c0-0.7-0.3-1.1-0.9-1.1l-1,0l-0.1,2.2L302.4,302.7z" />
		<path class="st0" d="M307.5,299.3c1.7-0.1,3.1,1.3,3.2,3.1c0.1,1.9-1.2,3.4-2.9,3.5s-3.1-1.3-3.2-3.2
			C304.5,300.9,305.8,299.4,307.5,299.3z M307.7,304.9c1.1,0,1.9-1,1.8-2.4c-0.1-1.3-0.9-2.2-2-2.1s-1.9,1-1.8,2.3
			C305.7,304,306.6,304.9,307.7,304.9z" />
		<path class="st0" d="M316.2,303c0.1,0.4,0.2,0.7,0.2,0.7l0,0c0,0,0-0.3,0-0.7l0.4-4.5l1.1-0.1l-0.6,6.5l-1.2,0.2l-1.4-3.6
			c-0.2-0.4-0.3-0.8-0.3-0.8l0,0c0,0,0,0.4,0,0.8l-0.4,3.9l-1.2,0.2l-2.3-6.1l1.1-0.1l1.5,4.3c0.1,0.3,0.2,0.7,0.2,0.7l0,0
			c0,0,0-0.3,0-0.7l0.5-4.5l0.9-0.1L316.2,303z" />
		<path class="st0" d="M318.2,298.2l3.4-0.8l0.2,1l-2.4,0.5l0.4,1.6l1.9-0.4l0.2,1l-1.9,0.4l0.4,1.7l2.5-0.6l0.2,1l-3.6,0.8
			L318.2,298.2z" />
		<path class="st0" d="M322.3,297.3l1.8-0.5c0.6-0.2,0.9-0.2,1.2-0.2c0.6,0.1,1.2,0.6,1.4,1.4c0.2,0.7,0.1,1.5-0.5,2l0,0
			c0,0,0.1,0.1,0.3,0.2l1.8,1.9l-1.1,0.3l-1.8-2l-1,0.3l0.7,2.3l-1,0.3L322.3,297.3z M325.1,299.6c0.5-0.2,0.8-0.6,0.6-1.2
			c-0.2-0.6-0.5-0.9-1.3-0.6l-0.8,0.2l0.6,1.9L325.1,299.6z" />

	</g>
	<g class="g5">
		<path class="st0" d="M276.7,288.6l-0.2,1.9l-1-0.1l0.5-4.9l1,0.1l-0.2,1.9l5.4,0.5l-0.1,1.1L276.7,288.6z" />
		<path class="st0" d="M276.1,284.9l0.2-1.9c0.1-0.6,0.2-0.9,0.3-1.2c0.4-0.5,1-0.8,1.8-0.7c0.8,0.1,1.4,0.6,1.6,1.2l0,0
		c0,0,0.1-0.1,0.3-0.2l2.5-0.9l-0.1,1.2l-2.5,0.9l-0.1,1l2.4,0.3l-0.1,1.1L276.1,284.9z M279.3,283.2c0.1-0.6-0.3-1-0.9-1
		c-0.6-0.1-1,0.1-1.1,0.9l-0.1,0.8l2,0.2L279.3,283.2z" />
		<path class="st0" d="M281.9,277.4l-0.3,2l1.5,0.7l-0.2,1.1l-6-3l0.2-1.1l6.6-1.1l-0.2,1.1L281.9,277.4z M278.1,277.9
		c0,0,0.6,0.2,0.9,0.4l1.6,0.8l0.2-1.5l-1.8,0.3C278.8,277.9,278.1,277.9,278.1,277.9L278.1,277.9z" />
		<path class="st0" d="M277.5,274.5l0.2-1l4-1.5c0.4-0.2,1.1-0.3,1.1-0.3l0,0c0,0-0.6-0.1-1-0.1l-3.6-0.7l0.2-1l6.3,1.2l-0.2,1
		l-4,1.5c-0.4,0.2-1.1,0.3-1.1,0.3l0,0c0,0,0.6,0.1,1,0.1l3.6,0.7l-0.2,1L277.5,274.5z" />
		<path class="st0" d="M279.2,265.9c0.4-1.7,2.1-2.6,3.9-2.2c0.8,0.2,1.4,0.6,1.8,1.1l0.8-0.5l0.6,0.8l-0.8,0.5
		c0.3,0.6,0.4,1.2,0.2,1.9c-0.4,1.7-2.1,2.6-3.9,2.2C279.9,269.1,278.8,267.5,279.2,265.9z M284.6,267.1c0.1-0.3,0-0.8-0.1-1.1
		l-0.8,0.5l-0.6-0.8l0.8-0.5c-0.3-0.3-0.7-0.5-1.1-0.6c-1.2-0.3-2.3,0.3-2.6,1.4c-0.2,1,0.5,2.1,1.7,2.4
		C283.2,268.8,284.3,268.2,284.6,267.1z" />
		<path class="st0" d="M280.2,262l0.3-1l3.9,1.1c0.8,0.2,1.4-0.1,1.6-0.9c0.2-0.8-0.1-1.4-0.9-1.6l-3.9-1.1l0.3-1l3.9,1.1
		c1.4,0.4,2.1,1.6,1.7,2.9c-0.4,1.4-1.6,2-3,1.6L280.2,262z" />
		<path class="st0" d="M281.9,256.2l0.3-1l6.1,1.9l-0.3,1L281.9,256.2z" />
		<path class="st0" d="M282.6,253.9l0.4-1l5.1,1.8l0.8-2.4l0.9,0.3l-1.2,3.4L282.6,253.9z" />
		<path class="st0" d="M284.1,249.8l0.4-1l6,2.3l-0.4,1L284.1,249.8z" />
		<path class="st0" d="M286.4,246.8l-0.8,1.8l-0.9-0.4l1.9-4.5l0.9,0.4l-0.8,1.8l5,2.1l-0.4,1L286.4,246.8z" />
		<path class="st0" d="M290.9,243.4l-4.2,0.1l0.5-1.1l2.1,0c0.4,0,0.9,0.1,0.9,0.1l0,0c0,0-0.3-0.4-0.6-0.7l-1.3-1.7l0.5-1.1l2.5,3.4
		l2.4,1.2l-0.5,1L290.9,243.4z" />
	</g>
	<g class="g6">

		<path class="st0" d="M322.3,239.7l-1.6-1.4l-1.5,0.9l-0.8-0.7l5.8-3.4l0.8,0.7l-2.6,6.2l-0.8-0.7L322.3,239.7z M323.9,236.3
			c0,0-0.5,0.4-0.8,0.6l-1.5,0.9l1.2,1l0.7-1.6C323.6,236.8,324,236.3,323.9,236.3L323.9,236.3z" />
		<path class="st0" d="M327,239l-1.3-1.4l0.7-0.7l3.4,3.6l-0.7,0.7l-1.3-1.4l-3.9,3.7l-0.7-0.8L327,239z" />
		<path class="st0" d="M330.3,242.8l-1.2-1.5l0.8-0.6l3,3.9l-0.8,0.6l-1.2-1.5l-4.3,3.3l-0.7-0.8L330.3,242.8z" />
		<path class="st0" d="M333.2,245.1l1.9,2.9l-0.8,0.6l-1.4-2l-1.4,0.9l1.1,1.7l-0.8,0.6l-1.1-1.7l-1.4,0.9l1.4,2.2l-0.8,0.6l-2-3
			L333.2,245.1z" />
		<path class="st0" d="M335.7,249l0.5,0.9l-2.1,3.8c-0.2,0.4-0.6,0.9-0.6,0.9l0,0c0,0,0.5-0.4,0.8-0.5l3.2-1.8l0.5,0.9l-5.6,3.1
			l-0.5-0.9l2.1-3.8c0.2-0.4,0.6-0.9,0.6-0.9l0,0c0,0-0.5,0.4-0.8,0.5l-3.2,1.8l-0.5-0.9L335.7,249z" />
		<path class="st0" d="M338.3,255.8l-0.8-1.7l0.9-0.4l2.2,4.4l-0.9,0.4l-0.8-1.7l-4.8,2.4l-0.5-1L338.3,255.8z" />
		<path class="st0" d="M340.7,258.5l0.4,1l-5.8,2.6l-0.4-1L340.7,258.5z" />
		<path class="st0" d="M342.7,262.9c0.7,1.6-0.2,3.4-1.8,4.1c-1.7,0.7-3.6,0.1-4.3-1.5c-0.7-1.6,0.2-3.4,1.9-4.1
			C340.2,260.7,342.1,261.3,342.7,262.9z M337.6,265c0.4,1,1.6,1.4,2.9,0.9c1.2-0.5,1.7-1.6,1.3-2.6c-0.4-1-1.6-1.4-2.8-0.9
			C337.8,262.9,337.2,264,337.6,265z" />
		<path class="st0" d="M344.1,266.5l0.4,1l-2.7,3.4c-0.3,0.3-0.8,0.8-0.8,0.8l0,0c0,0,0.6-0.3,0.9-0.4l3.5-1.3l0.4,1l-6,2.2l-0.4-1
			l2.7-3.4c0.3-0.3,0.8-0.8,0.8-0.8l0,0c0,0-0.6,0.3-0.9,0.4l-3.5,1.3l-0.4-1L344.1,266.5z" />

	</g>
	<g class="g7">

		<path class="st0" d="M355.4,181.1c1,1,0.9,2.1,0.9,2.1l-1,0.3c0,0,0-1-0.7-1.6c-0.9-0.9-2.1-0.7-2.9,0.2c-0.9,0.9-1.1,2.2-0.2,3
			c0.7,0.7,1.8,0.6,1.8,0.6l-0.2,1c0,0-1.3,0.2-2.4-0.9c-1.3-1.3-1.2-3.2,0.2-4.5C352.3,180,354.2,179.9,355.4,181.1z" />
		<path class="st0" d="M359.3,185.2c1.2,1.3,1,3.2-0.4,4.4c-1.4,1.3-3.4,1.3-4.5,0c-1.2-1.3-1-3.2,0.4-4.5
			C356.2,184,358.2,184,359.3,185.2z M355.3,189c0.7,0.8,2,0.8,3-0.1c0.9-0.9,1-2.1,0.3-2.9c-0.7-0.8-2-0.8-2.9,0
			C354.7,186.9,354.5,188.2,355.3,189z" />
		<path class="st0" d="M361.9,188.2l0.7,0.8l-1.4,4.1c-0.1,0.4-0.5,1-0.5,1l0,0c0,0,0.4-0.4,0.7-0.7l2.9-2.3l0.7,0.8L360,196
			l-0.7-0.8l1.4-4.1c0.1-0.4,0.5-1,0.5-1l0,0c0,0-0.4,0.4-0.7,0.7l-2.8,2.3l-0.7-0.8L361.9,188.2z" />
		<path class="st0" d="M367.3,194.9c0.9,1.1,0.6,2.3,0.6,2.3l-1,0.1c0,0,0.1-0.9-0.4-1.7c-0.7-1-2-1-2.9-0.3c-1,0.7-1.4,2-0.6,3
			c0.6,0.8,1.7,0.9,1.7,0.9l-0.3,1c0,0-1.3,0-2.2-1.2c-1.1-1.4-0.7-3.3,0.8-4.4C364.4,193.3,366.3,193.5,367.3,194.9z" />
		<path class="st0" d="M369,197.4l2,2.9l-0.8,0.6l-1.4-2l-1.4,1l1.1,1.6l-0.8,0.6l-1.1-1.6l-1.4,1l1.5,2.1l-0.8,0.6l-2.1-3
			L369,197.4z" />
		<path class="st0" d="M371.5,201.1l0.6,0.9l-1.9,3.9c-0.2,0.4-0.6,0.9-0.6,0.9l0,0c0,0,0.5-0.4,0.8-0.6l3.1-2l0.6,0.9l-5.4,3.5
			l-0.6-0.9l1.9-3.9c0.2-0.4,0.6-0.9,0.6-0.9l0,0c0,0-0.5,0.4-0.8,0.6l-3.1,2l-0.6-0.9L371.5,201.1z" />
		<path class="st0" d="M374.5,207.7l-1-1.7l0.9-0.5l2.5,4.2l-0.9,0.5l-1-1.7l-4.6,2.8l-0.5-0.9L374.5,207.7z" />
		<path class="st0" d="M377.1,210.1l0.9,1.7c0.3,0.6,0.4,0.8,0.4,1.1c0,0.7-0.3,1.3-1.1,1.7c-0.7,0.4-1.5,0.4-2,0l0,0
			c0,0,0,0.1-0.2,0.3l-1.5,2.2l-0.6-1l1.5-2.2l-0.5-0.9l-2.1,1.2l-0.5-0.9L377.1,210.1z M375.5,213.4c0.3,0.5,0.8,0.6,1.3,0.3
			c0.5-0.3,0.8-0.7,0.3-1.4l-0.4-0.7l-1.7,1L375.5,213.4z" />
		<path class="st0" d="M376.7,219.4l-1-1.8l-1.7,0.3l-0.5-1l6.6-1.1l0.5,1l-4.7,4.8l-0.5-1L376.7,219.4z M379.5,216.8
			c0,0-0.6,0.2-1,0.2l-1.8,0.3l0.7,1.4l1.3-1.2C379,217.2,379.5,216.8,379.5,216.8L379.5,216.8z" />
		<path class="st0" d="M381.3,220.2l-0.8-1.7l0.9-0.4l2.2,4.4l-0.9,0.4l-0.8-1.7l-4.8,2.4l-0.5-1L381.3,220.2z" />
		<path class="st0" d="M383.7,222.9l0.5,1l-5.8,2.7l-0.5-1L383.7,222.9z" />
		<path class="st0" d="M385.8,227.1c0.7,1.6-0.1,3.4-1.8,4.1c-1.7,0.8-3.6,0.2-4.3-1.4c-0.7-1.6,0.1-3.4,1.8-4.1
			C383.2,224.9,385.1,225.5,385.8,227.1z M380.7,229.3c0.4,1,1.7,1.4,2.9,0.8c1.2-0.5,1.7-1.7,1.2-2.7c-0.4-1-1.6-1.4-2.8-0.9
			C380.8,227.2,380.2,228.4,380.7,229.3z" />
		<path class="st0" d="M387.1,230.5l0.4,1l-2.6,3.5c-0.3,0.3-0.7,0.8-0.7,0.8l0,0c0,0,0.5-0.3,0.9-0.4l3.4-1.4l0.4,1l-5.9,2.4
			l-0.4-1l2.6-3.5c0.3-0.3,0.7-0.8,0.7-0.8l0,0c0,0-0.5,0.3-0.9,0.4l-3.4,1.4l-0.4-1L387.1,230.5z" />

	</g>
	<g class="g8">

		<path class="st0" d="M401.6,158.6l0.6,1l-2.1,2.7c-0.2,0.3-0.6,0.8-0.6,0.8l0,0c0,0,0.6-0.2,0.9-0.3l3.3-0.7l0.6,1l-5.2,3.8
			l-0.6-0.9l2.9-2.1c0.3-0.2,0.8-0.5,0.8-0.5l0,0c0,0-0.6,0.2-1,0.3l-2.6,0.5l-0.5-0.8l1.6-2.1c0.2-0.3,0.7-0.8,0.7-0.8l0,0
			c0,0-0.5,0.3-0.8,0.5l-3.2,1.7l-0.6-0.9L401.6,158.6z" />
		<path class="st0" d="M405.1,164.1l1.8,3l-0.9,0.5l-1.3-2.1l-1.4,0.9l1,1.7l-0.9,0.5l-1-1.7l-1.5,0.9l1.3,2.2l-0.9,0.5l-1.9-3.1
			L405.1,164.1z" />
		<path class="st0" d="M407.4,168l0.6,1l-2.2,2.6c-0.3,0.3-0.7,0.7-0.7,0.7l0,0c0,0,0.6-0.1,1-0.2l3.3-0.6l0.6,1l-5.3,3.6l-0.5-0.9
			l3-2c0.4-0.2,0.9-0.5,0.9-0.5l0,0c0,0-0.6,0.2-1,0.2l-2.6,0.4l-0.5-0.8l1.7-2c0.2-0.3,0.7-0.8,0.7-0.8l0,0c0,0-0.5,0.3-0.9,0.5
			l-3.2,1.6l-0.5-0.9L407.4,168z" />
		<path class="st0" d="M412,176c0.8,1.5,0.2,3.4-1.4,4.2c-1.7,0.9-3.6,0.4-4.4-1.1c-0.8-1.5-0.2-3.4,1.5-4.3
			C409.3,174,411.1,174.4,412,176z M407.1,178.6c0.5,0.9,1.8,1.2,2.9,0.6c1.1-0.6,1.5-1.8,1-2.7c-0.5-0.9-1.7-1.3-2.9-0.7
			C407,176.4,406.6,177.6,407.1,178.6z" />
		<path class="st0" d="M413.6,179.2l0.9,1.7c0.3,0.6,0.4,0.9,0.4,1.1c0,0.7-0.4,1.3-1.1,1.7c-0.7,0.4-1.5,0.3-2-0.1l0,0
			c0,0,0,0.1-0.2,0.3l-1.6,2.2l-0.5-1.1l1.6-2.1l-0.5-0.9l-2.1,1.1l-0.5-1L413.6,179.2z M411.8,182.4c0.3,0.5,0.8,0.7,1.3,0.4
			c0.5-0.3,0.8-0.7,0.4-1.4l-0.4-0.7l-1.8,0.9L411.8,182.4z" />
		<path class="st0" d="M413,186.3l2.5-3.4l0.5,1.1l-1.3,1.7c-0.3,0.3-0.6,0.7-0.6,0.7l0,0c0,0,0.5-0.1,0.9-0.1l2.1,0l0.5,1.1
			l-4.2-0.1l-2.4,1.2l-0.5-1L413,186.3z" />

	</g>
	<g class="g9">

		<path class="st0" d="M222.6,220.4l0.7-3.5l1,0.2l-0.5,2.4l1.6,0.3l0.4-1.9l1,0.2l-0.4,1.9l1.7,0.3l0.5-2.5l1,0.2l-0.7,3.6
			L222.6,220.4z" />
		<path class="st0" d="M223.8,213.7c0.4-1.7,2-2.7,3.8-2.3c0.8,0.2,1.4,0.5,1.9,1l0.8-0.5l0.6,0.7l-0.8,0.5c0.3,0.6,0.4,1.2,0.3,1.9
			c-0.3,1.7-2.1,2.7-3.9,2.3C224.6,216.9,223.5,215.3,223.8,213.7z M229.3,214.8c0.1-0.3,0-0.8-0.1-1.1l-0.8,0.5l-0.6-0.7l0.8-0.5
			c-0.3-0.3-0.7-0.5-1.1-0.6c-1.2-0.3-2.3,0.4-2.6,1.5c-0.2,1.1,0.5,2.1,1.8,2.3C227.9,216.5,229.1,215.8,229.3,214.8z" />
		<path class="st0" d="M224.7,210.1l0.2-1l4,0.9c0.8,0.2,1.4-0.2,1.6-1c0.2-0.8-0.2-1.4-1-1.6l-4-0.9l0.2-1l4,0.9
			c1.4,0.3,2.1,1.5,1.8,2.8c-0.3,1.4-1.5,2.1-2.9,1.8L224.7,210.1z" />
		<path class="st0" d="M226,204.6l0.2-1l6.2,1.5l-0.2,1L226,204.6z" />
		<path class="st0" d="M226.4,202.5l0.3-1l5.2,1.3l0.6-2.5l1,0.2l-0.9,3.5L226.4,202.5z" />
		<path class="st0" d="M227.4,198.7l0.3-1l6.2,1.6l-0.3,1L227.4,198.7z" />
		<path class="st0" d="M227.9,196.6l0.5-2c0.3-1,1-1.6,2.1-1.3c0.6,0.2,1,0.5,1.1,1l0,0c0.4-0.6,1.1-0.7,1.7-0.5
			c1.2,0.3,1.5,1.4,1.3,2.4l-0.5,2.1L227.9,196.6z M231,195.3c0.1-0.4-0.2-0.8-0.6-0.9c-0.4-0.1-0.8,0-1,0.5l-0.3,1l1.6,0.4
			L231,195.3z M233.7,195.9c0.1-0.5-0.2-0.9-0.7-1.1c-0.5-0.1-1,0.1-1.1,0.6l-0.3,1.1l1.8,0.5L233.7,195.9z" />
		<path class="st0" d="M229.2,192l0.5-1.8c0.2-0.6,0.3-0.9,0.5-1.1c0.4-0.5,1.1-0.7,1.9-0.4c0.7,0.2,1.3,0.8,1.4,1.4l0,0
			c0,0,0.1-0.1,0.4-0.1l2.6-0.5l-0.3,1.1l-2.6,0.5l-0.3,1l2.3,0.7l-0.3,1L229.2,192z M232.6,190.8c0.2-0.5-0.1-1-0.7-1.2
			c-0.6-0.2-1,0-1.2,0.8l-0.2,0.8l1.9,0.5L232.6,190.8z" />
		<path class="st0" d="M230.5,187.2l0.3-1l6.1,1.8l-0.3,1L230.5,187.2z" />
		<path class="st0" d="M231.1,185.3l0.3-1l3.9,1.2c0.8,0.3,1.4-0.1,1.7-0.8c0.2-0.8-0.1-1.4-0.9-1.6l-3.9-1.2l0.3-1l3.9,1.2
			c1.4,0.4,2,1.6,1.6,3c-0.4,1.4-1.6,2-3,1.6L231.1,185.3z" />
		<path class="st0" d="M232.9,179.6l0.4-1.1l3.4-0.1c0.4,0,1,0,1,0l0,0c0,0-0.5-0.3-0.8-0.6l-2.6-2.1l0.4-1.1l6.2,1.6l-0.3,1
			l-3.5-0.9c-0.4-0.1-0.9-0.3-0.9-0.3l0,0c0,0,0.5,0.4,0.8,0.6l2,1.7l-0.3,0.9l-2.6,0.1c-0.4,0-1,0-1,0l0,0c0,0,0.6,0.2,0.9,0.3
			l3.3,1.4l-0.3,1L232.9,179.6z" />

	</g>
	<g class="g10">
		<path class="st0" d="M397.2,538.7c2.4-1.7,5.5-1.2,7.1,1.1c1.7,2.4,1.2,5.5-1.2,7.2c-2.4,1.7-5.5,1.1-7.2-1.3
		C394.3,543.5,394.8,540.4,397.2,538.7z M402.2,545.7c1.5-1.1,1.8-3.1,0.6-4.8c-1.1-1.6-3.2-1.9-4.7-0.9c-1.5,1.1-1.8,3.1-0.7,4.7
		C398.6,546.4,400.7,546.8,402.2,545.7z" />
		<path class="st0" d="M403.5,534.2l2.5-2c0.8-0.7,1.3-0.9,1.7-1c1.1-0.3,2.1,0.1,3,1.1c0.7,0.9,1,2.2,0.4,3.2l0,0c0,0,0.2,0,0.6,0.2
		l3.9,1.6l-1.6,1.3l-3.9-1.6l-1.3,1.1l2.3,2.9l-1.4,1.1L403.5,534.2z M409.1,535.7c0.8-0.6,0.9-1.4,0.2-2.2
		c-0.6-0.7-1.3-0.9-2.4-0.1l-1.1,0.9l2,2.4L409.1,535.7z" />
		<path class="st0" d="M414.4,524.8c1.8-1.6,3.6-1.6,3.6-1.6l0.2,1.6c0,0-1.4,0-2.6,1.1c-1.6,1.5-1.5,3.4-0.2,4.8
		c1.5,1.6,3.5,1.6,4.9,0.4c1.1-1,1.1-2.4,1.1-2.4l-0.8-0.9l-1.1,1l-1-1.2l2.3-2.1l3.5,3.9l-1.1,1l-0.3-0.4c-0.1-0.2-0.3-0.3-0.3-0.3
		l0,0c0,0-0.1,1.5-1.4,2.7c-1.9,1.8-5,1.8-7.1-0.5C412.1,529.9,412.2,526.8,414.4,524.8z" />
		<path class="st0" d="M428.3,521.8l-2.5,2.5l1.2,2.4l-1.3,1.3l-4.6-9.5l1.3-1.3l9.5,4.5l-1.3,1.3L428.3,521.8z M423,519.1
		c0,0,0.5,0.8,0.8,1.4l1.3,2.5l1.8-1.9l-2.5-1.2C423.9,519.6,423,519.1,423,519.1L423,519.1z" />
		<path class="st0" d="M426.3,513.2l1.2-1.4l6.8,1c0.7,0.1,1.7,0.4,1.7,0.4l0,0c0,0-0.8-0.6-1.2-1l-4.3-3.8l1.2-1.3l7.4,6.6l-1.2,1.3
		l-6.8-1c-0.7-0.1-1.7-0.4-1.7-0.4l0,0c0,0,0.8,0.6,1.2,1l4.3,3.8l-1.2,1.3L426.3,513.2z" />
		<path class="st0" d="M433.8,504.6l1.1-1.4l7.7,6.3l-1.1,1.4L433.8,504.6z" />
		<path class="st0" d="M443.6,506.5l-2.4-7.3c-0.2-0.7-0.3-1.1-0.3-1.1l0,0c0,0-0.1,0.2-0.4,0.6l-2.5,3.3l-1.2-0.9l4.4-5.7l0.9,0.7
		l2.4,7.3c0.2,0.7,0.3,1.1,0.3,1.1l0,0c0,0,0.1-0.2,0.4-0.6l2.7-3.5l1.2,0.9l-4.5,5.9L443.6,506.5z" />
		<path class="st0" d="M451.6,493.2l-2,2.9l1.6,2.1l-1.1,1.5l-6.2-8.5l1.1-1.6l10.2,2.8l-1.1,1.5L451.6,493.2z M445.9,491.4
		c0,0,0.7,0.7,1,1.2l1.7,2.2l1.5-2.1l-2.7-0.8C446.9,491.8,446,491.4,445.9,491.4L445.9,491.4z" />
		<path class="st0" d="M450.3,484.6l-1.8,2.8l-1.3-0.8l4.5-7l1.3,0.8l-1.8,2.8l7.1,4.5l-1,1.5L450.3,484.6z" />
		<path class="st0" d="M452.8,477.7l0.9-1.6l8.5,5.1l-0.9,1.6L452.8,477.7z" />
		<path class="st0" d="M457.4,469.3c1.4-2.6,4.4-3.4,6.9-2.1c2.6,1.4,3.5,4.4,2.1,7c-1.4,2.6-4.5,3.4-7,2
		C456.9,474.9,456,471.9,457.4,469.3z M464.9,473.4c0.9-1.6,0.2-3.6-1.6-4.6c-1.7-0.9-3.7-0.4-4.6,1.2c-0.9,1.6-0.3,3.6,1.4,4.5
		C462,475.6,464.1,475,464.9,473.4z" />
		<path class="st0" d="M461.1,462.5l0.8-1.6l6.8-0.9c0.7-0.1,1.7-0.1,1.7-0.1l0,0c0,0-0.9-0.3-1.4-0.6l-5.2-2.5l0.8-1.6l8.9,4.3
		l-0.8,1.6l-6.8,0.9c-0.7,0.1-1.7,0.1-1.7,0.1l0,0c0,0,0.9,0.3,1.4,0.6l5.2,2.5l-0.8,1.6L461.1,462.5z" />
		<path class="st0" d="M474.8,450.6l-1.4,3.2l2,1.8l-0.7,1.7l-7.7-7.2l0.8-1.7l10.5,0.7l-0.7,1.7L474.8,450.6z M468.9,449.9
		c0,0,0.8,0.6,1.2,1l2.1,1.9l1-2.4l-2.8-0.2C469.9,450.1,468.9,449.9,468.9,449.9L468.9,449.9z" />
		<path class="st0" d="M469.8,443.2l0.7-1.7l7.8,3.1l1.6-4l1.4,0.6l-2.2,5.7L469.8,443.2z" />
		<path class="st0" d="M474.3,431.5l1.2-3.6c0.6-1.8,2.2-2.6,4.1-2c1.8,0.6,2.7,2.3,2.1,4l-0.7,1.9l3.2,1.1l-0.6,1.7L474.3,431.5z
		 M480.1,429.7c0.3-1-0.1-1.8-1.1-2.1c-1-0.3-1.8,0-2.1,1l-0.6,1.6l3.2,1.1L480.1,429.7z" />
		<path class="st0" d="M477.2,422.5l0.5-1.7l8,2.4l1.3-4.1l1.5,0.5l-1.8,5.8L477.2,422.5z" />
		<path class="st0" d="M488.1,411.4l-0.9,3.4l2.2,1.5L489,418l-8.7-6l0.5-1.8l10.5-0.8l-0.5,1.8L488.1,411.4z M482.2,411.6
		c0,0,0.9,0.5,1.4,0.8l2.3,1.5l0.7-2.5l-2.8,0.2C483.2,411.6,482.2,411.6,482.2,411.6L482.2,411.6z" />
		<path class="st0" d="M482.2,404.8l0.4-1.8l6.4-2.4c0.6-0.2,1.7-0.5,1.7-0.5l0,0c0,0-1-0.1-1.5-0.3l-5.6-1.3l0.4-1.7l9.7,2.2
		l-0.4,1.7l-6.4,2.4c-0.6,0.2-1.7,0.5-1.7,0.5l0,0c0,0,0.9,0.1,1.5,0.3l5.6,1.3l-0.4,1.8L482.2,404.8z" />
	</g>
	<g class="g11">
		<path class="st0" d="M410.1,85.4c2,2.2,1.8,5.3-0.3,7.2c-2.2,2-5.3,1.9-7.3-0.3c-2-2.2-1.8-5.3,0.4-7.3
		C405,83.1,408.2,83.3,410.1,85.4z M403.8,91.2c1.2,1.3,3.3,1.4,4.8,0c1.4-1.3,1.5-3.4,0.3-4.7c-1.2-1.3-3.3-1.4-4.7-0.1
		C402.7,87.8,402.6,89.9,403.8,91.2z" />
		<path class="st0" d="M415.5,91.6l2.1,2.5c0.7,0.8,0.9,1.3,1.1,1.7c0.3,1,0,2.1-1,3c-0.9,0.8-2.2,1-3.2,0.5l0,0c0,0,0,0.2-0.2,0.6
		l-1.5,4l-1.3-1.5l1.6-3.9l-1.1-1.3l-2.8,2.4l-1.2-1.4L415.5,91.6z M414.1,97.2c0.6,0.7,1.4,0.8,2.2,0.2c0.7-0.6,0.9-1.3,0-2.4
		l-0.9-1l-2.4,2L414.1,97.2z" />
		<path class="st0" d="M422,99.5l1.1,1.4l-7.8,6.2l-1.1-1.4L422,99.5z" />
		<path class="st0" d="M428.1,107.2c1.5,1.9,1.2,3.7,1.2,3.7l-1.6,0.1c0,0,0.1-1.4-0.8-2.7c-1.3-1.8-3.3-1.8-4.8-0.7
		c-1.7,1.3-2,3.3-0.8,4.8c0.9,1.2,2.3,1.4,2.3,1.4l0.9-0.7l-0.9-1.2l1.2-0.9l1.9,2.5l-4.2,3.1l-0.9-1.2l0.4-0.3
		c0.2-0.1,0.3-0.2,0.3-0.2l0,0c0,0-1.5-0.2-2.6-1.7c-1.6-2.1-1.3-5.1,1.2-7C423.3,104.4,426.4,104.8,428.1,107.2z" />
		<path class="st0" d="M432.3,113.1l1,1.5l-8.1,5.7l-1-1.5L432.3,113.1z" />
		<path class="st0" d="M435.3,117.5l1,1.5l-2.7,6.3c-0.3,0.6-0.8,1.5-0.8,1.5l0,0c0,0,0.7-0.6,1.2-0.9l4.8-3.2l1,1.5l-8.2,5.5l-1-1.5
		l2.6-6.3c0.3-0.6,0.8-1.5,0.8-1.5l0,0c0,0-0.7,0.6-1.2,0.9l-4.7,3.2l-1-1.5L435.3,117.5z" />
		<path class="st0" d="M438.1,135.4l-1.8-3l-2.6,0.6l-1-1.6l10.3-2.3l1,1.6l-6.6,8.2l-1-1.6L438.1,135.4z M442,130.9
		c0,0-1,0.3-1.5,0.5l-2.7,0.7l1.4,2.2l1.8-2.1C441.3,131.7,442.1,131,442,130.9L442,130.9z" />
		<path class="st0" d="M447,135.8l0.9,1.6l-7.2,4.2l2.2,3.7l-1.3,0.8l-3.1-5.3L447,135.8z" />
		<path class="st0" d="M453.4,147l1.8,3.4c0.9,1.6,0.3,3.4-1.4,4.3c-1.7,0.9-3.5,0.4-4.4-1.2l-1-1.8l-3,1.6l-0.8-1.6L453.4,147z
		 M450.7,152.4c0.5,0.9,1.4,1.2,2.3,0.7c0.9-0.5,1.2-1.3,0.7-2.2l-0.8-1.5l-3,1.6L450.7,152.4z" />
		<path class="st0" d="M457.9,155.5l0.8,1.6l-7.5,3.8l1.9,3.8l-1.4,0.7L449,160L457.9,155.5z" />
		<path class="st0" d="M457.3,171.1l-1.5-3.2l-2.7,0.3l-0.8-1.7l10.5-1.1l0.8,1.7l-7.5,7.4l-0.8-1.7L457.3,171.1z M461.6,167.1
		c0,0-1,0.2-1.6,0.3l-2.8,0.3l1.1,2.4l2-1.9C460.9,167.8,461.7,167.2,461.6,167.1L461.6,167.1z" />
		<path class="st0" d="M466.1,172.6l0.7,1.7L463,180c-0.4,0.6-1.1,1.4-1.1,1.4l0,0c0,0,0.8-0.5,1.4-0.7l5.3-2.3l0.7,1.6l-9.1,4
		l-0.7-1.6l3.7-5.7c0.4-0.6,1.1-1.4,1.1-1.4l0,0c0,0-0.8,0.5-1.4,0.7l-5.2,2.3l-0.7-1.7L466.1,172.6z" />
	</g>
	<g class="g12">
		<path class="st0" d="M112.4,236.4l1.5-5.7l1.5,0.4l-1.1,4l2.5,0.7l0.9-3.2l1.5,0.4l-0.9,3.2l2.6,0.7l1.1-4.2l1.5,0.4l-1.6,6
		L112.4,236.4z" />
		<path class="st0" d="M120.1,227l-5.5,1.5l0.6-2l2.7-0.6c0.6-0.1,1.3-0.3,1.3-0.3l0,0c0,0-0.5-0.4-1-0.9l-1.9-2l0.6-2l3.9,4.3
		l5.7-1.6l-0.6,1.9l-3,0.7c-0.6,0.1-1.3,0.3-1.3,0.3l0,0c0,0,0.5,0.4,1,0.9l2.1,2.2l-0.6,1.9L120.1,227z" />
		<path class="st0" d="M117.6,218.2l0.5-1.7l9.5,3l-0.5,1.7L117.6,218.2z" />
		<path class="st0" d="M126.3,215.3c0,0,1.3-0.7,1.8-2c0.2-0.7,0.1-1.5-0.7-1.8c-1.7-0.6-2.9,4-5.8,3c-1.6-0.5-2.3-2.3-1.7-4.1
		c0.6-1.9,2-2.5,2-2.5l1.1,1.2c0,0-1.1,0.6-1.5,1.8c-0.3,0.8,0,1.6,0.6,1.8c1.7,0.6,2.8-4,5.8-3c1.5,0.5,2.4,2.1,1.7,4
		c-0.7,2.1-2.4,2.8-2.4,2.8L126.3,215.3z" />
		<path class="st0" d="M124.3,203.4l-1.1,3.1l-1.5-0.5l2.8-7.8l1.5,0.5l-1.1,3.1l7.9,2.9l-0.6,1.7L124.3,203.4z" />
		<path class="st0" d="M125.4,196l2.2-5.5l1.4,0.6l-1.5,3.9l2.4,0.9l1.2-3.1l1.4,0.6l-1.2,3.1l2.5,1l1.6-4.1l1.4,0.6l-2.2,5.8
		L125.4,196z" />
		<path class="st0" d="M128.7,187.5l0.7-1.7l6.8-1.2c0.7-0.1,1.7-0.2,1.7-0.2l0,0c0,0-0.9-0.3-1.5-0.5l-5.3-2.2l0.7-1.7l9.2,3.9
		l-0.7,1.7l-6.7,1.2c-0.7,0.1-1.7,0.2-1.7,0.2l0,0c0,0,0.9,0.3,1.5,0.5l5.3,2.2l-0.7,1.7L128.7,187.5z" />
		<path class="st0" d="M135,172.6c1-2.2,2.8-2.8,2.8-2.8l0.9,1.3c0,0-1.4,0.6-2.1,2c-0.9,1.9,0,3.7,1.7,4.5c1.7,0.8,3.8,0.3,4.6-1.6
		c0.7-1.6,0.1-3.1,0.1-3.1l1.6-0.3c0,0,0.9,1.9-0.2,4.2c-1.3,2.8-4.2,3.7-6.8,2.5C134.9,178.2,133.8,175.3,135,172.6z" />
		<path class="st0" d="M138,166.7l0.8-1.6l8.9,4.3l-0.8,1.6L138,166.7z" />
		<path class="st0" d="M149.1,160.9l-1.6,3.1l1.9,1.9l-0.8,1.7l-7.3-7.6l0.9-1.7l10.4,1.4l-0.8,1.7L149.1,160.9z M143.3,159.9
		c0,0,0.8,0.6,1.2,1.1l2,2l1.2-2.3l-2.8-0.4C144.3,160.1,143.3,159.9,143.3,159.9L143.3,159.9z" />
		<path class="st0" d="M144.9,153.1l0.9-1.6l7.4,4l2-3.8l1.4,0.7l-2.9,5.4L144.9,153.1z" />
		<path class="st0" d="M151.2,141.8l2-3.3c0.9-1.6,2.7-2.1,4.4-1.1s2.2,2.8,1.2,4.4l-1,1.7l3,1.7l-0.9,1.6L151.2,141.8z M157.2,141.3
		c0.5-0.9,0.3-1.8-0.6-2.3c-0.9-0.5-1.8-0.3-2.3,0.6l-0.9,1.5l2.9,1.7L157.2,141.3z" />
		<path class="st0" d="M156.1,133.6l1-1.5l7.1,4.5l2.3-3.6l1.3,0.8l-3.2,5.2L156.1,133.6z" />
		<path class="st0" d="M169.8,126l-1.9,2.9l1.7,2.1l-1,1.6l-6.3-8.4l1-1.6l10.2,2.6l-1,1.6L169.8,126z M164.1,124.3
		c0,0,0.7,0.7,1.1,1.2l1.7,2.2l1.4-2.2l-2.7-0.7C165,124.7,164.1,124.3,164.1,124.3L164.1,124.3z" />
		<path class="st0" d="M166.4,117.7l1-1.5l6.9,0.3c0.7,0,1.7,0.2,1.7,0.2l0,0c0,0-0.8-0.5-1.3-0.8l-4.7-3.3l1-1.5l8.1,5.8l-1,1.5
		l-6.9-0.2c-0.7,0-1.7-0.2-1.7-0.2l0,0c0,0,0.8,0.5,1.3,0.8l4.7,3.3l-1,1.5L166.4,117.7z" />
	</g>
</svg>