<svg version="1.1" class="egg-text-1" xmlns="http://www.w3.org/2000/svg" xmlns:xlink="http://www.w3.org/1999/xlink" x="0px" y="0px"
	 viewBox="0 0 600 600" style="enable-background:new 0 0 600 600;" xml:space="preserve">
<style type="text/css">
	.st0{fill:white; stroke-width:0px;}
</style>
<g class="g1">
	<path class="st0" d="M315.6,337.6l1.1-0.1l0.5,5.4l2.5-0.2l0.1,1l-3.6,0.3L315.6,337.6z"/>
	<path class="st0" d="M319.5,337.3l1.1-0.1l0.7,6.4l-1.1,0.1L319.5,337.3z"/>
	<path class="st0" d="M321.8,337.1l1.1-0.1l1.5,3c0.2,0.4,0.4,0.9,0.4,0.9l0,0c0,0,0.1-0.6,0.2-1l0.8-3.3l1.1-0.1l1.2,6.3l-1.1,0.1
		l-0.7-3.5c-0.1-0.4-0.1-1-0.1-1l0,0c0,0-0.1,0.6-0.2,1l-0.6,2.6l-0.9,0.1l-1.2-2.3c-0.2-0.3-0.4-1-0.4-1l0,0c0,0,0.1,0.6,0.1,1
		l0.2,3.6l-1.1,0.1L321.8,337.1z"/>
	<path class="st0" d="M328.1,336.2l1.1-0.2l0.9,6.3l-1.1,0.2L328.1,336.2z"/>
	<path class="st0" d="M331.4,336.7l-1.9,0.3l-0.2-1l4.9-0.8l0.2,1l-1.9,0.3l0.8,5.3l-1.1,0.2L331.4,336.7z"/>
	<path class="st0" d="M334.4,335.3l3.5-0.6l0.2,1l-2.4,0.4l0.3,1.6l1.9-0.3l0.2,1l-1.9,0.3l0.3,1.7l2.5-0.5l0.2,1l-3.6,0.6
		L334.4,335.3z"/>
</g>
<g class="g2">
	<path class="st0" d="M306.9,318.6l2.3-0.1c1.1,0,1.9,0.8,2,2s-0.7,2.1-1.8,2.2l-1.2,0l0.1,2.2l-1.1,0L306.9,318.6z M309.1,321.7
		c0.6,0,1-0.5,0.9-1.1c0-0.7-0.4-1.1-1-1l-1,0l0.1,2.2L309.1,321.7z"/>
	<path class="st0" d="M311.5,318.4l1.9-0.1c0.6,0,0.9,0,1.2,0.1c0.6,0.2,1,0.8,1.1,1.7c0.1,0.8-0.3,1.5-0.9,1.8l0,0
		c0,0,0.1,0.1,0.2,0.3l1.4,2.3l-1.2,0.1l-1.3-2.3l-1,0.1l0.2,2.4l-1.1,0.1L311.5,318.4z M313.7,321.2c0.6,0,0.9-0.4,0.9-1.1
		c0-0.6-0.3-1-1.1-0.9l-0.8,0.1l0.1,2L313.7,321.2z"/>
	<path class="st0" d="M316.4,318l3.5-0.4l0.1,1l-2.4,0.2l0.2,1.7l2-0.2l0.1,1l-2,0.2l0.2,1.7l2.6-0.3l0.1,1l-3.6,0.4L316.4,318z"/>
	<path class="st0" d="M321.3,322.3c0,0,0.7,0.6,1.5,0.5c0.4-0.1,0.8-0.4,0.7-0.9c-0.1-1.1-2.9-0.6-3.1-2.5c-0.1-1.1,0.6-1.9,1.7-2.1
		c1.1-0.1,1.8,0.5,1.8,0.5l-0.3,1c0,0-0.6-0.5-1.4-0.4c-0.5,0.1-0.8,0.4-0.8,0.9c0.1,1.1,2.9,0.5,3.1,2.5c0.1,1-0.5,1.9-1.7,2.1
		c-1.3,0.2-2.1-0.6-2.1-0.6L321.3,322.3z"/>
	<path class="st0" d="M325.3,321.7c0,0,0.7,0.6,1.6,0.4c0.4-0.1,0.8-0.4,0.7-0.9c-0.2-1.1-2.9-0.5-3.2-2.4c-0.2-1,0.6-2,1.7-2.1
		c1.1-0.2,1.8,0.4,1.8,0.4l-0.3,1c0,0-0.6-0.5-1.4-0.4c-0.5,0.1-0.8,0.4-0.8,0.9c0.2,1.1,2.9,0.4,3.2,2.4c0.2,1-0.4,2-1.6,2.1
		c-1.3,0.2-2.1-0.6-2.1-0.6L325.3,321.7z"/>
	<path class="st0" d="M329.4,314.6c0.5-0.1,0.8,0.4,1.1,0.4c0.2,0,0.3-0.3,0.2-0.6l0.7-0.1c0.1,0.8-0.1,1.3-0.7,1.4
		c-0.5,0.1-0.8-0.4-1.1-0.4c-0.2,0-0.3,0.3-0.2,0.6l-0.7,0.1C328.5,315.2,328.7,314.7,329.4,314.6z M332.1,320.6l-2,0.4l-0.2,1.7
		l-1.1,0.2l0.9-6.7l1.1-0.2l3.2,5.9l-1.1,0.2L332.1,320.6z M330.4,317.2c0,0,0,0.6-0.1,1l-0.2,1.8l1.5-0.3l-0.8-1.6
		C330.7,317.8,330.4,317.2,330.4,317.2L330.4,317.2z"/>
	<path class="st0" d="M335.4,315c1.7-0.4,3.3,0.8,3.7,2.5c0.4,1.8-0.6,3.6-2.3,3.9c-1.7,0.4-3.3-0.8-3.7-2.6
		C332.7,317,333.7,315.4,335.4,315z M336.5,320.4c1.1-0.2,1.7-1.4,1.4-2.6c-0.3-1.2-1.3-2-2.4-1.7c-1.1,0.2-1.7,1.3-1.4,2.6
		C334.5,319.9,335.5,320.6,336.5,320.4z"/>
</g>
<g class="g3">
	<path class="st0" d="M301.3,299.5l2.3,0c1.1,0,1.9,0.9,1.8,2.1c0,1.2-0.8,2.1-1.9,2.1l-1.2,0l0,2.2l-1.1,0L301.3,299.5z
		 M303.3,302.7c0.6,0,1-0.4,1-1.1c0-0.7-0.3-1.1-0.9-1.1l-1,0l0,2.2L303.3,302.7z"/>
	<path class="st0" d="M308.4,299.3c1.7-0.1,3.1,1.3,3.2,3.1c0.1,1.9-1.1,3.4-2.9,3.5c-1.7,0.1-3.1-1.3-3.2-3.2
		C305.4,300.9,306.7,299.4,308.4,299.3z M308.7,304.8c1.1-0.1,1.9-1.1,1.8-2.4c-0.1-1.3-1-2.1-2.1-2.1c-1.1,0.1-1.9,1-1.8,2.3
		C306.7,304,307.6,304.9,308.7,304.8z"/>
	<path class="st0" d="M311.9,299.2l2-0.3c1.8-0.2,3.1,0.8,3.4,2.8c0.3,2-0.7,3.3-2.5,3.6l-2,0.3L311.9,299.2z M314.5,304.3
		c1.2-0.2,1.8-1,1.6-2.4c-0.2-1.4-1.1-2.1-2.2-1.9l-0.9,0.1l0.6,4.3L314.5,304.3z"/>
	<path class="st0" d="M317.3,298.4l3.4-0.7l0.2,1l-2.4,0.5l0.3,1.6l1.9-0.4l0.2,1l-1.9,0.4l0.4,1.7l2.5-0.5l0.2,1l-3.6,0.7
		L317.3,298.4z"/>
	<path class="st0" d="M321.4,297.5l1.8-0.5c0.6-0.2,0.9-0.2,1.2-0.1c0.6,0.1,1.2,0.6,1.4,1.4c0.2,0.7,0,1.5-0.5,2l0,0
		c0,0,0.1,0.1,0.3,0.2l1.8,2l-1.1,0.3l-1.8-2l-1,0.3l0.6,2.3l-1,0.3L321.4,297.5z M324.2,299.8c0.5-0.2,0.8-0.6,0.6-1.2
		c-0.2-0.6-0.5-0.9-1.3-0.7l-0.8,0.2l0.5,1.9L324.2,299.8z"/>
</g>
<g class="g4">
	<path class="st0" d="M256.9,254.6c0,0,0.8-0.5,0.9-1.3c0.1-0.4-0.1-0.9-0.6-1c-1.1-0.2-1.3,2.6-3.3,2.3c-1-0.2-1.7-1.1-1.5-2.2
		c0.2-1.1,0.9-1.6,0.9-1.6l0.9,0.6c0,0-0.6,0.5-0.7,1.2c-0.1,0.5,0.2,0.9,0.6,1c1.1,0.2,1.3-2.6,3.3-2.3c1,0.2,1.7,1,1.6,2.2
		c-0.2,1.3-1.2,1.9-1.2,1.9L256.9,254.6z"/>
	<path class="st0" d="M252.8,249.9l0.6-3.5l1,0.2L254,249l1.7,0.3l0.3-2l1,0.2l-0.3,2l1.7,0.3l0.4-2.5l1,0.2l-0.6,3.6L252.8,249.9z"
		/>
	<path class="st0" d="M253.9,243.1c0.3-1.4,1.2-2,1.2-2l0.8,0.7c0,0-0.7,0.5-0.9,1.4c-0.2,1.3,0.6,2.2,1.8,2.4
		c1.4,0.3,2.4-0.4,2.6-1.5c0.2-0.9-0.4-1.6-0.4-1.6l-0.7-0.1l-0.2,0.9l-1-0.2l0.3-1.8l3.3,0.6l-0.2,0.9l-0.3-0.1
		c-0.1,0-0.3-0.1-0.3-0.1l0,0c0,0,0.6,0.7,0.4,1.8c-0.3,1.5-1.8,2.6-3.8,2.2C254.7,246.4,253.5,244.9,253.9,243.1z"/>
	<path class="st0" d="M254.5,240.2l0.2-1l4,0.8c0.8,0.2,1.4-0.2,1.6-1c0.2-0.8-0.2-1.4-1.1-1.6l-4-0.8l0.2-1l4,0.8
		c1.4,0.3,2.2,1.4,1.9,2.8c-0.3,1.4-1.4,2.1-2.8,1.8L254.5,240.2z"/>
	<path class="st0" d="M255.7,234.6l0.4-1.8c0.1-0.6,0.3-0.9,0.4-1.1c0.4-0.5,1.1-0.7,1.9-0.5c0.7,0.2,1.4,0.7,1.5,1.4l0,0
		c0,0,0.1-0.1,0.4-0.1l2.6-0.6l-0.3,1.2l-2.6,0.6l-0.2,1l2.3,0.5l-0.2,1L255.7,234.6z M259.1,233.3c0.1-0.6-0.2-1-0.8-1.1
		c-0.6-0.1-1,0-1.2,0.8l-0.2,0.8l1.9,0.5L259.1,233.3z"/>
	<path class="st0" d="M262.1,228.1l-0.5,2l1.5,0.9l-0.3,1.1l-5.7-3.6l0.3-1.1l6.7-0.4l-0.3,1.1L262.1,228.1z M258.4,228.3
		c0,0,0.6,0.3,0.9,0.5l1.5,0.9l0.4-1.5l-1.8,0.1C259,228.3,258.4,228.2,258.4,228.3L258.4,228.3z"/>
	<path class="st0" d="M258,225.2l0.3-1l4.2-1.2c0.4-0.1,1.1-0.2,1.1-0.2l0,0c0,0-0.6-0.1-1-0.2l-3.6-1l0.3-1l6.2,1.7l-0.3,1
		l-4.1,1.2c-0.4,0.1-1.1,0.2-1.1,0.2l0,0c0,0,0.6,0.1,1,0.2l3.5,1l-0.3,1L258,225.2z"/>
	<path class="st0" d="M260.3,217c0.4-1.4,1.5-1.8,1.5-1.8l0.7,0.7c0,0-0.8,0.4-1.1,1.3c-0.4,1.2,0.4,2.2,1.5,2.5
		c1.2,0.4,2.4,0,2.8-1.2c0.3-1-0.3-1.9-0.3-1.9l1-0.3c0,0,0.7,1,0.3,2.4l0.3,0.1c0.1-0.3,0.4-0.5,0.8-0.4c0.6,0.2,0.6,0.7,0.5,1.1
		c-0.1,0.3-0.2,0.5-0.2,0.5l-0.6-0.2c0,0,0.1-0.1,0.2-0.3c0.1-0.2,0-0.4-0.1-0.4c-0.2-0.1-0.3,0.1-0.4,0.3c0,0.1,0,0.2,0,0.2
		l-0.6-0.4c-0.6,1.5-2.3,2.1-3.9,1.6C260.7,220.3,259.8,218.6,260.3,217z"/>
	<path class="st0" d="M266.7,213l-0.7,2l1.4,1l-0.4,1l-5.4-4l0.4-1.1l6.7,0.1l-0.4,1L266.7,213z M262.9,212.8c0,0,0.6,0.3,0.9,0.6
		l1.4,1l0.5-1.5l-1.8-0.1C263.6,212.8,262.9,212.7,262.9,212.8L262.9,212.8z"/>
</g>
<g class="g5">
	<path class="st0" d="M276.3,294.2l-0.1,1.9l-1-0.1l0.3-4.9l1,0.1l-0.1,1.9l5.4,0.4l-0.1,1.1L276.3,294.2z"/>
	<path class="st0" d="M275.5,290.7l0.2-1.9c0.1-0.6,0.1-0.9,0.3-1.2c0.3-0.6,1-0.9,1.8-0.8c0.8,0.1,1.4,0.5,1.6,1.2l0,0
		c0,0,0.1-0.1,0.3-0.2l2.5-1l-0.1,1.2l-2.5,0.9l-0.1,1l2.4,0.2l-0.1,1.1L275.5,290.7z M278.7,288.9c0.1-0.6-0.3-1-0.9-1
		c-0.6-0.1-1,0.1-1.1,1l-0.1,0.8l2,0.2L278.7,288.9z"/>
	<path class="st0" d="M281.1,283.1l-0.2,2l1.6,0.7l-0.1,1.1l-6.1-2.8l0.1-1.1l6.6-1.3l-0.1,1.1L281.1,283.1z M277.3,283.7
		c0,0,0.6,0.2,1,0.4l1.6,0.7l0.2-1.5l-1.8,0.3C278,283.6,277.3,283.7,277.3,283.7L277.3,283.7z"/>
	<path class="st0" d="M276.6,280.3l0.2-1.1l4-1.7c0.4-0.2,1.1-0.3,1.1-0.3l0,0c0,0-0.6,0-1-0.1l-3.6-0.6l0.2-1l6.3,1l-0.2,1l-4,1.7
		c-0.4,0.2-1.1,0.3-1.1,0.3l0,0c0,0,0.6,0,1,0.1l3.6,0.5l-0.2,1.1L276.6,280.3z"/>
	<path class="st0" d="M278,271.6c0.3-1.7,2-2.7,3.8-2.4c0.8,0.1,1.4,0.5,1.9,1l0.8-0.5l0.6,0.7l-0.8,0.5c0.3,0.6,0.4,1.2,0.3,1.9
		c-0.3,1.7-2,2.7-3.8,2.4C278.8,274.9,277.6,273.3,278,271.6z M283.4,272.7c0.1-0.4,0-0.8-0.1-1.1l-0.8,0.5l-0.6-0.7l0.8-0.5
		c-0.3-0.3-0.7-0.5-1.1-0.5c-1.2-0.2-2.3,0.4-2.5,1.5c-0.2,1.1,0.6,2.1,1.8,2.3C282.1,274.4,283.2,273.7,283.4,272.7z"/>
	<path class="st0" d="M278.9,267.7l0.2-1l4,0.9c0.8,0.2,1.4-0.2,1.6-1c0.2-0.8-0.2-1.4-1-1.6l-4-0.9l0.2-1l4,0.9
		c1.4,0.3,2.1,1.5,1.8,2.9c-0.3,1.4-1.5,2.1-2.9,1.8L278.9,267.7z"/>
	<path class="st0" d="M280.3,261.9l0.3-1l6.2,1.6l-0.3,1L280.3,261.9z"/>
	<path class="st0" d="M280.9,259.6l0.3-1l5.2,1.5l0.7-2.4l1,0.3l-1,3.5L280.9,259.6z"/>
	<path class="st0" d="M282.1,255.4l0.3-1l6.1,2l-0.3,1L282.1,255.4z"/>
	<path class="st0" d="M282.9,253.1l0.7-1.9c0.6-1.7,2.1-2.4,4-1.7s2.6,2.2,2,3.9l-0.7,1.9L282.9,253.1z M288.6,253.2
		c0.4-1.1,0-2.1-1.4-2.6c-1.3-0.5-2.3,0-2.7,1.1l-0.3,0.8l4.1,1.5L288.6,253.2z"/>
	<path class="st0" d="M290.5,246.7l-0.8,1.9l1.3,1.1l-0.4,1l-5-4.4l0.4-1l6.7,0.6l-0.4,1L290.5,246.7z M286.8,246.2
		c0,0,0.5,0.4,0.8,0.6l1.4,1.2l0.6-1.4l-1.8-0.2C287.4,246.3,286.8,246.2,286.8,246.2L286.8,246.2z"/>
	<path class="st0" d="M287.1,242.7l0.9-1.8c0.8-1.6,2.4-2.1,4.2-1.2s2.3,2.5,1.5,4.1l-0.9,1.8L287.1,242.7z M292.8,243.4
		c0.5-1.1,0.2-2.1-1.1-2.7c-1.3-0.6-2.3-0.3-2.8,0.7l-0.4,0.8l3.9,2L292.8,243.4z"/>
	<path class="st0" d="M290,237.3l1.8-3l0.9,0.5l-1.3,2.1l1.4,0.9l1-1.7l0.9,0.5l-1,1.7l1.5,0.9l1.3-2.2l0.9,0.5l-1.9,3.1L290,237.3z
		"/>
</g>
<g class="g6">
	<path class="st0" d="M324.7,242.1l-1.4-1.5l-1.5,0.8l-0.8-0.8l6-3l0.8,0.8l-3.1,5.9l-0.8-0.8L324.7,242.1z M326.6,238.8
		c0,0-0.5,0.3-0.9,0.5l-1.6,0.8l1.1,1.1l0.9-1.6C326.3,239.4,326.6,238.8,326.6,238.8L326.6,238.8z"/>
	<path class="st0" d="M329.4,241.8l-1.2-1.5l0.8-0.6l3.1,3.8l-0.8,0.6l-1.2-1.5l-4.2,3.4l-0.7-0.8L329.4,241.8z"/>
	<path class="st0" d="M332.4,244l2,2.9l-0.8,0.6l-1.4-2l-1.4,0.9l1.1,1.6l-0.8,0.6L330,247l-1.4,1l1.5,2.1l-0.8,0.6l-2.1-3
		L332.4,244z"/>
	<path class="st0" d="M335,247.8l0.5,0.9l-2.1,3.8c-0.2,0.4-0.6,0.9-0.6,0.9l0,0c0,0,0.5-0.4,0.8-0.6l3.2-1.9l0.5,0.9l-5.5,3.2
		l-0.5-0.9l2.1-3.8c0.2-0.4,0.6-0.9,0.6-0.9l0,0c0,0-0.5,0.4-0.8,0.6L330,252l-0.5-0.9L335,247.8z"/>
	<path class="st0" d="M339.3,255.4c0.6,1.3,0.2,2.3,0.2,2.3l-1-0.1c0,0,0.3-0.9-0.1-1.7c-0.6-1.1-1.8-1.3-2.8-0.8
		c-1.1,0.5-1.7,1.7-1.2,2.8c0.5,0.9,1.5,1.2,1.5,1.2l-0.5,0.9c0,0-1.2-0.2-1.9-1.5l-0.3,0.1c0.1,0.3,0,0.7-0.3,0.8
		c-0.5,0.3-0.9,0-1.1-0.4c-0.1-0.3-0.2-0.5-0.2-0.5l0.6-0.3c0,0,0,0.2,0.1,0.4c0.1,0.2,0.2,0.3,0.4,0.2c0.2-0.1,0.1-0.3,0-0.5
		c0-0.1-0.1-0.1-0.1-0.1l0.7-0.2c-0.6-1.5,0.2-3.1,1.8-3.9C336.7,253.4,338.6,253.9,339.3,255.4z"/>
	<path class="st0" d="M337.4,262.8l-0.8-1.9l-1.7,0.2l-0.4-1l6.7-0.7l0.5,1l-5,4.5l-0.4-1L337.4,262.8z M340.3,260.4
		c0,0-0.6,0.1-1,0.2l-1.8,0.2l0.6,1.4l1.4-1.2C339.8,260.8,340.3,260.4,340.3,260.4L340.3,260.4z M342.6,258.8
		c0.2,0.5-0.2,0.9-0.1,1.2c0.1,0.2,0.4,0.2,0.6,0.1l0.3,0.7c-0.7,0.3-1.2,0.2-1.5-0.3c-0.2-0.5,0.2-0.9,0.1-1.2
		c-0.1-0.2-0.4-0.2-0.6-0.1l-0.3-0.7C341.9,258.1,342.4,258.2,342.6,258.8z"/>
	<path class="st0" d="M343.6,265.2c0.6,1.6-0.2,3.4-1.9,4c-1.7,0.7-3.6,0-4.2-1.6s0.2-3.4,2-4.1C341.2,262.9,343,263.6,343.6,265.2z
		 M338.5,267.2c0.4,1,1.6,1.4,2.8,1c1.2-0.5,1.7-1.6,1.3-2.6c-0.4-1-1.6-1.5-2.8-1C338.7,265.1,338.1,266.2,338.5,267.2z"/>
</g>
<g class="g7">
	<path class="st0" d="M356.1,181.8c1,1,0.9,2.2,0.9,2.2l-1,0.2c0,0,0-1-0.7-1.6c-0.9-0.9-2.1-0.7-2.9,0.2c-0.9,0.9-1.1,2.1-0.2,3
		c0.7,0.7,1.8,0.6,1.8,0.6l-0.2,1c0,0-1.3,0.2-2.4-0.9c-1.3-1.3-1.1-3.2,0.2-4.5C353,180.7,354.9,180.6,356.1,181.8z"/>
	<path class="st0" d="M360,186c1.2,1.3,1,3.2-0.4,4.4c-1.4,1.3-3.4,1.3-4.5,0c-1.2-1.3-0.9-3.2,0.5-4.5
		C356.9,184.7,358.9,184.7,360,186z M355.9,189.7c0.7,0.8,2,0.8,3-0.1c0.9-0.8,1.1-2.1,0.3-2.9c-0.7-0.8-2-0.8-2.9,0
		C355.3,187.6,355.2,188.9,355.9,189.7z"/>
	<path class="st0" d="M362.5,188.9l0.7,0.8l-1.5,4.1c-0.1,0.4-0.5,1-0.5,1l0,0c0,0,0.4-0.4,0.7-0.7l2.9-2.3l0.7,0.8l-5,4l-0.7-0.8
		l1.5-4c0.1-0.4,0.5-1,0.5-1l0,0c0,0-0.4,0.4-0.7,0.7l-2.9,2.3l-0.7-0.8L362.5,188.9z"/>
	<path class="st0" d="M367.9,195.7c0.9,1.2,0.6,2.3,0.6,2.3l-1,0.1c0,0,0.1-0.9-0.4-1.7c-0.7-1-2-1-2.9-0.3c-1,0.7-1.4,2-0.7,3
		c0.6,0.8,1.7,0.9,1.7,0.9l-0.3,1c0,0-1.3,0-2.2-1.2c-1.1-1.4-0.6-3.3,0.9-4.4C365,194.1,366.9,194.3,367.9,195.7z"/>
	<path class="st0" d="M369.6,198.2l2,2.9l-0.8,0.6l-1.4-2l-1.4,0.9l1.1,1.6l-0.8,0.6l-1.1-1.6l-1.4,1l1.5,2.1l-0.8,0.6l-2.1-3
		L369.6,198.2z"/>
	<path class="st0" d="M372.1,201.9l0.6,0.9l-1.9,3.9c-0.2,0.4-0.6,0.9-0.6,0.9l0,0c0,0,0.5-0.4,0.8-0.6l3.1-2l0.6,0.9l-5.4,3.4
		l-0.6-0.9l1.9-3.8c0.2-0.4,0.6-0.9,0.6-0.9l0,0c0,0-0.5,0.4-0.8,0.6l-3.1,2l-0.6-0.9L372.1,201.9z"/>
	<path class="st0" d="M375,208.5l-1-1.7l0.9-0.5l2.5,4.2l-0.9,0.5l-1-1.7l-4.7,2.7l-0.5-0.9L375,208.5z"/>
	<path class="st0" d="M377.6,211l0.9,1.7c0.3,0.6,0.4,0.8,0.4,1.1c0,0.7-0.3,1.3-1.1,1.7c-0.7,0.4-1.5,0.4-2,0l0,0
		c0,0,0,0.1-0.2,0.3l-1.5,2.2l-0.6-1l1.5-2.2l-0.5-0.9l-2.1,1.1l-0.5-0.9L377.6,211z M376,214.2c0.3,0.5,0.8,0.6,1.3,0.3
		c0.5-0.3,0.8-0.7,0.4-1.4l-0.4-0.7l-1.8,1L376,214.2z"/>
	<path class="st0" d="M377.1,220.2l-0.9-1.8l-1.7,0.3l-0.5-1l6.6-1.1l0.5,1l-4.7,4.8l-0.5-1L377.1,220.2z M379.9,217.7
		c0,0-0.6,0.2-1,0.2l-1.8,0.3l0.7,1.4l1.3-1.2C379.4,218.1,379.9,217.7,379.9,217.7L379.9,217.7z"/>
	<path class="st0" d="M383.5,222.2c0.6,1.3,0.1,2.3,0.1,2.3l-1-0.1c0,0,0.3-0.9-0.1-1.7c-0.5-1.1-1.8-1.3-2.8-0.8
		c-1.1,0.5-1.7,1.7-1.2,2.8c0.4,0.9,1.5,1.2,1.5,1.2l-0.5,0.9c0,0-1.2-0.3-1.9-1.5l-0.3,0.1c0.1,0.3,0,0.7-0.4,0.8
		c-0.5,0.3-0.9-0.1-1.1-0.5c-0.1-0.3-0.2-0.5-0.2-0.5l0.6-0.3c0,0,0,0.2,0.1,0.4c0.1,0.2,0.2,0.3,0.4,0.2c0.2-0.1,0.1-0.3,0-0.5
		c0-0.1-0.1-0.1-0.1-0.1l0.7-0.1c-0.5-1.5,0.3-3.1,1.8-3.8C380.9,220.1,382.8,220.6,383.5,222.2z"/>
	<path class="st0" d="M381.5,229.5l-0.8-1.9l-1.7,0.2l-0.4-1l6.7-0.7l0.5,1l-5,4.5l-0.4-1L381.5,229.5z M384.4,227
		c0,0-0.6,0.1-1,0.2l-1.8,0.2l0.6,1.4l1.4-1.2C383.9,227.4,384.4,227.1,384.4,227L384.4,227z M386.7,225.4c0.2,0.5-0.2,0.9-0.1,1.2
		c0.1,0.2,0.4,0.2,0.6,0.1l0.3,0.7c-0.7,0.3-1.2,0.2-1.5-0.3c-0.2-0.5,0.2-0.9,0.1-1.2c-0.1-0.2-0.4-0.2-0.6-0.1l-0.3-0.7
		C385.9,224.7,386.4,224.8,386.7,225.4z"/>
	<path class="st0" d="M387.7,231.6c0.7,1.6-0.2,3.4-1.8,4.1c-1.7,0.7-3.6,0.1-4.3-1.5c-0.7-1.6,0.2-3.4,1.9-4.1
		C385.2,229.3,387,230,387.7,231.6z M382.5,233.7c0.4,1,1.6,1.4,2.9,0.9c1.2-0.5,1.7-1.6,1.3-2.6c-0.4-1-1.6-1.4-2.8-0.9
		C382.7,231.5,382.1,232.7,382.5,233.7z"/>
</g>
<g class="g8">
	<path class="st0" d="M401,157.6l0.6,1l-2,2.7c-0.2,0.3-0.6,0.8-0.6,0.8l0,0c0,0,0.6-0.2,0.9-0.3l3.3-0.7l0.6,1l-5.1,3.8l-0.6-0.9
		l2.9-2.1c0.3-0.2,0.8-0.5,0.8-0.5l0,0c0,0-0.6,0.2-1,0.3l-2.6,0.5l-0.5-0.8l1.6-2.1c0.2-0.3,0.7-0.8,0.7-0.8l0,0
		c0,0-0.5,0.3-0.8,0.5l-3.1,1.7l-0.6-0.9L401,157.6z"/>
	<path class="st0" d="M404.4,163.1l1.8,3l-0.9,0.5l-1.3-2.1l-1.4,0.9l1,1.7l-0.9,0.5l-1-1.7l-1.5,0.9l1.3,2.2l-0.9,0.5l-1.9-3.1
		L404.4,163.1z"/>
	<path class="st0" d="M406.8,167l0.6,1l-2.2,2.6c-0.3,0.3-0.7,0.7-0.7,0.7l0,0c0,0,0.6-0.1,1-0.2l3.3-0.6l0.6,1l-5.3,3.6l-0.5-0.9
		l3-2c0.4-0.2,0.9-0.5,0.9-0.5l0,0c0,0-0.6,0.2-1,0.2l-2.6,0.4l-0.5-0.8l1.7-2.1c0.2-0.3,0.7-0.8,0.7-0.8l0,0c0,0-0.5,0.3-0.9,0.5
		l-3.2,1.6l-0.5-0.9L406.8,167z"/>
	<path class="st0" d="M411.4,174.9c0.8,1.5,0.2,3.4-1.4,4.2c-1.7,0.9-3.6,0.5-4.4-1.1s-0.2-3.4,1.5-4.3
		C408.7,172.9,410.5,173.4,411.4,174.9z M406.5,177.5c0.5,0.9,1.8,1.2,2.9,0.6c1.1-0.6,1.5-1.8,1-2.7c-0.5-0.9-1.8-1.3-2.9-0.6
		C406.4,175.4,406,176.6,406.5,177.5z M412.8,174.3l0.5,1l-1.5-0.2l-0.4-0.7L412.8,174.3z"/>
	<path class="st0" d="M413,178.1l0.9,1.7c0.3,0.6,0.4,0.8,0.4,1.1c0,0.7-0.4,1.3-1.1,1.7c-0.7,0.4-1.5,0.3-2-0.1l0,0
		c0,0,0,0.1-0.2,0.3l-1.6,2.2l-0.5-1.1l1.6-2.1l-0.5-0.9l-2.1,1.1l-0.5-0.9L413,178.1z M411.3,181.3c0.3,0.5,0.8,0.7,1.3,0.4
		c0.5-0.3,0.8-0.7,0.4-1.4l-0.4-0.7l-1.8,0.9L411.3,181.3z"/>
	<path class="st0" d="M415.3,182.5l0.5,1l-5.7,2.9l-0.5-1L415.3,182.5z"/>
	<path class="st0" d="M413.2,189.1l-0.9-1.9l-1.7,0.3l-0.5-1l6.6-0.9l0.5,1l-4.8,4.7l-0.5-1L413.2,189.1z M416,186.6
		c0,0-0.6,0.2-1,0.2l-1.8,0.3l0.7,1.4l1.3-1.2C415.5,187,416.1,186.6,416,186.6L416,186.6z"/>
</g>
<g class="g9"> 
	<path class="st0" d="M223.2,217.4l0.7-3.4l1,0.2l-0.5,2.4l1.6,0.3l0.4-1.9l1,0.2l-0.4,1.9l1.7,0.3l0.5-2.5l1,0.2l-0.7,3.6
		L223.2,217.4z"/>
	<path class="st0" d="M224.5,210.7c0.4-1.7,2-2.7,3.8-2.3c0.8,0.2,1.4,0.6,1.8,1.1l0.8-0.5l0.6,0.8l-0.8,0.5
		c0.3,0.6,0.4,1.2,0.2,1.9c-0.4,1.7-2.1,2.7-3.9,2.3C225.2,213.9,224.1,212.3,224.5,210.7z M229.9,211.8c0.1-0.3,0-0.8-0.1-1.1
		l-0.8,0.5l-0.6-0.8l0.8-0.5c-0.3-0.3-0.7-0.5-1.1-0.6c-1.2-0.3-2.3,0.4-2.6,1.4c-0.2,1.1,0.5,2.1,1.8,2.4
		C228.5,213.5,229.7,212.9,229.9,211.8z"/>
	<path class="st0" d="M225.4,207.1l0.2-1l4,0.9c0.8,0.2,1.4-0.2,1.6-1c0.2-0.8-0.2-1.4-1-1.6l-4-0.9l0.2-1l4,0.9
		c1.4,0.3,2.1,1.5,1.8,2.9c-0.3,1.4-1.5,2.1-2.9,1.8L225.4,207.1z"/>
	<path class="st0" d="M226.7,201.6l0.3-1l6.2,1.5l-0.3,1L226.7,201.6z"/>
	<path class="st0" d="M227.2,199.6l0.3-1l5.2,1.3l0.6-2.5l1,0.2l-0.9,3.5L227.2,199.6z"/>
	<path class="st0" d="M226.7,194.6l0.3-1l1,1.2l-0.2,0.8L226.7,194.6z M228.2,195.7l0.3-1l6.2,1.6l-0.3,1L228.2,195.7z"/>
	<path class="st0" d="M228.7,193.7l0.6-2c0.3-1,1.1-1.6,2.1-1.3c0.6,0.2,1,0.6,1.1,1.1l0,0c0.4-0.6,1.1-0.7,1.7-0.5
		c1.2,0.3,1.5,1.4,1.2,2.5l-0.6,2.1L228.7,193.7z M231.8,192.4c0.1-0.4-0.2-0.8-0.6-0.9c-0.4-0.1-0.8,0-1,0.5l-0.3,1l1.6,0.4
		L231.8,192.4z M234.5,193c0.1-0.5-0.1-0.9-0.7-1.1c-0.5-0.1-1,0.1-1.1,0.6l-0.3,1.1l1.8,0.5L234.5,193z"/>
	<path class="st0" d="M230,189l0.5-1.8c0.2-0.6,0.3-0.9,0.5-1.1c0.4-0.5,1.1-0.7,1.9-0.4c0.7,0.2,1.3,0.8,1.4,1.4l0,0
		c0,0,0.1-0.1,0.4-0.1l2.6-0.5l-0.3,1.1l-2.6,0.4l-0.3,1l2.3,0.7l-0.3,1L230,189z M233.4,187.9c0.2-0.5-0.1-1-0.7-1.2
		c-0.6-0.2-1-0.1-1.3,0.8l-0.2,0.8l1.9,0.6L233.4,187.9z"/>
	<path class="st0" d="M231.4,184.3l0.3-1l6.1,1.9l-0.3,1L231.4,184.3z"/>
	<path class="st0" d="M232.7,179.7c0.5-1.6,2.3-2.4,4-1.9c1.8,0.6,2.8,2.3,2.2,3.9c-0.5,1.6-2.3,2.4-4.1,1.9
		C233.2,183.1,232.2,181.4,232.7,179.7z M238,181.5c0.3-1-0.3-2.1-1.6-2.5c-1.2-0.4-2.4,0.1-2.7,1.2c-0.3,1,0.3,2.1,1.5,2.5
		C236.5,183,237.7,182.5,238,181.5z"/>
</g>
<g class="g10">
	<path class="st0" d="M393.6,541.4l3.1-2.2c1.5-1.1,3.3-0.8,4.4,0.8s0.8,3.4-0.7,4.5l-1.7,1.2l2,2.8l-1.5,1L393.6,541.4z
		 M399.3,543.4c0.9-0.6,1-1.5,0.4-2.4c-0.6-0.8-1.5-1-2.3-0.4l-1.4,1l1.9,2.8L399.3,543.4z"/>
	<path class="st0" d="M401.3,535.9l1.4-1.1l5.1,6.6l3.4-2.6l1,1.2l-4.8,3.7L401.3,535.9z"/>
	<path class="st0" d="M416.6,532.9l-2.6,2.3l1,2.5l-1.4,1.2l-3.8-9.8l1.4-1.2l9.1,5.2l-1.4,1.2L416.6,532.9z M411.6,529.8
		c0,0,0.5,0.9,0.7,1.4l1.1,2.6l2-1.7l-2.4-1.4C412.4,530.4,411.6,529.8,411.6,529.8L411.6,529.8z"/>
	<path class="st0" d="M415.4,524.2l1.3-1.3l6.7,1.5c0.7,0.2,1.7,0.5,1.7,0.5l0,0c0,0-0.7-0.6-1.1-1l-4-4.1l1.3-1.2l6.9,7.2l-1.3,1.2
		l-6.7-1.5c-0.7-0.2-1.7-0.5-1.7-0.5l0,0c0,0,0.7,0.6,1.1,1l4,4.1l-1.3,1.3L415.4,524.2z"/>
	<path class="st0" d="M426.4,512.8c2-2.2,5.1-2.3,7.2-0.3c2.2,2,2.3,5.2,0.3,7.3c-2,2.2-5.2,2.2-7.3,0.2
		C424.6,518.1,424.4,515,426.4,512.8z M432.8,518.6c1.2-1.3,1.1-3.4-0.4-4.8c-1.4-1.3-3.5-1.2-4.7,0.1c-1.2,1.3-1.1,3.4,0.3,4.7
		C429.4,520,431.5,520,432.8,518.6z"/>
	<path class="st0" d="M437,500.3c1.8-2.3,4.9-2.7,7.2-0.9c2.3,1.8,2.7,5,0.9,7.3c-1.8,2.3-5,2.6-7.3,0.8
		C435.6,505.7,435.2,502.6,437,500.3z M443.8,505.6c1.1-1.4,0.8-3.5-0.8-4.8c-1.5-1.2-3.6-1-4.7,0.5c-1.1,1.4-0.9,3.5,0.7,4.7
		C440.6,507.3,442.7,507.1,443.8,505.6z"/>
	<path class="st0" d="M441.9,494.2l1.8-2.6c0.6-0.9,1-1.2,1.4-1.5c0.9-0.6,2.1-0.5,3.2,0.2c1,0.7,1.5,1.8,1.3,2.9l0,0
		c0,0,0.2,0,0.6,0l4.2,0.5l-1.2,1.6l-4.2-0.5l-1,1.4l3,2.1l-1,1.5L441.9,494.2z M447.7,494.1c0.6-0.8,0.4-1.6-0.4-2.2
		c-0.8-0.5-1.5-0.6-2.3,0.6l-0.8,1.1l2.5,1.8L447.7,494.1z"/>
	<path class="st0" d="M449.8,482.2c1.3-2.1,3-2.4,3-2.4l0.7,1.5c0,0-1.4,0.4-2.2,1.7c-1.2,1.9-0.5,3.7,1.1,4.7
		c1.8,1.2,3.8,0.7,4.8-0.9c0.8-1.3,0.5-2.7,0.5-2.7l-1-0.6l-0.8,1.3l-1.3-0.8l1.7-2.7l4.4,2.8l-0.8,1.3l-0.4-0.3
		c-0.2-0.1-0.3-0.2-0.3-0.2l0,0c0,0,0.3,1.4-0.6,3c-1.4,2.2-4.3,3-7,1.4C448.9,487.8,448.2,484.7,449.8,482.2z"/>
	<path class="st0" d="M462.4,475.7l-1.7,3l1.8,2l-0.9,1.6l-6.9-8l0.9-1.6l10.4,1.9l-0.9,1.6L462.4,475.7z M456.7,474.4
		c0,0,0.7,0.7,1.1,1.1l1.9,2.1l1.3-2.3l-2.7-0.6C457.6,474.7,456.7,474.4,456.7,474.4L456.7,474.4z"/>
	<path class="st0" d="M458.4,467.9l0.8-1.6l6.8-0.7c0.7-0.1,1.7,0,1.7,0l0,0c0,0-0.9-0.3-1.4-0.6l-5.1-2.6l0.8-1.6l8.8,4.5l-0.8,1.6
		l-6.8,0.7c-0.7,0.1-1.7,0-1.7,0l0,0c0,0,0.9,0.3,1.4,0.6l5.1,2.6l-0.8,1.6L458.4,467.9z"/>
	<path class="st0" d="M463.5,457.7l0.8-1.6l9,4.2l-0.8,1.6L463.5,457.7z"/>
	<path class="st0" d="M473.4,457.2l-4-6.6c-0.4-0.6-0.5-1-0.5-1l0,0c0,0-0.1,0.3-0.3,0.7l-1.7,3.8l-1.4-0.6l2.9-6.6l1.1,0.5l4,6.6
		c0.4,0.6,0.5,1,0.5,1l0,0c0,0,0.1-0.3,0.3-0.7l1.8-4.1l1.4,0.6l-3,6.8L473.4,457.2z"/>
	<path class="st0" d="M478.1,442.5l-1.3,3.2l2.1,1.7l-0.7,1.7l-8-6.9l0.7-1.8l10.5,0.4l-0.7,1.7L478.1,442.5z M472.2,442.1
		c0,0,0.8,0.6,1.3,1l2.1,1.8l1-2.4l-2.8-0.2C473.2,442.2,472.2,442,472.2,442.1L472.2,442.1z"/>
	<path class="st0" d="M474.2,431.2c0.8-2.3,2.5-3,2.5-3l1,1.3c0,0-1.4,0.7-1.9,2.2c-0.7,2,0.4,3.7,2.1,4.3c1.8,0.6,3.8,0,4.5-2
		c0.6-1.6-0.2-3.1-0.2-3.1l1.5-0.5c0,0,1.1,1.8,0.2,4.2c-1,2.9-3.8,4.1-6.6,3.1C474.6,436.7,473.2,433.9,474.2,431.2z"/>
	<path class="st0" d="M476.4,425.1l0.6-1.7l9.5,3l-0.6,1.7L476.4,425.1z"/>
	<path class="st0" d="M479,415.9c0.8-2.8,3.6-4.3,6.3-3.5c2.8,0.8,4.4,3.6,3.6,6.4c-0.8,2.8-3.6,4.3-6.4,3.5
		C479.8,421.5,478.2,418.7,479,415.9z M487.3,418.3c0.5-1.7-0.5-3.6-2.5-4.1c-1.9-0.5-3.7,0.5-4.2,2.2c-0.5,1.7,0.5,3.5,2.4,4.1
		C485,421,486.8,420,487.3,418.3z"/>
	<path class="st0" d="M481.3,408.5l0.4-1.8l6.5-2.3c0.6-0.2,1.7-0.4,1.7-0.4l0,0c0,0-0.9-0.1-1.5-0.3l-5.6-1.4l0.4-1.7l9.7,2.4
		l-0.4,1.7L486,407c-0.6,0.2-1.7,0.4-1.7,0.4l0,0c0,0,0.9,0.1,1.5,0.3l5.6,1.4l-0.4,1.8L481.3,408.5z"/>
	<path class="st0" d="M492.2,394l-0.7,3.4l2.3,1.3l-0.4,1.8l-9-5.5l0.4-1.9l10.4-1.4l-0.4,1.8L492.2,394z M486.3,394.6
		c0,0,0.9,0.4,1.4,0.7l2.4,1.4l0.5-2.5l-2.8,0.3C487.3,394.5,486.3,394.5,486.3,394.6L486.3,394.6z"/>
	<path class="st0" d="M485.8,387.8l0.3-1.8l8.3,1.5l0.8-4.2l1.5,0.3l-1.1,6L485.8,387.8z"/>
</g>
<g class="g11">
	<path class="st0" d="M407,82.2l2.6,2.8c1.3,1.4,1.2,3.2-0.2,4.5c-1.4,1.3-3.3,1.3-4.6-0.1l-1.4-1.5l-2.5,2.3l-1.2-1.3L407,82.2z
		 M405.7,88.2c0.7,0.8,1.6,0.8,2.4,0.1c0.8-0.7,0.8-1.6,0.1-2.3l-1.2-1.3l-2.5,2.3L405.7,88.2z"/>
	<path class="st0" d="M413.5,89.4l1.2,1.4l-6.3,5.5l2.8,3.3l-1.2,1l-4-4.6L413.5,89.4z"/>
	<path class="st0" d="M416.7,104.7l-2.2-2.7l-2.5,0.9l-1.2-1.4l9.9-3.5l1.2,1.5l-5.5,9l-1.2-1.4L416.7,104.7z M420,99.8
		c0,0-0.9,0.4-1.5,0.6l-2.6,1l1.6,2l1.5-2.4C419.4,100.6,420,99.8,420,99.8L420,99.8z"/>
	<path class="st0" d="M425.6,104.1l1.1,1.4l-2.3,6.5c-0.2,0.6-0.7,1.6-0.7,1.6l0,0c0,0,0.7-0.6,1.2-1l4.6-3.4l1.1,1.4l-8,5.9
		l-1.1-1.4l2.3-6.4c0.2-0.6,0.7-1.6,0.7-1.6l0,0c0,0-0.7,0.6-1.2,1l-4.6,3.4l-1.1-1.4L425.6,104.1z"/>
	<path class="st0" d="M435.3,117.1c1.7,2.4,1.1,5.5-1.3,7.1c-2.4,1.7-5.5,1.1-7.2-1.3s-1-5.5,1.4-7.2
		C430.5,114.1,433.6,114.7,435.3,117.1z M428.2,122c1,1.5,3.1,1.8,4.8,0.7c1.6-1.1,2-3.1,1-4.6s-3.1-1.9-4.7-0.8
		C427.6,118.4,427.1,120.5,428.2,122z"/>
	<path class="st0" d="M444.5,131.3c1.5,2.5,0.8,5.5-1.6,7c-2.5,1.5-5.6,0.8-7.1-1.7c-1.5-2.5-0.7-5.6,1.8-7.1
		C439.9,128.1,442.9,128.8,444.5,131.3z M437.1,135.8c1,1.6,3,2,4.7,0.9c1.7-1,2.1-3,1.2-4.6c-1-1.6-3-2-4.6-1
		C436.7,132.2,436.2,134.2,437.1,135.8z"/>
	<path class="st0" d="M448.5,138.3l1.6,2.8c0.5,0.9,0.7,1.4,0.7,1.9c0.1,1.1-0.4,2.1-1.6,2.8c-1,0.6-2.3,0.6-3.2-0.1l0,0
		c0,0-0.1,0.2-0.3,0.5l-2.2,3.6l-1-1.8l2.2-3.6l-0.9-1.5l-3.2,1.8l-0.9-1.6L448.5,138.3z M446.1,143.6c0.5,0.8,1.3,1.1,2.1,0.6
		c0.8-0.5,1.1-1.1,0.4-2.3l-0.7-1.2l-2.7,1.5L446.1,143.6z"/>
	<path class="st0" d="M453.5,147.2l0.9,1.6l-8.7,4.7l-0.9-1.6L453.5,147.2z"/>
	<path class="st0" d="M458.2,155.8c1.1,2.2,0.6,3.9,0.6,3.9l-1.6-0.2c0,0,0.4-1.4-0.4-2.8c-1-2-2.9-2.3-4.6-1.5
		c-1.9,1-2.5,2.9-1.7,4.6c0.7,1.3,2.1,1.7,2.1,1.7l1-0.5l-0.7-1.4l1.4-0.7l1.4,2.8l-4.7,2.4l-0.7-1.4l0.4-0.2
		c0.2-0.1,0.4-0.2,0.4-0.2l0,0c0,0-1.4-0.4-2.3-2.1c-1.2-2.3-0.4-5.3,2.4-6.7C453.9,152.2,456.8,153.1,458.2,155.8z"/>
	<path class="st0" d="M461.3,162.3l0.8,1.6l-9,4.3l-0.8-1.6L461.3,162.3z"/>
	<path class="st0" d="M463.6,167.1l0.7,1.6l-3.7,5.8c-0.4,0.6-1.1,1.4-1.1,1.4l0,0c0,0,0.8-0.5,1.4-0.7l5.2-2.4l0.7,1.6l-9,4.1
		l-0.7-1.6l3.7-5.8c0.4-0.6,1.1-1.4,1.1-1.4l0,0c0,0-0.8,0.5-1.4,0.7l-5.2,2.4l-0.7-1.6L463.6,167.1z"/>
	<path class="st0" d="M463.4,185.2l-1.3-3.2l-2.7,0.2l-0.7-1.7l10.5-0.6l0.7,1.7l-7.8,7.1l-0.7-1.7L463.4,185.2z M468,181.4
		c0,0-1,0.2-1.6,0.2l-2.8,0.2l1,2.4l2.1-1.8C467.2,182,468,181.4,468,181.4L468,181.4z"/>
	<path class="st0" d="M472.1,187l0.7,1.7l-7.8,3.1l1.6,4l-1.4,0.6l-2.2-5.7L472.1,187z"/>
</g>
<g class="g12">
	<path class="st0" d="M112.4,236.5l1-3.7c0.5-1.8,2.1-2.7,3.9-2.2c1.9,0.5,2.8,2.1,2.3,3.9l-0.5,2l3.3,0.9l-0.5,1.7L112.4,236.5z
		 M118.1,234.4c0.3-1-0.2-1.8-1.2-2.1c-1-0.3-1.8,0.2-2,1.1l-0.4,1.7l3.3,0.9L118.1,234.4z"/>
	<path class="st0" d="M114.9,227.2l0.5-1.7l8,2.4l1.2-4.1l1.5,0.4l-1.7,5.9L114.9,227.2z"/>
	<path class="st0" d="M126,216.3l-1.1,3.3l2.2,1.6l-0.6,1.8l-8.4-6.4l0.6-1.8l10.5-0.3l-0.6,1.8L126,216.3z M120.1,216.2
		c0,0,0.9,0.5,1.3,0.9l2.3,1.7l0.8-2.5l-2.8,0C121.1,216.3,120.1,216.2,120.1,216.2L120.1,216.2z"/>
	<path class="st0" d="M120.6,209.2l0.6-1.7l6.7-1.6c0.7-0.2,1.7-0.3,1.7-0.3l0,0c0,0-0.9-0.2-1.5-0.4l-5.4-1.9l0.6-1.7l9.4,3.3
		l-0.6,1.7l-6.7,1.6c-0.7,0.2-1.7,0.3-1.7,0.3l0,0c0,0,0.9,0.2,1.5,0.4l5.4,1.9l-0.6,1.7L120.6,209.2z"/>
	<path class="st0" d="M126,194c1.1-2.7,3.9-4,6.6-2.9c2.7,1.1,4.1,4,3,6.7c-1.1,2.7-4,4-6.7,2.9C126.2,199.6,124.9,196.7,126,194z
		 M134,197.1c0.7-1.7-0.2-3.6-2.1-4.3c-1.8-0.7-3.7,0.1-4.4,1.8c-0.7,1.7,0.2,3.6,2,4.3C131.4,199.6,133.3,198.8,134,197.1z"/>
	<path class="st0" d="M130.8,182.6l2.4-5.5l1.4,0.6l-1.7,3.8l2.4,1l1.3-3.1l1.4,0.6l-1.3,3.1l2.5,1.1l1.7-4l1.4,0.6l-2.5,5.7
		L130.8,182.6z"/>
	<path class="st0" d="M139.7,174.5l-5.7,0.6l0.9-1.9l2.8-0.2c0.7,0,1.4-0.1,1.4-0.1l0,0c0,0-0.5-0.5-0.9-1.1l-1.6-2.3l0.9-1.9
		l3.2,4.8l5.9-0.7l-0.9,1.8l-3.1,0.3c-0.7,0-1.3,0.1-1.3,0.1l0,0c0,0,0.4,0.5,0.8,1.1l1.8,2.5l-0.9,1.8L139.7,174.5z"/>
	<path class="st0" d="M138.6,165.4l0.8-1.6l8.9,4.4l-0.8,1.6L138.6,165.4z"/>
	<path class="st0" d="M147.7,163.8c0,0,1.4-0.5,2.1-1.7c0.3-0.7,0.3-1.5-0.4-1.8c-1.6-0.8-3.4,3.5-6.2,2.1c-1.5-0.8-1.9-2.6-1-4.3
		c0.9-1.7,2.3-2.2,2.3-2.2l0.9,1.4c0,0-1.2,0.5-1.8,1.6c-0.4,0.7-0.2,1.6,0.4,1.9c1.6,0.8,3.3-3.6,6.1-2.1c1.4,0.7,2,2.4,1.1,4.2
		c-1,2-2.8,2.4-2.8,2.4L147.7,163.8z"/>
	<path class="st0" d="M147.4,151.8l-1.6,2.9l-1.4-0.7l4-7.3l1.4,0.7l-1.6,2.9l7.4,4l-0.9,1.6L147.4,151.8z"/>
	<path class="st0" d="M149.6,144.5l3-5.1l1.3,0.8l-2.1,3.6l2.3,1.3l1.7-2.9l1.3,0.8l-1.7,2.9l2.3,1.3l2.2-3.8l1.3,0.8l-3.1,5.3
		L149.6,144.5z"/>
	<path class="st0" d="M154.2,136.7l0.9-1.5l6.9-0.2c0.7,0,1.7,0.1,1.7,0.1l0,0c0,0-0.9-0.4-1.4-0.7l-4.9-3l0.9-1.5l8.5,5.2l-0.9,1.5
		l-6.8,0.2c-0.7,0-1.7-0.1-1.7-0.1l0,0c0,0,0.9,0.4,1.4,0.7l4.9,3l-0.9,1.5L154.2,136.7z"/>
	<path class="st0" d="M162.7,122.9c1.3-2,3.2-2.3,3.2-2.3l0.6,1.5c0,0-1.5,0.4-2.4,1.7c-1.2,1.7-0.5,3.6,1,4.7
		c1.6,1,3.7,0.9,4.8-0.8c1-1.4,0.5-3.1,0.5-3.1l1.6-0.1c0,0,0.6,2-0.8,4.1c-1.7,2.5-4.7,3-7.2,1.4
		C161.7,128.4,161.1,125.4,162.7,122.9z"/>
	<path class="st0" d="M166.6,117.6l1-1.5l8.1,5.7l-1,1.5L166.6,117.6z"/>
	<path class="st0" d="M178.6,113.6l-2.1,2.8l1.6,2.2l-1.1,1.5l-5.9-8.7l1.1-1.5l10.1,3.1l-1.1,1.5L178.6,113.6z M172.9,111.6
		c0,0,0.7,0.8,1,1.2l1.6,2.3l1.5-2.1l-2.7-0.9C173.9,112,173,111.6,172.9,111.6L172.9,111.6z"/>
	<path class="st0" d="M175.6,105.2l1.1-1.4l6.6,5.2l2.6-3.4l1.2,1l-3.8,4.8L175.6,105.2z"/>
</g>
</svg>
