<svg version="1.1" id="egg-base-outline" xmlns="http://www.w3.org/2000/svg" xmlns:xlink="http://www.w3.org/1999/xlink" x="0px" y="0px"
	 viewBox="0 0 1920 1080" style="enable-background:new 0 0 1920 1080;" xml:space="preserve">
<style type="text/css">
	.egg-base-outline-0{fill:none;stroke:#FFFFFF;stroke-width:3;stroke-miterlimit:10;}
	.egg-base-outline-1{fill:none;stroke:#FFFFFF;stroke-width:2;stroke-miterlimit:10;}
</style>
<g>
	<path id="egg-base-outline-0" class="egg-base-outline-0" d="M959.5,399.8c-22.3,0-47.6,17.8-67.6,47.6c-20.6,30.6-32.4,68.8-32.4,104.8c0,36,10.3,68.8,29,92.2
		c18.4,23.1,43.6,35.8,71,35.8s52.6-12.7,71-35.8c18.7-23.4,29-56.1,29-92.2c0-36.4-11.4-74.6-31.4-104.9
		C1008.3,417.6,982.7,399.8,959.5,399.8z"/>
</g>
<path class="egg-base-outline-1" d="M872.5,486.3c-85.3,103-381,187-871,88"/>
<path class="egg-base-outline-1" d="M872.5,618.5C482,402,319,649,1.5,728"/>
<path class="egg-base-outline-1" d="M1047.5,486.3c85.3,103,381,187,871,88"/>
<path class="egg-base-outline-1" d="M1047.5,618.5C1438,402,1601,649,1918.5,728"/>
</svg>
