<svg version="1.1" id="ovo-chip ovo-chip-light" xmlns="http://www.w3.org/2000/svg" xmlns:xlink="http://www.w3.org/1999/xlink" x="0px" y="0px"
	 viewBox="0 0 1920 1080" style="enable-background:new 0 0 1920 1080;" xml:space="preserve">
<style type="text/css">
	.st0{fill-rule:evenodd;clip-rule:evenodd;}
	.st1{fill-rule:evenodd;clip-rule:evenodd;fill:none;stroke:#FFFFFF;stroke-miterlimit:10;}
</style>
<defs>
<mask id="ovo-chip-mask"><polyline class="st1" points="-3.9,789 877.7,789 877.7,733.8 "/></mask>
</defs>
<g mask="url(#ovo-chip-mask)">
	<path class="st0" d="M1028.2,540.4c0-3.5-2.8-6.3-6.3-6.3c-3.5,0-6.3,2.8-6.3,6.3c0,2.9,1.9,5.3,4.6,6.1v28.9
		c-2.6,0.8-4.6,3.2-4.6,6.1c0,3.5,2.8,6.3,6.3,6.3c3.5,0,6.3-2.8,6.3-6.3c0-2.9-1.9-5.3-4.6-6.1v-28.9
		C1026.3,545.7,1028.2,543.3,1028.2,540.4z M1025.7,581.5c0,2.1-1.7,3.8-3.8,3.8c-2,0-3.8-1.7-3.8-3.8c0-1.8,1.8-3.8,3.8-3.8
		C1024,577.6,1025.7,579.6,1025.7,581.5z M1021.9,544.2c-2,0-3.8-1.7-3.8-3.8c0-2.1,1.8-3.8,3.8-3.8c2.1,0,3.8,1.7,3.8,3.8
		C1025.7,542.5,1024,544.2,1021.9,544.2z"/>
	<path class="st0" d="M979.1,335.5c0,0.1,0,0.1,0.1,0.2c0,0,0,0.1,0.1,0.1c0,0.1,0.1,0.1,0.1,0.2c0,0.1,0.1,0.1,0.1,0.6
		c0-0.4,0-0.4,0.1-0.4l20,20v60.9c0,0.1,0,0.2,0,0.4c0,0,0,0.1,0,0.1c0,0.1,0,0.1,0.2,0.2c0.2,0,0.4,0.2,0.2,0.5c0,0,0,0.1,0.1,0.1
		c0,0,0,0,0,0l20,20v75.3c-2.6,0.8-4.6,3.2-4.6,6.3c0,3.3,2.8,6.2,6.3,6.2c3.5,0,6.3-2.8,6.3-6.2c0-3.1-1.9-5.5-4.6-6.3v-76
		c0-0.1,0-0.2,0,0.3c0-0.4,0-0.7,0-0.7c0-0.1,0-0.1,0.4-0.2c-0.2-0.1-0.5-0.1-0.5-0.2c0-0.1-0.1-0.1-0.1-0.2
		c-0.1-0.1-0.1-0.2-0.2-0.3c0,0,0,0,0,0l-20-20v-60.9c0,0,0,0.6,0,0.6c0-0.7,0-0.8,0-1c0-0.1,0-0.1,0-0.2c0-0.1,0-0.1-0.1-0.2
		c0-0.1-0.1,0.1-0.1-0.2c0,0,0-0.1-0.1-0.1c-0.1-0.1,0.3-0.2-0.2-0.3c0,0,0,0,0,0l-19.7-20v-52.6c-1.5-0.3-2.7,0-3.9-0.7V335
		c0,0.1,0,0.2,0,0.4C979.1,335.6,979.1,336,979.1,335.5z M1025.7,520c0,1.9-1.7,3.6-3.8,3.6c-2,0-3.8-1.7-3.8-3.6c0-2.3,1.8-4,3.8-4
		C1024,516,1025.7,517.7,1025.7,520z"/>
	<path class="st0" d="M1043.7,705.9l20.5-20.5c0,0,0,0,0,0c0,0,0.1-0.1,0.3-0.1c0-0.1,0-0.1,0.1-0.1c0-0.1,0-0.3,0-0.3
		c0-0.1,0-0.1,0.1-0.2c0,0,0-0.1,0-0.1c0-0.1,0-0.2,0-0.4V602c0-1-0.8-1.3-1.4-1.3h-14.8c-0.8-3.2-3.2-5.1-6.1-5.1
		c-3.5,0-6.3,2.8-6.3,6.3c0,3.5,2.8,6.5,6.3,6.5c2.9,0,5.3-2.1,6.1-4.7h12.6v79.6l-16.9,17v-71.7c2.6-0.8,4.6-3.2,4.6-6.1
		c0-3.5-2.8-6.3-6.3-6.3s-6.3,2.8-6.3,6.3c0,2.9,1.9,5.3,4.8,6.1v76.1c0,0,0.1,0.1,0.1,0.1c0,0.1,0.1,0.2,0.2,0.4
		c-0.6-0.1-0.6-0.1-0.5,0c0,0,0,0.1,0,0.1c0,0.1,0.1,0.1,0.1,0.2c0,0,0,0.1,0.1,0.1c0.2,0.3,1.1,0.5,0.8,0.7c0,0,0,0,0,0
		c0.2,0.1,0.4,0.1,0.7,0.1c0.2,0,0.9,0,0.7-0.1c0,0,0,0,0,0C1043.3,706.2,1043.5,706.1,1043.7,705.9z M1042.4,605.8
		c-2.1,0-3.8-1.7-3.8-3.8c0-2.1,1.7-3.8,3.8-3.8s3.8,1.7,3.8,3.8C1046.2,604.1,1044.5,605.8,1042.4,605.8z M1042.4,626.3
		c-2.1,0-3.8-1.7-3.8-3.8c0-2.1,1.7-3.8,3.8-3.8s3.8,1.7,3.8,3.8C1046.2,624.6,1044.5,626.3,1042.4,626.3z"/>
	<path class="st0" d="M960.5,300.3c3.3,0,6.2-2.8,6.2-6.3c0-2.9-1.9-5.3-4.6-5.6v-9.1c-1.2,0-2.4,0-3.6,0v9.1
		c-2.1,0.3-4.6,2.7-4.6,5.6C953.9,297.5,956.8,300.3,960.5,300.3z M960.5,290.1c1.9,0,3.6,1.7,3.6,3.8c0,2.7-1.7,3.8-3.6,3.8
		c-2.3,0-4-1.1-4-3.8C956.5,291.9,958.2,290.1,960.5,290.1z"/>
	<path class="st0" d="M1064.8,685.1c-0.1,0-0.2,0-0.3,0c0,0,0,0.1,0,0.1C1064.6,685.2,1064.7,685.1,1064.8,685.1z"/>
	<path class="st0" d="M1064.5,685.5c0,0,0-0.2,0-0.3c0,0,0,0,0,0C1064.5,685.3,1064.5,685.3,1064.5,685.5z"/>
	<path class="st0" d="M1130.9,458.2c0-3.5-2.8-6.3-6.3-6.3c-3.5,0-6.3,2.8-6.3,6.3c0,3.3,1.9,5.3,4.6,6.1v49.4
		c-2.6,0.8-4.6,3.2-4.6,6.3c0,3.3,2.8,6.2,6.3,6.2c3.5,0,6.3-2.8,6.3-6.2c0-3.1-1.9-5.5-4.6-6.3v-49.4
		C1128.9,463.6,1130.9,461.5,1130.9,458.2z M1128.3,520c0,1.9-1.7,3.6-3.8,3.6c-1.8,0-3.8-1.7-3.8-3.6c0-2.3,2-4,3.8-4
		C1126.6,516,1128.3,517.7,1128.3,520z M1124.5,462c-1.8,0-3.8-1.6-3.8-3.8c0-2.1,2-3.4,3.8-3.4c2.1,0,3.8,1.3,3.8,3.4
		C1128.3,460.4,1126.6,462,1124.5,462z"/>
	<path class="st0" d="M1138.7,622.5c0,3.5,2.8,6.3,6.3,6.3c3.5,0,6.4-2.8,6.4-6.3c0-3.5-2.9-6.3-6.4-6.3
		C1141.5,616.2,1138.7,619,1138.7,622.5z M1148.8,622.5c0,2.1-1.7,3.8-3.8,3.8c-2.1,0-3.8-1.7-3.8-3.8c0-2.1,1.7-3.8,3.8-3.8
		C1147.1,618.7,1148.8,620.4,1148.8,622.5z"/>
	<path class="st0" d="M974.5,396.6c0,3.9,2.8,6.3,6.3,6.3c3.5,0,6.3-2.5,6.3-6.3c0-2.9-1.9-5.3-4.3-6.1v-28.9
		c2.3-0.8,4.3-3.2,4.3-6.1c0-3.5-2.8-6.3-6.3-6.3c-3.5,0-6.3,2.8-6.3,6.3c0,2.9,1.9,5.3,4.6,6.1v28.9
		C976.4,391.3,974.5,393.7,974.5,396.6z M977,355.6c0-2.1,1.7-3.8,3.8-3.8s3.8,1.7,3.8,3.8s-1.7,3.8-3.8,3.8S977,357.7,977,355.6z
		 M980.8,392.8c2.1,0,3.8,1.7,3.8,3.8s-1.7,3.8-3.8,3.8s-3.8-1.7-3.8-3.8S978.7,392.8,980.8,392.8z"/>
	<path class="st0" d="M1124.5,534c-2.9,0-5.3,1.9-6.1,4.6h-32.7v-59.1l40.5-41c-0.5-1.1-1-2.4-1.5-3.6l-42.6,43.2c0-0.6,0-0.6,0-0.6
		c-0.1,0.1-0.1,0.1-0.2,0.2c0,0-0.1,0.1-0.1,0.2c0,0.1-0.1,0.1-0.1,0.2c0,0.1,0,0.4-0.1,0.2c0,0,0,0.1,0,0.1c0,0.1,0,0.2,0,0.4v61.6
		c0,1,0.8,2.1,1.8,2.1h35c0.8,2.3,3.2,4.2,6.1,4.2c3.5,0,6.3-2.8,6.3-6.3C1130.9,536.9,1128,534,1124.5,534z M1124.5,544.2
		c-1.8,0-3.8-1.7-3.8-3.8c0-2.1,2-3.8,3.8-3.8c2.1,0,3.8,1.7,3.8,3.8C1128.3,542.5,1126.6,544.2,1124.5,544.2z"/>
	<path class="st0" d="M1085.7,710.8c2.2-0.8,4.1-3.2,4.1-6.1c0-3.5-2.8-6.2-6.3-6.2c-3.5,0-6.3,2.7-6.3,6.2c0,2.9,1.9,5.3,4.6,6.1
		v41.8h0v3.7h840.1v-3.7h-836V710.8z M1079.6,704.7c0-2.1,1.7-3.8,3.8-3.8c2.1,0,3.8,1.7,3.8,3.8c0,2.1-1.7,3.8-3.8,3.8
		C1081.4,708.5,1079.6,706.8,1079.6,704.7z"/>
	<path class="st0" d="M1104,616.2c-3.5,0-6.3,2.8-6.3,6.3c0,3.5,2.8,6.3,6.3,6.3c1.1,0,2.1-0.3,3-0.8l15.7,15.7v62.1
		c1.2-2.1,2.4-4.2,3.6-6.3v-56.5c0,0,0,0,0,0c0-0.1,0-0.2,0-0.3c0-0.1,0-0.1,0,0.1c0-0.3,0-0.4,0.6-0.4c-0.2-0.1-0.6-0.1-0.7-0.2
		c0,0,0-0.1-0.1-0.1c-0.1-0.1-0.1-0.2-0.2,0.1c0-0.1,0-0.2,0-0.3l-16.2-16.3c0.5-0.9,0.8-1.9,0.8-3
		C1110.3,619,1107.5,616.2,1104,616.2z M1104,626.3c-2.1,0-3.8-1.7-3.8-3.8c0-2.1,1.7-3.8,3.8-3.8c2.8,0,3.8,1.7,3.8,3.8
		C1107.8,624.6,1106.7,626.3,1104,626.3z"/>
	<path class="st0" d="M1118.2,602c0,3.5,2.8,6.5,6.3,6.5c3.5,0,6.3-3,6.3-6.5c0-2.9-1.9-5.3-4.6-6.1v-35c0-1-0.8-1.8-1.8-1.8
		c0,0,0,0,0,0h-59.8v-79.6l40.5-40.5c0,0,0.1,0,0.2,0c0-0.1,0-0.2,0-0.2c0-0.1,0.1-0.1,0.1-0.2c0,0,0.1-0.1,0.1-0.1
		c0-0.1,0-0.1,0.1-0.2c0,0,0-0.1,0,0.1c0-0.4,0-0.5,0-0.6v-41.8c-0.6-2.1-2.4-4.2-3.6-6.3V437l-40.5,41.2c0-0.1,0-0.2-0.1-0.3
		c-0.1,0-0.2,0.1-0.2,0.1c0,0.1-0.1,0.1-0.1,0.2c0,0.1,0,0.3-0.1,0.2c0,0.1,0,0.1,0,0.2c0,0.1,0,0.2,0,0.3c0,0,0,0,0,0v0v82.1
		c0,1,0.8,1.8,2.2,1.8h59.4v33.2C1120.1,596.7,1118.2,599.1,1118.2,602z M1124.5,598.2c2.1,0,3.8,1.7,3.8,3.8c0,2.1-1.7,3.8-3.8,3.8
		c-1.8,0-3.8-1.7-3.8-3.8C1120.7,599.9,1122.7,598.2,1124.5,598.2z"/>
	<path class="st0" d="M1063.3,423.5c3.1,0,6-2.8,6-6.3c0-2.4-1.5-5.3-4.6-6.1v-74.9h856.2v-3.7h-859.7v0c0,0,0,0,0,0v78.6
		c-2.6,0.8-4.6,3.7-4.6,6.1C1056.6,420.7,1059.4,423.5,1063.3,423.5z M1063.3,413.4c1.7,0,3.4,1.7,3.4,3.8s-1.7,4.3-3.4,4.3
		c-2.5,0-4.2-2.2-4.2-4.3S1060.8,413.4,1063.3,413.4z"/>
	<path class="st0" d="M1102.2,649.2v85.9c1.2-1.5,2.4-2.9,3.6-4.4v-81.5c2.6-0.8,4.6-3.2,4.6-6.1c0-3.4-2.8-6.3-6.3-6.3
		c-3.5,0-6.3,3-6.3,6.3C1097.6,645.9,1099.6,648.4,1102.2,649.2z M1104,639.3c2.8,0,3.8,1.7,3.8,3.8c0,2.1-1.1,3.8-3.8,3.8
		c-2.1,0-3.8-1.7-3.8-3.8C1100.2,641,1101.9,639.3,1104,639.3z"/>
	<path class="st0" d="M1063.3,451.9c-3.9,0-6.7,2.8-6.7,6.3c0,3.5,2.8,6.3,6.7,6.3c3.1,0,6-2.8,6-6.3c0-1.1-0.3-2.1-0.8-2.4
		l11.9-12.1c0.9,0.1,1.9,0.4,3,0.4c3.5,0,6.3-2.8,6.3-6.3c0-3.5-2.8-6.1-6.3-6.1c-3.5,0-6.3,2.6-6.3,6.1c0,1.4,0.3,2.1,0.8,3
		l-11.9,11.9C1065.1,452.3,1064,451.9,1063.3,451.9z M1083.5,433.9c2.1,0,3.8,1.7,3.8,3.8c0,2.1-1.7,3.8-3.8,3.8
		c-2.1,0-3.8-1.7-3.8-3.8C1079.6,435.6,1081.4,433.9,1083.5,433.9z M1063.3,462c-2.5,0-4.2-1.6-4.2-3.8c0-2.1,1.7-3.4,4.2-3.4
		c1.7,0,3.4,1.3,3.4,3.4C1066.7,460.4,1065,462,1063.3,462z"/>
	<path class="st0" d="M938,294.5c0,0.2,0,0.1,0.1,0.2c0,0.1,0.1,0.1,0.1,0.2c0,0,0,0.1,0.1,0.1c0.1,0.1,0.1,0.2,0.2,0.3c0,0,0,0,0,0
		l16.2,16.2c-0.5,1.2-0.8,1.9-0.8,3c0,3.5,2.8,6.3,6.5,6.3c3.3,0,6.2-2.8,6.2-6.3c0-3.5-2.8-6.3-6.2-6.3c-1.3,0-2.3,0.3-3.2,0.8
		l-15.7-15.7V281c-1.2,0.8-2.4,0.5-3.5,0.7V294c0,0,0,0,0,0c0,0,0,0,0,0c0,0.1,0.1,0.2,0.3,0.3C938.5,294.4,938,294.4,938,294.5z
		 M960.5,310.7c1.9,0,3.6,2,3.6,3.8c0,2.1-1.7,3.8-3.6,3.8c-2.3,0-4-1.7-4-3.8C956.5,312.7,958.2,310.7,960.5,310.7z"/>
	<path class="st0" d="M999.6,335.5c0,0.1,0,0.1,0.2,0.2c0.2,0.1,0.5,0.1,0,0.2c0,0.1,0.1,0.1,0.1,0.2c0.1,0.1,0.1,0.6,0.2,0.2
		c0,0,0,0,0,0l20,20v54.8c-2.6,0.8-4.6,3.7-4.6,6.1c0,3.5,2.8,6.3,6.3,6.3c3.5,0,6.3-2.8,6.3-6.3c0-2.4-1.9-5.3-4.6-6.1v-55.5
		c0-0.1,0-0.2,0-0.4c0,0,0-0.1,0-0.1c0-0.1,0-0.1,0.4-0.2c-0.2-0.1-0.5,0.2-0.5-0.2c0-0.1-0.1-0.1-0.1-0.2c-0.1-0.1-0.1-0.2-0.2-0.3
		c0,0,0,0,0,0l-20-20v-45.8c-0.9-0.5-2.4-1-3.6-1.5v48c0,0.1,0,0.2,0,0.4C999.6,335.6,999.6,336,999.6,335.5z M1025.7,417.2
		c0,2.1-1.7,4.3-3.8,4.3c-2,0-3.8-2.2-3.8-4.3s1.8-3.8,3.8-3.8C1024,413.4,1025.7,415.1,1025.7,417.2z"/>
	<path class="st0" d="M1063.3,718.9c-3.9,0-6.7,2.8-6.7,6.3c0,3.3,1.9,5.3,4.6,6.1v40.4c1.2-0.8,2.4-1.6,3.6-2.4v-38
		c3.1-0.8,4.6-2.8,4.6-6.1C1069.3,721.7,1066.4,718.9,1063.3,718.9z M1063.3,729c-2.5,0-4.2-1.3-4.2-3.8c0-2.1,1.7-3.4,4.2-3.4
		c1.7,0,3.4,1.3,3.4,3.4C1066.7,727.7,1065,729,1063.3,729z"/>
	<path class="st0" d="M999.8,418.6c0.1-0.1,0.2-0.2,0.2-0.2c0-0.1-0.1-0.1-0.1-0.2C999.8,418.1,999.8,418.1,999.8,418.6z"/>
	<path class="st0" d="M1110.3,478.8c0-3-2.8-6.3-6.3-6.3c-3.5,0-6.3,3.4-6.3,6.3c0,2.9,1.9,5.3,4.6,6.1v28.9
		c-2.6,0.8-4.6,3.2-4.6,6.3c0,3.3,2.8,6.2,6.3,6.2c3.5,0,6.3-2.8,6.3-6.2c0-3.1-1.9-5.5-4.6-6.3v-28.9
		C1108.4,484.1,1110.3,481.7,1110.3,478.8z M1107.8,520c0,1.9-1.1,3.6-3.8,3.6c-2.1,0-3.8-1.7-3.8-3.6c0-2.3,1.7-4,3.8-4
		C1106.7,516,1107.8,517.7,1107.8,520z M1104,482.6c-2.1,0-3.8-1.7-3.8-3.8c0-2.1,1.7-3.8,3.8-3.8c2.8,0,3.8,1.7,3.8,3.8
		C1107.8,480.9,1106.7,482.6,1104,482.6z"/>
	<path class="st0" d="M1061.6,477.8c0.1,0,0.1,0,0.2,0C1061.6,477.7,1061.6,477.6,1061.6,477.8z"/>
	<path class="st0" d="M1105.8,438.9c-0.1,0-0.2,0-0.3,0C1105.5,439.1,1105.6,439.1,1105.8,438.9z"/>
	<path class="st0" d="M1042.4,341.6c3.5,0,6.3-3,6.3-6.5c0-2.9-1.9-5.3-4.6-6.1v-13.4c-1.2-1.1-2.4-2.1-3.3-3.1v16.5
		c-2.9,0.8-4.8,3.2-4.8,6.1C1036.1,338.5,1038.9,341.6,1042.4,341.6z M1042.4,331.2c2.1,0,3.8,1.7,3.8,3.8s-1.7,3.8-3.8,3.8
		s-3.8-1.7-3.8-3.8S1040.3,331.2,1042.4,331.2z"/>
	<path class="st0" d="M1020.1,335.4c0,0.3,0,0.1,0,0.2c0,0.1,0,0.1,0.1,0.2c0,0.1,0.1,0.1,0.1,0.2c0,0,0,0.1,0.1,0.1
		c0.1,0.1,0.4,0.8,0.2,0.3l20.3,20v75.3c-2.9,0.8-4.8,3.2-4.8,6.1c0,3.5,2.8,6.3,6.3,6.3c3.5,0,6.3-2.8,6.3-6.3
		c0-2.9-1.9-5.3-4.6-6.1v-76c0-0.1,0-0.2,0-0.4c0,0,0-0.1,0-0.1c0-0.1,0-0.1-0.1-0.2c0,0,0,0.3-0.1-0.1c0-0.1-0.1-0.1-0.1-0.2
		c0-0.1-0.1-0.1-0.2-0.2c0,0,0-0.1-0.1-0.1l-20-20v-34.6c-1.2-0.8-2.1-1.5-3.6-2.3V335c0,0,0,0,0,0
		C1020.1,335.1,1020.1,335.3,1020.1,335.4z M1046.2,437.7c0,2.1-1.7,3.8-3.8,3.8s-3.8-1.7-3.8-3.8c0-2.1,1.7-3.8,3.8-3.8
		S1046.2,435.6,1046.2,437.7z"/>
	<path class="st0" d="M878.2,472.4c-3.5,0-5.9,3.4-5.9,6.3c0,3.5,2.4,6.3,5.9,6.3c1.7,0,2.1-0.3,3-0.8l56.8,56.8v101.2l-17,17V540.4
		c0-0.1,0-0.2,0-0.4c0,0,0,0.2,0-0.1c0.6-0.1,0.5-0.1,0.2-0.2c0.3-0.1-0.3-0.1-0.4-0.2c0,0,0-0.1-0.1-0.1c-0.1-0.1-0.1,0.1-0.2-0.3
		l-16.2-16.2c0.5-0.9,0.8-1.9,0.8-2.9c0-3.7-2.8-6.5-6.3-6.5s-6.3,2.8-6.3,6.5c0,3.3,2.8,6.2,6.3,6.2c1.1,0,2.7-0.3,3-0.8l15.7,15.7
		v122.5c0,0.1,0,0.2,0,0.4c0,0,0,0.1,0,0.1c0,0.6,0,0.1,0.1,0.2c0,0.1,0.1,0.1,0.1,0.2c0,0.1,0.1,0.1,0.1,0.2
		c0.1,0.1,0.1,0.2,0.7,0.2c0.1,0,0.2,0.2-0.4,0.3c0,0,0,0,0,0c0.2-0.1,0.4,0,0.6,0.1c0,0,0,0,0,0c0.2,0.1,0.4,0.1,0.7,0.1
		c0.2,0,0.5,0,0.7-0.1c0,0,0,0,0,0c0.4-0.1,0.4-0.2,0.6-0.1c0,0,0,0,0,0l20.5-20.8c0,0,0,0,0,0c0.1-0.1,0.1-0.2,0.2,0.1
		c0-0.4,0.1-0.5,0.1-0.5c0-0.1,0.1-0.1,0.1-0.2c0-0.1,0-0.1,0.1-0.2c0-0.1,0-0.1,0-0.2c0,0.1,0-0.2,0-0.3c0,0,0,0,0,0V540.4
		c0-0.1,0-0.2,0-0.4c0,0,0,0.4,0,0c0-0.2,0-0.3-0.1-0.4c0-0.1-0.1-0.1-0.1-0.2c0-0.1-0.1-0.1-0.1-0.2c-0.1-0.1-0.1,0.1-0.2-0.3
		l-56.6-57.3c-0.2-0.9,0.1-1.9,0.1-3C884.5,475.8,881.7,472.4,878.2,472.4z M878.2,482.6c-2.1,0-3.8-1.7-3.8-3.8
		c0-2.1,1.7-3.8,3.8-3.8s3.8,1.7,3.8,3.8C882,480.9,880.3,482.6,878.2,482.6z M898.7,523.7c-2.1,0-3.2-1.7-3.2-3.6
		c0-2.3,1.1-4,3.2-4c2.4,0,3.8,1.7,3.8,4C902.5,521.9,901.1,523.7,898.7,523.7z"/>
	<path class="st0" d="M962.1,520C962.1,520,962.1,520,962.1,520l0,0.3C962.1,520.2,962.1,520.1,962.1,520z"/>
	<path class="st0" d="M987.2,458.2c0-3.5-2.8-6.3-6.3-6.3s-6.3,2.8-6.3,6.3c0,3.3,1.9,5.3,4.6,6.1v70c-2.6,0.8-4.6,3.2-4.6,6.1
		c0,3.5,2.8,6.3,6.3,6.3s6.3-2.8,6.3-6.3c0-2.9-1.9-5.3-4.3-6.1v-70C985.2,463.6,987.2,461.5,987.2,458.2z M984.6,540.4
		c0,2.1-1.7,3.8-3.8,3.8c-2.1,0-3.8-1.7-3.8-3.8c0-2.1,1.7-3.8,3.8-3.8C982.9,536.6,984.6,538.3,984.6,540.4z M980.8,462
		c-2.1,0-3.8-1.6-3.8-3.8c0-2.1,1.7-3.4,3.8-3.4c2.1,0,3.8,1.3,3.8,3.4C984.6,460.4,982.9,462,980.8,462z"/>
	<path class="st0" d="M857.6,628.9c3.5,0,6.3-2.8,6.3-6.3c0-3.5-2.8-6.3-6.3-6.3c-2.9,0-5.3,1.9-6.1,4.6h-83
		c0.1,1.2,0.2,2.4,0.4,3.6h82.6C852.3,627.3,854.8,628.9,857.6,628.9z M857.6,618.7c2.1,0,3.8,1.7,3.8,3.8c0,2.1-1.7,3.8-3.8,3.8
		c-2.1,0-3.8-1.7-3.8-3.8C853.8,620.4,855.5,618.7,857.6,618.7z"/>
	<path class="st0" d="M851.5,644.9c0.8,2.6,3.2,4.6,6.1,4.6c3.5,0,6.3-2.8,6.3-6.3c0-3.4-2.8-6.3-6.3-6.3c-2.9,0-5.3,1.9-6.1,4.6
		h-79.3c0.3,1.2,0.6,2.4,0.9,3.6H851.5z M857.6,639.3c2.1,0,3.8,1.7,3.8,3.8c0,2.1-1.7,3.8-3.8,3.8c-2.1,0-3.8-1.7-3.8-3.8
		C853.8,641,855.5,639.3,857.6,639.3z"/>
	<path class="st0" d="M876.4,411.1c-2.6,0.8-4.1,3.7-4.1,6.1c0,3.5,2.4,6.3,5.9,6.3c3.5,0,6.3-2.8,6.3-6.3c0-2.4-1.9-5.3-4.5-6.1
		v-55.5c0-1-0.9-1.8-1.9-1.8H-2.1c-0.9,1.2-1.8,2.4-2.6,3.6h881.1V411.1z M882,417.2c0,2.1-1.7,4.3-3.8,4.3s-3.8-2.2-3.8-4.3
		s1.7-3.8,3.8-3.8S882,415.1,882,417.2z"/>
	<path class="st0" d="M857.6,382.4c3.5,0,6.3-2.8,6.3-6.3c0-3-2.8-6.3-6.3-6.3c-2.9,0-5.3,1.9-6.1,4.6h-23.9
		c-0.8,1.2-1.5,2.4-2.3,3.6h26.1C852.3,380.5,854.8,382.4,857.6,382.4z M857.6,372.3c2.1,0,3.8,1.7,3.8,3.8s-1.7,3.8-3.8,3.8
		c-2.1,0-3.8-1.7-3.8-3.8S855.5,372.3,857.6,372.3z"/>
	<path class="st0" d="M857.6,403c3.5,0,6.3-2.5,6.3-6.3c0-3.5-2.8-6.3-6.3-6.3c-2.9,0-5.3,1.9-6.1,4.6h-8.4
		c-0.8-2.6-3.2-4.6-6.1-4.6c-3.5,0-6.3,2.8-6.3,6.3c0,3.9,2.8,6.3,6.3,6.3c2.9,0,5.3-1.9,6.1-4.6h8.4
		C852.3,401.1,854.8,403,857.6,403z M857.6,392.8c2.1,0,3.8,1.7,3.8,3.8s-1.7,3.8-3.8,3.8c-2.1,0-3.8-1.7-3.8-3.8
		S855.5,392.8,857.6,392.8z M837.1,400.4c-2.1,0-3.8-1.7-3.8-3.8s1.7-3.8,3.8-3.8c2.1,0,3.8,1.7,3.8,3.8S839.2,400.4,837.1,400.4z"
		/>
	<path class="st0" d="M962.1,520C962.1,520,962.1,520,962.1,520C962.1,520,962.1,520,962.1,520z"/>
	<path class="st0" d="M961.6,644.2c0.1-0.1,0.1-0.1,0.4,0.2c0.3-0.4-0.2-0.5-0.1-0.5c0-0.1,0.1-0.1,0.1-0.2c0-0.1,0-0.1,0.1-0.2
		c0-0.1,0-0.1,0-0.2c0,0.3,0-0.2,0-0.3c0,0,0,0,0-0.1V540.4c0,0,0-0.1,0-0.1c0-0.1,0-0.2,0-0.3c0,0.6,0,0-0.1-0.2
		c0-0.1,0-0.1-0.1-0.2c0-0.1-0.1-0.1-0.1-0.2c0,0,0.4-0.1,0.1-0.1c-0.3-0.1-0.3-0.1-0.4,0c0,0.1,0-0.3-0.1-0.3l-17.5-17.5h16.4
		c0.8,0,1.6-0.8,1.6-1.6v-98.5l13.2,13.2c-0.5,0.9-0.8,2.5-0.8,3c0,3.5,2.8,6.3,6.3,6.3s6.3-2.8,6.3-6.3c0-3.5-2.8-6.1-6.3-6.1
		c-1.1,0-2.1,0.1-3,1.1l-16.2-16.7c0,0,0,0,0,0c-0.2,0-0.4-0.3-0.6-0.4c0,0,0,0,0,0c-0.2-0.1-0.4-0.1-0.5-0.1c-0.4,0-0.6,0-0.9,0.1
		c0,0,0,0,0,0c-0.3,0.1-0.6,0.4-0.7,0.7c-0.2,0-0.2,0.1-0.2,0.1c0,0.1-0.1,0.1-0.1,0.4c0-0.1,0-0.1-0.1,0c0,0.1,0,0.1,0,0.2
		c0,0.1,0,0.2,0,0.4v100.9h-18l-37.3-37.5h16c1,0,1.8-0.8,1.8-1.8V361.7c2.6-0.8,4.6-3.2,4.6-6.1c0-3.5-2.8-6.3-6.3-6.3
		c-3.5,0-6.3,2.8-6.3,6.3c0,2.9,1.9,5.3,4.6,6.1V477h-18l-36.2-36.2c0.5-0.9,0.8-1.6,0.8-3c0-3.5-2.8-6.1-6.3-6.1
		c-3.5,0-6.3,2.6-6.3,6.1c0,3.5,2.8,6.3,6.3,6.3c1.1,0,2.1-0.3,3.6-0.4l36.2,36.3c0,0,0,0,0,0l41.1,41.1c0,0,0,0,0,0l20,20v101.2
		L918,682.9c0.5,0,0.4,0,0.2,0.1c-0.3,0.1-0.4,0.1-0.4,0.2c0,0.1-0.1,0.1-0.1,0.2c0,0-0.1,0.1-0.1,0.3c0-0.1,0,0-0.1,0
		c0,0,0,0.1,0,0.1c0,0.1,0,0.2,0,0.4v112.5c1.3,0.3,2.4,0.6,3.6,0.8V684.9L961.6,644.2C961.6,644.3,961.6,644.3,961.6,644.2z
		 M980.8,433.9c2.1,0,3.8,1.7,3.8,3.8c0,2.1-1.7,3.8-3.8,3.8c-2.1,0-3.8-1.7-3.8-3.8C977,435.6,978.7,433.9,980.8,433.9z
		 M915.4,355.6c0-2.1,1.7-3.8,3.8-3.8c2.1,0,3.8,1.7,3.8,3.8s-1.7,3.8-3.8,3.8C917.1,359.4,915.4,357.7,915.4,355.6z M857.6,441.5
		c-2.1,0-3.8-1.7-3.8-3.8c0-2.1,1.7-3.8,3.8-3.8c2.1,0,3.8,1.7,3.8,3.8C861.4,439.8,859.7,441.5,857.6,441.5z"/>
	<path class="st0" d="M781.9,560.9c0-3.5-2.8-6.3-6.3-6.3c-3.5,0-6.1,2.8-6.1,6.3c0,2.9,1.6,5.3,4.3,6.1v14.4c0,1,0.8,1.8,1.8,1.8
		H790c1,2.6,3.2,4.6,6.1,4.6c3.5,0,6.3-2.8,6.3-6.3c0-3.5-2.8-6.3-6.3-6.3c-2.9,0-5.1,1.9-6.1,4.6h-12.6V567
		C779.9,566.2,781.9,563.8,781.9,560.9z M796.1,577.6c2.2,0,3.8,2,3.8,3.8c0,2.1-1.6,3.8-3.8,3.8c-2.1,0-3.4-1.7-3.4-3.8
		C792.7,579.6,793.9,577.6,796.1,577.6z M775.5,564.7c-2.1,0-3.8-1.1-3.8-3.8c0-2.1,1.7-3.8,3.8-3.8c2.1,0,3.8,1.7,3.8,3.8
		C779.3,563.6,777.6,564.7,775.5,564.7z"/>
	<path class="st0" d="M898.7,534c-3.5,0-6.3,2.8-6.3,6.3c0,2.9,1.9,5.3,4.6,6.1v33.2h-79.6l-40-40v-34.2c2.6-0.8,4.6-3.2,4.6-6.1
		c0-3.5-2.8-6.3-6.3-6.3c-3.5,0-6.1,2.8-6.1,6.3c0,2.9,1.6,5.3,4.3,6.1v35c0,0.1,0,0.2,0,0.4c0,0,0,0.1,0,0.1c0,0.1,0,0.1,0.1,0.2
		c0,0.1,0.1,0.1,0.1,0.1c0,0.1,0.1,0.1,0.1,0.2c0.1,0.6,0.1,0.1,0.2,0.2c0,0,0,0,0,0.1l41.6,41.1c-0.4,0.2-0.2,0.3,0,0.4
		c0,0,0,0,0,0c0.2,0.1,0.4,0.1,0.7,0.1h82.1c1,0,1.8-0.8,1.8-1.8v-35c2.6-0.8,4.6-3.2,4.6-6.1C905,536.9,902.2,534,898.7,534z
		 M771.7,499.3c0-2.1,1.7-3.8,3.8-3.8c2.1,0,3.8,1.7,3.8,3.8c0,2.1-1.7,3.8-3.8,3.8C773.4,503.1,771.7,501.4,771.7,499.3z
		 M898.7,544.2c-2.1,0-3.2-1.7-3.2-3.8c0-2.1,1.1-3.8,3.2-3.8c2.4,0,3.8,1.7,3.8,3.8C902.5,542.5,901.1,544.2,898.7,544.2z"/>
	<path class="st0" d="M898.7,595.6c-3.5,0-6.3,2.8-6.3,6.3c0,2.9,1.9,5.3,4.6,6.1v75.3l-40.5,40.5c0,0,0,0-0.1,0.1
		c-0.1,0.1,0.3,0.1-0.2,0.2c0,0-0.1,0.1-0.1,0.5c0-0.3-0.1-0.2-0.1-0.2c0,0.1,0,0.1-0.1,0.2c0,0,0,0.1,0,0.1c0,0.1,0,0.4,0,0.4v44.1
		c1.2,0.8,2.4,1.6,3.6,2.4v-45.8l40.5-40.5c0,0,0.1-0.1,0.4-0.1c-0.3-0.1-0.2-0.1-0.2-0.2c0-0.1,0.1-0.1,0.1,0.1
		c0-0.3,0-0.4,0.1-0.4c0-0.1,0-0.1,0.1-0.2c0,0,0-0.1,0-0.1c0-0.1,0-0.2,0-0.4v-76c2.6-0.8,4.6-3.2,4.6-6.1
		C905,598.5,902.2,595.6,898.7,595.6z M898.7,605.8c-2.1,0-3.2-1.7-3.2-3.8c0-2.1,1.1-3.8,3.2-3.8c2.4,0,3.8,1.7,3.8,3.8
		C902.5,604.1,901.1,605.8,898.7,605.8z"/>
	<path class="st0" d="M898.7,698.5c-3.5,0-6.3,2.7-6.3,6.2c0,2.9,1.9,5.3,4.6,6.1v79.7c1.2,0.4,3,1.3,3.6,1.3v-81
		c2.6-0.8,4.6-3.2,4.6-6.1C905,701.2,902.2,698.5,898.7,698.5z M898.7,708.5c-2.1,0-3.2-1.7-3.2-3.8c0-2.1,1.1-3.8,3.2-3.8
		c2.4,0,3.8,1.7,3.8,3.8C902.5,706.8,901.1,708.5,898.7,708.5z"/>
	<path class="st0" d="M835.8,723.9C835.8,723.9,835.8,724,835.8,723.9c-0.1,0.1-0.2,0.2-0.2,0.3c0,0-0.1,0.1-0.1,0.4
		c0-0.2-0.1-0.1-0.1,0c0,0.1,0,0.1,0.6,0.2c-0.2,0.1-0.4,0.1-0.5,0.2c-0.1,0.1-0.2,0.7-0.2,0.3c0,0,0,0,0,0v27.7
		c1.2,1.1,2.4,2.2,3.6,3.2v-30.2l40.5-40.5c0,0,0,0,0,0c0.1-0.1,0.2-0.2,0.2-0.3c0,0,0-0.1,0.1,0.5c0-0.6,0.1-0.8,0.1-0.8
		c0-0.1,0-0.1,0.1-0.2c0-0.1,0-0.1,0-0.2c0-0.1,0.1-0.2,0.1-0.3c0,0,0,0,0,0v-76.1c2.5-0.8,4.5-3.2,4.5-6.1c0-3.5-2.8-6.3-6.3-6.3
		c-3.5,0-5.9,2.8-5.9,6.3c0,2.9,1.4,5.3,4.1,6.1v75.3L835.8,723.9z M874.4,602c0-2.1,1.7-3.8,3.8-3.8s3.8,1.7,3.8,3.8
		c0,2.1-1.7,3.8-3.8,3.8S874.4,604.1,874.4,602z"/>
	<path class="st0" d="M878.2,718.9c-3.5,0-5.9,2.8-5.9,6.3c0,3.3,1.4,5.3,4.1,6.1v55.9H-1.7v3.7H880v0c0,0,0,0,0,0v-59.5
		c2.5-0.8,4.5-2.8,4.5-6.1C884.5,721.7,881.7,718.9,878.2,718.9z M878.2,729c-2.1,0-3.8-1.3-3.8-3.8c0-2.1,1.7-3.4,3.8-3.4
		c2.1,0,3.8,1.3,3.8,3.4C882,727.7,880.3,729,878.2,729z"/>
	<path class="st0" d="M855.8,683.4l-43.8,43.8c0.7,1,1.5,1.9,2.2,2.9l44.6-44.6c0,0,0,0,0,0c0.1-0.1,0.1-0.1,0.3-0.2c0,0,0,0,0.1,0
		c0-0.1,0-0.3,0-0.3c0-0.1,0-0.1,0.1-0.2c0,0,0-0.1,0-0.1c0-0.1,0-0.2,0-0.4v-20.5c0-0.8-0.8-1.8-1.8-1.8H-12
		c0.4,1.2,1.1,2.4,1.2,3.6h866.6V683.4z"/>
	<path class="st0" d="M857.6,595.6c-2.9,0-5.3,1.9-6.1,5.1h-69.9c-0.8-3.2-3.2-5.1-6.1-5.1c-3.5,0-6.1,2.8-6.1,6.3
		c0,3.5,2.6,6.5,6.1,6.5c2.9,0,5.3-2.1,6.1-4.7h69.9c0.8,2.6,3.2,4.7,6.1,4.7c3.5,0,6.3-3,6.3-6.5
		C864,598.5,861.1,595.6,857.6,595.6z M775.5,605.8c-2.1,0-3.8-1.7-3.8-3.8c0-2.1,1.7-3.8,3.8-3.8c2.1,0,3.8,1.7,3.8,3.8
		C779.3,604.1,777.6,605.8,775.5,605.8z M857.6,605.8c-2.1,0-3.8-1.7-3.8-3.8c0-2.1,1.7-3.8,3.8-3.8c2.1,0,3.8,1.7,3.8,3.8
		C861.4,604.1,859.7,605.8,857.6,605.8z"/>
	<path class="st0" d="M859.3,685.1c0,0.2,0,0.4,0,0.4C859.7,685.1,859.5,685.1,859.3,685.1z"/>
	<path class="st0" d="M896.9,431.6c-2.6,0.8-4.6,3.2-4.6,6.1c0,3.5,2.8,6.3,6.3,6.3c3.5,0,6.3-2.8,6.3-6.3c0-2.9-1.9-5.3-4.6-6.1
		V335c0-1-0.8-1.2-1.8-1.2l-40,0c-0.9,0.6-2.1,1.8-3.2,3h41.4V431.6z M902.5,437.7c0,2.1-1.4,3.8-3.8,3.8c-2.1,0-3.2-1.7-3.2-3.8
		c0-2.1,1.1-3.8,3.2-3.8C901.1,433.9,902.5,435.6,902.5,437.7z"/>
	<path class="st0" d="M898.7,464.6c3.5,0,6.3-2.8,6.3-6.3c0-3.5-2.8-6.3-6.3-6.3c-1.1,0-2.1,0.4-3,0.8l-32.4-32.2
		c0.5-1.2,0.8-2.2,0.8-3.3c0-3.5-2.8-6.3-6.3-6.3c-3.5,0-6.3,2.8-6.3,6.3s2.8,6.3,6.3,6.3c1.1,0,2.1-0.3,3.6-0.8l31.9,33.1
		c-0.1,0.3-0.8,1.3-0.8,2.4C892.3,461.7,895.2,464.6,898.7,464.6z M898.7,454.8c2.4,0,3.8,1.3,3.8,3.4c0,2.2-1.4,3.8-3.8,3.8
		c-2.1,0-3.2-1.6-3.2-3.8C895.5,456.1,896.6,454.8,898.7,454.8z M857.6,421.5c-2.1,0-3.8-2.2-3.8-4.3s1.7-3.8,3.8-3.8
		c2.1,0,3.8,1.7,3.8,3.8S859.7,421.5,857.6,421.5z"/>
	<path class="st0" d="M982.9,690.2c2.3-0.1,4.3-3.2,4.3-6.1c0-3.5-2.8-6.3-6.3-6.3c-3.5,0-6.3,2.8-6.3,6.3c0,2.9,1.9,6,4.6,6.1v55.5
		c0,0.1,0,0.2,0,0.4c0,0,0,0.1,0,0.1c0,0.1,0,0.1,0.1,0.2c0,0,0,0.1,0.1,0.1c0,0.1,0.1,0.5,0.1,0.2c0,0.1,0.1,0.1,0.1,0.2
		c0,0,0.1,0.1,0.1,0.1l43.6,43.6c1.2-0.4,2.5-0.9,3.7-1.4l-44-44.3L982.9,690.2z M977,684.1c0-2.1,1.7-3.8,3.8-3.8
		c2.1,0,3.8,1.7,3.8,3.8c0,2.1-1.7,4.3-3.8,4.3C978.7,688.4,977,686.2,977,684.1z"/>
	<path class="st0" d="M859.3,457.2c-0.3-0.1-0.4-0.2-0.4-0.3l-50-50c-0.6,1.1-1.1,2.2-1.7,3.4l48.7,48.7v96.3
		c-2.3,0.3-4.6,2.8-4.6,5.6c0,3.5,2.8,6.3,6.3,6.3c3.5,0,6.3-2.8,6.3-6.3c0-2.9-1.9-5.3-4.6-5.6v-97c0,0,0,0,0,0v0c0,0,0,0,0,0
		c0,0,0-0.2,0-0.3c0,0,0,0,0,0c-0.1-0.1-0.1-0.3-0.1-0.3c0,0.1,0,0.1,0.1,0.2c0,0,0,0.1,0,0.1c0.1,0.1,0.2,0.1,0.4,0.1
		C859.6,457.3,859.4,457.3,859.3,457.2z M861.4,560.9c0,2.7-1.7,3.8-3.8,3.8c-2.1,0-3.8-1.1-3.8-3.8c0-2.1,1.7-3.8,3.8-3.8
		C859.7,557.1,861.4,558.8,861.4,560.9z"/>
	<path class="st0" d="M962.1,684.9l40.5-40.5c0,0,0,0,0,0c0.1,0,0.2,0,0.2-0.1c0-0.3,0-0.3,0.1-0.3c0-0.1,0.1-0.1,0.1-0.2
		s0-0.1,0.1-0.2c0-0.1,0-0.1,0-0.2c0,0.1,0-0.2,0-0.3c0,0,0,0,0,0V567c2.6-0.8,4.6-3.2,4.6-6.1c0-3.5-2.8-6.3-6.3-6.3
		c-3.5,0-6.3,2.8-6.3,6.3c0,2.9,1.9,5.3,4.6,6.1v75.3L959,682.9c0,0,0,0,0,0c-0.1,0.1-0.2,0.2,0,0.3c-0.2,0-0.2,0.1-0.2,0.1
		c0,0.1-0.1,0.1-0.1,0.3c0-0.1,0-0.1-0.1,0c0,0.1,0,0.1,0,0.2c0,0.1,0,0.2,0,0.3c0,0,0,0,0,0v61.6c0,0,0,0,0,0c0,0.1,0,0.2,0,0.4
		c0,0,0,0.1,0,0.1c0,0.1,0,0.1,0.1,0.2c0,0.1,0.1,0.1,0.1,0.2c0,0.1,0.1,0.5,0.3,0.2c0.5,0.1-0.1,0.1,0,0.2c0,0,0,0,0,0.1l48.5,48.5
		c1.3-0.3,3.2-0.7,4-1.1L962.1,745V684.9z M997.5,560.9c0-2.1,1.7-3.8,3.8-3.8c2.6,0,3.8,1.7,3.8,3.8c0,2.7-1.2,3.8-3.8,3.8
		C999.2,564.7,997.5,563.6,997.5,560.9z"/>
	<path class="st0" d="M1023.7,739.6V602.7l15.7-15.7c0.9,0.7,1.9,0.8,3,0.8c3.5,0,6.3-2.8,6.3-6.3c0-3.5-2.8-6.3-6.3-6.3
		s-6.3,2.8-6.3,6.3c0,1.1,0.3,2.1,0.8,3l-16.2,16.2c0,0,0,0,0,0c0.1,0.1-0.2,0.3-0.2,0.3c0,0,0,0.1-0.1,0.1c0,0.1-0.1,0.1-0.1,0.2
		c0,0.1,0,0.1-0.1,0.2c0,0.1,0,0.1,0,0.3c0,0,0,0.1,0,0.2c0,0,0,0,0,0v137.7c-2.6,0.8-4.6,3.2-4.6,6.1c0,3.5,2.8,6.3,6.3,6.3
		c3.5,0,6.3-2.8,6.3-6.3C1028.2,742.9,1026.3,740.4,1023.7,739.6z M1042.4,577.6c2.1,0,3.8,2,3.8,3.8c0,2.1-1.7,3.8-3.8,3.8
		s-3.8-1.7-3.8-3.8C1038.6,579.6,1040.3,577.6,1042.4,577.6z M1021.9,749.5c-2,0-3.8-1.7-3.8-3.8c0-2.1,1.8-3.8,3.8-3.8
		c2.1,0,3.8,1.7,3.8,3.8C1025.7,747.8,1024,749.5,1021.9,749.5z"/>
	<path class="st0" d="M1021.9,759.9c-1.1,0-2.1,0.3-3,0.8l-15.7-15.7v-75.3c2.6-0.8,4.6-3.2,4.6-6.1c0-3.5-2.8-6.3-6.3-6.3
		c-3.5,0-6.3,2.8-6.3,6.3c0,2.9,1.9,5.3,4.6,6.1v76.1c0,0.1,0,0.2,0,0.4c0,0.1,0,0.1,0,0.2c0,0.1,0,0.1,0.2,0.2c0.3,0.1,0,0.1,0,0.2
		c0,0.1,0,0.6,0.1,0.1c0.1,0.1,0.1,0.2,0.2,0.3l16.2,16.2c-0.5,0.9-0.8,1.9-0.8,3c0,3.5,2.8,6.3,6.3,6.3c3.5,0,6.3-2.8,6.3-6.3
		S1025.4,759.9,1021.9,759.9z M997.5,663.6c0-2.1,1.7-3.8,3.8-3.8c2.6,0,3.8,1.7,3.8,3.8c0,2.1-1.2,3.8-3.8,3.8
		C999.2,667.4,997.5,665.7,997.5,663.6z M1021.9,770.1c-2,0-3.8-1.7-3.8-3.8c0-2.1,1.8-3.8,3.8-3.8c2.1,0,3.8,1.7,3.8,3.8
		C1025.7,768.4,1024,770.1,1021.9,770.1z"/>
	<path class="st0" d="M837.1,410.8c-1.1,0-2.1,0.3-3,0.8l-18-18c-0.6,1.1-1.2,2.2-1.8,3.3l17.3,17.3c-0.5,1.4-0.8,1.9-0.8,3
		c0,3.5,2.8,6.3,6.3,6.3c3.5,0,6.3-2.8,6.3-6.3S840.6,410.8,837.1,410.8z M837.1,421.5c-2.1,0-3.8-2.2-3.8-4.3s1.7-3.8,3.8-3.8
		c2.1,0,3.8,1.7,3.8,3.8S839.2,421.5,837.1,421.5z"/>
	<path class="st0" d="M933.4,335c0,3.5,2.8,6.5,6.3,6.5c3.5,0,6.3-3,6.3-6.5c0-3.5-2.8-6.3-6.3-6.3c-1.1,0-2.1,0.3-3,0.8l-33.6-33.6
		c-1.1,0.6-2.1,1.3-3.2,1.9l34.2,34.2C933.7,332.9,933.4,334,933.4,335z M939.8,331.2c2.1,0,3.8,1.7,3.8,3.8s-1.7,3.8-3.8,3.8
		c-2.1,0-3.8-1.7-3.8-3.8S937.6,331.2,939.8,331.2z"/>
	<path class="st0" d="M958.5,396.6c0,0.1,0,0.2,0,0.4c0,0.1,0,0.1,0,0.3c0-0.1,0,0,0.1,0c0,0.1,0.1,0.1,0.1,0.2c0,0,0,0.1,0.2,0.1
		c-0.1,0.1,0,0.2,0.1,0.6l40.5,40.2v75.3c-2.6,0.8-4.6,3.2-4.6,6.3c0,3.3,2.8,6.2,6.3,6.2c3.5,0,6.3-2.8,6.3-6.2
		c0-3.1-1.9-5.5-4.6-6.3v-76.1c0,0,0,0,0,0c0-0.1,0-0.2,0,0.3c0-0.6,0-0.8,0-0.8c0-0.1,0-0.1-0.1-0.2c0-0.1-0.1-0.1-0.1-0.2
		c0,0,0-0.1,0-0.1c0,0.2-0.1,0.3,0,0c0,0,0,0,0,0c0-0.1-0.1-0.3-0.2-0.3l-40.5-40.5V335c0-0.1,0-0.2,0-0.3c0-0.1,0-0.2,0-0.2
		c0-0.1,0-0.2-0.1-0.2c0-0.1-0.1-0.1-0.1-0.1c0-0.1,0.5-0.1,0.1-0.2c-0.3,0-0.3-0.2-0.4-0.3l-44.9-44.9c-1.2,0.9-2.3,1-3.5,1.6
		l45.3,45.3V396.6z M1005.1,520c0,1.9-1.2,3.6-3.8,3.6c-2.1,0-3.8-1.7-3.8-3.6c0-2.3,1.7-4,3.8-4
		C1003.9,516,1005.1,517.7,1005.1,520z"/>
	<path class="st0" d="M810.2,520c0,3.3,3.3,6.2,6.3,6.2c3.5,0,6.3-2.8,6.3-6.2c0-3.1-1.9-5.5-4.6-6.3v-70c2.6-0.8,4.6-3.2,4.6-6.1
		c0-3.5-2.8-6.1-6.3-6.1c-3,0-6.3,2.6-6.3,6.1c0,2.9,1.9,5.3,4.6,6.1v70C812.2,514.5,810.2,517,810.2,520z M812.8,437.7
		c0-2.1,1.7-3.8,3.8-3.8c2.1,0,3.8,1.7,3.8,3.8c0,2.1-1.7,3.8-3.8,3.8C814.5,441.5,812.8,439.8,812.8,437.7z M816.6,516
		c2.1,0,3.8,1.7,3.8,4c0,1.9-1.7,3.6-3.8,3.6c-2.1,0-3.8-1.7-3.8-3.6C812.8,517.7,814.5,516,816.6,516z"/>
	<path class="st0" d="M837.1,534c-3.5,0-6.3,2.8-6.3,6.3c0,3.5,2.8,6.3,6.3,6.3c3.5,0,6.3-2.8,6.3-6.3
		C843.5,536.9,840.6,534,837.1,534z M837.1,544.2c-2.1,0-3.8-1.7-3.8-3.8c0-2.1,1.7-3.8,3.8-3.8c2.1,0,3.8,1.7,3.8,3.8
		C840.9,542.5,839.2,544.2,837.1,544.2z"/>
	<path class="st0" d="M938.1,683.6C938.1,683.6,938.1,683.6,938.1,683.6C938.1,683.6,938.1,683.6,938.1,683.6
		C938.1,683.7,938.1,684,938.1,683.6z"/>
	<path class="st0" d="M982.2,644.2c0-0.1,0.1-0.1,0.1,0.2c0-0.4,0.1-0.5,0.1-0.6c0,0,0-0.1,0.1-0.1c0-0.1,0-0.1,0.1-0.2
		c0,0,0-0.1,0-0.1c0.2,0.1,0.3-0.2,0.3-0.4v-81.4l15.4-15.7c0.9,0.5,1.9,0.8,3,0.8c3.5,0,6.3-2.8,6.3-6.3c0-3.5-2.8-6.3-6.3-6.3
		c-3.5,0-6.3,2.8-6.3,6.3c0,1.1,0.8,2.1,0.8,3l-16.2,16.2c0,0-0.1,0.1-0.1,0.1c0,0-0.1,0.1-0.1,0.1c0,0.1-0.1,0.7-0.1,0.2
		c0,0,0,0.1-0.1,0.1c0,0.1,0,0.1-0.1,0.2c0,0,0,0.1,0,0.1c0,0.1,0,0.2,0,0.4v81.4l-40.5,40.5c0,0,0,0,0,0c-0.1,0.1-0.2,0.2-0.2,0.3
		c0,0,0,0.1-0.1,0.1c0,0.1-0.1,0.1-0.1,0.4c0.1,0,0.4,0.1,0.3,0.2c-0.2,0.1-0.2,0.2-0.3,0.2c0,0-0.1,0.1-0.1,0.1v116.7
		c1.1-0.4,2.3-0.3,3.5-0.2V684.9l40.5-40.5C982.1,644.3,982.1,644.2,982.2,644.2z M1001.3,536.6c2.6,0,3.8,1.7,3.8,3.8
		c0,2.1-1.2,3.8-3.8,3.8c-2.1,0-3.8-1.7-3.8-3.8C997.5,538.3,999.2,536.6,1001.3,536.6z"/>
	<path class="st0" d="M843.5,458.2c0-3.5-2.8-6.3-6.3-6.3c-3.5,0-6.3,2.8-6.3,6.3c0,3.3,1.9,5.3,4.6,6.1v49.4
		c-2.6,0.8-4.6,3.2-4.6,6.3c0,3.3,2.8,6.2,6.3,6.2c3.5,0,6.3-2.8,6.3-6.2c0-3.1-1.9-5.5-4.6-6.3v-49.4
		C841.5,463.6,843.5,461.5,843.5,458.2z M840.9,520c0,1.9-1.7,3.6-3.8,3.6c-2.1,0-3.8-1.7-3.8-3.6c0-2.3,1.7-4,3.8-4
		C839.2,516,840.9,517.7,840.9,520z M837.1,462c-2.1,0-3.8-1.6-3.8-3.8c0-2.1,1.7-3.4,3.8-3.4c2.1,0,3.8,1.3,3.8,3.4
		C840.9,460.4,839.2,462,837.1,462z"/>
	<path class="st0" d="M816.6,562.7H831c0.8,2.6,3.2,4.6,6.1,4.6c3.5,0,6.3-2.8,6.3-6.3c0-3.5-2.8-6.3-6.3-6.3
		c-2.9,0-5.3,1.9-6.1,4.6h-12.6v-12.7c2.6-0.8,4.6-3.2,4.6-6.1c0-3.5-2.8-6.3-6.3-6.3c-3,0-6.3,2.8-6.3,6.3c0,2.9,1.9,5.3,4.6,6.1
		v14.4C814.8,561.9,815.6,562.7,816.6,562.7z M837.1,557.1c2.1,0,3.8,1.7,3.8,3.8c0,2.7-1.7,3.8-3.8,3.8c-2.1,0-3.8-1.1-3.8-3.8
		C833.3,558.8,835,557.1,837.1,557.1z M812.8,540.4c0-2.1,1.7-3.8,3.8-3.8c2.1,0,3.8,1.7,3.8,3.8c0,2.1-1.7,3.8-3.8,3.8
		C814.5,544.2,812.8,542.5,812.8,540.4z"/>
	<path class="st0" d="M1002.9,644.3C1002.8,644.3,1002.8,644.3,1002.9,644.3C1002.8,644.3,1002.8,644.3,1002.9,644.3
		C1002.8,644.3,1002.8,644.3,1002.9,644.3z"/>
	<path class="st0" d="M980.8,780.5c-3.5,0-6.3,2.8-6.3,6.5c0,2.7,1.9,5.2,4.6,5.9v7.7c1.2-0.1,2.4-0.3,3.9,0.2v-7.9
		c2.3-0.8,4.3-3.2,4.3-5.9C987.2,783.3,984.3,780.5,980.8,780.5z M980.8,790.6c-2.1,0-3.8-1.7-3.8-3.7c0-2.3,1.7-4,3.8-4
		c2.1,0,3.8,1.7,3.8,4C984.6,788.9,982.9,790.6,980.8,790.6z"/>
	<path class="st0" d="M1148.1,643.7l-42.3-42.4v-19.8c0-1-0.8-1.8-1.8-1.8h-14.4c-0.8-2.6-3.2-4.6-6.1-4.6c-3.5,0-6.3,2.8-6.3,6.3
		c0,3.5,2.8,6.3,6.3,6.3c2.9,0,5.3-1.9,6.1-4.6h12.6V602c0,0.1,0,0.2,0,0.4c0,0.2,0,0.5,0,0.1c0,0.1,0.6,0.1,0.4,0.2
		c0.2,0-0.3,0.1-0.2,0.1c0,0.1,0.1,0.1,0.1,0.2c0.1,0.1,0.1,0.3,0.2,0.2c0,0,0,0,0,0.1l44,44v0h0l0,0c0,0,0,0,0,0h774.9v-3.7H1148.1
		z M1083.5,585.3c-2.1,0-3.8-1.7-3.8-3.8c0-1.8,1.7-3.8,3.8-3.8c2.1,0,3.8,2,3.8,3.8C1087.3,583.6,1085.6,585.3,1083.5,585.3z"/>
</g>

</svg>
