<?xml version="1.0" encoding="utf-8"?>
<!-- Generator: Adobe Illustrator 24.0.2, SVG Export Plug-In . SVG Version: 6.00 Build 0)  -->
<svg version="1.1" id="Camada_1" xmlns="http://www.w3.org/2000/svg" xmlns:xlink="http://www.w3.org/1999/xlink" x="0px" y="0px"
	 viewBox="0 0 662 926.07" style="enable-background:new 0 0 662 926.07;" xml:space="preserve">
<style type="text/css">
	.st0{fill:none;stroke:#FFFFFF;stroke-width:2;stroke-miterlimit:10;}
	.st1{fill:none;stroke:#FFFFFF;stroke-width:2.0138;stroke-miterlimit:10;}
	.st2{fill:none;stroke:#FFFFFF;stroke-width:2.0186;stroke-miterlimit:10;}
</style>
<path class="st0" d="M331,229.62c-36.66,0-78.2,29.27-111.13,78.27c-33.84,50.3-53.24,113.1-53.24,172.27
	c0,59.22,16.92,113.06,47.6,151.47c30.27,37.92,71.73,58.81,116.77,58.81s86.5-20.89,116.77-58.81
	c30.68-38.46,47.6-92.26,47.6-151.47c0-59.93-18.83-122.74-51.62-172.36C411.32,258.89,369.19,229.62,331,229.62z"/>
<path class="st0" d="M331,199.56c-41.44,0-88.41,33.09-125.63,88.48c-38.26,56.86-60.19,127.86-60.19,194.75
	c0,66.95,19.13,127.81,53.81,171.24c34.22,42.87,81.09,66.48,132.01,66.48s97.79-23.62,132.01-66.48
	c34.68-43.48,53.81-104.3,53.81-171.24c0-67.75-21.29-138.76-58.36-194.85C421.8,232.65,374.17,199.56,331,199.56z"/>
<path class="st0" d="M331,170.82c-46.02,0-98.16,36.74-139.49,98.25c-42.48,63.14-66.83,141.97-66.83,216.24
	c0,74.33,21.24,141.92,59.75,190.13c38,47.6,90.04,73.82,146.57,73.82s108.58-26.22,146.57-73.82
	c38.51-48.28,59.75-115.81,59.75-190.13c0-75.23-23.64-154.07-64.79-216.35C431.82,207.56,378.94,170.82,331,170.82z"/>
<path class="st0" d="M331,139.88c-50.94,0-108.66,40.67-154.42,108.76c-47.02,69.89-73.98,157.15-73.98,239.37
	c0,82.29,23.51,157.1,66.14,210.47c42.06,52.69,99.67,81.72,162.25,81.72s120.19-29.03,162.25-81.72
	c42.63-53.44,66.14-128.2,66.14-210.47c0-83.27-26.16-170.55-71.73-239.5C442.61,180.55,384.07,139.88,331,139.88z"/>
<path class="st0" d="M331,110.01c-55.69,0-118.8,44.47-168.82,118.9c-51.41,76.41-80.88,171.81-80.88,261.7
	c0,89.96,25.7,171.75,72.31,230.1c45.98,57.61,108.97,89.34,177.39,89.34s131.41-31.73,177.39-89.34
	c46.61-58.43,72.31-140.16,72.31-230.1c0-91.04-28.61-186.46-78.42-261.84C453.02,154.48,389.02,110.01,331,110.01z"/>
<path class="st1" d="M331,82.49c-60.07,0-128.14,47.96-182.09,128.25c-55.45,82.42-87.24,185.32-87.24,282.28
	c0,97.04,27.72,185.26,78,248.19c49.6,62.13,117.53,96.36,191.34,96.36s141.74-34.23,191.34-96.36c50.27-63.02,78-151.17,78-248.19
	c0-98.2-30.85-201.12-84.58-282.42C462.61,130.45,393.58,82.49,331,82.49z"/>
<path class="st0" d="M331,55.95c-64.29,0-137.14,51.33-194.9,137.27c-59.35,88.21-93.37,198.35-93.37,302.12
	c0,103.86,29.67,198.28,83.48,265.64c53.09,66.5,125.8,103.14,204.79,103.14s151.7-36.64,204.79-103.14
	c53.81-67.45,83.48-161.8,83.48-265.64c0-105.1-33.02-215.26-90.53-302.28C471.86,107.28,397.98,55.95,331,55.95z"/>
<path class="st0" d="M331,30.46c-68.35,0-145.8,54.57-207.19,145.93c-63.09,93.78-99.26,210.86-99.26,321.18
	c0,110.41,31.55,210.79,88.75,282.4c56.44,70.7,133.73,109.65,217.71,109.65s161.27-38.95,217.71-109.65
	c57.2-71.7,88.75-172.01,88.75-282.4c0-111.73-35.11-228.84-96.24-321.35C480.75,85.03,402.2,30.46,331,30.46z"/>
<path class="st2" d="M331,4.79c-72.43,0-154.51,57.83-219.57,154.64C44.57,258.82,6.24,382.9,6.24,499.81
	c0,117.01,33.43,223.38,94.05,299.27C160.09,874,242.01,915.27,331,915.27S501.91,874,561.71,799.08
	c60.62-75.99,94.05-182.29,94.05-299.27c0-118.41-37.2-242.51-101.99-340.55C489.69,62.63,406.46,4.79,331,4.79z"/>
<g>
</g>
<g>
</g>
<g>
</g>
<g>
</g>
<g>
</g>
<g>
</g>
<g>
</g>
<g>
</g>
<g>
</g>
<g>
</g>
<g>
</g>
<g>
</g>
<g>
</g>
<g>
</g>
<g>
</g>
</svg>
