<?xml version="1.0" encoding="utf-8"?>
<!-- Generator: Adobe Illustrator 24.0.2, SVG Export Plug-In . SVG Version: 6.00 Build 0)  -->
<svg version="1.1" id="Camada_1" xmlns="http://www.w3.org/2000/svg" xmlns:xlink="http://www.w3.org/1999/xlink" x="0px" y="0px"
	 viewBox="0 0 480 200" style="enable-background:new 0 0 480 200;" xml:space="preserve">
<style type="text/css">
	.st0{fill:#FFFFFF;}
</style>
<g>
	<g>
		<path class="st0" d="M184.23,29.35h18.46v2.09h-16.21v15.28h14.02v2.09h-14.02v17.17h-2.25V29.35z"/>
		<path class="st0" d="M232.38,53.32h-15.55l-4.7,12.67h-2.4l13.7-36.63h2.41l13.7,36.63h-2.4L232.38,53.32z M224.57,31.97
			c0,0-0.79,2.83-1.36,4.39l-5.59,14.87h13.97l-5.54-14.87c-0.59-1.56-1.37-4.39-1.37-4.39H224.57z"/>
		<path class="st0" d="M266.86,28.72c8.68,0,13.08,4.61,13.08,4.61L278.59,35c0,0-4.35-4.13-11.68-4.13c-9,0-15.85,7.05-15.85,16.53
			c0,9.52,6.8,17.05,16.01,17.05c7.84,0,12.4-4.97,12.4-4.97l1.41,1.58c0,0-4.92,5.54-13.81,5.54c-10.67,0-18.38-8.58-18.38-19.19
			C248.69,36.79,256.55,28.72,266.86,28.72z"/>
		<path class="st0" d="M303.22,31.44h-13.66v-2.09h29.57v2.09h-13.66v34.54h-2.26V31.44z"/>
		<path class="st0" d="M345.31,28.72c10.2,0,18.53,8.16,18.53,18.69c0,10.77-8.32,19.19-18.53,19.19c-10.2,0-18.52-8.42-18.52-19.19
			C326.78,36.88,335.11,28.72,345.31,28.72z M345.31,64.46c8.94,0,16.17-7.43,16.17-17.05c0-9.37-7.23-16.53-16.17-16.53
			c-8.95,0-16.17,7.16-16.17,16.53C329.14,57.03,336.35,64.46,345.31,64.46z"/>
		<path class="st0" d="M377.8,29.35h10.73c3.4,0,5.13,0.37,6.59,1.1c3.03,1.52,5.07,4.61,5.07,8.79c0,5.23-3.03,9.16-7.32,10.1v0.1
			c0,0,0.36,0.42,0.83,1.31l8.22,15.23h-2.67l-8.69-16.22h-10.51v16.22h-2.25V29.35z M389.99,47.67c4.82,0,7.85-3.45,7.85-8.43
			c0-3.24-1.62-5.87-4.29-7.06c-1.05-0.47-2.2-0.74-5.12-0.74h-8.38v16.23H389.99z"/>
		<path class="st0" d="M182.97,80.9h9.16v14.97h13.61V80.9h9.16v37.42h-9.16v-14.66h-13.61v14.66h-9.16V80.9z"/>
		<path class="st0" d="M228.39,80.9h9.16v23.65c0,3.92,2.56,6.01,6.49,6.01c3.93,0,6.5-2.09,6.5-6.01V80.9h9.14v23.65
			c0,8.42-6.16,14.38-15.59,14.38c-9.52,0-15.7-5.96-15.7-14.38V80.9z"/>
		<path class="st0" d="M275.13,80.9h9.95l5.43,15.8c0.84,2.41,1.89,6.18,1.89,6.18h0.11c0,0,1.04-3.77,1.89-6.18l5.44-15.8h9.94
			l3.04,37.42h-9.16l-1.15-16.86c-0.22-2.82,0-6.28,0-6.28h-0.11c0,0-1.26,3.93-2.09,6.28l-3.93,10.84h-7.86l-3.92-10.84
			c-0.84-2.35-2.1-6.28-2.1-6.28h-0.1c0,0,0.2,3.46,0,6.28l-1.15,16.86h-9.21L275.13,80.9z"/>
		<path class="st0" d="M344.41,110.46h-11.67l-2.25,7.85h-9.41l12.71-37.42h9.63l12.72,37.42h-9.42L344.41,110.46z M338.55,89.42
			c0,0-0.83,4.09-1.51,6.45l-2.14,7.27h7.37l-2.09-7.27c-0.68-2.36-1.51-6.45-1.51-6.45H338.55z"/>
		<path class="st0" d="M365.55,80.9h9.26l10.36,17.47c1.46,2.46,3.15,6.39,3.15,6.39h0.11c0,0-0.43-4.02-0.43-6.39V80.9h9.16v37.42
			h-9.21l-10.42-17.43c-1.46-2.46-3.14-6.38-3.14-6.38h-0.11c0,0,0.42,4.04,0.42,6.38v17.43h-9.16V80.9z"/>
		<path class="st0" d="M410.66,80.9h9.16v23.65c0,3.92,2.57,6.01,6.49,6.01c3.93,0,6.49-2.09,6.49-6.01V80.9h9.16v23.65
			c0,8.42-6.17,14.38-15.59,14.38c-9.52,0-15.7-5.96-15.7-14.38V80.9z"/>
		<path class="st0" d="M457.5,106.65c0,0,4.24,3.87,8.95,3.87c1.89,0,3.92-0.73,3.92-2.99c0-4.45-16.85-4.29-16.85-15.8
			c0-6.91,5.82-11.46,13.25-11.46c8.06,0,12.04,4.23,12.04,4.23l-3.87,7.48c0,0-3.77-3.28-8.27-3.28c-1.88,0-3.97,0.83-3.97,2.92
			c0,4.72,16.85,3.88,16.85,15.71c0,6.22-4.77,11.6-13.19,11.6c-8.8,0-13.66-5.33-13.66-5.33L457.5,106.65z"/>
		<path class="st0" d="M183.03,165.01c0,0,3.71,4.07,9.79,4.07c4.55,0,8.16-2.83,8.16-7.22c0-10.42-18.74-7.53-18.74-18.99
			c0-4.87,4.34-9.47,10.99-9.47c5.96,0,9.32,3.41,9.32,3.41l-1.26,1.93c0,0-3.14-3.13-8-3.13c-5.44,0-8.69,3.66-8.69,7.21
			c0,9.67,18.73,6.7,18.73,18.94c0,5.28-4.08,9.53-10.62,9.53c-7.22,0-11.2-4.56-11.2-4.56L183.03,165.01z"/>
		<path class="st0" d="M232.9,133.39c8.68,0,13.08,4.6,13.08,4.6l-1.37,1.68c0,0-4.34-4.13-11.67-4.13c-9,0-15.86,7.05-15.86,16.54
			c0,9.52,6.8,17.05,16.01,17.05c7.85,0,12.41-4.96,12.41-4.96l1.41,1.57c0,0-4.92,5.55-13.82,5.55c-10.67,0-18.37-8.59-18.37-19.21
			C214.73,141.45,222.59,133.39,232.9,133.39z"/>
		<path class="st0" d="M260.84,134.01h2.25v36.63h-2.25V134.01z"/>
		<path class="st0" d="M279.63,134.01h20.03v2.09h-17.79v15.03h14.61v2.09h-14.61v15.32h18.79v2.1h-21.03V134.01z"/>
		<path class="st0" d="M314.74,134.01h2.09l20.89,28.73c1.2,1.67,2.98,4.61,2.98,4.61h0.11c0,0-0.27-2.78-0.27-4.61v-28.73h2.25
			v36.63h-2.09l-20.87-28.73c-1.21-1.68-2.99-4.61-2.99-4.61h-0.11c0,0,0.27,2.77,0.27,4.61v28.73h-2.25V134.01z"/>
		<path class="st0" d="M367.75,136.1H354.1v-2.09h29.56v2.09H370v34.55h-2.25V136.1z"/>
		<path class="st0" d="M394.96,134.01h2.25v36.63h-2.25V134.01z"/>
		<path class="st0" d="M431.71,157.98h-15.55l-4.71,12.67h-2.42l13.72-36.63h2.4l13.71,36.63h-2.4L431.71,157.98z M423.9,136.64
			c0,0-0.79,2.82-1.37,4.39l-5.59,14.86h13.97l-5.55-14.86c-0.58-1.57-1.35-4.39-1.35-4.39H423.9z"/>
	</g>
	<path class="st0" d="M75.92,199.9c-20.52,0-39.45-8.83-53.29-24.87c-14.3-16.57-22.17-39.9-22.17-65.7c0-26,9.24-53.63,25.35-75.79
		C40.81,12.91,60.01,0.1,75.92,0.1c16.92,0,35.94,12.47,50.88,33.36c15.62,21.85,24.58,49.5,24.58,75.87
		c0,25.81-7.87,49.14-22.17,65.7C115.36,191.07,96.44,199.9,75.92,199.9z M75.92,5.69c-14.16,0-31.62,11.93-45.58,31.14
		C14.9,58.05,6.05,84.48,6.05,109.33c0,24.46,7.39,46.5,20.81,62.05c12.76,14.79,30.18,22.94,49.05,22.94
		c18.87,0,36.29-8.15,49.05-22.94c13.42-15.55,20.81-37.59,20.81-62.05c0-25.23-8.58-51.7-23.53-72.62
		C108.36,17.28,91.04,5.69,75.92,5.69z"/>
</g>
<g>
</g>
<g>
</g>
<g>
</g>
<g>
</g>
<g>
</g>
<g>
</g>
<g>
</g>
<g>
</g>
<g>
</g>
<g>
</g>
<g>
</g>
<g>
</g>
<g>
</g>
<g>
</g>
<g>
</g>
</svg>
