<?xml version="1.0" encoding="utf-8"?>
<!-- Generator: Adobe Illustrator 24.0.2, SVG Export Plug-In . SVG Version: 6.00 Build 0)  -->
<svg version="1.1" id="Camada_1" xmlns="http://www.w3.org/2000/svg" xmlns:xlink="http://www.w3.org/1999/xlink" x="0px" y="0px"
	 viewBox="0 0 262 200" style="enable-background:new 0 0 262 200;" xml:space="preserve">
<style type="text/css">
	.st0{fill:#FFFFFF;}
	.st1{fill:none;}
</style>
<g>
	<g>
		<path class="st0" d="M256.62,3.03v161.81H5.38V3.03H256.62 M258.47,1.17H3.53V166.7h254.95V1.17L258.47,1.17z"/>
	</g>
	<g>
		<rect x="17.92" y="103.92" class="st0" width="11.92" height="48.72"/>
		<path class="st0" d="M59.14,103.92H41.84v48.72h17.31c15.33,0,25.14-9.13,25.14-24.46C84.29,112.84,74.48,103.92,59.14,103.92z
			 M58.67,142.42h-4.91v-28.28h4.91c8.04,0,13.29,4.77,13.29,14.04C71.95,137.51,66.91,142.42,58.67,142.42z"/>
		<path class="st0" d="M131.1,81.48c-6.44,0-13.74,4.76-19.53,12.73c-5.95,8.18-9.36,18.39-9.36,28.01c0,9.63,2.97,18.38,8.37,24.63
			c5.32,6.17,12.61,9.56,20.52,9.56c7.91,0,15.2-3.4,20.52-9.56c5.39-6.25,8.36-15,8.36-24.63c0-9.74-3.31-19.95-9.07-28.02
			C145.23,86.23,137.82,81.48,131.1,81.48z M131.31,98.18c3.17,0.21,6.74,2.59,9.59,6.42c2.72,3.64,4.47,8.1,4.95,12.58l-6.72,0
			c-0.28-2.32-1.2-4.62-2.6-6.5c-1.54-2.06-3.43-3.32-5.23-3.51V98.18z M126.46,119.12l-3.25,1.33c-0.63-13.09,4.31-19.2,5.86-20.77
			c0.78-0.79,1.37-1.17,1.72-1.35v8.94c-0.36,0.16-0.77,0.46-1.18,0.87c-0.54,0.55-1.56,1.81-2.3,3.99
			C126.61,114.16,126.33,116.51,126.46,119.12z M126.71,119.59c0.04,0.01,0.11,0.02,0.22,0.05c1.71,0.4,3.31,0.59,4.79,0.59
			c3.08,0,5.61-0.85,7.34-2.52l6.46,0c-4.85,4.57-13.63,5.83-21.84,3.12L126.71,119.59z M136.11,111c1.33,1.79,2.21,3.97,2.49,6.18
			l-7.29,0l0-9.47C132.93,107.91,134.71,109.12,136.11,111z M131.19,117.71l7.07,0c-2.38,1.94-6.14,2.48-10.7,1.52L131.19,117.71z
			 M126.98,118.9c-0.1-2.46,0.17-4.68,0.82-6.6c0.71-2.08,1.67-3.27,2.18-3.79c0.27-0.28,0.55-0.5,0.8-0.65l0,9.44L126.98,118.9z
			 M130.78,97.74c-0.6,0.24-1.35,0.8-2.1,1.56c-1.59,1.62-6.69,7.92-6,21.36l-3.79,1.57c-1.08-20.36,6.32-31.92,11.89-33.6V97.74z
			 M153.19,122.21c0,8-2.38,15.17-6.71,20.18c-4.01,4.65-9.47,7.2-15.37,7.2c-5.9,0-11.36-2.56-15.37-7.2
			c-4.33-5.02-6.71-12.18-6.71-20.18c0-8.22,2.94-16.97,8.06-24.01c3.96-5.45,8.84-9.15,12.8-9.81c-3,1.29-5.95,4.86-8.06,9.87
			c-1.95,4.62-4.12,12.59-3.44,24.37l0.02,0.37l0.14-0.06c4.05,1.65,8.79,2.43,13.5,2.43c8.54,0,16.96-2.54,20.95-6.97
			C153.12,119.68,153.19,120.95,153.19,122.21z M119.25,122.65l3.71-1.53l0.05-0.02l-0.02,0.06c3.1,1.09,6.3,1.62,9.36,1.62
			c5.59,0,10.72-1.77,13.95-5.07l6.59,0C147.18,124.6,130.66,127.04,119.25,122.65z M146.39,117.18c-0.48-4.59-2.27-9.16-5.06-12.9
			c-2.96-3.96-6.69-6.43-10.02-6.63v-9.36c4.42,0.11,9.79,3.86,14.07,9.86c3.97,5.55,6.58,12.28,7.47,19.03L146.39,117.18z"/>
		<path class="st0" d="M188.8,112.48c-9.86,0-15.38,7.41-16.72,11.12h-0.16c0,0,0.32-1.42,0.32-3.23v-6.94h-3.31v39.44h3.31v-19.25
			c0-1.89,0.16-3.71,0.63-5.36c1.97-7.34,8.52-12.54,15.93-12.54c8.83,0,9.7,6.47,9.7,13.33v23.82h3.31v-25
			C201.81,118.55,199.05,112.48,188.8,112.48z"/>
		<path class="st0" d="M245.52,130.46c0-9.54-5.36-17.98-16.09-17.98c-10.1,0-19.17,7.41-19.17,20.75
			c0,12.54,9.23,20.59,20.35,20.59c8.52,0,14.04-5.44,14.04-5.44l-1.81-2.76c0,0-4.65,4.97-12.23,4.97
			c-9.15,0-16.88-6.55-16.88-17.98h31.63C245.36,132.59,245.52,131.33,245.52,130.46z M213.96,129.52
			c1.42-9.23,8.12-13.96,15.38-13.96c6.55,0,12.3,4.34,12.7,13.96H213.96z"/>
	</g>
	<g>
		<path class="st0" d="M3.53,176.29h5.43v8.87h8.06v-8.87h5.43v22.17h-5.43v-8.68H8.95v8.68H3.53V176.29z"/>
		<path class="st0" d="M30.13,176.29h5.42v14.01c0,2.33,1.52,3.57,3.84,3.57s3.84-1.24,3.84-3.57v-14.01h5.43v14.01
			c0,4.99-3.66,8.53-9.24,8.53c-5.64,0-9.3-3.53-9.3-8.53V176.29z"/>
		<path class="st0" d="M57.36,176.29h5.89l3.22,9.36c0.5,1.43,1.12,3.66,1.12,3.66h0.06c0,0,0.62-2.23,1.12-3.66l3.22-9.36h5.89
			l1.8,22.17h-5.43l-0.68-9.98c-0.12-1.67,0-3.72,0-3.72h-0.06c0,0-0.74,2.33-1.24,3.72l-2.32,6.42h-4.65l-2.33-6.42
			c-0.5-1.39-1.24-3.72-1.24-3.72h-0.06c0,0,0.12,2.05,0,3.72l-0.68,9.98h-5.46L57.36,176.29z"/>
		<path class="st0" d="M98.55,193.81h-6.91l-1.33,4.65h-5.58l7.53-22.17h5.7l7.53,22.17h-5.58L98.55,193.81z M95.08,181.34
			c0,0-0.5,2.42-0.9,3.81l-1.27,4.31h4.37l-1.24-4.31c-0.4-1.39-0.9-3.81-0.9-3.81H95.08z"/>
		<path class="st0" d="M111.37,176.29h5.49l6.14,10.35c0.87,1.46,1.86,3.78,1.86,3.78h0.06c0,0-0.25-2.39-0.25-3.78v-10.35h5.43
			v22.17h-5.46l-6.17-10.32c-0.87-1.46-1.86-3.78-1.86-3.78h-0.06c0,0,0.25,2.39,0.25,3.78v10.32h-5.43V176.29z"/>
		<path class="st0" d="M139.15,176.76h10.94V178h-9.61v9.05h8.31v1.24h-8.31v10.17h-1.33V176.76z"/>
		<path class="st0" d="M165.56,190.95h-9.21l-2.79,7.5h-1.43l8.12-21.7h1.43l8.12,21.7h-1.43L165.56,190.95z M160.94,178.31
			c0,0-0.46,1.67-0.81,2.6l-3.32,8.8h8.28l-3.29-8.8c-0.34-0.93-0.81-2.6-0.81-2.6H160.94z"/>
		<path class="st0" d="M184.34,176.38c5.15,0,7.75,2.73,7.75,2.73l-0.81,0.99c0,0-2.57-2.45-6.91-2.45c-5.33,0-9.39,4.19-9.39,9.8
			c0,5.64,4.03,10.11,9.49,10.11c4.65,0,7.35-2.94,7.35-2.94l0.84,0.93c0,0-2.91,3.29-8.18,3.29c-6.32,0-10.88-5.09-10.88-11.38
			C173.58,181.16,178.24,176.38,184.34,176.38z"/>
		<path class="st0" d="M203.93,178h-8.09v-1.24h17.52V178h-8.09v20.46h-1.33V178z"/>
		<path class="st0" d="M226.59,176.38c6.05,0,10.98,4.84,10.98,11.07c0,6.39-4.93,11.38-10.98,11.38c-6.04,0-10.97-4.99-10.97-11.38
			C215.62,181.22,220.55,176.38,226.59,176.38z M226.59,197.56c5.3,0,9.58-4.4,9.58-10.11c0-5.55-4.28-9.8-9.58-9.8
			c-5.3,0-9.58,4.25-9.58,9.8C217.01,193.16,221.29,197.56,226.59,197.56z"/>
		<path class="st0" d="M244.18,176.76h6.36c2.01,0,3.04,0.22,3.9,0.65c1.8,0.9,3.01,2.73,3.01,5.21c0,3.1-1.8,5.43-4.34,5.98v0.06
			c0,0,0.22,0.25,0.5,0.77l4.87,9.02h-1.58l-5.15-9.61h-6.23v9.61h-1.33V176.76z M251.41,187.61c2.85,0,4.65-2.05,4.65-4.99
			c0-1.92-0.96-3.47-2.54-4.19c-0.62-0.28-1.3-0.43-3.04-0.43h-4.96v9.61H251.41z"/>
	</g>
	<rect x="3.53" y="166.7" class="st1" width="14.39" height="9.59"/>
</g>
<g>
</g>
<g>
</g>
<g>
</g>
<g>
</g>
<g>
</g>
<g>
</g>
<g>
</g>
<g>
</g>
<g>
</g>
<g>
</g>
<g>
</g>
<g>
</g>
<g>
</g>
<g>
</g>
<g>
</g>
</svg>
