<?xml version="1.0" encoding="utf-8"?>
<!-- Generator: Adobe Illustrator 24.0.2, SVG Export Plug-In . SVG Version: 6.00 Build 0)  -->
<svg version="1.1" id="Camada_1" xmlns="http://www.w3.org/2000/svg" xmlns:xlink="http://www.w3.org/1999/xlink" x="0px" y="0px"
	 viewBox="0 0 288.36 290.84" style="enable-background:new 0 0 288.36 290.84;" xml:space="preserve">
<style type="text/css">
	.st0{fill:#FFFFFF;}
</style>
<g>
	<path class="st0" d="M142.34,44.65c-0.58-0.66-0.91-1.59-0.92-2.62c-0.01-1.04,0.35-2.14,0.99-3.03c0.6-0.83,1.37-1.35,2.02-1.36
		c0.69-0.01,1.46,0.49,2.07,1.32c0.63,0.87,1,1.97,1.01,3.02c0.01,1.03-0.3,1.97-0.87,2.64c-0.56,0.65-1.32,1.01-2.15,1.02
		C143.68,45.64,142.91,45.29,142.34,44.65z M144.38,245.2c-0.83,0.01-1.59,0.37-2.15,1.02c-0.57,0.67-0.88,1.6-0.87,2.64
		c0.01,1.05,0.38,2.15,1.01,3.02c0.61,0.83,1.39,1.33,2.07,1.32c0.65-0.01,1.42-0.53,2.02-1.36c0.64-0.89,1-2,0.99-3.03
		c-0.01-1.03-0.33-1.96-0.92-2.62C145.98,245.54,145.21,245.2,144.38,245.2z M111.31,50.23c0.74,0.43,1.58,0.53,2.37,0.26
		c0.79-0.26,1.4-0.84,1.73-1.63c0.33-0.81,0.34-1.8,0.01-2.78c-0.34-1-1.03-1.93-1.9-2.56c-0.84-0.6-1.73-0.83-2.38-0.62
		c-0.61,0.21-1.19,0.94-1.5,1.92c-0.33,1.04-0.34,2.21-0.01,3.19C109.95,49,110.55,49.79,111.31,50.23z M177.59,240.6
		c-0.74-0.43-1.58-0.53-2.37-0.26c-0.79,0.26-1.4,0.84-1.73,1.63c-0.33,0.81-0.34,1.8-0.01,2.78c0.34,1,1.03,1.93,1.9,2.56
		c0.84,0.6,1.73,0.83,2.38,0.62c0.61-0.21,1.19-0.94,1.5-1.92c0.33-1.04,0.34-2.21,0.01-3.19
		C178.94,241.83,178.34,241.05,177.59,240.6z M83.51,65.13c0.84,0.18,1.66,0.01,2.33-0.48c0.67-0.49,1.07-1.23,1.14-2.09
		c0.07-0.88-0.23-1.81-0.84-2.64c-0.63-0.85-1.57-1.52-2.6-1.85c-0.98-0.31-1.9-0.26-2.45,0.15c-0.52,0.39-0.84,1.26-0.84,2.29
		c0.01,1.1,0.36,2.2,0.98,3.04C81.85,64.38,82.66,64.94,83.51,65.13z M205.38,225.7c-0.84-0.18-1.66-0.01-2.33,0.48
		c-0.67,0.49-1.07,1.23-1.14,2.09c-0.07,0.88,0.23,1.81,0.84,2.64c0.63,0.85,1.57,1.52,2.6,1.85c0.98,0.31,1.9,0.26,2.45-0.15
		c0.52-0.39,0.84-1.26,0.84-2.29c-0.01-1.1-0.36-2.2-0.98-3.04C207.04,226.45,206.23,225.89,205.38,225.7z M59.03,87.09
		c0.84,0.6,1.78,0.88,2.66,0.8c0.85-0.08,1.58-0.5,2.07-1.18c0.48-0.68,0.64-1.51,0.44-2.34c-0.21-0.85-0.78-1.65-1.62-2.25
		c-0.86-0.61-1.97-0.96-3.04-0.95c-1.03,0-1.89,0.34-2.29,0.9c-0.38,0.53-0.41,1.46-0.09,2.43C57.5,85.54,58.18,86.49,59.03,87.09z
		 M229.86,203.74c-0.84-0.6-1.78-0.88-2.66-0.8c-0.85,0.08-1.58,0.5-2.07,1.18c-0.48,0.68-0.64,1.51-0.44,2.34
		c0.21,0.85,0.78,1.65,1.62,2.25c0.86,0.61,1.97,0.96,3.04,0.95c1.03,0,1.89-0.34,2.29-0.9c0.38-0.53,0.41-1.46,0.09-2.43
		C231.39,205.29,230.71,204.35,229.86,203.74z M45.19,116.34c0.98,0.31,1.97,0.29,2.78-0.06c0.78-0.34,1.35-0.97,1.6-1.76
		c0.25-0.79,0.14-1.63-0.3-2.36c-0.46-0.75-1.25-1.33-2.24-1.64c-1-0.32-2.17-0.3-3.19,0.03c-0.98,0.32-1.69,0.91-1.9,1.56
		c-0.19,0.62,0.06,1.52,0.67,2.34C43.26,115.34,44.2,116.03,45.19,116.34z M243.71,174.49c-0.98-0.31-1.97-0.29-2.78,0.06
		c-0.78,0.34-1.35,0.97-1.6,1.76c-0.25,0.79-0.14,1.63,0.3,2.36c0.46,0.75,1.25,1.33,2.24,1.64c1,0.32,2.17,0.3,3.19-0.03
		c0.98-0.32,1.69-0.91,1.9-1.56c0.19-0.62-0.06-1.52-0.67-2.34C245.64,175.49,244.7,174.81,243.71,174.49z M43.68,147.52
		c0.64-0.57,0.99-1.34,0.98-2.17c-0.01-0.83-0.37-1.59-1.02-2.15c-0.67-0.57-1.6-0.88-2.64-0.87c-1.05,0.01-2.15,0.38-3.02,1.01
		c-0.83,0.61-1.33,1.39-1.32,2.07c0.01,0.65,0.53,1.42,1.36,2.02c0.89,0.64,2,1,3.03,0.99C42.09,148.43,43.02,148.1,43.68,147.52z
		 M250.87,143.39c-0.89-0.64-2-1-3.03-0.99c-1.03,0.01-1.96,0.33-2.62,0.92c-0.64,0.57-0.99,1.34-0.98,2.17
		c0.01,0.83,0.37,1.59,1.02,2.15c0.67,0.57,1.6,0.88,2.64,0.87c1.05-0.01,2.15-0.38,3.02-1.01c0.83-0.61,1.33-1.39,1.32-2.07
		C252.22,144.77,251.7,143.99,250.87,143.39z M47.89,174.46c-0.81-0.33-1.8-0.34-2.78-0.01c-1,0.34-1.93,1.03-2.56,1.9
		c-0.6,0.84-0.83,1.73-0.62,2.38c0.21,0.61,0.94,1.19,1.92,1.5c1.04,0.33,2.21,0.34,3.19,0.01c0.98-0.33,1.76-0.92,2.21-1.68
		c0.43-0.74,0.53-1.58,0.26-2.37C49.26,175.4,48.68,174.79,47.89,174.46z M241,116.37c0.81,0.33,1.8,0.34,2.78,0.01
		c1-0.34,1.93-1.03,2.56-1.9c0.6-0.84,0.83-1.73,0.62-2.38c-0.21-0.61-0.94-1.19-1.92-1.5c-1.04-0.33-2.21-0.34-3.19-0.01
		c-0.98,0.33-1.76,0.92-2.21,1.68c-0.43,0.74-0.53,1.58-0.26,2.37C239.63,115.43,240.21,116.04,241,116.37z M61.59,202.88
		c-0.88-0.07-1.81,0.23-2.64,0.84c-0.85,0.63-1.52,1.57-1.85,2.6c-0.31,0.98-0.26,1.9,0.15,2.45c0.39,0.52,1.26,0.84,2.29,0.84
		c1.1-0.01,2.2-0.36,3.04-0.98c0.83-0.61,1.39-1.42,1.58-2.28c0.18-0.84,0.01-1.66-0.48-2.33
		C63.19,203.35,62.45,202.95,61.59,202.88z M227.3,87.96c0.88,0.07,1.81-0.23,2.64-0.84c0.85-0.63,1.52-1.57,1.85-2.6
		c0.31-0.98,0.26-1.9-0.15-2.45c-0.39-0.52-1.26-0.84-2.29-0.84c-1.1,0.01-2.2,0.36-3.04,0.98c-0.83,0.61-1.39,1.42-1.58,2.28
		c-0.18,0.84-0.01,1.66,0.48,2.33C225.7,87.48,226.45,87.89,227.3,87.96z M85.74,226.11c-0.68-0.48-1.51-0.64-2.34-0.44
		c-0.85,0.21-1.65,0.78-2.25,1.62c-0.61,0.86-0.96,1.97-0.95,3.04c0,1.03,0.34,1.89,0.9,2.29c0.53,0.38,1.46,0.41,2.43,0.09
		c1.04-0.34,1.98-1.03,2.59-1.87c0.6-0.84,0.88-1.78,0.8-2.66C86.84,227.32,86.42,226.59,85.74,226.11z M203.15,64.73
		c0.68,0.48,1.51,0.64,2.34,0.44c0.85-0.21,1.65-0.78,2.25-1.62c0.61-0.86,0.96-1.97,0.95-3.04c0-1.03-0.34-1.89-0.9-2.29
		c-0.53-0.38-1.46-0.41-2.43-0.09c-1.04,0.34-1.98,1.03-2.59,1.87c-0.6,0.84-0.88,1.78-0.8,2.66
		C202.06,63.51,202.47,64.24,203.15,64.73z M113.55,240.3c-0.79-0.25-1.63-0.14-2.36,0.3c-0.75,0.46-1.33,1.25-1.64,2.24
		c-0.32,1-0.3,2.17,0.03,3.19c0.32,0.98,0.91,1.69,1.56,1.9c0.62,0.19,1.52-0.06,2.34-0.67c0.88-0.65,1.57-1.59,1.88-2.58
		c0.31-0.98,0.29-1.97-0.06-2.78C114.97,241.12,114.34,240.55,113.55,240.3z M175.34,50.54c0.79,0.25,1.63,0.14,2.36-0.3
		c0.75-0.46,1.33-1.25,1.64-2.24c0.32-1,0.3-2.17-0.03-3.19c-0.32-0.98-0.91-1.69-1.56-1.9c-0.62-0.19-1.52,0.06-2.34,0.67
		c-0.88,0.65-1.57,1.59-1.88,2.58c-0.31,0.98-0.29,1.97,0.06,2.78C173.93,49.72,174.55,50.29,175.34,50.54z M240.28,145.43
		c0.01,5.33,9.12,11.33,8.31,16.49c-0.83,5.24-11.37,8.14-12.99,13.12c-1.64,5.03,5.17,13.57,2.78,18.25
		c-2.4,4.7-13.31,4.2-16.41,8.46c-3.09,4.26,0.75,14.49-2.98,18.22c-3.71,3.72-13.94-0.11-18.22,3c-4.23,3.08-3.73,14-8.46,16.41
		c-4.65,2.37-13.18-4.45-18.25-2.81c-4.94,1.6-7.84,12.14-13.13,12.97c-5.29,0.84-11.31-8.29-16.5-8.28
		c-5.33,0.01-11.33,9.12-16.49,8.31c-5.24-0.83-8.14-11.37-13.12-12.99c-5.03-1.64-13.57,5.17-18.25,2.78
		c-4.7-2.4-4.2-13.31-8.46-16.41c-4.26-3.09-14.49,0.75-18.22-2.98c-3.72-3.71,0.11-13.94-3-18.22c-3.08-4.23-14-3.73-16.41-8.46
		c-2.37-4.65,4.45-13.18,2.81-18.25c-1.6-4.94-12.14-7.84-12.97-13.13c-0.84-5.29,8.29-11.31,8.28-16.5
		c-0.01-5.33-9.12-11.33-8.31-16.49c0.83-5.24,11.37-8.14,12.99-13.12c1.64-5.03-5.17-13.57-2.78-18.25
		c2.4-4.7,13.31-4.2,16.41-8.46c3.09-4.26-0.75-14.49,2.97-18.22c3.71-3.72,13.94,0.11,18.22-3c4.23-3.08,3.73-14,8.46-16.41
		c4.65-2.37,13.18,4.45,18.25,2.81c4.94-1.6,7.84-12.14,13.13-12.97c5.29-0.84,11.31,8.29,16.5,8.28
		c5.33-0.01,11.33-9.12,16.49-8.31c5.24,0.83,8.14,11.37,13.12,12.99c5.03,1.64,13.57-5.17,18.25-2.78c4.7,2.4,4.2,13.31,8.46,16.41
		c4.26,3.09,14.49-0.75,18.22,2.97c3.72,3.71-0.11,13.94,3,18.22c3.08,4.23,14,3.73,16.41,8.46c2.37,4.65-4.45,13.18-2.81,18.25
		c1.6,4.94,12.14,7.84,12.97,13.13C249.4,134.22,240.27,140.23,240.28,145.43z M232.9,127.71l-0.61,0.58l-0.33-2.19
		c-0.03-0.23-0.06-0.21-0.12-0.43c-0.85-2.98-4.18-4.72-7.43-3.6l-20.03,5.98l0,0c-0.81,2.71-3.66,5.94-3.28,8.4
		c0.38,2.41,4.14,4.6,5.73,6.99l0,0l20.88-0.5c3.44,0.06,6.06-2.63,5.95-5.72c-0.01-0.23,0.02-0.22-0.02-0.45l-0.37-2.19l0.76,0.36
		c1.13,0.54,2.47,0.71,3.86,0.47c1.63-0.27,3.28-1.14,4.51-2.4c1.1-1.11,1.71-2.4,1.55-3.35c-0.15-0.95-1.12-1.99-2.51-2.71
		c-1.56-0.81-3.4-1.13-5.03-0.88C235.03,126.27,233.81,126.84,232.9,127.71z M207.49,144.87c0.04,0.18,0.06,0.36,0.06,0.55
		c0,0.18-0.02,0.37-0.06,0.55c0.04-0.18,0.06-0.36,0.06-0.55C207.55,145.23,207.53,145.05,207.49,144.87z M207.33,144.35
		c0.03,0.08,0.05,0.16,0.08,0.24C207.39,144.51,207.37,144.43,207.33,144.35z M207.11,143.87c0.02,0.04,0.04,0.07,0.05,0.11
		C207.14,143.94,207.13,143.9,207.11,143.87z M207.33,146.48c0.03-0.08,0.05-0.16,0.08-0.24
		C207.39,146.32,207.37,146.4,207.33,146.48z M207.11,146.97c0.02-0.04,0.04-0.07,0.05-0.11
		C207.14,146.89,207.13,146.93,207.11,146.97z M184.17,178.44c0.09-0.1,0.1-0.08,0.18-0.19l0.74-1.04l0.16,0.46
		c0.24,0.68,0.72,1.29,1.38,1.77c0.78,0.56,1.8,0.87,2.82,0.86c0.9-0.01,1.67-0.28,2-0.73c0.33-0.45,0.35-1.27,0.08-2.13
		c-0.31-0.97-0.92-1.85-1.69-2.41c-0.65-0.48-1.38-0.75-2.11-0.77l-0.49-0.01l0.76-1.03c0.08-0.11,0.06-0.11,0.13-0.23
		c0.87-1.56,0.22-3.63-1.56-4.5l-16.2-8.75c0.02,1.52,0.91,3.59,0.16,4.62c-0.76,1.04-3,0.82-4.45,1.27l13.33,12.7
		C180.79,179.77,182.95,179.75,184.17,178.44z M182.47,195.3c0.02-0.03,0.03-0.06,0.05-0.1
		C182.51,195.24,182.49,195.27,182.47,195.3z M182.13,195.87c0.05-0.06,0.1-0.13,0.14-0.2
		C182.22,195.75,182.17,195.81,182.13,195.87z M181.54,196.48c-0.15,0.11-0.31,0.19-0.47,0.27
		C181.24,196.67,181.4,196.58,181.54,196.48c0.15-0.11,0.28-0.23,0.4-0.37C181.82,196.24,181.69,196.37,181.54,196.48z
		 M180.56,196.92c0.08-0.02,0.15-0.05,0.22-0.07C180.71,196.87,180.64,196.9,180.56,196.92z M180.03,197.01
		c0.03,0,0.07-0.01,0.1-0.02C180.1,197,180.07,197.01,180.03,197.01z M158.64,195.03l-0.14,0.47c-0.21,0.69-0.18,1.47,0.08,2.24
		c0.3,0.91,0.95,1.76,1.77,2.35c0.73,0.52,1.52,0.75,2.05,0.58c0.53-0.17,1.03-0.82,1.31-1.67c0.32-0.96,0.34-2.04,0.05-2.95
		c-0.25-0.78-0.68-1.42-1.25-1.86l-0.39-0.3l1.22-0.38c0.13-0.04,0.11-0.05,0.24-0.11c1.62-0.75,2.31-2.81,1.38-4.55L157,172.25
		c-0.87,1.24-1.36,3.44-2.59,3.84c-1.22,0.39-2.9-1.11-4.35-1.59l3.32,18.11c0.27,1.96,2.04,3.21,3.79,2.87
		c0.13-0.03,0.13-0.01,0.25-0.05L158.64,195.03z M146.28,196.98l1.28,0.01c0.13,0,0.13-0.01,0.26-0.03c1.77-0.22,3.07-1.95,2.72-3.9
		l-2.44-18.24c-1.2,0.91-2.34,2.84-3.65,2.84c-1.3,0-2.45-1.93-3.65-2.84l-2.44,18.24c-0.35,1.95,0.95,3.69,2.72,3.9
		c0.13,0.02,0.12,0.03,0.26,0.03l1.28-0.01l-0.28,0.4c-0.41,0.6-0.62,1.34-0.62,2.16c0.01,0.95,0.36,1.97,0.96,2.79
		c0.54,0.73,1.21,1.19,1.77,1.19c0.56,0,1.23-0.46,1.77-1.19c0.6-0.82,0.95-1.83,0.96-2.79c0.01-0.81-0.21-1.56-0.62-2.16
		L146.28,196.98z M145.89,208.13c0.04-0.02,0.07-0.04,0.11-0.05C145.96,208.1,145.92,208.12,145.89,208.13z M142.9,208.08
		c0.04,0.02,0.07,0.04,0.11,0.05C142.97,208.12,142.93,208.1,142.9,208.08z M130.25,195.03l1.21,0.41c0.13,0.04,0.12,0.03,0.25,0.05
		c1.75,0.34,3.52-0.91,3.79-2.87l3.32-18.11c-1.45,0.48-3.14,1.99-4.35,1.59c-1.23-0.4-1.72-2.6-2.59-3.84l-7.96,16.6
		c-0.93,1.75-0.24,3.8,1.38,4.55c0.12,0.06,0.11,0.07,0.24,0.11l1.22,0.38l-0.39,0.3c-0.58,0.44-1.01,1.08-1.25,1.86
		c-0.29,0.91-0.27,1.98,0.05,2.95c0.29,0.86,0.79,1.5,1.31,1.67c0.53,0.17,1.31-0.06,2.05-0.58c0.82-0.59,1.47-1.45,1.77-2.35
		c0.26-0.77,0.28-1.55,0.08-2.24L130.25,195.03z M109.48,178.35l13.33-12.7c-1.45-0.45-3.69-0.23-4.45-1.27
		c-0.76-1.04,0.14-3.1,0.16-4.63l-16.2,8.75c-1.78,0.87-2.43,2.94-1.56,4.5c0.06,0.12,0.05,0.12,0.13,0.23l0.76,1.03l-0.49,0.01
		c-0.72,0.02-1.45,0.28-2.11,0.77c-0.77,0.57-1.38,1.45-1.69,2.41c-0.27,0.86-0.25,1.68,0.08,2.13c0.32,0.45,1.1,0.73,2,0.73
		c1.01,0.01,2.04-0.31,2.82-0.86c0.66-0.47,1.14-1.08,1.38-1.77l0.16-0.46l0.74,1.04c0.08,0.11,0.08,0.09,0.18,0.19
		C105.94,179.75,108.11,179.77,109.48,178.35z M108.75,197c0.03,0.01,0.07,0.01,0.1,0.02C108.82,197.01,108.79,197,108.75,197z
		 M108.1,196.84c0.07,0.02,0.15,0.05,0.23,0.07C108.25,196.9,108.18,196.87,108.1,196.84z M107.35,196.48
		c-0.15-0.11-0.28-0.23-0.4-0.37C107.07,196.24,107.2,196.37,107.35,196.48c0.15,0.11,0.31,0.19,0.47,0.27
		C107.65,196.67,107.49,196.58,107.35,196.48z M93.82,126.1c-0.91-0.29-1.98-0.27-2.95,0.05c-0.86,0.29-1.5,0.79-1.67,1.31
		c-0.17,0.53,0.06,1.31,0.58,2.05c0.59,0.82,1.45,1.47,2.35,1.77c0.77,0.26,1.55,0.28,2.24,0.08l0.47-0.14l-0.41,1.21
		c-0.04,0.13-0.03,0.12-0.05,0.25c-0.34,1.75,0.91,3.52,2.87,3.79l18.11,3.32c-0.48-1.45-1.99-3.14-1.59-4.35
		c0.4-1.23,2.6-1.72,3.84-2.59l-16.6-7.96c-1.75-0.93-3.8-0.24-4.55,1.38c-0.06,0.12-0.07,0.11-0.11,0.24l-0.38,1.22l-0.3-0.39
		C95.23,126.78,94.59,126.35,93.82,126.1z M94.19,107.6c-0.07,0.04-0.13,0.09-0.2,0.14C94.06,107.69,94.12,107.64,94.19,107.6z
		 M94.66,107.34c-0.03,0.02-0.07,0.03-0.1,0.05C94.59,107.37,94.62,107.36,94.66,107.34z M104.72,112.39
		c-0.09,0.1-0.1,0.08-0.18,0.19l-0.74,1.04l-0.16-0.46c-0.24-0.68-0.72-1.29-1.38-1.77c-0.78-0.56-1.8-0.87-2.82-0.86
		c-0.9,0.01-1.67,0.28-2,0.73c-0.33,0.45-0.35,1.27-0.08,2.13c0.31,0.97,0.92,1.85,1.69,2.41c0.65,0.48,1.38,0.75,2.11,0.77
		l0.49,0.01l-0.76,1.03c-0.08,0.11-0.06,0.11-0.13,0.23c-0.87,1.56-0.22,3.63,1.56,4.5l16.2,8.75c-0.02-1.52-0.91-3.59-0.16-4.62
		c0.76-1.04,3-0.82,4.45-1.27l-13.33-12.7C108.11,111.06,105.94,111.09,104.72,112.39z M107.35,94.36c0.15-0.11,0.31-0.19,0.47-0.27
		C107.65,94.17,107.5,94.25,107.35,94.36c-0.15,0.11-0.28,0.23-0.4,0.37C107.07,94.59,107.2,94.47,107.35,94.36z M108.33,93.92
		c-0.08,0.02-0.15,0.05-0.23,0.07C108.18,93.97,108.25,93.94,108.33,93.92z M108.86,93.82c-0.04,0-0.07,0.01-0.1,0.02
		C108.79,93.83,108.82,93.83,108.86,93.82z M130.25,95.81l0.14-0.47c0.21-0.69,0.18-1.47-0.08-2.24c-0.3-0.91-0.95-1.76-1.77-2.35
		c-0.73-0.52-1.52-0.75-2.05-0.58c-0.53,0.17-1.03,0.82-1.31,1.67c-0.32,0.96-0.34,2.04-0.05,2.95c0.25,0.78,0.68,1.42,1.25,1.86
		l0.39,0.3l-1.22,0.38c-0.13,0.04-0.11,0.05-0.24,0.11c-1.62,0.75-2.31,2.81-1.38,4.55l7.96,16.59c0.87-1.24,1.36-3.44,2.59-3.84
		c1.22-0.39,2.9,1.11,4.35,1.59l-3.32-18.11c-0.27-1.96-2.04-3.21-3.79-2.87c-0.13,0.03-0.13,0.01-0.25,0.05L130.25,95.81z
		 M142.61,93.85l-1.28-0.01c-0.13,0-0.13,0.01-0.26,0.03c-1.77,0.22-3.07,1.95-2.72,3.9l2.44,18.24c1.2-0.91,2.34-2.84,3.65-2.84
		c1.3,0,2.45,1.93,3.65,2.84l2.44-18.24c0.35-1.95-0.95-3.69-2.72-3.9c-0.13-0.02-0.12-0.03-0.26-0.03l-1.28,0.01l0.28-0.4
		c0.41-0.6,0.62-1.34,0.62-2.16c-0.01-0.95-0.36-1.97-0.96-2.79c-0.54-0.73-1.21-1.19-1.77-1.19c-0.56,0-1.23,0.46-1.77,1.19
		c-0.6,0.82-0.95,1.83-0.96,2.79c-0.01,0.81,0.21,1.56,0.62,2.16L142.61,93.85z M143,82.7c-0.04,0.02-0.07,0.04-0.11,0.05
		C142.93,82.74,142.97,82.72,143,82.7z M145.99,82.76c-0.04-0.02-0.07-0.04-0.11-0.05C145.92,82.72,145.96,82.74,145.99,82.76z
		 M158.64,95.81l-1.21-0.41c-0.13-0.04-0.12-0.03-0.25-0.05c-1.75-0.34-3.52,0.91-3.79,2.87l-3.32,18.11
		c1.45-0.48,3.14-1.99,4.35-1.59c1.23,0.4,1.72,2.6,2.59,3.84l7.96-16.6c0.93-1.75,0.24-3.8-1.38-4.55
		c-0.12-0.06-0.11-0.07-0.24-0.11l-1.22-0.38l0.39-0.3c0.58-0.44,1.01-1.08,1.25-1.86c0.29-0.91,0.27-1.98-0.05-2.95
		c-0.29-0.86-0.79-1.5-1.31-1.67c-0.53-0.17-1.31,0.06-2.05,0.58c-0.82,0.59-1.47,1.45-1.77,2.35c-0.26,0.77-0.28,1.55-0.08,2.24
		L158.64,95.81z M179.41,112.49l-13.33,12.7c1.45,0.45,3.69,0.23,4.45,1.27c0.76,1.04-0.14,3.1-0.16,4.63l16.2-8.75
		c1.78-0.87,2.43-2.94,1.56-4.5c-0.06-0.12-0.05-0.12-0.13-0.23l-0.76-1.03l0.49-0.01c0.72-0.02,1.45-0.28,2.11-0.77
		c0.77-0.57,1.38-1.45,1.69-2.41c0.27-0.86,0.25-1.68-0.08-2.13c-0.32-0.45-1.1-0.73-2-0.73c-1.01-0.01-2.04,0.31-2.82,0.86
		c-0.66,0.47-1.14,1.08-1.38,1.77l-0.16,0.46l-0.74-1.04c-0.08-0.11-0.08-0.09-0.18-0.19C182.95,111.09,180.79,111.06,179.41,112.49
		z M180.14,93.84c-0.04,0-0.07-0.01-0.1-0.02C180.07,93.83,180.1,93.83,180.14,93.84z M180.79,93.99c-0.08-0.02-0.15-0.05-0.23-0.07
		C180.64,93.94,180.71,93.97,180.79,93.99z M181.54,94.36c0.15,0.11,0.28,0.23,0.4,0.37C181.82,94.59,181.69,94.47,181.54,94.36
		c-0.15-0.11-0.31-0.19-0.47-0.27C181.24,94.17,181.4,94.25,181.54,94.36z M182.27,95.16c-0.04-0.07-0.09-0.13-0.14-0.2
		C182.17,95.03,182.22,95.09,182.27,95.16z M182.52,95.63c-0.02-0.03-0.03-0.07-0.05-0.1C182.49,95.56,182.51,95.6,182.52,95.63z
		 M193.22,127.36l-0.3,0.39l-0.38-1.22c-0.04-0.13-0.05-0.11-0.11-0.24c-0.75-1.62-2.81-2.31-4.55-1.38l-16.59,7.96
		c1.24,0.87,3.44,1.36,3.84,2.59c0.39,1.22-1.11,2.9-1.59,4.35l18.11-3.32c1.96-0.27,3.21-2.04,2.87-3.79
		c-0.03-0.13-0.01-0.13-0.05-0.25l-0.41-1.21l0.47,0.14c0.69,0.21,1.47,0.18,2.24-0.08c0.91-0.3,1.76-0.95,2.35-1.77
		c0.52-0.73,0.75-1.52,0.58-2.05c-0.17-0.53-0.82-1.03-1.67-1.31c-0.96-0.32-2.04-0.34-2.95-0.05
		C194.3,126.35,193.66,126.78,193.22,127.36z M194.33,107.39c-0.03-0.02-0.06-0.03-0.1-0.05
		C194.27,107.36,194.3,107.37,194.33,107.39z M194.9,107.74c-0.06-0.05-0.13-0.1-0.2-0.14C194.77,107.64,194.84,107.69,194.9,107.74
		z M170.93,142.16l-1.24,0.17c-2.3,0.35-4.02,0.95-4.02,3.09s1.72,2.75,4.02,3.09l1.24,0.17c0.83-1.07,2.53-2.09,2.53-3.26
		C173.46,144.25,171.76,143.23,170.93,142.16z M170.63,150.5l-1.22-0.22c-2.29-0.38-4.12-0.34-4.78,1.7
		c-0.66,2.04,0.79,3.14,2.87,4.19l1.12,0.54c1.12-0.77,3.07-1.21,3.43-2.31C172.4,153.3,171.07,151.8,170.63,150.5z M167.78,158.35
		l-1.09-0.59c-2.06-1.07-3.81-1.6-5.07,0.14c-1.26,1.74-0.22,3.24,1.44,4.87l0.91,0.86c1.31-0.39,3.29-0.22,3.97-1.15
		C168.6,161.55,167.81,159.71,167.78,158.35z M117.96,148.68l1.24-0.17c2.3-0.35,4.02-0.95,4.02-3.09s-1.72-2.75-4.02-3.09
		l-1.24-0.17c-0.83,1.07-2.53,2.09-2.53,3.26C115.43,146.58,117.13,147.6,117.96,148.68z M118.26,140.33l1.22,0.22
		c2.29,0.38,4.12,0.34,4.78-1.7c0.66-2.04-0.79-3.14-2.87-4.19l-1.12-0.54c-1.12,0.77-3.07,1.21-3.43,2.31
		C116.49,137.53,117.82,139.04,118.26,140.33z M121.11,132.49l1.09,0.59c2.06,1.07,3.81,1.6,5.07-0.14
		c1.26-1.74,0.22-3.24-1.44-4.87l-0.91-0.86c-1.31,0.39-3.29,0.22-3.97,1.15C120.29,129.29,121.08,131.12,121.11,132.49z
		 M172.05,136.45c-0.36-1.1-2.3-1.54-3.42-2.31l-1.12,0.54c-2.08,1.04-3.54,2.14-2.87,4.19c0.66,2.04,2.49,2.08,4.78,1.7l1.22-0.22
		C171.07,139.04,172.4,137.53,172.05,136.45z M167.92,128.36c-0.68-0.93-2.66-0.75-3.96-1.15l-0.91,0.86
		c-1.66,1.63-2.7,3.13-1.44,4.87c1.26,1.74,3.01,1.21,5.07,0.14l1.09-0.59C167.81,131.12,168.6,129.29,167.92,128.36z
		 M162.65,125.91c-0.39-1.31-0.22-3.29-1.15-3.97c-0.93-0.67-2.76,0.12-4.13,0.14l-0.59,1.09c-1.07,2.06-1.6,3.81,0.14,5.07
		c1.74,1.26,3.24,0.22,4.87-1.44L162.65,125.91z M149.31,120.45c-0.38,2.29-0.34,4.12,1.7,4.78c2.04,0.66,3.14-0.79,4.19-2.87
		l0.54-1.12c-0.77-1.12-1.21-3.07-2.31-3.43c-1.09-0.35-2.59,0.98-3.89,1.42L149.31,120.45z M139.36,119.23
		c-1.3-0.45-2.8-1.77-3.89-1.42c-1.1,0.36-1.54,2.3-2.31,3.43l0.54,1.12c1.04,2.08,2.14,3.54,4.19,2.87
		c2.04-0.66,2.08-2.49,1.7-4.78L139.36,119.23z M131.52,122.08c-1.37-0.03-3.2-0.82-4.13-0.14c-0.93,0.68-0.75,2.66-1.15,3.96
		l0.86,0.91c1.63,1.66,3.13,2.7,4.87,1.44c1.74-1.26,1.21-3.01,0.14-5.07L131.52,122.08z M116.84,154.39
		c0.36,1.1,2.3,1.54,3.43,2.31l1.12-0.54c2.08-1.04,3.54-2.14,2.87-4.19c-0.66-2.04-2.49-2.08-4.78-1.7l-1.22,0.22
		C117.82,151.8,116.49,153.3,116.84,154.39z M120.97,162.48c0.68,0.93,2.66,0.75,3.96,1.15l0.91-0.86c1.66-1.63,2.7-3.13,1.44-4.87
		c-1.26-1.74-3.01-1.21-5.07-0.14l-1.09,0.59C121.08,159.71,120.29,161.55,120.97,162.48z M126.24,164.93
		c0.39,1.31,0.22,3.29,1.15,3.97c0.93,0.67,2.76-0.12,4.13-0.14l0.59-1.09c1.07-2.06,1.6-3.81-0.14-5.07
		c-1.74-1.26-3.24-0.22-4.87,1.44L126.24,164.93z M133.16,169.6c0.77,1.12,1.21,3.07,2.31,3.43c1.09,0.35,2.59-0.98,3.89-1.42
		l0.22-1.22c0.38-2.29,0.34-4.12-1.7-4.78c-2.04-0.66-3.14,0.79-4.19,2.87L133.16,169.6z M141.19,171.9
		c1.07,0.83,2.09,2.53,3.26,2.53c1.16,0,2.19-1.71,3.26-2.53l-0.17-1.24c-0.35-2.3-0.95-4.02-3.09-4.02c-2.15,0-2.75,1.72-3.09,4.02
		L141.19,171.9z M141.35,120.17c0.35,2.3,0.95,4.02,3.09,4.02c2.15,0,2.75-1.72,3.09-4.02l0.17-1.24c-1.07-0.83-2.09-2.53-3.26-2.53
		c-1.16,0-2.19,1.71-3.26,2.53L141.35,120.17z M149.53,171.6c1.3,0.45,2.8,1.77,3.89,1.42c1.1-0.36,1.54-2.3,2.31-3.42l-0.54-1.12
		c-1.04-2.08-2.14-3.54-4.19-2.87c-2.04,0.66-2.08,2.49-1.7,4.78L149.53,171.6z M157.37,168.75c1.37,0.03,3.2,0.82,4.13,0.14
		c0.93-0.68,0.75-2.66,1.15-3.96l-0.86-0.91c-1.63-1.66-3.13-2.7-4.87-1.44c-1.74,1.26-1.21,3.01-0.14,5.07L157.37,168.75z
		 M179.32,100.42c-0.01-0.9-0.28-1.67-0.73-2c-0.45-0.33-1.27-0.35-2.13-0.08c-0.97,0.31-1.85,0.92-2.41,1.69
		c-0.48,0.65-0.75,1.38-0.77,2.11l-0.01,0.49l-1.03-0.76c-0.11-0.08-0.11-0.06-0.23-0.13c-1.56-0.87-3.63-0.22-4.5,1.56l-8.75,16.2
		c1.52-0.02,3.59-0.91,4.62-0.16c1.04,0.76,0.82,3,1.27,4.45l12.7-13.33c1.43-1.37,1.4-3.54,0.09-4.76c-0.1-0.09-0.08-0.1-0.19-0.18
		l-1.04-0.74l0.46-0.16c0.68-0.24,1.29-0.72,1.77-1.38C179.02,102.46,179.33,101.43,179.32,100.42z M162.45,85.33
		c-0.03,0.01-0.07,0.01-0.1,0.02C162.39,85.34,162.42,85.33,162.45,85.33z M163.12,85.27c-0.08,0-0.15,0-0.23,0
		C162.96,85.27,163.04,85.27,163.12,85.27z M163.95,85.38c0.17,0.06,0.34,0.14,0.5,0.23C164.29,85.52,164.13,85.44,163.95,85.38
		c-0.17-0.06-0.35-0.09-0.53-0.11C163.6,85.29,163.78,85.33,163.95,85.38z M164.89,85.92c-0.06-0.05-0.13-0.1-0.2-0.14
		C164.76,85.82,164.83,85.87,164.89,85.92z M165.28,86.29c-0.03-0.03-0.05-0.05-0.08-0.08C165.23,86.23,165.25,86.26,165.28,86.29z
		 M126.54,85.34c-0.03-0.01-0.07-0.01-0.1-0.02C126.47,85.33,126.51,85.34,126.54,85.34z M125.47,85.28
		c-0.18,0.02-0.36,0.05-0.53,0.11c-0.17,0.06-0.34,0.13-0.5,0.23c0.16-0.09,0.32-0.17,0.5-0.23
		C125.11,85.33,125.29,85.29,125.47,85.28z M126.01,85.27c-0.08-0.01-0.16,0-0.23,0C125.85,85.27,125.93,85.27,126.01,85.27z
		 M123.69,86.21c-0.03,0.03-0.05,0.05-0.08,0.08C123.64,86.26,123.66,86.23,123.69,86.21z M124.2,85.77
		c-0.07,0.05-0.13,0.09-0.2,0.15C124.06,85.87,124.13,85.82,124.2,85.77z M121.37,103.3c-0.87-1.78-2.94-2.43-4.5-1.56
		c-0.12,0.06-0.12,0.05-0.23,0.13l-1.03,0.76l-0.01-0.49c-0.02-0.72-0.28-1.45-0.77-2.11c-0.57-0.77-1.45-1.38-2.41-1.69
		c-0.86-0.27-1.68-0.25-2.13,0.08c-0.45,0.32-0.73,1.1-0.73,2c-0.01,1.01,0.31,2.04,0.86,2.82c0.47,0.66,1.08,1.14,1.77,1.38
		l0.46,0.16l-1.04,0.74c-0.11,0.08-0.09,0.08-0.19,0.18c-1.31,1.22-1.33,3.38,0.09,4.76l12.7,13.33c0.45-1.45,0.23-3.69,1.27-4.45
		c1.04-0.76,3.1,0.14,4.63,0.16L121.37,103.3z M87.54,143.65c-0.73,0.54-1.19,1.21-1.19,1.77c0,0.56,0.46,1.23,1.19,1.77
		c0.82,0.6,1.83,0.95,2.79,0.96c0.81,0.01,1.56-0.21,2.16-0.62l0.4-0.28l-0.01,1.28c0,0.13,0.01,0.13,0.03,0.26
		c0.22,1.77,1.95,3.07,3.9,2.72l18.24-2.44c-0.91-1.2-2.84-2.34-2.84-3.65c0-1.3,1.93-2.45,2.84-3.65l-18.24-2.44
		c-1.95-0.35-3.69,0.95-3.9,2.72c-0.02,0.13-0.03,0.12-0.03,0.26l0.01,1.28l-0.4-0.28c-0.6-0.41-1.34-0.62-2.16-0.62
		C89.37,142.7,88.35,143.05,87.54,143.65z M89.2,163.37c0.17,0.53,0.82,1.03,1.67,1.31c0.96,0.32,2.04,0.34,2.95,0.05
		c0.78-0.25,1.42-0.68,1.86-1.25l0.3-0.39l0.38,1.22c0.04,0.13,0.05,0.11,0.11,0.24c0.75,1.62,2.81,2.31,4.55,1.38l16.59-7.96
		c-1.24-0.87-3.44-1.36-3.84-2.59c-0.39-1.22,1.11-2.9,1.59-4.35l-18.11,3.32c-1.96,0.27-3.21,2.04-2.87,3.79
		c0.03,0.13,0.01,0.13,0.05,0.25l0.41,1.21l-0.47-0.14c-0.69-0.21-1.47-0.18-2.24,0.08c-0.91,0.3-1.76,0.95-2.35,1.77
		C89.25,162.06,89.02,162.84,89.2,163.37z M109.57,190.42c0.01,0.9,0.28,1.67,0.73,2c0.45,0.33,1.27,0.35,2.13,0.08
		c0.97-0.31,1.85-0.92,2.41-1.69c0.48-0.65,0.75-1.38,0.77-2.11l0.01-0.49l1.03,0.76c0.11,0.08,0.11,0.06,0.23,0.13
		c1.56,0.87,3.63,0.22,4.5-1.56l8.75-16.2c-1.52,0.02-3.59,0.91-4.62,0.16c-1.04-0.76-0.82-3-1.27-4.45l-12.7,13.33
		c-1.43,1.37-1.4,3.54-0.09,4.76c0.1,0.09,0.08,0.1,0.19,0.18l1.04,0.74l-0.46,0.16c-0.68,0.24-1.29,0.72-1.77,1.38
		C109.87,188.38,109.56,189.4,109.57,190.42z M126.44,205.51c0.03-0.01,0.07-0.01,0.1-0.02C126.51,205.5,126.47,205.5,126.44,205.51
		z M125.77,205.57c0.08,0,0.15,0,0.23,0C125.93,205.57,125.85,205.57,125.77,205.57z M124.94,205.45c-0.17-0.06-0.34-0.14-0.5-0.23
		C124.6,205.32,124.77,205.4,124.94,205.45c0.17,0.06,0.35,0.09,0.53,0.11C125.29,205.54,125.11,205.51,124.94,205.45z M124,204.92
		c0.06,0.05,0.13,0.1,0.2,0.14C124.13,205.01,124.06,204.97,124,204.92z M123.61,204.55c0.03,0.03,0.05,0.05,0.08,0.08
		C123.66,204.6,123.64,204.58,123.61,204.55z M162.35,205.49c0.03,0.01,0.07,0.01,0.1,0.02C162.42,205.5,162.39,205.5,162.35,205.49
		z M163.42,205.56c0.18-0.02,0.36-0.05,0.53-0.11c0.17-0.06,0.34-0.13,0.5-0.23c-0.16,0.09-0.32,0.17-0.5,0.23
		C163.78,205.51,163.6,205.54,163.42,205.56z M162.89,205.57c0.08,0.01,0.15,0,0.23,0C163.04,205.57,162.96,205.57,162.89,205.57z
		 M165.2,204.63c0.03-0.03,0.05-0.05,0.08-0.08C165.25,204.58,165.23,204.6,165.2,204.63z M164.69,205.06
		c0.07-0.05,0.13-0.09,0.2-0.14C164.83,204.97,164.76,205.01,164.69,205.06z M167.52,187.54c0.87,1.78,2.94,2.43,4.5,1.56
		c0.12-0.06,0.12-0.05,0.23-0.13l1.03-0.76l0.01,0.49c0.02,0.72,0.28,1.45,0.77,2.11c0.57,0.77,1.45,1.38,2.41,1.69
		c0.86,0.27,1.68,0.25,2.13-0.08c0.45-0.32,0.73-1.1,0.73-2c0.01-1.01-0.31-2.04-0.86-2.82c-0.47-0.66-1.08-1.14-1.77-1.38
		l-0.46-0.16l1.04-0.74c0.11-0.08,0.09-0.08,0.19-0.18c1.31-1.22,1.33-3.38-0.09-4.76l-12.7-13.33c-0.45,1.45-0.23,3.69-1.27,4.45
		c-1.04,0.76-3.1-0.14-4.63-0.16L167.52,187.54z M192.43,164.55c0.06-0.12,0.07-0.11,0.11-0.24l0.38-1.22l0.3,0.39
		c0.44,0.58,1.08,1.01,1.86,1.25c0.91,0.29,1.98,0.27,2.95-0.05c0.86-0.29,1.5-0.79,1.67-1.31c0.17-0.53-0.06-1.31-0.58-2.05
		c-0.59-0.82-1.45-1.47-2.35-1.77c-0.77-0.26-1.55-0.28-2.24-0.08l-0.47,0.14l0.41-1.21c0.04-0.13,0.03-0.12,0.05-0.25
		c0.34-1.75-0.91-3.52-2.87-3.79l-18.11-3.32c0.48,1.45,1.99,3.14,1.59,4.35c-0.4,1.23-2.6,1.72-3.84,2.59l16.6,7.96
		C189.62,166.86,191.68,166.17,192.43,164.55z M201.35,147.19c0.73-0.54,1.19-1.21,1.19-1.77c0-0.56-0.46-1.23-1.19-1.77
		c-0.82-0.6-1.83-0.95-2.79-0.96c-0.81-0.01-1.56,0.21-2.16,0.62l-0.4,0.28l0.01-1.28c0-0.13-0.01-0.13-0.03-0.26
		c-0.22-1.77-1.95-3.07-3.9-2.72l-18.24,2.44c0.91,1.2,2.84,2.34,2.84,3.65c0,1.3-1.93,2.45-2.84,3.65l18.24,2.44
		c1.95,0.35,3.69-0.95,3.9-2.72c0.02-0.13,0.03-0.12,0.03-0.26l-0.01-1.28l0.4,0.28c0.6,0.41,1.34,0.62,2.16,0.62
		C199.52,148.14,200.54,147.79,201.35,147.19z M204.59,126.75c0,0.08,0,0.15,0,0.23C204.6,126.9,204.59,126.82,204.59,126.75z
		 M204.52,127.51c0.01-0.03,0.01-0.07,0.02-0.1C204.53,127.44,204.53,127.48,204.52,127.51z M204.59,126.44
		c-0.02-0.18-0.05-0.36-0.11-0.53c-0.06-0.17-0.13-0.34-0.23-0.5c0.09,0.16,0.17,0.32,0.23,0.5
		C204.54,126.08,204.57,126.26,204.59,126.44z M213.28,98.49l-17.2,11.87c0.08,2.84-1.64,6.8-0.51,9.01
		c1.12,2.19,5.35,3.11,7.6,4.87l0,0l19.7-6.93c3.29-1,4.95-4.37,3.89-7.28c-0.08-0.22-0.05-0.22-0.16-0.42l-1.02-1.97l0.84,0.11
		c1.25,0.16,2.57-0.09,3.82-0.74c1.47-0.76,2.76-2.1,3.55-3.67c0.7-1.4,0.88-2.81,0.44-3.67c-0.43-0.86-1.68-1.54-3.22-1.8
		c-1.73-0.29-3.58-0.03-5.06,0.71c-1.26,0.63-2.25,1.55-2.84,2.65l-0.4,0.74l-0.99-1.98c-0.1-0.21-0.12-0.18-0.25-0.38
		C219.73,97.06,216.03,96.42,213.28,98.49z M203.94,124.97c0.05,0.06,0.1,0.13,0.15,0.2C204.04,125.1,204,125.04,203.94,124.97z
		 M203.58,124.58c0.03,0.03,0.05,0.05,0.08,0.08C203.63,124.64,203.6,124.61,203.58,124.58z M195.5,108.32
		c0.11,0.15,0.19,0.31,0.27,0.47C195.7,108.63,195.61,108.47,195.5,108.32c-0.11-0.15-0.23-0.28-0.37-0.4
		C195.27,108.04,195.4,108.17,195.5,108.32z M195.94,109.3c-0.02-0.08-0.05-0.15-0.07-0.23C195.9,109.15,195.92,109.22,195.94,109.3
		z M196.04,109.83c0-0.04-0.01-0.07-0.02-0.1C196.03,109.76,196.04,109.79,196.04,109.83z M182.73,96.12
		c0.96,2.68,0.54,6.99,2.28,8.73c1.75,1.75,6.05,1.32,8.73,2.28l16.6-12.69c2.82-1.97,3.36-5.69,1.45-8.12
		c-0.14-0.18-0.11-0.19-0.28-0.35l-1.58-1.55l0.83-0.15c1.24-0.23,2.41-0.88,3.4-1.89c1.16-1.18,1.98-2.85,2.24-4.59
		c0.23-1.55-0.03-2.94-0.71-3.62c-0.68-0.68-2.08-0.95-3.62-0.71c-1.74,0.26-3.41,1.08-4.59,2.24c-1,0.99-1.66,2.17-1.89,3.4
		l-0.15,0.83l-1.55-1.58c-0.16-0.17-0.17-0.14-0.35-0.28c-2.44-1.91-6.16-1.36-8.12,1.45L182.73,96.12z M165.62,86.69
		c1.75,2.25,2.68,6.49,4.87,7.6c2.21,1.13,6.17-0.59,9.01-0.51l11.87-17.2c2.07-2.74,1.44-6.45-1.13-8.18
		c-0.19-0.13-0.17-0.15-0.38-0.25l-1.98-0.99l0.74-0.4c1.11-0.6,2.02-1.58,2.65-2.84c0.74-1.48,1-3.32,0.71-5.06
		c-0.26-1.54-0.94-2.79-1.8-3.22c-0.86-0.44-2.27-0.26-3.67,0.44c-1.57,0.79-2.91,2.08-3.67,3.55c-0.65,1.25-0.91,2.57-0.74,3.82
		l0.11,0.84l-1.97-1.02c-0.21-0.11-0.2-0.08-0.42-0.16c-2.91-1.06-6.28,0.61-7.28,3.89L165.62,86.69z M146.94,62.15l-0.5,20.88
		c2.38,1.59,4.57,5.35,6.99,5.73c2.46,0.39,5.69-2.47,8.4-3.28c0,0,0,0,0,0l5.98-20.03c1.12-3.25-0.63-6.58-3.6-7.43
		c-0.22-0.06-0.2-0.09-0.43-0.12l-2.19-0.33l0.58-0.61c0.87-0.91,1.43-2.13,1.64-3.53c0.25-1.64-0.07-3.47-0.88-5.03
		c-0.72-1.39-1.75-2.36-2.71-2.51c-0.95-0.15-2.24,0.45-3.35,1.55c-1.25,1.23-2.13,2.88-2.4,4.51c-0.23,1.39-0.07,2.73,0.47,3.86
		l0.36,0.76l-2.19-0.37c-0.23-0.04-0.22-0.01-0.45-0.02C149.57,56.08,146.88,58.71,146.94,62.15z M144.45,82.31
		c-0.18,0-0.37,0.02-0.55,0.06C144.08,82.33,144.26,82.31,144.45,82.31c0.18,0,0.37,0.02,0.55,0.06
		C144.81,82.33,144.63,82.31,144.45,82.31z M145.27,82.45c0.08,0.02,0.16,0.05,0.24,0.08C145.43,82.5,145.35,82.48,145.27,82.45z
		 M143.62,82.45c-0.08,0.02-0.16,0.05-0.24,0.08C143.46,82.5,143.54,82.48,143.62,82.45z M121.09,65.45l5.98,20.03l0,0
		c2.71,0.81,5.94,3.66,8.4,3.28c2.41-0.38,4.6-4.14,6.99-5.73l-0.5-20.88c0.06-3.44-2.63-6.06-5.72-5.95
		c-0.23,0.01-0.22-0.02-0.45,0.02l-2.19,0.37l0.36-0.76c0.54-1.13,0.71-2.47,0.47-3.86c-0.27-1.63-1.14-3.28-2.4-4.51
		c-1.11-1.1-2.4-1.71-3.35-1.55c-0.95,0.15-1.99,1.12-2.71,2.51c-0.81,1.56-1.13,3.4-0.88,5.03c0.21,1.39,0.78,2.61,1.64,3.53
		l0.58,0.61l-2.19,0.33c-0.23,0.03-0.21,0.06-0.43,0.12C121.72,58.87,119.97,62.2,121.09,65.45z M97.52,76.58l11.87,17.2
		c2.84-0.08,6.8,1.64,9.01,0.51c2.19-1.12,3.11-5.35,4.87-7.6l-6.93-19.7c-1-3.29-4.37-4.95-7.28-3.89
		c-0.22,0.08-0.22,0.05-0.42,0.16l-1.97,1.02l0.11-0.84c0.16-1.25-0.09-2.57-0.74-3.82c-0.76-1.47-2.1-2.76-3.67-3.55
		c-1.4-0.7-2.81-0.88-3.67-0.44c-0.86,0.43-1.54,1.68-1.8,3.22c-0.29,1.73-0.03,3.58,0.71,5.06c0.63,1.26,1.55,2.25,2.65,2.84
		l0.74,0.4l-1.98,0.99c-0.21,0.1-0.18,0.12-0.38,0.25C96.08,70.13,95.45,73.84,97.52,76.58z M72.48,77.79
		c0.26,1.74,1.08,3.41,2.24,4.59c0.99,1,2.17,1.66,3.4,1.89l0.83,0.15l-1.58,1.55c-0.17,0.16-0.14,0.17-0.28,0.35
		c-1.91,2.44-1.36,6.16,1.45,8.12l16.6,12.69c2.68-0.96,6.99-0.54,8.73-2.28c1.75-1.75,1.32-6.05,2.28-8.73l0,0l-12.69-16.6
		c-1.97-2.82-5.69-3.36-8.12-1.45c-0.18,0.14-0.19,0.11-0.35,0.28l-1.55,1.58l-0.15-0.83c-0.23-1.24-0.88-2.41-1.89-3.4
		c-1.18-1.16-2.85-1.98-4.59-2.24c-1.55-0.23-2.94,0.03-3.62,0.71C72.51,74.85,72.25,76.24,72.48,77.79z M106.62,95.16
		c0.04-0.07,0.09-0.13,0.14-0.2C106.72,95.03,106.67,95.09,106.62,95.16z M106.37,95.63c0.02-0.03,0.03-0.07,0.05-0.1
		C106.4,95.57,106.38,95.6,106.37,95.63z M93.39,108.32c-0.11,0.15-0.19,0.31-0.27,0.47C93.19,108.63,93.28,108.47,93.39,108.32
		c0.11-0.15,0.23-0.28,0.37-0.4C93.62,108.04,93.49,108.17,93.39,108.32z M55.1,103.34c0.79,1.57,2.08,2.91,3.55,3.67
		c1.25,0.65,2.57,0.91,3.82,0.74l0.84-0.11l-1.02,1.97c-0.11,0.21-0.08,0.2-0.16,0.42c-1.06,2.91,0.61,6.28,3.89,7.28l19.7,6.93
		c2.25-1.75,6.49-2.68,7.6-4.87c1.13-2.21-0.59-6.17-0.51-9.01l-17.2-11.87c-2.74-2.07-6.45-1.44-8.18,1.13
		c-0.13,0.19-0.15,0.17-0.25,0.38l-0.99,1.98l-0.4-0.74c-0.6-1.11-1.58-2.02-2.84-2.65c-1.48-0.74-3.32-1-5.06-0.71
		c-1.54,0.26-2.79,0.94-3.22,1.8C54.22,100.53,54.41,101.94,55.1,103.34z M92.95,109.3c0.02-0.08,0.05-0.15,0.07-0.23
		C93,109.15,92.97,109.22,92.95,109.3z M92.85,109.83c0-0.04,0.01-0.07,0.02-0.1C92.86,109.76,92.85,109.79,92.85,109.83z
		 M84.3,126.98c-0.01-0.08,0-0.16,0-0.23C84.3,126.82,84.29,126.9,84.3,126.98z M84.41,125.91c0.06-0.17,0.14-0.34,0.23-0.5
		C84.55,125.57,84.47,125.74,84.41,125.91c-0.06,0.17-0.09,0.35-0.11,0.53C84.32,126.26,84.35,126.08,84.41,125.91z M84.35,127.41
		c0.01,0.03,0.01,0.07,0.02,0.1C84.36,127.48,84.36,127.45,84.35,127.41z M85.24,124.66c0.03-0.03,0.05-0.05,0.08-0.08
		C85.29,124.61,85.26,124.64,85.24,124.66z M84.8,125.17c0.05-0.07,0.09-0.13,0.14-0.2C84.89,125.04,84.85,125.1,84.8,125.17z
		 M50.99,135.4c1.39,0.23,2.73,0.07,3.86-0.47l0.76-0.36l-0.37,2.19c-0.04,0.23-0.01,0.22-0.02,0.45c-0.11,3.09,2.52,5.78,5.95,5.72
		l20.88,0.5c1.59-2.38,5.35-4.57,5.73-6.99c0.39-2.46-2.47-5.69-3.28-8.4c0,0,0,0,0,0l-20.03-5.98c-3.25-1.12-6.58,0.63-7.43,3.6
		c-0.06,0.22-0.09,0.2-0.12,0.43l-0.33,2.19l-0.61-0.58c-0.91-0.87-2.13-1.43-3.53-1.64c-1.64-0.25-3.47,0.07-5.03,0.88
		c-1.39,0.72-2.36,1.75-2.51,2.71c-0.15,0.95,0.45,2.24,1.55,3.35C47.71,134.26,49.35,135.13,50.99,135.4z M81.78,143.87
		c-0.02,0.04-0.04,0.07-0.05,0.11C81.75,143.94,81.76,143.9,81.78,143.87z M81.73,146.86c0.02,0.04,0.04,0.07,0.05,0.11
		C81.76,146.93,81.75,146.89,81.73,146.86z M81.48,146.24c0.02,0.08,0.05,0.16,0.08,0.24C81.53,146.4,81.5,146.32,81.48,146.24z
		 M81.34,145.42c0-0.18,0.02-0.37,0.06-0.55C81.36,145.05,81.34,145.23,81.34,145.42c0,0.18,0.02,0.37,0.06,0.55
		C81.36,145.78,81.34,145.6,81.34,145.42z M81.56,144.35c-0.03,0.08-0.05,0.16-0.08,0.24C81.5,144.51,81.53,144.43,81.56,144.35z
		 M55.99,163.13l0.61-0.58l0.33,2.19c0.03,0.23,0.06,0.21,0.12,0.43c0.85,2.98,4.18,4.72,7.43,3.6l20.03-5.98l0,0
		c0.81-2.71,3.66-5.94,3.28-8.4c-0.38-2.41-4.14-4.6-5.73-6.99l-20.88,0.5c-3.44-0.06-6.06,2.63-5.95,5.72
		c0.01,0.23-0.02,0.22,0.02,0.45l0.37,2.19l-0.76-0.36c-1.13-0.54-2.47-0.71-3.86-0.47c-1.63,0.27-3.28,1.14-4.51,2.4
		c-1.1,1.11-1.71,2.4-1.55,3.35c0.15,0.95,1.12,1.99,2.51,2.71c1.56,0.81,3.4,1.13,5.03,0.88
		C53.86,164.56,55.08,163.99,55.99,163.13z M84.3,164.09c0-0.08,0-0.15,0-0.23C84.29,163.94,84.3,164.01,84.3,164.09z M84.37,163.32
		c-0.01,0.03-0.01,0.07-0.02,0.1C84.36,163.39,84.36,163.36,84.37,163.32z M84.3,164.39c0.02,0.18,0.05,0.36,0.11,0.53
		c0.06,0.17,0.13,0.34,0.23,0.5c-0.09-0.16-0.17-0.32-0.23-0.5C84.35,164.75,84.32,164.57,84.3,164.39z M75.61,192.34l17.2-11.87
		c-0.08-2.84,1.64-6.8,0.51-9.01c-1.12-2.19-5.35-3.11-7.6-4.87c0,0,0,0,0,0l-19.7,6.93c-3.29,1-4.95,4.37-3.89,7.28
		c0.08,0.22,0.05,0.22,0.16,0.42l1.02,1.97l-0.84-0.11c-1.25-0.16-2.57,0.09-3.82,0.74c-1.47,0.76-2.76,2.1-3.55,3.67
		c-0.7,1.4-0.88,2.81-0.44,3.67c0.43,0.86,1.68,1.54,3.22,1.8c1.73,0.29,3.58,0.03,5.06-0.71c1.26-0.63,2.25-1.55,2.84-2.65
		l0.4-0.74l0.99,1.98c0.1,0.21,0.12,0.18,0.25,0.38C69.16,193.78,72.87,194.41,75.61,192.34z M84.95,165.86
		c-0.05-0.06-0.1-0.13-0.15-0.2C84.85,165.73,84.89,165.8,84.95,165.86z M85.32,166.25c-0.03-0.03-0.05-0.05-0.08-0.08
		C85.26,166.2,85.29,166.23,85.32,166.25z M93.39,182.52c-0.11-0.15-0.19-0.31-0.27-0.47C93.19,182.21,93.28,182.37,93.39,182.52
		c0.11,0.15,0.23,0.28,0.37,0.4C93.62,182.79,93.49,182.66,93.39,182.52z M92.95,181.53c0.02,0.08,0.05,0.15,0.07,0.23
		C92.99,181.68,92.97,181.61,92.95,181.53z M92.85,181.01c0,0.03,0.01,0.07,0.02,0.1C92.86,181.07,92.85,181.04,92.85,181.01z
		 M106.17,194.71L106.17,194.71c-0.96-2.68-0.54-6.99-2.28-8.73c-1.75-1.75-6.05-1.32-8.73-2.28l0,0l-16.6,12.69
		c-2.82,1.97-3.36,5.69-1.45,8.12c0.14,0.18,0.11,0.19,0.28,0.35l1.58,1.55l-0.83,0.15c-1.24,0.23-2.41,0.88-3.4,1.89
		c-1.16,1.18-1.98,2.85-2.24,4.59c-0.23,1.55,0.03,2.94,0.71,3.62c0.68,0.68,2.08,0.95,3.62,0.71c1.74-0.26,3.41-1.08,4.59-2.24
		c1-0.99,1.66-2.17,1.89-3.4l0.15-0.83l1.55,1.58c0.16,0.17,0.17,0.14,0.35,0.28c2.44,1.91,6.16,1.36,8.12-1.45L106.17,194.71z
		 M94.19,183.24c-0.07-0.04-0.13-0.09-0.2-0.14C94.06,183.14,94.12,183.19,94.19,183.24z M94.66,183.49
		c-0.03-0.02-0.07-0.03-0.1-0.05C94.59,183.46,94.62,183.48,94.66,183.49z M106.62,195.68c0.04,0.07,0.09,0.13,0.14,0.2
		C106.72,195.81,106.67,195.75,106.62,195.68z M106.37,195.21c0.02,0.03,0.03,0.07,0.05,0.1
		C106.4,195.27,106.38,195.24,106.37,195.21z M123.27,204.15c-1.75-2.25-2.68-6.49-4.87-7.6c-2.21-1.13-6.17,0.59-9.01,0.51
		l-11.87,17.2c-2.07,2.74-1.44,6.45,1.13,8.18c0.19,0.13,0.17,0.15,0.38,0.25l1.98,0.99l-0.74,0.4c-1.11,0.6-2.02,1.58-2.65,2.84
		c-0.74,1.48-1,3.32-0.71,5.06c0.26,1.54,0.94,2.79,1.8,3.22c0.86,0.44,2.27,0.26,3.67-0.44c1.57-0.79,2.91-2.08,3.67-3.55
		c0.65-1.25,0.91-2.57,0.74-3.82l-0.11-0.84l1.97,1.02c0.21,0.11,0.2,0.08,0.42,0.16c2.91,1.06,6.28-0.61,7.28-3.89L123.27,204.15z
		 M141.95,228.69l0.5-20.88c-2.38-1.59-4.57-5.35-6.99-5.73c-2.46-0.39-5.69,2.47-8.4,3.28l0,0l-5.98,20.03
		c-1.12,3.25,0.63,6.58,3.6,7.43c0.22,0.06,0.2,0.09,0.43,0.12l2.19,0.33l-0.58,0.61c-0.87,0.91-1.43,2.13-1.64,3.53
		c-0.25,1.64,0.07,3.47,0.88,5.03c0.72,1.39,1.75,2.36,2.71,2.51c0.95,0.15,2.24-0.45,3.35-1.55c1.25-1.23,2.13-2.88,2.4-4.51
		c0.23-1.39,0.07-2.73-0.47-3.86l-0.36-0.76l2.19,0.37c0.23,0.04,0.22,0.01,0.45,0.02C139.32,234.75,142.01,232.13,141.95,228.69z
		 M144.45,208.53c0.18,0,0.37-0.02,0.55-0.06C144.81,208.5,144.63,208.53,144.45,208.53c-0.18,0-0.37-0.02-0.55-0.06
		C144.08,208.5,144.26,208.53,144.45,208.53z M143.62,208.38c-0.08-0.02-0.16-0.05-0.24-0.08
		C143.46,208.34,143.54,208.36,143.62,208.38z M145.27,208.38c0.08-0.02,0.16-0.05,0.24-0.08
		C145.43,208.34,145.35,208.36,145.27,208.38z M167.8,225.39l-5.98-20.03l0,0c-2.71-0.81-5.94-3.66-8.4-3.28
		c-2.41,0.38-4.6,4.14-6.99,5.73c0,0,0,0,0,0l0.51,20.88c-0.06,3.44,2.63,6.06,5.72,5.95c0.23-0.01,0.22,0.02,0.45-0.02l2.19-0.37
		l-0.36,0.76c-0.54,1.13-0.71,2.47-0.47,3.86c0.27,1.63,1.14,3.28,2.4,4.51c1.11,1.1,2.4,1.71,3.35,1.55
		c0.95-0.15,1.99-1.12,2.71-2.51c0.81-1.56,1.13-3.4,0.88-5.03c-0.21-1.39-0.78-2.61-1.64-3.53l-0.58-0.61l2.19-0.33
		c0.23-0.03,0.21-0.06,0.43-0.12C167.18,231.96,168.92,228.63,167.8,225.39z M191.37,214.26l-11.87-17.2
		c-2.84,0.08-6.8-1.64-9.01-0.51c-2.19,1.12-3.11,5.35-4.87,7.6l6.93,19.7c1,3.29,4.37,4.95,7.28,3.89
		c0.22-0.08,0.22-0.05,0.42-0.16l1.97-1.02l-0.11,0.84c-0.16,1.25,0.09,2.57,0.74,3.82c0.76,1.47,2.1,2.76,3.67,3.55
		c1.4,0.7,2.81,0.88,3.67,0.44c0.86-0.43,1.54-1.68,1.8-3.22c0.29-1.73,0.03-3.58-0.71-5.06c-0.63-1.26-1.55-2.25-2.65-2.84
		l-0.74-0.4l1.98-0.99c0.21-0.1,0.18-0.12,0.38-0.25C192.81,220.7,193.44,217,191.37,214.26z M216.41,213.05
		c-0.26-1.74-1.08-3.41-2.24-4.59c-0.99-1-2.17-1.66-3.4-1.89l-0.83-0.15l1.58-1.55c0.17-0.16,0.14-0.17,0.28-0.35
		c1.91-2.44,1.36-6.16-1.45-8.12l-16.6-12.69l0,0c-2.68,0.96-6.99,0.54-8.73,2.28c-1.75,1.75-1.32,6.05-2.28,8.73l12.69,16.6
		c1.97,2.82,5.69,3.36,8.12,1.45c0.18-0.14,0.19-0.11,0.35-0.28l1.55-1.58l0.15,0.83c0.23,1.24,0.88,2.41,1.89,3.4
		c1.18,1.16,2.85,1.98,4.59,2.24c1.55,0.23,2.94-0.03,3.62-0.71C216.38,215.99,216.64,214.59,216.41,213.05z M194.7,183.24
		c0.07-0.04,0.13-0.09,0.2-0.14C194.84,183.15,194.77,183.19,194.7,183.24z M194.23,183.49c0.03-0.02,0.07-0.03,0.1-0.05
		C194.3,183.46,194.27,183.48,194.23,183.49z M195.5,182.52c0.11-0.15,0.19-0.31,0.27-0.47C195.7,182.21,195.61,182.37,195.5,182.52
		c-0.11,0.15-0.23,0.28-0.37,0.4C195.27,182.8,195.4,182.66,195.5,182.52z M233.79,187.5c-0.79-1.57-2.08-2.91-3.55-3.67
		c-1.25-0.65-2.57-0.91-3.82-0.74l-0.84,0.11l1.02-1.97c0.11-0.21,0.08-0.2,0.16-0.42c1.06-2.91-0.61-6.28-3.89-7.28l-19.7-6.93
		c-2.25,1.75-6.49,2.68-7.6,4.87c-1.13,2.21,0.59,6.17,0.51,9.01l17.2,11.87c2.74,2.07,6.45,1.44,8.18-1.13
		c0.13-0.19,0.15-0.17,0.25-0.38l0.99-1.98l0.4,0.74c0.6,1.11,1.58,2.02,2.84,2.65c1.48,0.74,3.32,1,5.06,0.71
		c1.54-0.26,2.79-0.94,3.22-1.8C234.67,190.31,234.49,188.9,233.79,187.5z M195.94,181.53c-0.02,0.08-0.05,0.15-0.07,0.23
		C195.9,181.68,195.92,181.61,195.94,181.53z M196.04,181.01c0,0.04-0.01,0.07-0.02,0.1C196.03,181.07,196.04,181.04,196.04,181.01z
		 M204.59,163.86c0.01,0.08,0,0.16,0,0.23C204.59,164.01,204.6,163.94,204.59,163.86z M204.48,164.92c-0.06,0.17-0.14,0.34-0.23,0.5
		C204.35,165.26,204.42,165.1,204.48,164.92c0.06-0.17,0.09-0.35,0.11-0.53C204.57,164.57,204.54,164.75,204.48,164.92z
		 M204.54,163.42c-0.01-0.03-0.01-0.07-0.02-0.1C204.53,163.36,204.53,163.39,204.54,163.42z M203.66,166.17
		c-0.03,0.03-0.05,0.05-0.08,0.08C203.6,166.23,203.63,166.2,203.66,166.17z M204.09,165.67c-0.05,0.07-0.09,0.13-0.14,0.2
		C204,165.8,204.04,165.73,204.09,165.67z M237.9,155.43c-1.39-0.23-2.73-0.07-3.86,0.47l-0.76,0.36l0.37-2.19
		c0.04-0.23,0.01-0.22,0.02-0.45c0.11-3.09-2.52-5.78-5.95-5.72l-20.88-0.5c-1.59,2.38-5.35,4.57-5.73,6.99
		c-0.39,2.46,2.47,5.69,3.28,8.4l0,0l20.03,5.98c3.25,1.12,6.58-0.63,7.43-3.6c0.06-0.22,0.09-0.2,0.12-0.43l0.33-2.19l0.61,0.58
		c0.91,0.87,2.13,1.43,3.53,1.64c1.64,0.25,3.47-0.07,5.03-0.88c1.39-0.72,2.36-1.75,2.51-2.71c0.15-0.95-0.45-2.24-1.55-3.35
		C241.18,156.58,239.54,155.71,237.9,155.43z M153.12,157.04c2.32-2.69,3.6-6.47,3.6-10.66c0-4.27-1.45-8.74-3.98-12.28
		c-2.43-3.4-5.53-5.42-8.3-5.42c-2.61,0-5.74,2.08-8.18,5.44c-2.61,3.59-4.1,8.06-4.1,12.27c0,4.18,1.28,7.97,3.6,10.66
		c2.25,2.61,5.33,4.05,8.68,4.05C147.79,161.09,150.87,159.65,153.12,157.04z"/>
	<path class="st0" d="M144.44,261.02c-63.97,0-116.02-51.86-116.02-115.6c0-63.74,52.05-115.6,116.02-115.6
		c63.97,0,116.02,51.86,116.02,115.6C260.46,209.16,208.42,261.02,144.44,261.02z M144.44,31.26
		c-63.17,0-114.57,51.21-114.57,114.15c0,62.94,51.4,114.15,114.57,114.15c63.18,0,114.57-51.21,114.57-114.15
		C259.02,82.47,207.62,31.26,144.44,31.26z M144.44,258c-62.3,0-112.99-50.5-112.99-112.58c0-62.08,50.69-112.58,112.99-112.58
		c62.3,0,112.99,50.5,112.99,112.58C257.43,207.49,206.75,258,144.44,258z M144.44,35.01c-61.1,0-110.82,49.53-110.82,110.41
		s49.71,110.41,110.82,110.41c61.11,0,110.82-49.53,110.82-110.41S205.55,35.01,144.44,35.01z"/>
	<g>
		<path class="st0" d="M20.37,161.78c0.08,0.9-0.23,1.76-0.88,2.42c-0.66,0.68-1.64,1.11-2.75,1.21c-1.12,0.1-2.35-0.2-3.36-0.82
			c-0.95-0.58-1.57-1.37-1.64-2.07c-0.07-0.75,0.41-1.62,1.25-2.35c0.88-0.76,2.04-1.25,3.18-1.35c1.11-0.09,2.15,0.16,2.92,0.72
			C19.84,160.08,20.3,160.88,20.37,161.78z"/>
		<path class="st0" d="M270.61,157.59c0.77-0.56,1.81-0.82,2.92-0.73c1.13,0.1,2.3,0.59,3.18,1.35c0.85,0.73,1.32,1.6,1.25,2.35
			c-0.06,0.7-0.69,1.49-1.64,2.07c-1.02,0.62-2.24,0.92-3.36,0.82c-1.11-0.09-2.09-0.53-2.75-1.21c-0.64-0.67-0.96-1.53-0.88-2.42
			C269.41,158.92,269.86,158.13,270.61,157.59z"/>
		<path class="st0" d="M8.64,145.32l0.13-8.03l0.91,0.02l-0.12,7.05l6.64,0.11l0.1-6.09l0.91,0.02l-0.1,6.09l7.46,0.12l-0.02,0.98
			L8.64,145.32z"/>
		<path class="st0" d="M20.97,122.19l-1,6.68l5.14,2.84l-0.16,1.03l-14.85-8.25l0.16-1.03l16.62-3.53l-0.16,1.03L20.97,122.19z
			 M11.3,124.17c0,0,1.16,0.52,1.8,0.87l6.02,3.36l0.9-6l-6.74,1.43c-0.71,0.15-1.98,0.3-1.98,0.3L11.3,124.17z"/>
		<path class="st0" d="M15.12,101.98c1.15-3.59,3.64-4.8,3.64-4.8l0.51,0.78c0,0-2.29,1.25-3.26,4.28c-1.19,3.72,0.82,7.5,4.74,8.75
			c3.94,1.26,7.96-0.55,9.18-4.36c1.04-3.25-0.41-5.79-0.41-5.79l0.84-0.38c0,0,1.64,2.77,0.46,6.45
			c-1.42,4.42-5.99,6.46-10.38,5.05C16.04,110.57,13.75,106.25,15.12,101.98z"/>
		<path class="st0" d="M23.81,84.04l-2.68,5.29l-0.81-0.41l5.81-11.45l0.81,0.41l-2.68,5.29l13.38,6.79l-0.44,0.87L23.81,84.04z"/>
		<path class="st0" d="M34.51,64.3c2.62-3.57,7.62-4.39,11.3-1.69c3.78,2.77,4.59,7.85,1.97,11.42c-2.62,3.57-7.71,4.33-11.49,1.56
			C32.61,72.88,31.89,67.87,34.51,64.3z M47.03,73.48c2.3-3.14,1.55-7.57-1.82-10.05c-3.28-2.41-7.65-1.72-9.95,1.42
			c-2.3,3.13-1.64,7.51,1.64,9.91C40.28,77.23,44.73,76.61,47.03,73.48z"/>
		<path class="st0" d="M46.54,50.33l3.35-3.24c1.06-1.03,1.71-1.43,2.39-1.65c1.41-0.44,2.98-0.1,4.24,1.21
			c1.58,1.63,1.82,3.78,0.76,5.37l0.03,0.03c0,0,0.24,0.02,0.66,0.16l7.17,2.27l-0.83,0.81l-7.61-2.44l-3.28,3.18l4.9,5.06
			l-0.7,0.68L46.54,50.33z M55.88,52.36c1.5-1.45,1.41-3.45-0.09-5c-0.98-1.01-2.28-1.34-3.47-0.91c-0.47,0.17-0.91,0.44-1.82,1.32
			l-2.61,2.53l4.9,5.06L55.88,52.36z"/>
		<path class="st0" d="M61.28,36.59l3.27-2.26l3.69,5.35l4.86-3.36l-3.69-5.35l3.27-2.26l9.23,13.37l-3.27,2.26l-3.61-5.24
			l-4.86,3.36l3.61,5.24l-3.27,2.26L61.28,36.59z"/>
		<path class="st0" d="M81.68,23.64L85.3,22l4.25,9.35c0.71,1.55,2.1,1.92,3.65,1.21c1.55-0.71,2.19-1.99,1.48-3.55l-4.25-9.35
			l3.62-1.65l4.25,9.35c1.52,3.33,0.15,6.8-3.58,8.49c-3.76,1.71-7.28,0.46-8.79-2.87L81.68,23.64z"/>
		<path class="st0" d="M104.75,14.24l4.2-1.02l3.91,6.11c0.6,0.93,1.43,2.41,1.43,2.41l0.04-0.01c0,0,0.06-1.7,0.16-2.8l0.68-7.23
			l4.2-1.02l5.11,15.48l-3.87,0.94l-2.21-7c-0.38-1.17-0.64-2.65-0.64-2.65l-0.04,0.01c0,0-0.13,1.79-0.24,2.87l-0.55,4.97
			l-3.31,0.8l-2.77-4.17c-0.59-0.91-1.52-2.44-1.52-2.44l-0.04,0.01c0,0,0.44,1.44,0.64,2.65l1.24,7.23l-3.89,0.94L104.75,14.24z"/>
		<path class="st0" d="M139.56,21.55l-5.06,0.29l-0.78,3.46l-4.09,0.23l4.58-16.54l4.18-0.24l6.45,15.91l-4.08,0.24L139.56,21.55z
			 M136.49,12.57c0,0-0.26,1.79-0.5,2.83l-0.75,3.21l3.2-0.18l-1.09-3.1c-0.35-1-0.82-2.75-0.82-2.75L136.49,12.57z"/>
		<path class="st0" d="M152.34,8.71l4,0.44l3.65,8.03c0.52,1.13,1.05,2.9,1.05,2.9l0.05,0.01c0,0,0.01-1.76,0.12-2.78l0.82-7.55
			l3.95,0.43l-1.76,16.15l-3.98-0.43l-3.67-8.01c-0.52-1.13-1.05-2.9-1.05-2.9l-0.05,0c0,0-0.01,1.76-0.12,2.78l-0.82,7.52
			l-3.95-0.43L152.34,8.71z"/>
		<path class="st0" d="M176.12,12.22l3.82,1.12l-2.89,9.86c-0.48,1.64,0.33,2.82,1.97,3.3c1.64,0.48,2.96-0.08,3.44-1.72l2.89-9.86
			l3.82,1.12l-2.89,9.86c-1.03,3.51-4.33,5.25-8.26,4.09c-3.97-1.16-5.82-4.41-4.79-7.92L176.12,12.22z"/>
		<path class="st0" d="M194.55,30.29c0,0,0.94,2.31,2.79,3.19c0.74,0.35,1.68,0.45,2.1-0.44c0.83-1.74-5.81-4.83-3.66-9.35
			c1.29-2.71,4.42-3.41,7.34-2.02c3.16,1.51,3.93,3.91,3.93,3.91l-2.92,2.21c0,0-0.86-2-2.63-2.84c-0.74-0.35-1.72-0.41-2.11,0.41
			c-0.88,1.85,5.89,4.67,3.67,9.31c-1.16,2.44-4.04,3.67-7.34,2.09c-3.45-1.64-4.36-4.65-4.36-4.65L194.55,30.29z"/>
		<path class="st0" d="M208.19,40.36c0,0,0.37,2.37,2.57,3.82c1.65,1.09,3.64,0.93,4.69-0.67c2.49-3.78-4.99-7.22-2.25-11.37
			c1.16-1.76,3.84-2.4,6.25-0.81c2.16,1.43,2.56,3.46,2.56,3.46l-0.92,0.4c0,0-0.39-1.89-2.15-3.05c-1.97-1.3-4.03-0.75-4.88,0.54
			c-2.32,3.51,5.19,6.91,2.26,11.35c-1.27,1.92-3.76,2.48-6.13,0.91c-2.62-1.73-2.97-4.33-2.97-4.33L208.19,40.36z"/>
		<path class="st0" d="M236.26,44.5c2.8,2.53,2.87,5.3,2.87,5.3l-0.93,0.14c0,0-0.19-2.6-2.55-4.73c-2.9-2.63-7.17-2.35-9.93,0.7
			c-2.78,3.07-2.78,7.48,0.18,10.17c2.53,2.29,5.44,2.02,5.44,2.02l0,0.92c0,0-3.2,0.35-6.07-2.24c-3.44-3.11-3.41-8.12-0.31-11.54
			C228.07,41.8,232.94,41.49,236.26,44.5z"/>
		<path class="st0" d="M247.17,56.15l0.64,0.74l-12.1,10.34l-0.64-0.74L247.17,56.15z"/>
		<path class="st0" d="M254.5,65.36l4.87,7.21l-0.75,0.51l-4.33-6.4l-5.41,3.65l3.55,5.25l-0.75,0.51l-3.55-5.25l-5.52,3.73
			l4.57,6.76l-0.75,0.51l-5.11-7.57L254.5,65.36z"/>
		<path class="st0" d="M264.77,81.87l0.38,0.82l-7.49,13.49c-0.44,0.78-1.27,2.02-1.27,2.02l0.02,0.04c0,0,1.04-0.61,1.77-0.95
			l11.32-5.26l0.41,0.89l-14.43,6.71l-0.38-0.82l7.49-13.49c0.44-0.78,1.27-2.02,1.27-2.02l-0.02-0.04c0,0-1.04,0.61-1.77,0.95
			l-11.32,5.26l-0.41-0.89L264.77,81.87z"/>
		<path class="st0" d="M273.82,107.45l-1.6-5.71l0.88-0.25l3.47,12.37l-0.88,0.25l-1.6-5.71l-14.45,4.05l-0.26-0.94L273.82,107.45z"
			/>
		<path class="st0" d="M278.06,122.28l0.15,0.97l-15.71,2.51l-0.15-0.97L278.06,122.28z"/>
		<path class="st0" d="M269.44,142.26l-0.28-6.74l-5.58-1.82l-0.04-1.04l16.14,5.3l0.04,1.04l-15.65,6.6l-0.04-1.04L269.44,142.26z
			 M278.56,138.5c0,0-1.24-0.29-1.93-0.51l-6.55-2.17l0.25,6.06l6.35-2.67c0.67-0.28,1.88-0.67,1.88-0.67L278.56,138.5z"/>
		<path class="st0" d="M27.47,176.65l1.26,3.78l-5.71,6.6c-0.8,0.93-2.17,2.15-2.17,2.15l0.01,0.04c0,0,1.59-0.72,2.54-1.04
			l7.12-2.38l1.25,3.73l-15.25,5.1l-1.25-3.75l5.68-6.62c0.8-0.93,2.17-2.15,2.17-2.15l-0.01-0.04c0,0-1.59,0.72-2.54,1.04
			l-7.1,2.37l-1.25-3.73L27.47,176.65z"/>
		<path class="st0" d="M38.52,202.74c2.34,4.26,0.9,9.1-3.14,11.33c-4.14,2.27-9.08,0.94-11.42-3.32
			c-2.34-4.26-0.82-9.15,3.32-11.42C31.32,197.1,36.18,198.48,38.52,202.74z M27.11,209.01c1.16,2.11,3.9,2.81,6.31,1.49
			c2.31-1.27,3.11-3.92,1.95-6.02c-1.16-2.11-3.82-2.85-6.13-1.58C26.83,204.21,25.95,206.9,27.11,209.01z"/>
		<path class="st0" d="M45.37,219.96l-3.02-3.83l2.65-2.09l8.47,10.76l-2.65,2.08l-3.02-3.83l-9.99,7.85l-2.43-3.09L45.37,219.96z"
			/>
		<path class="st0" d="M57.43,228.99l4.09,3.83c1.2,1.12,1.7,1.74,2.02,2.42c0.85,1.75,0.57,3.74-1.03,5.44
			c-1.17,1.25-3.04,2.06-4.75,1.56l-0.03,0.03c0,0-0.04,0.37-0.22,1.12l-1.56,6.24l-3.2-3l1.62-5.91l-1.34-1.26l-3.71,3.96
			l-2.87-2.69L57.43,228.99z M56.56,238.16c0.92,0.86,1.97,0.89,2.85-0.04c0.83-0.89,0.99-1.72-0.45-3.07l-0.97-0.91L55.32,237
			L56.56,238.16z"/>
		<path class="st0" d="M71.81,241.6l8.28,5.73l-1.92,2.77l-5.05-3.49l-1.66,2.4l4.03,2.79l-1.92,2.77l-4.03-2.79l-1.73,2.5
			l5.31,3.67l-1.92,2.77l-8.54-5.91L71.81,241.6z"/>
		<path class="st0" d="M94.14,254.98l5.31,2.09c4.71,1.86,6.64,5.78,4.78,10.49c-1.86,4.71-5.97,6.32-10.68,4.47l-5.31-2.09
			L94.14,254.98z M94.65,268.84c2.53,1,4.67,0.1,5.8-2.76c1.12-2.84,0.09-4.94-2.38-5.92l-1.51-0.59l-3.42,8.68L94.65,268.84z"/>
		<path class="st0" d="M118.56,275.96l-4.9-1.06l-1.66,3.09l-3.96-0.86l8.76-14.55l4.04,0.88l1.93,16.87l-3.96-0.86L118.56,275.96z
			 M118.02,266.59c0,0-0.72,1.64-1.22,2.57l-1.57,2.86l3.1,0.67l-0.21-3.25c-0.07-1.05-0.05-2.84-0.05-2.84L118.02,266.59z"/>
		<path class="st0" d="M132.51,265.42l4.27,0.17l2.07,6.88c0.32,1.05,0.7,2.68,0.7,2.68l0.05,0c0,0,0.51-1.6,0.91-2.62l2.6-6.69
			l4.27,0.17l0.67,16.11l-3.93-0.16l-0.21-7.25c-0.04-1.22,0.11-2.7,0.11-2.7l-0.04,0c0,0-0.61,1.66-1.01,2.66l-1.87,4.58
			l-3.37-0.13l-1.5-4.72c-0.32-1.02-0.79-2.73-0.79-2.73l-0.05,0c0,0,0.03,1.49-0.11,2.7l-0.78,7.21l-3.95-0.16L132.51,265.42z"/>
		<path class="st0" d="M155.74,265.41l9.99-1.28l0.43,3.35l-6.09,0.78l0.37,2.9l4.86-0.62l0.43,3.35l-4.86,0.62l0.38,3.01l6.4-0.82
			l0.43,3.35l-10.31,1.32L155.74,265.41z"/>
		<path class="st0" d="M181.27,260.38l6.28-2.27c2.94-1.06,5.71,0.38,6.8,3.42c1.1,3.05-0.1,5.96-3.03,7.02l-2.58,0.93l1.69,4.67
			l-3.7,1.33L181.27,260.38z M189.41,265.67c1.29-0.46,1.61-1.56,1.18-2.77c-0.44-1.2-1.37-1.8-2.59-1.36l-1.88,0.68l1.48,4.1
			L189.41,265.67z"/>
		<path class="st0" d="M198.03,253.75l4.91-2.69c1.44-0.79,2.19-1.07,2.93-1.16c1.93-0.26,3.73,0.63,4.85,2.68
			c0.82,1.5,1.01,3.53-0.01,5l0.02,0.04c0,0,0.34,0.15,1,0.56l5.44,3.44l-3.85,2.1l-5.11-3.39l-1.62,0.88l2.6,4.76l-3.45,1.89
			L198.03,253.75z M206.48,257.43c1.11-0.6,1.46-1.59,0.85-2.72c-0.58-1.07-1.32-1.48-3.06-0.53l-1.16,0.64l1.88,3.44L206.48,257.43
			z"/>
		<path class="st0" d="M220.07,239.43c3.81-3.01,8.83-2.39,11.69,1.23c2.93,3.71,2.43,8.8-1.38,11.81
			c-3.81,3.01-8.89,2.32-11.81-1.38C215.71,247.46,216.26,242.44,220.07,239.43z M228.15,249.64c1.89-1.49,2.12-4.31,0.42-6.47
			c-1.63-2.06-4.38-2.42-6.26-0.93c-1.89,1.49-2.18,4.24-0.55,6.31C223.46,250.71,226.26,251.13,228.15,249.64z"/>
		<path class="st0" d="M237.72,237.59l2.66-2.9l0.63,0.58c0.45,0.41,0.85,0.63,1.21,0.68c0.5,0.09,0.92-0.13,1.22-0.47
			c0.56-0.61,0.56-1.41-0.3-2.2l-5.65-5.19l-2.92,3.18l-2.49-2.28l5.58-6.08l8.2,7.53c2.6,2.39,2.02,5.52,0.19,7.5
			c-1.83,1.99-4.91,2.79-7.48,0.43L237.72,237.59z"/>
		<path class="st0" d="M242.26,217.15l5.72-8.3l2.78,1.92l-3.48,5.05l2.41,1.66l2.78-4.04l2.78,1.92l-2.78,4.04l2.5,1.72l3.66-5.32
			l2.78,1.92l-5.9,8.56L242.26,217.15z"/>
		<path class="st0" d="M254.49,196.17c1.73-3.58,4.67-4.43,4.67-4.43l1.88,2.93c0,0-2.26,0.9-3.23,2.91
			c-1.34,2.77,0.07,5.08,2.15,6.09c2.15,1.04,5.04,0.69,6.33-1.98c1.06-2.19,0.08-4.71,0.08-4.71l3.47-0.57c0,0,1.44,3.22-0.39,7
			c-2.19,4.53-6.89,6.03-11.18,3.95C254.05,205.33,252.38,200.53,254.49,196.17z"/>
		<path class="st0" d="M263.73,182.67l-1.41,4.67l-3.23-0.98l3.97-13.1l3.23,0.98l-1.41,4.67l12.16,3.68l-1.14,3.76L263.73,182.67z"
			/>
	</g>
</g>
<g>
</g>
<g>
</g>
<g>
</g>
<g>
</g>
<g>
</g>
<g>
</g>
<g>
</g>
<g>
</g>
<g>
</g>
<g>
</g>
<g>
</g>
<g>
</g>
<g>
</g>
<g>
</g>
<g>
</g>
</svg>
