<?xml version="1.0" encoding="utf-8"?>
<!-- Generator: Adobe Illustrator 26.0.1, SVG Export Plug-In . SVG Version: 6.00 Build 0)  -->
<svg version="1.1" id="Camada_1" xmlns="http://www.w3.org/2000/svg" xmlns:xlink="http://www.w3.org/1999/xlink" x="0px" y="0px"
	 viewBox="0 0 80.8 16.3" style="enable-background:new 0 0 80.8 16.3;" xml:space="preserve">
<style type="text/css">
	.st0{fill:#B5BDC3;}
	.st1{fill:#4F7CA5;}
</style>
<g>
	<path class="st0" d="M35.2,1.9c2.8,0,4.6,1.9,4.6,1.9l1.1-1.6c0,0-1.9-2.2-5.7-2.2c-2.5,0-4.8,1-6.3,2.8c0.5,0.6,0.9,1.2,1.2,1.8
		C31.2,2.9,33,1.9,35.2,1.9L35.2,1.9z"/>
	<path class="st0" d="M35.2,14.4c-2.2,0-4-1-5.1-2.7c-0.3,0.7-0.7,1.3-1.2,1.8c1.5,1.7,3.7,2.8,6.3,2.8c3.8,0,5.7-2.2,5.7-2.2
		l-1.1-1.6C39.7,12.5,38,14.4,35.2,14.4L35.2,14.4z"/>
	<path class="st1" d="M27.7,11.8c0.7-1,1.2-2.3,1.2-3.7c0-1.4-0.4-2.6-1.2-3.7c-0.5,1.1-0.8,2.3-0.8,3.7
		C26.9,9.5,27.1,10.8,27.7,11.8L27.7,11.8z"/>
	<path class="st1" d="M6.7,0C3.2,0,1.1,1.8,1.1,1.8l1,1.6c0,0,1.8-1.5,4.4-1.5c2.2,0,3.9,1,3.9,4v0.4H9.5C6.8,6.3,0,6.4,0,11.7
		c0,3.1,2.7,4.6,5.3,4.6c3.9,0,5.2-3.4,5.2-3.4h0.1c0,0-0.1,0.5-0.1,1.3V16h2V6C12.5,2.1,10.4,0,6.7,0z M10.4,8.7
		c0,2.7-1.8,5.8-4.8,5.8c-2.3,0-3.5-1.5-3.5-2.9c0-3.4,4.9-3.5,7.3-3.5h0.9V8.7z"/>
	<path class="st1" d="M55.5,7.2C55.5,3.3,53.3,0,49,0c-4.2,0-7.7,3.1-7.7,8.2c0,4.8,3.5,8.1,8.1,8.1c3.5,0,5.8-2.2,5.8-2.2l-1-1.6
		c0,0-1.9,1.9-4.7,1.9c-3.2,0-5.9-2.2-6-6.2h11.9C55.4,8.3,55.5,7.6,55.5,7.2z M43.6,6.5c0.5-3.1,2.8-4.8,5.4-4.8
		c2.3,0,4.3,1.5,4.4,4.8H43.6z"/>
	<path class="st1" d="M58.3,12.5c0,0,1.7,1.9,4.6,1.9c1.7,0,3.1-0.8,3.1-2.5c0-3.4-8.4-2.6-8.4-7.7C57.6,1.5,60.2,0,63,0
		c3.3,0,4.8,1.7,4.8,1.7l-1,1.6c0,0-1.3-1.4-3.9-1.4c-1.6,0-3.1,0.7-3.1,2.4c0,3.4,8.4,2.5,8.4,7.7c0,2.5-2.2,4.4-5.3,4.4
		c-3.8,0-5.8-2.3-5.8-2.3L58.3,12.5z"/>
	<path class="st1" d="M70.9,12.5c0,0,1.7,1.9,4.6,1.9c1.7,0,3.1-0.8,3.1-2.5c0-3.4-8.4-2.6-8.4-7.7c0-2.8,2.5-4.3,5.3-4.3
		c3.3,0,4.8,1.7,4.8,1.7l-1,1.6c0,0-1.3-1.4-3.9-1.4c-1.6,0-3.1,0.7-3.1,2.4c0,3.4,8.4,2.5,8.4,7.7c0,2.5-2.2,4.4-5.3,4.4
		c-3.8,0-5.8-2.3-5.8-2.3L70.9,12.5z"/>
	<path class="st0" d="M14.4,8.2C14.4,3.4,18,0,22.5,0c3.8,0,5.7,2.2,5.7,2.2l-1.1,1.6c0,0-1.7-1.9-4.6-1.9c-3.4,0-6.1,2.5-6.1,6.2
		c0,3.7,2.7,6.2,6.1,6.2c2.8,0,4.6-1.9,4.6-1.9l1.1,1.6c0,0-1.9,2.2-5.7,2.2C18,16.3,14.4,13,14.4,8.2L14.4,8.2z"/>
</g>
</svg>
