<?xml version="1.0" encoding="utf-8"?>
<!-- Generator: Adobe Illustrator 26.0.1, SVG Export Plug-In . SVG Version: 6.00 Build 0)  -->
<svg version="1.1" id="Camada_1" xmlns="http://www.w3.org/2000/svg" xmlns:xlink="http://www.w3.org/1999/xlink" x="0px" y="0px"
	 viewBox="0 0 108.3 22.1" style="enable-background:new 0 0 108.3 22.1;" xml:space="preserve">
<style type="text/css">
	.st0{fill:#4F7CA5;}
	.st1{fill:#B5BDC3;}
</style>
<g>
	<path class="st0" d="M108.3,13c0-3.9-2.2-7.2-6.5-7.2c-4.2,0-7.7,3.1-7.7,8.2c0,4.8,3.5,8.1,8.1,8.1c3.5,0,5.8-2.2,5.8-2.2l-1-1.6
		c0,0-1.9,1.9-4.7,1.9c-3.2,0-5.9-2.2-6-6.1h11.9C108.3,14.1,108.3,13.3,108.3,13z M96.4,12.3c0.5-3.1,2.8-4.8,5.3-4.8
		c2.3,0,4.3,1.5,4.4,4.8H96.4z"/>
	<path class="st0" d="M6.7,5.8c-3.5,0-5.5,1.8-5.5,1.8l1,1.6c0,0,1.8-1.5,4.4-1.5c2.2,0,3.9,1,3.9,4v0.4H9.5c-2.7,0-9.5,0.1-9.5,5.4
		c0,3.1,2.7,4.6,5.3,4.6c3.9,0,5.2-3.4,5.2-3.4h0.1c0,0-0.1,0.5-0.1,1.3v1.7h2v-10C12.5,7.9,10.4,5.8,6.7,5.8z M10.4,14.5
		c0,2.7-1.8,5.8-4.8,5.8c-2.3,0-3.5-1.5-3.5-2.9c0-3.4,4.9-3.5,7.3-3.5h0.9V14.5z"/>
	<path class="st0" d="M27,0v7.6C27,8.2,27,8.7,27,8.7H27c0,0-1.3-2.9-5.1-2.9c-4.1,0-7,3.2-7,8.1c0,4.8,2.6,8.2,6.8,8.2
		c4.1,0,5.4-3.1,5.4-3.1h0.1c0,0-0.1,0.4-0.1,1.1v1.6h2V0H27z M22,20.2c-2.9,0-4.9-2.4-4.9-6.3c0-3.9,2.3-6.2,5-6.2
		c3.3,0,4.9,3.1,4.9,6.2C27,18.3,24.6,20.2,22,20.2z"/>
	<path class="st0" d="M54.3,5.8c-3.5,0-5.5,1.8-5.5,1.8l1,1.6c0,0,1.8-1.5,4.4-1.5c2.2,0,3.9,1,3.9,4v0.4h-0.9
		c-2.7,0-9.5,0.1-9.5,5.4c0,3.1,2.7,4.6,5.3,4.6c3.9,0,5.2-3.4,5.2-3.4h0.1c0,0-0.1,0.5-0.1,1.3v1.7h2v-10
		C60.1,7.9,58.1,5.8,54.3,5.8z M58.1,14.5c0,2.7-1.8,5.8-4.8,5.8c-2.3,0-3.5-1.5-3.5-2.9c0-3.4,4.9-3.5,7.3-3.5h0.9V14.5z"/>
	<path class="st0" d="M63.3,6.2h2.1v2.3c0,0.7-0.1,1.2-0.1,1.2h0.1c0.6-1.4,2.5-3.9,6.2-3.9c3.8,0,5.2,2.2,5.2,6v9.9h-2.1v-9.3
		c0-2.4-0.4-4.6-3.4-4.6c-2.7,0-4.9,1.8-5.7,4.4c-0.2,0.6-0.2,1.4-0.2,2.1v7.4h-2.1V6.2z"/>
	<path class="st0" d="M87.3,5.8C91.1,5.8,93,8,93,8l-1.1,1.6c0,0-1.7-1.9-4.5-1.9c-3.4,0-6.1,2.5-6.1,6.2c0,3.6,2.7,6.2,6.1,6.2
		c3.2,0,5-2.2,5-2.2l1,1.6c0,0-2.1,2.4-6.1,2.4c-4.6,0-8.2-3.3-8.2-8.1C79.2,9.2,82.7,5.8,87.3,5.8L87.3,5.8z"/>
	<polygon class="st1" points="39.7,6.2 36.7,6.2 44.5,14 36.7,21.7 39.7,21.7 47.5,14 	"/>
	<polygon class="st1" points="33.7,6.2 30.7,6.2 38.5,14 30.7,21.7 33.7,21.7 41.5,14 	"/>
</g>
</svg>
