<?xml version="1.0" encoding="utf-8"?>
<!-- Generator: Adobe Illustrator 26.0.1, SVG Export Plug-In . SVG Version: 6.00 Build 0)  -->
<svg version="1.1" id="Camada_1" xmlns="http://www.w3.org/2000/svg" xmlns:xlink="http://www.w3.org/1999/xlink" x="0px" y="0px"
	 viewBox="0 0 56.3 28.3" style="enable-background:new 0 0 56.3 28.3;" xml:space="preserve">
<style type="text/css">
	.st0{fill:#F2CF7A;}
	.st1{fill:#B5BDC3;}
	.st2{fill:#86B6CF;}
	.st3{fill:#4F7CA5;}
</style>
<g>
	<path class="st0" d="M38.3,6.3V8c0,0.3,0,0.5,0,0.5h-0.1c0,0-1-2.6-5.1-2.6c-4.2,0-6.7,3.2-6.7,7.8c0,4.7,2.7,8,6.9,8
		c2.4,0,4-1,4.9-2.7h0.1c0,0-0.1,0.5-0.1,1.1v1.4c0,3.5-2.4,4.9-5.4,4.9c-2.3,0-4.2-1.1-4.2-1.1L27.8,27c1.5,0.8,3.3,1.2,5.1,1.2
		c3.8,0,7.4-1.9,7.4-6.8V6.3H38.3z M33.6,19.8c-3.1,0-5.1-2.4-5.1-6.1s1.8-5.9,4.8-5.9c2.8,0,4.9,1.4,4.9,5.9
		C38.2,18.3,36.1,19.8,33.6,19.8z"/>
	<path class="st0" d="M6.7,5.9c-3.5,0-5.5,1.8-5.5,1.8l1,1.6c0,0,1.8-1.5,4.4-1.5c2.2,0,3.9,1,3.9,4v0.4H9.5c-2.7,0-9.5,0.1-9.5,5.4
		c0,3.1,2.7,4.6,5.3,4.6c3.9,0,5.2-3.4,5.2-3.4h0.1c0,0-0.1,0.5-0.1,1.3v1.7h2v-9.9C12.5,8,10.4,5.9,6.7,5.9z M10.4,14.6
		c0,2.7-1.8,5.8-4.8,5.8c-2.3,0-3.5-1.5-3.5-2.9c0-3.4,4.9-3.5,7.3-3.5h0.9V14.6z"/>
	<path class="st0" d="M15.6,0.1h2.1v17.5c0,2,0.9,2.3,1.7,2.3c0.3,0,0.5,0,0.5,0v1.9c0,0-0.4,0.1-0.8,0.1c-1.3,0-3.6-0.4-3.6-3.8
		V0.1z"/>
	<path class="st0" d="M42.8,6.3h2.1v2.3c0,0.7-0.1,1.2-0.1,1.2h0.1c0.6-1.4,2.5-3.9,6.2-3.9c3.8,0,5.2,2.2,5.2,6v9.9h-2.1v-9.3
		c0-2.4-0.4-4.6-3.4-4.6c-2.7,0-4.9,1.8-5.6,4.4c-0.2,0.6-0.2,1.4-0.2,2.1v7.4h-2.1V6.3z"/>
	<path class="st0" d="M24.7,1.4c0,0.8-0.6,1.4-1.4,1.4c-0.8,0-1.4-0.6-1.4-1.4c0-0.8,0.6-1.4,1.4-1.4C24,0,24.7,0.6,24.7,1.4
		L24.7,1.4z"/>
	<path class="st1" d="M24.7,20.7c0,0.8-0.6,1.4-1.4,1.4c-0.8,0-1.4-0.6-1.4-1.4c0-0.8,0.6-1.4,1.4-1.4C24,19.3,24.7,20,24.7,20.7
		L24.7,20.7z"/>
	<path class="st2" d="M24.7,14.3c0,0.8-0.6,1.4-1.4,1.4c-0.8,0-1.4-0.6-1.4-1.4c0-0.8,0.6-1.4,1.4-1.4C24,12.9,24.7,13.5,24.7,14.3
		L24.7,14.3z"/>
	<path class="st3" d="M24.7,7.9c0,0.8-0.6,1.4-1.4,1.4c-0.8,0-1.4-0.6-1.4-1.4c0-0.8,0.6-1.4,1.4-1.4C24,6.4,24.7,7.1,24.7,7.9
		L24.7,7.9z"/>
</g>
</svg>
