<?xml version="1.0" encoding="utf-8"?>
<!-- Generator: Adobe Illustrator 26.0.1, SVG Export Plug-In . SVG Version: 6.00 Build 0)  -->
<svg version="1.1" id="Camada_1" xmlns="http://www.w3.org/2000/svg" xmlns:xlink="http://www.w3.org/1999/xlink" x="0px" y="0px"
	 viewBox="0 0 112.4 22.1" style="enable-background:new 0 0 112.4 22.1;" xml:space="preserve">
<style type="text/css">
	.st0{fill:#4F7CA5;}
	.st1{fill:#B5BDC3;}
</style>
<g>
	<path class="st0" d="M8.2,0c3.8,0,5.7,2.2,5.7,2.2l-1.1,1.6c0,0-1.7-1.9-4.5-1.9c-3.4,0-6.1,2.5-6.1,6.2c0,3.6,2.7,6.2,6.1,6.2
		c3.2,0,5-2.2,5-2.2l1,1.6c0,0-2.1,2.4-6.1,2.4C3.6,16.3,0,13,0,8.2C0,3.4,3.6,0,8.2,0L8.2,0z"/>
	<path class="st0" d="M33.5,0.4h2.1v2.3c0,0.7-0.1,1.2-0.1,1.2h0.1C36.3,1.8,38.8,0,41.2,0c2.9,0,4.4,1.3,4.8,3.9h0.1
		C46.9,1.8,49.2,0,51.8,0C55.6,0,57,2.2,57,6v9.9h-2.1V6.5c0-2.5-0.5-4.6-3.4-4.6c-2.4,0-4.3,2.1-4.9,4.4c-0.2,0.7-0.3,1.4-0.3,2.3
		v7.4h-2.1V6.5c0-2.3-0.3-4.6-3.3-4.6c-2.5,0-4.4,2.2-5.1,4.6c-0.2,0.6-0.2,1.4-0.2,2.1v7.4h-2.1V0.4z"/>
	<path class="st0" d="M66.8,0c-4.1,0-5.4,3.1-5.4,3.1h-0.1c0,0,0.1-0.5,0.1-1.2V0.4h-2v21.7h2.1v-7.4c0-0.8-0.1-1.4-0.1-1.4h0.1
		c0,0,1.4,3,5.1,3c4,0,6.9-3.2,6.9-8.1C73.6,3.3,71,0,66.8,0z M66.4,14.4c-3.2,0-4.9-3.1-4.9-6.2c0-4.4,2.4-6.3,5-6.3
		c2.9,0,4.9,2.4,4.9,6.2C71.4,12.1,69.2,14.4,66.4,14.4z"/>
	<path class="st0" d="M81.7,0c-3.5,0-5.5,1.8-5.5,1.8l1,1.6c0,0,1.8-1.5,4.4-1.5c2.2,0,3.9,1,3.9,4v0.4h-0.9c-2.7,0-9.5,0.1-9.5,5.4
		c0,3.1,2.7,4.6,5.3,4.6c3.9,0,5.2-3.4,5.2-3.4h0.1c0,0-0.1,0.5-0.1,1.3v1.7h2V6C87.5,2.1,85.4,0,81.7,0z M85.4,8.7
		c0,2.7-1.8,5.8-4.8,5.8c-2.3,0-3.5-1.5-3.5-2.9c0-3.4,4.9-3.5,7.3-3.5h0.9V8.7z"/>
	<path class="st0" d="M90.5,12.5c0,0,1.7,1.9,4.6,1.9c1.7,0,3.1-0.8,3.1-2.5c0-3.4-8.4-2.6-8.4-7.6c0-2.8,2.5-4.3,5.3-4.3
		c3.3,0,4.8,1.7,4.8,1.7l-1,1.6c0,0-1.3-1.4-3.9-1.4c-1.6,0-3.1,0.7-3.1,2.4c0,3.4,8.4,2.5,8.4,7.6c0,2.5-2.2,4.4-5.3,4.4
		c-3.8,0-5.7-2.3-5.7-2.3L90.5,12.5z"/>
	<path class="st0" d="M102.5,12.5c0,0,1.7,1.9,4.6,1.9c1.7,0,3.1-0.8,3.1-2.5c0-3.4-8.4-2.6-8.4-7.6c0-2.8,2.5-4.3,5.3-4.3
		c3.3,0,4.8,1.7,4.8,1.7l-1,1.6c0,0-1.3-1.4-3.9-1.4c-1.6,0-3.1,0.7-3.1,2.4c0,3.4,8.4,2.5,8.4,7.6c0,2.5-2.2,4.4-5.3,4.4
		c-3.8,0-5.7-2.3-5.7-2.3L102.5,12.5z"/>
	<path class="st1" d="M23.3,0C18.7,0,15,3.5,15,8.1c0,4.7,3.7,8.2,8.2,8.2s8.2-3.5,8.2-8.2C31.5,3.5,27.8,0,23.3,0z M23.3,14.4
		c-3.3,0-6.1-2.7-6.1-6.3c0-3.5,2.7-6.2,6.1-6.2c0.6,0,1.2,0.1,1.7,0.2l1.4-0.9l0.1,0l0.1,1.6c1.6,1.1,2.7,2.9,2.7,5.1
		C29.3,11.7,26.6,14.4,23.3,14.4z"/>
	<polygon class="st0" points="24.3,8.3 25.8,2.9 25.6,2.8 22.5,7.4 	"/>
</g>
</svg>
