<?xml version="1.0" encoding="utf-8"?>
<!-- Generator: Adobe Illustrator 26.0.1, SVG Export Plug-In . SVG Version: 6.00 Build 0)  -->
<svg version="1.1" id="Camada_1" xmlns="http://www.w3.org/2000/svg" xmlns:xlink="http://www.w3.org/1999/xlink" x="0px" y="0px"
	 viewBox="0 0 105.2 19.1" style="enable-background:new 0 0 105.2 19.1;" xml:space="preserve">
<style type="text/css">
	.st0{fill:#F2CF7A;}
	.st1{fill:#4F7CA5;}
	.st2{fill:#87B5CE;}
</style>
<g>
	<path class="st0" d="M8.1,2.9c3.8,0,5.7,2.2,5.7,2.2l-1.1,1.6c0,0-1.7-1.9-4.5-1.9c-3.4,0-6,2.5-6,6.2c0,3.6,2.7,6.2,6.1,6.2
		c3.1,0,5-2.2,5-2.2l1,1.6c0,0-2.1,2.4-6,2.4C3.5,19.1,0,15.8,0,11C0,6.2,3.6,2.9,8.1,2.9L8.1,2.9z"/>
	<path class="st0" d="M33.8,3.2h2.1v2.3c0,0.7-0.1,1.2-0.1,1.2h0.1c0.6-1.4,2.5-3.9,6.2-3.9c3.8,0,5.2,2.2,5.2,6v9.9h-2.1V9.4
		c0-2.4-0.4-4.6-3.4-4.6c-2.7,0-4.9,1.8-5.6,4.4c-0.2,0.6-0.2,1.4-0.2,2.1v7.4h-2.1V3.2z"/>
	<path class="st0" d="M50.2,3.2h2.1v2.3c0,0.7-0.1,1.2-0.1,1.2h0.1c0.6-1.4,2.5-3.9,6.2-3.9c3.8,0,5.2,2.2,5.2,6v9.9h-2.1V9.4
		c0-2.4-0.4-4.6-3.4-4.6c-2.7,0-4.9,1.8-5.6,4.4c-0.2,0.6-0.2,1.4-0.2,2.1v7.4h-2.1V3.2z"/>
	<path class="st0" d="M80.2,10c0-3.8-2.2-7.2-6.5-7.2C69.5,2.9,66,5.9,66,11c0,4.8,3.5,8.1,8.1,8.1c3.5,0,5.7-2.2,5.7-2.2l-1-1.6
		c0,0-1.9,1.9-4.7,1.9c-3.2,0-5.9-2.2-6-6.1h11.9C80.1,11.1,80.2,10.4,80.2,10z M68.3,9.4c0.5-3.1,2.7-4.7,5.3-4.7
		c2.3,0,4.3,1.5,4.4,4.7H68.3z"/>
	<path class="st0" d="M90.1,2.9c3.8,0,5.7,2.2,5.7,2.2l-1.1,1.6c0,0-1.7-1.9-4.5-1.9c-3.4,0-6,2.5-6,6.2c0,3.6,2.7,6.2,6.1,6.2
		c3.1,0,5-2.2,5-2.2l1,1.6c0,0-2.1,2.4-6,2.4c-4.6,0-8.1-3.3-8.1-8.1C82,6.2,85.6,2.9,90.1,2.9L90.1,2.9z"/>
	<path class="st0" d="M98.9,5.2h-2V3.4h2.1V0h2.1v3.4h3.9v1.8H101v7.7c0,3.6,2.3,4.1,3.5,4.1c0.4,0,0.7-0.1,0.7-0.1v1.9
		c0,0-0.3,0.1-0.9,0.1c-1.8,0-5.4-0.6-5.4-5.8V5.2z"/>
	<path class="st1" d="M23.5,4.8c2,0,3.8,1,4.9,2.5l1.8-1c-1.5-2.1-3.9-3.4-6.7-3.4c-2.8,0-5.2,1.3-6.7,3.4l1.8,1
		C19.7,5.7,21.5,4.8,23.5,4.8L23.5,4.8z"/>
	<path class="st2" d="M29.2,8.9c0.2,0.6,0.3,1.3,0.3,2c0,3.3-2.2,5.8-5.2,6.3v1.9c4.1-0.4,7.3-3.8,7.3-8.2c0-1.1-0.2-2.2-0.6-3.1
		L29.2,8.9z"/>
	<path class="st0" d="M17.5,10.9c0-0.7,0.1-1.4,0.3-2l-1.9-1.1c-0.4,0.9-0.6,2-0.6,3.1c0,4.4,3.2,7.7,7.3,8.2v-1.9
		C19.7,16.7,17.5,14.2,17.5,10.9L17.5,10.9z"/>
</g>
</svg>
