<?xml version="1.0" encoding="utf-8"?>
<!-- Generator: Adobe Illustrator 26.0.1, SVG Export Plug-In . SVG Version: 6.00 Build 0)  -->
<svg version="1.1" id="Camada_1" xmlns="http://www.w3.org/2000/svg" xmlns:xlink="http://www.w3.org/1999/xlink" x="0px" y="0px"
	 viewBox="0 0 69.1 42.9" style="enable-background:new 0 0 69.1 42.9;" xml:space="preserve">
<style type="text/css">
	.st0{fill:#B5BDC3;}
	.st1{fill:#4F7CA5;}
	.st2{fill:#F2CF7A;}
	.st3{fill:#86B6CF;}
	.st4{fill:#507DA6;}
	.st5{fill:#87B5CE;}
</style>
<g>
	<g>
		<path class="st0" d="M13.7,0c3.8,0,5.7,2.2,5.7,2.2l-1.1,1.6c0,0-1.7-1.9-4.6-1.9c-3.4,0-6.1,2.5-6.1,6.3c0,3.7,2.7,6.3,6.2,6.3
			c3.2,0,5-2.2,5-2.2l1,1.6c0,0-2.1,2.5-6.1,2.5c-4.6,0-8.2-3.3-8.2-8.2C5.5,3.4,9.1,0,13.7,0L13.7,0z"/>
		<path class="st0" d="M40.9,0.4H43v2.8c0,0.7-0.1,1.2-0.1,1.2H43c0.7-2.4,2.5-4.2,4.9-4.2c0.4,0,0.8,0.1,0.8,0.1v2.1
			c0,0-0.4-0.1-0.8-0.1c-2.2,0-3.9,1.7-4.5,4c-0.3,1-0.4,2.1-0.4,3V16h-2.1V0.4z"/>
		<path class="st0" d="M63.6,7.2c0-3.9-2.2-7.2-6.5-7.2c-4.2,0-7.7,3.1-7.7,8.2c0,4.8,3.5,8.2,8.2,8.2c3.5,0,5.8-2.2,5.8-2.2l-1-1.6
			c0,0-1.9,1.9-4.8,1.9c-3.2,0-6-2.2-6.1-6.2h12C63.5,8.3,63.6,7.6,63.6,7.2z M51.6,6.6c0.5-3.1,2.8-4.8,5.4-4.8
			c2.3,0,4.3,1.5,4.4,4.8H51.6z"/>
		<path class="st0" d="M29.9,14.5c-3.4,0-6.1-2.7-6.1-6.4c0-3.4,2.6-6,5.8-6.2V0c-4.4,0.1-8,3.6-8,8.1c0,4.7,3.7,8.3,8.3,8.3
			c4.5,0,8.1-3.4,8.3-7.9H36C35.8,12,33.2,14.5,29.9,14.5L29.9,14.5z"/>
		<path class="st1" d="M37.5,7.9h0.7C38,3.6,34.5,0.1,30.2,0v0.7C34.2,0.8,37.3,4,37.5,7.9L37.5,7.9z"/>
		<path class="st2" d="M30.2,3.9v0.7c1.6,0.2,2.9,1.6,3,3.3h0.7C33.7,5.8,32.2,4.1,30.2,3.9L30.2,3.9z"/>
		<path class="st3" d="M30.2,2v0.7c2.8,0.1,5,2.4,5.2,5.3H36C35.9,4.7,33.4,2.1,30.2,2L30.2,2z"/>
	</g>
	<g>
		<polygon class="st0" points="1.4,41.9 0.9,41.4 0,41.4 1.4,42.9 2.9,41.4 1.9,41.4 		"/>
		<path class="st0" d="M0.4,24.1h2.1v2.8c0,0.7-0.1,1.2-0.1,1.2h0.1C3.2,25.8,4.9,24,7.4,24c0.4,0,0.8,0.1,0.8,0.1v2.1
			c0,0-0.4-0.1-0.8-0.1c-2.2,0-3.8,1.7-4.5,4c-0.3,1-0.4,2-0.4,3v6.6H0.4V24.1z"/>
		<path class="st0" d="M31,23.7c-3.5,0-5.6,1.8-5.6,1.8l1,1.6c0,0,1.8-1.5,4.4-1.5c2.2,0,3.9,1,3.9,4v0.4h-0.9
			c-2.7,0-9.5,0.1-9.5,5.4c0,3.1,2.7,4.6,5.3,4.6c3.9,0,5.2-3.4,5.2-3.4h0.1c0,0-0.1,0.5-0.1,1.3v1.7h2v-10
			C36.8,25.8,34.8,23.7,31,23.7z M34.7,32.5c0,2.7-1.8,5.8-4.8,5.8c-2.3,0-3.5-1.5-3.5-2.9c0-3.4,4.9-3.5,7.4-3.5h0.9V32.5z"/>
		<path class="st0" d="M47.1,23.7c3.8,0,5.7,2.2,5.7,2.2l-1.1,1.6c0,0-1.7-1.9-4.6-1.9c-3.4,0-6.1,2.5-6.1,6.3
			c0,3.7,2.7,6.3,6.1,6.3c3.2,0,5-2.2,5-2.2l1,1.6c0,0-2.1,2.4-6.1,2.4c-4.6,0-8.2-3.3-8.2-8.1C38.9,27.1,42.5,23.7,47.1,23.7
			L47.1,23.7z"/>
		<path class="st0" d="M55.6,19.8h2.1v6.5c0,0.7-0.1,1.3-0.1,1.3h0.1c0.6-1.5,2.7-3.9,6.2-3.9c3.8,0,5.2,2.2,5.2,6v9.9H67v-9.4
			c0-2.4-0.4-4.6-3.4-4.6c-2.7,0-5,1.8-5.7,4.4c-0.2,0.6-0.2,1.3-0.2,2.1v7.5h-2.1V19.8z"/>
		<path class="st4" d="M21.9,29.7h0.7c-0.2-3.5-2.8-6-6.5-6v0.7C19.3,24.4,21.6,26.6,21.9,29.7L21.9,29.7z"/>
		<path class="st2" d="M16.1,27.3V28c1.1,0,2,0.7,2.2,1.7H19C18.7,28.3,17.6,27.3,16.1,27.3L16.1,27.3z"/>
		<path class="st5" d="M16.1,25.5v0.7c2.2,0,3.8,1.4,4,3.5h0.7C20.5,27.3,18.6,25.5,16.1,25.5L16.1,25.5z"/>
		<path class="st0" d="M10.7,30.3c0.5-2.9,2.5-4.5,4.9-4.7v-1.8c-4,0.3-7.1,3.3-7.1,8.2c0,4.8,3.5,8.1,8.1,8.1
			c3.5,0,5.8-2.2,5.8-2.2l-1-1.6c0,0-1.9,1.9-4.7,1.9c-3.2,0-5.9-2.2-6-6.2h12c0,0,0.1-0.7,0.1-1.1v-0.7H10.7z"/>
	</g>
</g>
</svg>
