<?xml version="1.0" encoding="utf-8"?>
<!-- Generator: Adobe Illustrator 26.0.1, SVG Export Plug-In . SVG Version: 6.00 Build 0)  -->
<svg version="1.1" id="Camada_1" xmlns="http://www.w3.org/2000/svg" xmlns:xlink="http://www.w3.org/1999/xlink" x="0px" y="0px"
	 viewBox="0 0 76.3 22.3" style="enable-background:new 0 0 76.3 22.3;" xml:space="preserve">
<style type="text/css">
	.st0{fill:#86B6CF;}
</style>
<g>
	<path class="st0" d="M12.1,0.2v7.6c0,0.7,0.1,1.2,0.1,1.2h-0.1c0,0-1.3-2.9-5.1-2.9c-4.1,0-7,3.2-7,8.2c0,4.8,2.6,8.2,6.8,8.2
		c4.1,0,5.4-3.1,5.4-3.1h0.1c0,0-0.1,0.4-0.1,1.1v1.6h2.1V0.2H12.1z M7.1,20.4c-2.9,0-4.9-2.5-4.9-6.3c0-3.9,2.3-6.3,5-6.3
		c3.3,0,4.9,3.1,4.9,6.3C12.1,18.6,9.7,20.4,7.1,20.4z"/>
	<path class="st0" d="M30.7,13.2c0-3.9-2.2-7.2-6.5-7.2c-4.2,0-7.7,3.1-7.7,8.2c0,4.8,3.5,8.2,8.1,8.2c3.5,0,5.8-2.2,5.8-2.2l-1-1.6
		c0,0-1.9,1.9-4.7,1.9c-3.2,0-5.9-2.2-6-6.2h11.9C30.6,14.2,30.7,13.5,30.7,13.2z M18.7,12.5c0.5-3.1,2.8-4.8,5.4-4.8
		c2.3,0,4.3,1.5,4.4,4.8H18.7z"/>
	<path class="st0" d="M33.7,5.8v0.7h-2v1.8h2v13.6h2.1V8.3h3.8V6.5h-3.8V5.8c0-3.5,2.3-3.9,3.5-3.9c0.4,0,0.6,0.1,0.6,0.1V0.1
		c0,0-0.2-0.1-0.8-0.1C37.3,0,33.7,0.7,33.7,5.8L33.7,5.8z"/>
	<path class="st0" d="M54.9,6c-3.7,0-5.7,2.5-6.2,3.9h-0.1c0,0,0.1-0.6,0.1-1.2V6.4h-2.1v15.6h2.1v-7.5c0-0.7,0.1-1.5,0.2-2.1
		c0.7-2.6,3-4.4,5.7-4.4c3,0,3.4,2.2,3.4,4.6v9.4h2.1V12C60.1,8.2,58.7,6,54.9,6L54.9,6z"/>
	<path class="st0" d="M76.3,13.2c0-3.9-2.2-7.2-6.5-7.2c-4.2,0-7.7,3.1-7.7,8.2c0,4.8,3.5,8.2,8.1,8.2c3.5,0,5.8-2.2,5.8-2.2l-1-1.6
		c0,0-1.9,1.9-4.7,1.9c-3.2,0-5.9-2.2-6-6.2h12C76.3,14.2,76.3,13.5,76.3,13.2z M64.4,12.5c0.5-3.1,2.8-4.8,5.4-4.8
		c2.3,0,4.3,1.5,4.4,4.8H64.4z"/>
	<path class="st0" d="M41.6,6L41.6,6l-0.1,16h2.1V6h-0.1C43,6.5,42.2,6.5,41.6,6L41.6,6z"/>
	<path class="st0" d="M43.3,3.2l-0.5-1.8h-0.3l-0.5,1.8C42.3,3.5,42.9,3.5,43.3,3.2L43.3,3.2z"/>
</g>
</svg>
