<?xml version="1.0" encoding="utf-8"?>
<!-- Generator: Adobe Illustrator 26.0.1, SVG Export Plug-In . SVG Version: 6.00 Build 0)  -->
<svg version="1.1" id="Camada_1" xmlns="http://www.w3.org/2000/svg" xmlns:xlink="http://www.w3.org/1999/xlink" x="0px" y="0px"
	 viewBox="0 0 91.8 24.9" style="enable-background:new 0 0 91.8 24.9;" xml:space="preserve">
<style type="text/css">
	.st0{fill:#F2CF7A;}
	.st1{fill:#F3D87C;}
	.st2{fill:#4F7CA5;}
	.st3{fill:#86B6CF;}
</style>
<g>
	<path class="st0" d="M14.1,7.2c0-3.9-2.2-7.2-6.5-7.2C3.5,0,0,3.1,0,8.1c0,4.8,3.5,8.1,8.1,8.1c3.5,0,5.7-2.2,5.7-2.2l-0.9-1.6
		c0,0-1.9,1.9-4.7,1.9c-3.2,0-5.9-2.2-6-6.1h11.9C14.1,8.2,14.1,7.5,14.1,7.2z M2.2,6.5C2.8,3.4,5,1.8,7.6,1.8
		c2.3,0,4.3,1.5,4.4,4.7H2.2z"/>
	<path class="st1" d="M16.4,0.4h2.1v2.3c0,0.7-0.1,1.2-0.1,1.2h0.1C19,2.5,21,0,24.7,0c3.8,0,5.2,2.2,5.2,6v9.3h-2.1V6.6
		c0-2.4-0.4-4.6-3.4-4.6c-2.7,0-4.9,1.8-5.6,4.4c-0.2,0.6-0.2,1.4-0.2,2.1v7.4h-2.1V0.4z"/>
	<path class="st0" d="M73.6,0.4v1.7c0,0.3,0,0.5,0,0.5h-0.1c0,0-1-2.6-5.1-2.6c-4.2,0-6.7,3.2-6.7,7.8c0,4.7,2.7,8,6.9,8
		c2.4,0,4-1,4.9-2.7h0.1c0,0-0.1,0.5-0.1,1.1v1.1h2.1V0.4H73.6z M69,13.9c-3.1,0-5.1-2.4-5.1-6.1c0-3.7,1.8-5.9,4.8-5.9
		c2.8,0,4.9,1.4,4.9,5.9C73.6,12.4,71.4,13.9,69,13.9z"/>
	<path class="st0" d="M43.6,0.4v1.7c0,0.3,0,0.5,0,0.5h-0.1c0,0-1-2.6-5.1-2.6c-4.2,0-6.7,3.2-6.7,7.8c0,4.7,2.7,8,6.9,8
		c2.4,0,4-1,4.9-2.7h0.1c0,0-0.1,0.5-0.1,1.1v1.1h2.1V0.4H43.6z M38.9,13.9c-3.1,0-5.1-2.4-5.1-6.1c0-3.7,1.8-5.9,4.8-5.9
		c2.8,0,4.9,1.4,4.9,5.9C43.5,12.4,41.4,13.9,38.9,13.9z"/>
	<path class="st0" d="M91.8,7.2c0-3.9-2.2-7.2-6.5-7.2c-4.2,0-7.7,3-7.7,8.1c0,4.8,3.5,8.1,8.1,8.1c3.5,0,5.7-2.2,5.7-2.2l-0.9-1.6
		c0,0-1.9,1.9-4.7,1.9c-3.2,0-5.9-2.2-6-6.1h11.9C91.7,8.2,91.8,7.5,91.8,7.2z M79.9,6.5c0.5-3.1,2.8-4.7,5.3-4.7
		c2.3,0,4.3,1.5,4.4,4.7H79.9z"/>
	<path class="st0" d="M54.2,0c-3.5,0-5.5,1.8-5.5,1.8l1,1.6c0,0,1.8-1.5,4.4-1.5c2.2,0,3.9,1,3.9,4v0.4H57c-2.7,0-9.5,0.1-9.5,5.4
		c0,3.1,2.7,4.6,5.3,4.6c3.9,0,5.2-3.4,5.2-3.4H58c0,0-0.1,0.5-0.1,1.3v1.1h2V6C60,2.1,57.9,0,54.2,0z M57.9,8.7
		c0,2.7-1.8,5.8-4.8,5.8c-2.3,0-3.4-1.5-3.4-2.9C49.7,8.1,54.6,8,57,8h0.9V8.7z"/>
	<path class="st0" d="M60.1,16H58c0,4.8,3.8,8.7,8.5,8.9v-2.1C62.9,22.6,60.1,19.6,60.1,16L60.1,16z"/>
	<path class="st0" d="M75.7,16h-2.1c0,3.7-2.9,6.7-6.4,6.8v2.1C71.9,24.7,75.7,20.8,75.7,16L75.7,16z"/>
	<path class="st2" d="M29.8,16h-2.1c0,4.8,3.8,8.7,8.6,8.9v-2.1C32.7,22.6,29.8,19.6,29.8,16L29.8,16z"/>
	<path class="st3" d="M45.6,16h-2.1c0,3.7-2.9,6.6-6.5,6.8v2.1C41.8,24.7,45.6,20.8,45.6,16L45.6,16z"/>
</g>
</svg>
