<?xml version="1.0" encoding="utf-8"?>
<!-- Generator: Adobe Illustrator 26.0.1, SVG Export Plug-In . SVG Version: 6.00 Build 0)  -->
<svg version="1.1" id="Camada_1" xmlns="http://www.w3.org/2000/svg" xmlns:xlink="http://www.w3.org/1999/xlink" x="0px" y="0px"
	 viewBox="0 0 88.6 26.1" style="enable-background:new 0 0 88.6 26.1;" xml:space="preserve">
<style type="text/css">
	.st0{fill:#86B6CF;}
</style>
<g>
	<path class="st0" d="M55.1,4.3v1.4c0,0.7,0.1,1.2,0.1,1.2h-0.1c0,0-1.3-3-5.1-3c-1.4,0-2.7,0.4-3.8,1.1c-1,0.7-1.8,1.7-2.4,2.9
		c-0.5,1.2-0.8,2.6-0.8,4.2c0,4.8,2.6,8.2,6.8,8.2c4.1,0,5.4-3.1,5.4-3.1h0.1c0,0-0.1,0.4-0.1,1.1v1.7h2.1V4.3H55.1z M50,18.4
		c-2.9,0-4.9-2.5-4.9-6.3c0-4,2.3-6.3,5-6.3c3.4,0,5,3.1,5,6.3c0,4.2-2.2,6.1-4.6,6.3C50.4,18.4,50.2,18.4,50,18.4z"/>
	<path class="st0" d="M42.6,8c1.6,0,3.2-0.5,4.6-1.4l-1-1.6c-1.5,1-3.2,1.3-4.9,0.9c-0.9-0.2-1.7-0.5-2.4-1l-1.1,1.5
		c0.9,0.7,2,1.1,3.2,1.4C41.4,8,42,8,42.6,8L42.6,8z"/>
	<path class="st0" d="M49.9,20.3c-0.1,0-0.1,0-0.2,0l-0.1-1.9c2.6,0.1,5.1-0.9,7-2.7c2-1.9,3.1-4.6,3.1-7.4h1.9
		c0,3.3-1.3,6.4-3.7,8.7C55.7,19.1,52.9,20.3,49.9,20.3L49.9,20.3z"/>
	<path class="st0" d="M73,15c0,1.8,1.4,3.4,3.3,3.4l5.3,0l-0.3,1.9l-5,0c-2.9,0-5.4-2.3-5.4-5.3v-4.4c0-2.5-0.4-4.6-3.4-4.6
		c-2.7,0-5,1.8-5.7,4.4c-0.2,0.7-0.2,1.4-0.2,2.1v7.5h-2.1V4.3h2.1v2.3c0,0.7-0.1,1.2-0.1,1.2h0.1c0.6-1.4,2.5-3.9,6.2-3.9
		c3.9,0,5.2,2.2,5.2,6.1V15z"/>
	<path class="st0" d="M86.5,0v5.7c0,0.7,0.1,1.2,0.1,1.2h-0.1c0,0-1.3-3-5.1-3c-4.1,0-7,3.2-7,8.2c0,2.6,0.8,4.8,2.1,6.2
		c1.1,1.2,2.7,2,4.7,2c4.1,0,5.4-3.1,5.4-3.1h0.1c0,0-0.1,0.4-0.1,1.1v1.7h2V0H86.5z M81.5,18.4c-2.9,0-4.9-2.5-4.9-6.3
		c0-4,2.3-6.3,5-6.3c3.4,0,5,3.1,5,6.3C86.6,16.5,84.1,18.4,81.5,18.4z"/>
	<path class="st0" d="M41.2,7.9c-0.5-1.3-1.4-2.3-2.4-3c-1-0.7-2.2-1-3.6-1c-4.1,0-5.4,3.1-5.4,3.1h-0.1c0,0,0.1-0.5,0.1-1.2V5.8
		c0-0.8-0.6-1.5-1.4-1.6c-3.4,0-5.5,2.2-7.6,5.1l-0.3,0.4c-0.3,0.4-0.6,0.8-0.6,0.8h0c0,0-0.3-0.5-0.5-0.9L16,4.3h-2.5l5.2,7.8
		l-0.9,1.5c-2.2,3.6-5.6,4.8-9.4,4.8c-3.2,0-6.1-2.2-6.2-6.2h12c0,0,0.1-0.7,0.1-1.1c0-3.9-2.2-7.2-6.5-7.2C3.5,3.9,0,7,0,12.1
		c0,4.8,3.7,8.2,8.3,8.2c4.7,0,8.6-1.5,11-5.6l0.2-0.3c0.3-0.4,0.6-0.8,0.6-0.8h0.1c0,0,0.1,0.1,0.4,0.5l3.7,5.8h2.5l-5.5-8.1l1-1.4
		c1.8-2.4,3.1-4,5.4-4.3v20h2.1v-7.5c0-0.8-0.1-1.4-0.1-1.4h0.1c0,0,1.4,3,5.1,3c4,0,7-3.2,7-8.2C42,10.5,41.7,9.1,41.2,7.9z
		 M7.7,5.7c2.3,0,4.3,1.5,4.4,4.8H2.3C2.8,7.3,5.1,5.7,7.7,5.7z M34.8,18.4c-3.2,0-5-3.1-5-6.3c0-4.4,2.5-6.3,5.1-6.3
		c2.9,0,4.9,2.5,4.9,6.3C39.8,16.1,37.6,18.4,34.8,18.4z"/>
</g>
</svg>
