<?xml version="1.0" encoding="utf-8"?>
<!-- Generator: Adobe Illustrator 26.0.1, SVG Export Plug-In . SVG Version: 6.00 Build 0)  -->
<svg version="1.1" id="Camada_1" xmlns="http://www.w3.org/2000/svg" xmlns:xlink="http://www.w3.org/1999/xlink" x="0px" y="0px"
	 viewBox="0 0 79.6 22.2" style="enable-background:new 0 0 79.6 22.2;" xml:space="preserve">
<style type="text/css">
	.st0{fill:#4F7CA5;}
	.st1{fill:#F2CF7A;}
	.st2{fill:#86B6CF;}
	.st3{fill:#B5BDC3;}
</style>
<g>
	<path class="st0" d="M21.6,11.9h0.7C22,8.4,19.5,6,15.8,6v0.7C19.1,6.6,21.4,8.8,21.6,11.9L21.6,11.9z"/>
	<path class="st1" d="M15.8,9.5v0.7c1.1,0,2,0.7,2.2,1.7h0.7C18.5,10.5,17.4,9.5,15.8,9.5L15.8,9.5z"/>
	<path class="st2" d="M15.8,7.7v0.7c2.2,0,3.8,1.4,4,3.5h0.7C20.3,9.5,18.4,7.7,15.8,7.7L15.8,7.7z"/>
	<path class="st3" d="M10.4,12.5c0.5-2.9,2.5-4.5,4.8-4.7V6c-3.9,0.3-7.1,3.3-7.1,8.1c0,4.8,3.5,8.1,8.1,8.1c3.5,0,5.7-2.2,5.7-2.2
		l-1-1.6c0,0-1.9,1.9-4.7,1.9c-3.2,0-5.9-2.2-6-6.1h11.9c0,0,0.1-0.7,0.1-1.1v-0.6H10.4z"/>
	<path class="st3" d="M0,6.3h2.1v2.7c0,0.7-0.1,1.2-0.1,1.2h0.1C2.8,8,4.5,6.2,7,6.2c0.4,0,0.8,0.1,0.8,0.1v2.1c0,0-0.4-0.1-0.8-0.1
		c-2.2,0-3.8,1.7-4.5,4c-0.3,1-0.4,2-0.4,3v6.5H0V6.3z"/>
	<path class="st3" d="M25.6,8.3h-1.9V6.5h1.9V5.8c0-5.1,3.6-5.8,5.4-5.8c0.6,0,1,0.1,1,0.1v1.9c0,0-0.3-0.1-0.7-0.1
		c-1.2,0-3.5,0.4-3.5,3.9v0.7h4v1.8h-4v13.6h-2.1V8.3z"/>
	<path class="st3" d="M33.9,0.2H36v17.6c0,2,0.9,2.3,1.7,2.3c0.3,0,0.5,0,0.5,0v1.9c0,0-0.4,0.1-0.8,0.1c-1.3,0-3.6-0.4-3.6-3.8V0.2
		z"/>
	<path class="st3" d="M46.3,6c-4.3,0-6.5,3.3-6.5,7.2c0,0.4,0.1,1.1,0.1,1.1h11.9c-0.1,4-2.8,6.1-6,6.1c-2.8,0-4.7-1.9-4.7-1.9
		l-1,1.6c0,0,2.2,2.2,5.7,2.2c4.6,0,8.1-3.3,8.1-8.1C54,9,50.5,6,46.3,6z M41.9,12.5c0.1-3.2,2.1-4.8,4.4-4.8c2.6,0,4.8,1.6,5.3,4.8
		H41.9z"/>
	<path class="st3" d="M64.1,6c3.8,0,5.7,2.2,5.7,2.2l-1.1,1.6c0,0-1.7-1.9-4.5-1.9c-3.4,0-6.1,2.5-6.1,6.2c0,3.6,2.7,6.2,6.1,6.2
		c3.2,0,5-2.2,5-2.2l1,1.6c0,0-2.1,2.4-6.1,2.4c-4.6,0-8.2-3.3-8.2-8.1C56,9.3,59.5,6,64.1,6L64.1,6z"/>
	<path class="st3" d="M73.3,8.3h-2V6.5h2.1V2h2.1v4.5h3.9v1.8h-3.9V16c0,3.6,2.3,4.1,3.5,4.1c0.4,0,0.7-0.1,0.7-0.1v1.9
		c0,0-0.3,0.1-0.9,0.1c-1.8,0-5.4-0.6-5.4-5.8V8.3z"/>
</g>
</svg>
