<?xml version="1.0" encoding="utf-8"?>
<!-- Generator: Adobe Illustrator 26.0.1, SVG Export Plug-In . SVG Version: 6.00 Build 0)  -->
<svg version="1.1" id="Camada_1" xmlns="http://www.w3.org/2000/svg" xmlns:xlink="http://www.w3.org/1999/xlink" x="0px" y="0px"
	 viewBox="0 0 83.2 22.4" style="enable-background:new 0 0 83.2 22.4;" xml:space="preserve">
<style type="text/css">
	.st0{fill:#B5BDC3;}
	.st1{fill:#507DA6;}
	.st2{fill:#F2CF7A;}
	.st3{fill:#87B5CE;}
</style>
<g>
	<path class="st0" d="M69.4,2.1h2.1v6.5c0,0.7-0.1,1.3-0.1,1.3h0.1C72.1,8.4,74.2,6,77.7,6c3.9,0,5.2,2.2,5.2,6.1V22h-2.1v-3.8
		c0-8-0.4-10.2-3.4-10.2c-2.7,0-5,1.8-5.7,4.4c-0.2,0.6-0.2,1.3-0.2,2.1V22h-2.1V2.1z"/>
	<path class="st0" d="M54.5,13.2C54.5,9.3,52.3,6,48,6c-4.2,0-7.7,3.1-7.7,8.2c0,4.8,3.5,8.2,8.2,8.2c3.5,0,5.8-2.2,5.8-2.2l-1-1.6
		c0,0-1.9,1.9-4.8,1.9c-3.2,0-6-2.2-6.1-6.2h12C54.5,14.3,54.5,13.6,54.5,13.2z M42.5,12.6c0.5-3.1,2.8-4.8,5.4-4.8
		c2.3,0,4.3,1.5,4.4,4.8H42.5z"/>
	<path class="st0" d="M0,6.4h2.1v2.8c0,0.7-0.1,1.2-0.1,1.2h0.1C2.8,8,4.6,6.2,7,6.2c0.4,0,0.8,0.1,0.8,0.1v2.1c0,0-0.4-0.1-0.8-0.1
		c-2.2,0-3.9,1.7-4.5,4c-0.3,1-0.4,2.1-0.4,3V22H0V6.4z"/>
	<path class="st0" d="M25.1,8.3h-2V6.6h2V5.8c0-5.2,3.6-5.8,5.4-5.8c0.6,0,0.8,0.1,0.8,0.1V2c0,0-0.1-0.1-0.6-0.1
		c-1.2,0-3.5,0.4-3.5,3.9v0.7H31v1.8h-3.8V22h-2.1V8.3z"/>
	<path class="st0" d="M57.5,18.6c0,0,1.7,1.9,4.7,1.9c1.7,0,3.1-0.8,3.1-2.5c0-3.4-8.4-2.6-8.4-7.7c0-2.8,2.5-4.3,5.3-4.3
		C65.5,6,67,7.7,67,7.7l-1,1.6c0,0-1.3-1.4-3.9-1.4c-1.6,0-3.1,0.7-3.1,2.4c0,3.4,8.4,2.5,8.4,7.7c0,2.5-2.2,4.4-5.3,4.4
		c-3.8,0-5.8-2.3-5.8-2.3L57.5,18.6z"/>
	<path class="st0" d="M61.3,7c0,0.5,0.4,1,1,1s1-0.4,1-1s-0.4-1-1-1S61.3,6.4,61.3,7L61.3,7z"/>
	<path class="st0" d="M35,6.4h-2V22h2.1v-6.6c0,0,0-5.8,0-6.3L35,6.4L35,6.4z"/>
	<path class="st0" d="M40.4,6.2c-0.5,0-0.7,0-0.8,0c-1.9,0.2-3.4,1.5-3.9,3.6c0.7-1,0,0,0,0C37,8.4,38.3,8,40.4,8.3l0,0l0,0
		c0.6,0,1.1-0.5,1.1-1.1C41.5,6.7,41,6.2,40.4,6.2z"/>
	<path class="st1" d="M21.4,12h0.7c-0.2-3.5-2.8-6-6.5-6v0.7C18.9,6.7,21.2,8.8,21.4,12L21.4,12z"/>
	<path class="st2" d="M15.6,9.6v0.7c1.1,0,2,0.7,2.2,1.7h0.7C18.3,10.6,17.1,9.6,15.6,9.6L15.6,9.6z"/>
	<path class="st3" d="M15.6,7.8v0.7c2.2,0,3.8,1.4,4,3.5h0.7C20.1,9.5,18.2,7.8,15.6,7.8L15.6,7.8z"/>
	<path class="st0" d="M10.2,12.6c0.5-2.9,2.5-4.6,4.9-4.8V6C11.1,6.3,8,9.3,8,14.2c0,4.8,3.5,8.2,8.2,8.2c3.5,0,5.8-2.2,5.8-2.2
		l-1-1.6c0,0-1.9,1.9-4.8,1.9c-3.2,0-6-2.2-6.1-6.2h12c0,0,0.1-0.7,0.1-1.1v-0.7h-12V12.6z"/>
</g>
</svg>
