<?xml version="1.0" encoding="utf-8"?>
<!-- Generator: Adobe Illustrator 26.0.1, SVG Export Plug-In . SVG Version: 6.00 Build 0)  -->
<svg version="1.1" id="Camada_1" xmlns="http://www.w3.org/2000/svg" xmlns:xlink="http://www.w3.org/1999/xlink" x="0px" y="0px"
	 viewBox="0 0 85.6 20.2" style="enable-background:new 0 0 85.6 20.2;" xml:space="preserve">
<style type="text/css">
	.st0{fill:#4F7CA5;}
	.st1{fill:#B5BDC3;}
</style>
<g>
	<path class="st0" d="M0,4.2h2.1V7C2.1,7.7,2,8.2,2,8.2h0.1C2.8,5.9,4.5,4.1,7,4.1c0.4,0,0.8,0.1,0.8,0.1v2.1c0,0-0.4-0.1-0.8-0.1
		c-2.2,0-3.8,1.7-4.5,4c-0.3,1-0.4,2-0.4,3v6.5H0V4.2z"/>
	<path class="st0" d="M22.3,11c0-3.9-2.2-7.2-6.5-7.2c-4.2,0-7.7,3-7.7,8.1c0,4.8,3.5,8.1,8.1,8.1c3.5,0,5.8-2.2,5.8-2.2l-1-1.6
		c0,0-1.9,1.9-4.7,1.9c-3.2,0-5.9-2.2-6-6.1h11.9C22.3,12.1,22.3,11.4,22.3,11z M10.4,10.4c0.5-3.1,2.7-4.8,5.3-4.8
		c2.3,0,4.3,1.5,4.4,4.8H10.4z"/>
	<path class="st0" d="M25.5,16.4c0,0,1.7,1.9,4.6,1.9c1.7,0,3.1-0.8,3.1-2.5c0-3.4-8.4-2.6-8.4-7.6c0-2.8,2.5-4.3,5.3-4.3
		c3.3,0,4.8,1.7,4.8,1.7l-1,1.6c0,0-1.3-1.4-3.9-1.4c-1.6,0-3.1,0.7-3.1,2.4c0,3.4,8.4,2.5,8.4,7.6c0,2.5-2.2,4.4-5.3,4.4
		c-3.8,0-5.7-2.3-5.7-2.3L25.5,16.4z"/>
	<path class="st0" d="M38.3,6.2h-2V4.5h2.1V0h2.1v4.5h3.9v1.8h-3.9V14c0,3.6,2.3,4.1,3.5,4.1c0.4,0,0.7-0.1,0.7-0.1v1.9
		c0,0-0.3,0.1-0.9,0.1c-1.8,0-5.4-0.6-5.4-5.8V6.2z"/>
	<path class="st0" d="M63.7,4.3h2.1V7c0,0.7-0.1,1.2-0.1,1.2h0.1c0.7-2.3,2.5-4.1,4.9-4.1c0.4,0,0.8,0.1,0.8,0.1v2.1
		c0,0-0.4-0.1-0.8-0.1c-2.2,0-3.8,1.7-4.5,4c-0.3,1-0.4,2-0.4,3v6.5h-2.1V4.3z"/>
	<path class="st0" d="M85.6,11.1c0-3.9-2.2-7.2-6.5-7.2c-4.2,0-7.7,3.1-7.7,8.1c0,4.8,3.5,8.1,8.1,8.1c3.5,0,5.8-2.2,5.8-2.2l-1-1.6
		c0,0-1.9,1.9-4.7,1.9c-3.2,0-5.9-2.2-6-6.1h11.9C85.5,12.2,85.6,11.5,85.6,11.1z M73.7,10.4c0.5-3.1,2.8-4.8,5.4-4.8
		c2.3,0,4.3,1.5,4.4,4.8H73.7z"/>
	<path class="st1" d="M53.3,3.9c-0.5,0-1,0.4-1,1c0,0.5,0.4,1,1,1c3.3,0,6.1,2.6,6.1,6.1c0,3.6-2.7,6.3-6.1,6.3
		c-3.3,0-6.1-2.7-6.1-6.3c0-0.6-0.5-1.1-1.1-1.1c-0.6,0-1.1,0.5-1.1,1.1c0,4.7,3.7,8.2,8.2,8.2c4.5,0,8.2-3.5,8.2-8.2
		C61.5,7.4,57.8,3.9,53.3,3.9L53.3,3.9z"/>
	<path class="st1" d="M50.8,6.2c0.4-0.2,0.6-0.6,0.4-1c-0.2-0.4-0.6-0.6-1-0.4c-0.4,0.2-0.6,0.6-0.4,1C49.9,6.1,50.4,6.3,50.8,6.2
		L50.8,6.2z"/>
	<path class="st1" d="M48.8,7.2c0.3-0.2,0.3-0.6,0-0.9c-0.2-0.3-0.6-0.3-0.9,0c-0.3,0.2-0.3,0.6,0,0.9C48.2,7.5,48.6,7.5,48.8,7.2
		L48.8,7.2z"/>
	<path class="st1" d="M46.9,8.7c0.2,0.1,0.3,0,0.4-0.1c0.1-0.2,0-0.3-0.1-0.4c-0.2-0.1-0.3,0-0.4,0.1C46.7,8.4,46.7,8.6,46.9,8.7
		L46.9,8.7z"/>
</g>
</svg>
