<?xml version="1.0" encoding="utf-8"?>
<!-- Generator: Adobe Illustrator 26.0.1, SVG Export Plug-In . SVG Version: 6.00 Build 0)  -->
<svg version="1.1" id="Camada_1" xmlns="http://www.w3.org/2000/svg" xmlns:xlink="http://www.w3.org/1999/xlink" x="0px" y="0px"
	 viewBox="0 0 78.4 23" style="enable-background:new 0 0 78.4 23;" xml:space="preserve">
<g>
	<g>
		<g>
			<defs>
				<path id="SVGID_1_" d="M0.5,4.5c0,5.3,8.7,4.4,8.7,8c0,1.7-1.5,2.6-3.3,2.6c-3,0-4.8-2-4.8-2L0,14.7c0,0,2.1,2.4,6,2.4
					c3.3,0,5.5-1.9,5.5-4.5c0-5.4-8.7-4.4-8.7-8C2.8,2.7,4.4,2,6,2c2.7,0,4.1,1.5,4.1,1.5l1-1.7c0,0-1.6-1.8-5-1.8
					C3.2,0.1,0.5,1.6,0.5,4.5 M12.8,8.6c0,5,3.7,8.5,8.5,8.5c4.1,0,6.3-2.5,6.3-2.5l-1-1.7c0,0-1.9,2.3-5.2,2.3
					c-3.6,0-6.4-2.7-6.4-6.5c0-3.9,2.8-6.5,6.3-6.5c2.9,0,4.7,2,4.7,2l1.1-1.6c0,0-2-2.3-5.9-2.3C16.5,0.1,12.8,3.6,12.8,8.6
					 M49.3,8.6c0-4.6,2.5-6.5,5.3-6.5c3,0,5.1,2.5,5.1,6.5c0,4.1-2.4,6.5-5.2,6.5C51.1,15.1,49.3,11.9,49.3,8.6 M49.3,3.3L49.3,3.3
					c-0.1,0,0-0.5,0-1.3V0.4h-2.1V23h2.2v-7.6c0-0.8-0.1-1.4-0.1-1.4h0.1c0,0,1.4,3.1,5.3,3.1c4.2,0,7.3-3.4,7.3-8.5
					c0-5-2.7-8.5-7.1-8.5C50.6,0.1,49.3,3.3,49.3,3.3 M71.6,1.9c2.4,0,4.5,1.6,4.6,5H66C66.5,3.6,68.9,1.9,71.6,1.9 M63.7,8.6
					c0,5,3.6,8.5,8.5,8.5c3.6,0,6-2.3,6-2.3l-1-1.7c0,0-2,2-4.9,2c-3.4,0-6.2-2.3-6.3-6.4h12.4c0,0,0-0.3,0-0.7V7
					c-0.2-3.8-2.5-6.9-6.8-6.9C67.3,0.1,63.7,3.3,63.7,8.6 M33.8,14.4c-3.1-1.6-4.3-5.4-2.6-8.8c1.7-3.3,5.4-4.4,8.5-2.8
					c3.1,1.6,4.4,5.3,2.7,8.6c-1.2,2.4-3.5,3.7-5.8,3.7C35.7,15.1,34.7,14.8,33.8,14.4 M36.6,0c-3,0-5.9,1.6-7.4,4.6
					C27,9,28.7,14,32.9,16.1c4.2,2.2,9.3,0.6,11.5-3.7c2.2-4.3,0.4-9.2-3.8-11.4C39.4,0.3,38,0,36.6,0C36.6,0,36.6,0,36.6,0"/>
			</defs>
			
				<linearGradient id="SVGID_00000097472750903314207480000018202396017537587899_" gradientUnits="userSpaceOnUse" x1="0" y1="11.4824" x2="78.406" y2="11.4824">
				<stop  offset="0" style="stop-color:#28395F"/>
				<stop  offset="0.1275" style="stop-color:#335D8F"/>
				<stop  offset="0.2805" style="stop-color:#527AA3"/>
				<stop  offset="0.398" style="stop-color:#6589AA"/>
				<stop  offset="0.505" style="stop-color:#7196B1"/>
				<stop  offset="0.6429" style="stop-color:#8EAFB4"/>
				<stop  offset="0.7468" style="stop-color:#ABB0A1"/>
				<stop  offset="0.9796" style="stop-color:#E8B179"/>
				<stop  offset="1" style="stop-color:#E8B179"/>
			</linearGradient>
			<use xlink:href="#SVGID_1_"  style="overflow:visible;fill:url(#SVGID_00000097472750903314207480000018202396017537587899_);"/>
			<clipPath id="SVGID_00000001646057988961017410000005844707048265839014_">
				<use xlink:href="#SVGID_1_"  style="overflow:visible;"/>
			</clipPath>
		</g>
	</g>
</g>
</svg>
