<?xml version="1.0" encoding="utf-8"?>
<!-- Generator: Adobe Illustrator 26.0.1, SVG Export Plug-In . SVG Version: 6.00 Build 0)  -->
<svg version="1.1" id="Camada_1" xmlns="http://www.w3.org/2000/svg" xmlns:xlink="http://www.w3.org/1999/xlink" x="0px" y="0px"
	 viewBox="0 0 44.8 20" style="enable-background:new 0 0 44.8 20;" xml:space="preserve">
<style type="text/css">
	.st0{fill:#86B6CF;}
</style>
<g>
	<path class="st0" d="M2,6.2H0V4.5h2.1V0h2.1v4.5H8v1.8H4.1v7.7c0,3.6,2.3,4.1,3.5,4.1C8,18,8.3,18,8.3,18v1.9c0,0-0.3,0.1-0.9,0.1
		c-1.8,0-5.4-0.6-5.4-5.8V6.2z"/>
	<path class="st0" d="M26.4,0h2.1v15.6c0,2,0.9,2.3,1.7,2.3c0.3,0,0.5,0,0.5,0v1.9c0,0-0.4,0.1-0.8,0.1c-1.3,0-3.6-0.4-3.6-3.8V0z"
		/>
	<polygon class="st0" points="32.6,0 34.7,0 34.7,10.2 37.1,10.2 41.8,4.3 44.3,4.3 38.9,11 38.9,11.1 44.8,19.8 42.3,19.8 37.2,12 
		34.7,12 34.7,19.8 32.6,19.8 	"/>
	<path class="st0" d="M21.9,16.2c7.7-10.5-3.4-16.4-11.1-8.4c-6.2,7.9,1,15.7,8.6,10.6c1.2,1.4,3.2,2,5.4,1.2
		C24.9,19.6,22,17.9,21.9,16.2z M19.3,16.6c-7.8,5.3-11.9-3.3-6.5-8.4c7.3-6.1,13.2,0.2,7.5,7.3c0.1,1.7,1.5,2.7,2.2,3.3
		C20.7,18.1,19.3,16.6,19.3,16.6z"/>
</g>
</svg>
