<?xml version="1.0" encoding="utf-8"?>
<!-- Generator: Adobe Illustrator 24.0.2, SVG Export Plug-In . SVG Version: 6.00 Build 0)  -->
<svg version="1.1" id="Camada_1" xmlns="http://www.w3.org/2000/svg" xmlns:xlink="http://www.w3.org/1999/xlink" x="0px" y="0px"
	 viewBox="0 0 1042.84 1042.84" style="enable-background:new 0 0 1042.84 1042.84;" xml:space="preserve">
<style type="text/css">
	.st0{fill:none;stroke:#FFFFFF;stroke-miterlimit:10;}
	.st1{opacity:0.8667;fill:none;stroke:#FFFFFF;stroke-miterlimit:10;}
	.st2{opacity:0.7333;fill:none;stroke:#FFFFFF;stroke-miterlimit:10;}
	.st3{opacity:0.6;fill:none;stroke:#FFFFFF;stroke-miterlimit:10;}
	.st4{opacity:0.4667;fill:none;stroke:#FFFFFF;stroke-miterlimit:10;}
	.st5{opacity:0.3333;fill:none;stroke:#FFFFFF;stroke-miterlimit:10;}
	.st6{opacity:0.2;fill:none;stroke:#FFFFFF;stroke-miterlimit:10;}
</style>
<g>
	<path class="st0" d="M588.07,566.36c-14.44,21.38-38.91,35.44-66.65,35.44c-44.39,0-80.38-35.99-80.38-80.38
		s35.99-80.38,80.38-80.38c26.67,0,50.31,12.99,64.93,32.99"/>
	<path class="st1" d="M653.51,600.09c-26.83,44.95-75.94,75.05-132.09,75.05c-84.9,0-153.72-68.82-153.72-153.72
		S436.52,367.7,521.42,367.7c61.86,0,115.19,36.54,139.57,89.22"/>
	<path class="st2" d="M701.91,659.2c-41.49,54.27-106.9,89.28-180.49,89.28c-125.4,0-227.06-101.66-227.06-227.06
		s101.66-227.06,227.06-227.06c82.84,0,155.32,44.36,194.97,110.62"/>
	<path class="st3" d="M753.22,712.5c-55.1,66.76-138.48,109.32-231.8,109.32c-165.91,0-300.4-134.49-300.4-300.4
		s134.49-300.4,300.4-300.4c93.32,0,176.7,42.55,231.8,109.32"/>
	<path class="st4" d="M842.46,712.87c-65.25,109.18-184.61,182.29-321.04,182.29c-206.41,0-373.74-167.33-373.74-373.74
		s167.33-373.74,373.74-373.74c150.52,0,280.26,88.98,339.48,217.21"/>
	<path class="st5" d="M880.58,787.71C799.11,897.41,668.57,968.5,521.42,968.5c-246.92,0-447.08-200.16-447.08-447.08
		S274.5,74.34,521.42,74.34c169.75,0,317.41,94.61,393.12,233.97"/>
	<path class="st6" d="M967.51,789.6c-91.06,151.15-256.77,252.24-446.09,252.24C234,1041.84,1,808.84,1,521.42S234,1,521.42,1
		C683.09,1,827.55,74.72,923,190.38"/>
	<path class="st6" d="M923,190.38c27.84,33.73,51.51,71.04,70.23,111.12"/>
</g>
<g>
</g>
<g>
</g>
<g>
</g>
<g>
</g>
<g>
</g>
<g>
</g>
<g>
</g>
<g>
</g>
<g>
</g>
<g>
</g>
<g>
</g>
<g>
</g>
<g>
</g>
<g>
</g>
<g>
</g>
</svg>
