<?xml version="1.0" encoding="utf-8"?>
<!-- Generator: Adobe Illustrator 24.0.2, SVG Export Plug-In . SVG Version: 6.00 Build 0)  -->
<svg version="1.1" id="Camada_1" xmlns="http://www.w3.org/2000/svg" xmlns:xlink="http://www.w3.org/1999/xlink" x="0px" y="0px"
	 viewBox="0 0 200 200" style="enable-background:new 0 0 200 200;" xml:space="preserve">
<style type="text/css">
	.st0{fill:#FFFFFF;}
</style>
<path class="st0" d="M104.05,44.4c-6.67,0-14.23,5.33-20.23,14.25C77.67,67.8,74.13,79.23,74.13,90c0,10.78,3.08,20.58,8.66,27.57
	c5.51,6.9,13.06,10.7,21.25,10.7s15.74-3.8,21.25-10.7c5.58-7,8.66-16.79,8.66-27.57c0-10.91-3.43-22.34-9.4-31.37
	C118.67,49.73,111,44.4,104.05,44.4z"/>
<path class="st0" d="M159.62,90.48c-3.8,0-8.1,3.03-11.51,8.11c-3.5,5.21-5.51,11.72-5.51,17.84c0,6.13,1.75,11.71,4.93,15.69
	c3.14,3.93,7.43,6.09,12.09,6.09c4.66,0,8.96-2.16,12.09-6.09c3.18-3.98,4.93-9.56,4.93-15.69c0-6.21-1.95-12.71-5.35-17.85
	C167.94,93.51,163.58,90.48,159.62,90.48z"/>
<path class="st0" d="M50.78,47.27c-2.69,0-5.75,2.15-8.17,5.75c-2.49,3.7-3.91,8.31-3.91,12.66c0,4.35,1.24,8.31,3.5,11.13
	c2.23,2.79,5.27,4.32,8.58,4.32s6.36-1.54,8.58-4.32c2.26-2.83,3.5-6.78,3.5-11.13c0-4.41-1.38-9.02-3.79-12.67
	C56.68,49.42,53.59,47.27,50.78,47.27z"/>
<path class="st0" d="M43.98,94.9c-4.8,0-10.24,3.83-14.55,10.25c-4.43,6.58-6.97,14.81-6.97,22.55c0,7.75,2.21,14.8,6.23,19.83
	c3.96,4.96,9.39,7.7,15.29,7.7s11.32-2.73,15.29-7.7c4.02-5.04,6.23-12.08,6.23-19.83c0-7.85-2.46-16.07-6.76-22.56
	C54.5,98.73,48.98,94.9,43.98,94.9z"/>
<g>
</g>
<g>
</g>
<g>
</g>
<g>
</g>
<g>
</g>
<g>
</g>
<g>
</g>
<g>
</g>
<g>
</g>
<g>
</g>
<g>
</g>
<g>
</g>
<g>
</g>
<g>
</g>
<g>
</g>
</svg>
