<?xml version="1.0" encoding="utf-8"?>
<!-- Generator: Adobe Illustrator 24.0.2, SVG Export Plug-In . SVG Version: 6.00 Build 0)  -->
<svg version="1.1" id="Camada_1" xmlns="http://www.w3.org/2000/svg" xmlns:xlink="http://www.w3.org/1999/xlink" x="0px" y="0px"
	 viewBox="0 0 500 500" style="enable-background:new 0 0 500 500;" xml:space="preserve">
<style type="text/css">
	.st0{opacity:0.2;fill:#FFFFFF;}
	.st1{fill:none;stroke:#FFFFFF;stroke-width:11;stroke-miterlimit:10;}
	.st2{fill:none;stroke:#FFFFFF;stroke-width:2;stroke-miterlimit:10;}
</style>
<g>
	<path class="st0" d="M154.39,283.93c0,0,127.91,58.1,252.65-40.97l-42.98-1.12c0,0-80.37,66.42-173.58,25.67L154.39,283.93z"/>
	<path class="st0" d="M190.49,267.52c0,0,77.58,43.53,173.58-25.67h-56.93c0,0-34.6,36.84-87.63,12.84L190.49,267.52z"/>
	<path class="st0" d="M219.51,254.68c0,0,46.88,22.88,87.63-12.84l-58.05-1.12L219.51,254.68z"/>
	<path class="st0" d="M250.21,163.71c0,0-30.14,18.42-30.7,90.98l29.58-13.95L250.21,163.71z"/>
	<path class="st0" d="M250.21,163.71c0,0,49.67,11.16,56.93,78.14l-58.05-1.12L250.21,163.71z"/>
	<path class="st0" d="M249.09,96.17c0,0,86.51-7.81,114.98,145.67h-56.93c0,0-6.14-66.42-56.93-78.14L249.09,96.17z"/>
	<path class="st0" d="M249.65,25.85l-0.56,70.33c0,0,83.72-11.16,114.98,145.67h45.77C409.83,241.84,385.83,28.64,249.65,25.85z"/>
	<path class="st0" d="M249.65,25.85c0,0-102.14,29.02-94.33,256.74l35.16-15.07c0,0-7.81-131.16,58.6-171.35L249.65,25.85z"/>
	<path class="st1" d="M250,22.33c-36.66,0-78.2,29.27-111.13,78.27c-33.84,50.3-53.24,113.1-53.24,172.27
		c0,59.22,16.92,113.06,47.6,151.47c30.27,37.92,71.73,58.81,116.77,58.81s86.5-20.89,116.77-58.81
		c30.68-38.46,47.6-92.26,47.6-151.47c0-59.93-18.83-122.74-51.62-172.36C330.32,51.6,288.19,22.33,250,22.33z"/>
	<line class="st2" x1="249.54" y1="16.84" x2="249.54" y2="242.1"/>
	<line class="st2" x1="249.54" y1="242.1" x2="414.22" y2="242.1"/>
	<line class="st2" x1="154.99" y1="282.74" x2="249.99" y2="241.74"/>
	<path class="st2" d="M248.99,27.74c-104.33,40.5-93.71,255.22-93.71,255.22s114.71,62.78,252.71-39.22"/>
	<path class="st2" d="M248.99,96.74c-52.3,29.61-60.86,121.93-59,171"/>
	<path class="st2" d="M249.99,96.74c0,0,85.02-8.8,114,145"/>
	<path class="st2" d="M249.99,164.74c-32.64,25.63-31,90-31,90"/>
	<path class="st2" d="M218.99,254.74c0,0,46.31,22.89,89.05-12.64c-12.35-74.21-58.51-77.21-58.51-77.21"/>
	<path class="st2" d="M190.39,267.85c0,0,79.6,42.89,173.6-26.11"/>
	<path class="st0" d="M249.09,96.17c0,0-61.95,26.79-58.6,171.35l29.02-12.84c0,0-5.02-52.47,30.7-90.98L249.09,96.17z"/>
</g>
</svg>
