<?xml version="1.0" encoding="utf-8"?>
<!-- Generator: Adobe Illustrator 24.0.2, SVG Export Plug-In . SVG Version: 6.00 Build 0)  -->
<svg version="1.1" id="Camada_1" xmlns="http://www.w3.org/2000/svg" xmlns:xlink="http://www.w3.org/1999/xlink" x="0px" y="0px"
	 viewBox="0 0 371.9 287.17" style="enable-background:new 0 0 371.9 287.17;" xml:space="preserve">
<style type="text/css">
	.st0{fill:#FFFFFF;}
	.st1{fill:none;}
</style>
<g>
	<path class="st0" d="M357.38,12.01v220.14H14.53V12.01H357.38 M360.88,8.51H11.03v227.14h349.85V8.51L360.88,8.51z"/>
</g>
<g>
	<rect x="30.77" y="149.51" class="st0" width="16.36" height="66.86"/>
	<path class="st0" d="M87.35,149.51H63.6v66.86h23.75c21.04,0,34.5-12.53,34.5-33.57C121.85,161.76,108.39,149.51,87.35,149.51z
		 M86.69,202.34h-6.73v-38.81h6.73c11.03,0,18.23,6.55,18.23,19.26C104.93,195.61,98.01,202.34,86.69,202.34z"/>
	<path class="st0" d="M186.1,118.71c-8.84,0-18.86,6.53-26.8,17.46c-8.16,11.22-12.84,25.23-12.84,38.43
		c0,13.21,4.08,25.22,11.48,33.79c7.3,8.46,17.3,13.12,28.16,13.12c10.86,0,20.86-4.66,28.16-13.12
		c7.4-8.58,11.48-20.58,11.48-33.79c0-13.37-4.54-27.38-12.45-38.45C205.47,125.24,195.31,118.71,186.1,118.71z M186.38,141.63
		c4.35,0.29,9.25,3.56,13.16,8.81c3.73,5,6.13,11.12,6.79,17.26l-9.22,0c-0.39-3.18-1.64-6.34-3.56-8.91
		c-2.11-2.82-4.71-4.56-7.17-4.82V141.63z M179.72,170.37l-4.47,1.83c-0.86-17.97,5.92-26.35,8.04-28.5
		c1.07-1.09,1.87-1.61,2.37-1.85v12.27c-0.5,0.22-1.06,0.63-1.61,1.19c-0.75,0.76-2.15,2.48-3.16,5.47
		C179.93,163.56,179.54,166.79,179.72,170.37z M180.06,171.01c0.05,0.01,0.15,0.03,0.31,0.07c2.34,0.54,4.54,0.81,6.57,0.81
		c4.23,0,7.7-1.17,10.08-3.45l8.87,0c-6.66,6.27-18.71,8.01-29.97,4.28L180.06,171.01z M192.97,159.23
		c1.83,2.45,3.03,5.45,3.41,8.48l-10,0l0-13C188.6,154.98,191.04,156.64,192.97,159.23z M186.22,168.44l9.7,0
		c-3.27,2.67-8.42,3.4-14.68,2.08L186.22,168.44z M180.44,170.06c-0.14-3.37,0.24-6.42,1.13-9.06c0.97-2.86,2.29-4.48,2.99-5.2
		c0.38-0.38,0.75-0.68,1.09-0.89l0,12.96L180.44,170.06z M185.65,141.04c-0.82,0.33-1.85,1.09-2.89,2.14
		c-2.18,2.22-9.18,10.87-8.23,29.31l-5.21,2.15c-1.49-27.94,8.67-43.8,16.32-46.11V141.04z M216.4,174.61
		c0,10.98-3.27,20.81-9.21,27.7c-5.5,6.38-13,9.89-21.1,9.89c-8.1,0-15.59-3.51-21.09-9.89c-5.94-6.88-9.21-16.72-9.21-27.7
		c0-11.27,4.03-23.28,11.06-32.95c5.44-7.48,12.13-12.56,17.57-13.46c-4.12,1.76-8.17,6.67-11.06,13.54
		c-2.67,6.34-5.66,17.28-4.72,33.44l0.03,0.51l0.19-0.08c5.56,2.27,12.06,3.33,18.52,3.33c11.71,0,23.27-3.49,28.75-9.56
		C216.3,171.14,216.4,172.88,216.4,174.61z M169.83,175.22l5.09-2.1l0.07-0.03l-0.03,0.08c4.25,1.5,8.64,2.22,12.84,2.22
		c7.67,0,14.71-2.43,19.15-6.96l9.04,0C208.15,177.89,185.49,181.24,169.83,175.22z M207.07,167.71c-0.66-6.3-3.12-12.58-6.94-17.7
		c-4.06-5.44-9.18-8.82-13.75-9.1v-12.84c6.06,0.16,13.43,5.3,19.31,13.53c5.45,7.62,9.03,16.85,10.24,26.12L207.07,167.71z"/>
	<path class="st0" d="M265.26,161.26c-13.53,0-21.11,10.17-22.95,15.26h-0.22c0,0,0.43-1.95,0.43-4.44v-9.53h-4.55v54.12h4.55
		v-26.41c0-2.6,0.22-5.09,0.87-7.36c2.71-10.07,11.69-17.21,21.86-17.21c12.12,0,13.31,8.88,13.31,18.29v32.69h4.55v-34.31
		C283.12,169.59,279.33,161.26,265.26,161.26z"/>
	<path class="st0" d="M343.09,185.93c0-13.1-7.36-24.68-22.08-24.68c-13.85,0-26.3,10.17-26.3,28.47
		c0,17.21,12.66,28.25,27.93,28.25c11.69,0,19.27-7.47,19.27-7.47l-2.49-3.79c0,0-6.39,6.82-16.78,6.82
		c-12.56,0-23.16-8.98-23.16-24.68h43.41C342.88,188.86,343.09,187.13,343.09,185.93z M299.8,184.64
		c1.95-12.66,11.15-19.16,21.11-19.16c8.98,0,16.89,5.95,17.43,19.16H299.8z"/>
</g>
<g>
	<path class="st0" d="M11.03,248.82h7.45v12.17h11.06v-12.17h7.45v30.42h-7.45v-11.91H18.47v11.91h-7.45V248.82z"/>
	<path class="st0" d="M47.53,248.82h7.44v19.23c0,3.19,2.09,4.89,5.28,4.89c3.19,0,5.28-1.7,5.28-4.89v-19.23h7.45v19.23
		c0,6.85-5.02,11.7-12.68,11.7c-7.74,0-12.76-4.85-12.76-11.7V248.82z"/>
	<path class="st0" d="M84.9,248.82h8.08l4.42,12.85c0.68,1.96,1.53,5.02,1.53,5.02h0.08c0,0,0.85-3.06,1.53-5.02l4.42-12.85h8.08
		l2.47,30.42h-7.44l-0.94-13.7c-0.17-2.3,0-5.11,0-5.11h-0.09c0,0-1.02,3.19-1.7,5.11l-3.19,8.81h-6.38l-3.19-8.81
		c-0.68-1.91-1.7-5.11-1.7-5.11h-0.08c0,0,0.17,2.81,0,5.11l-0.94,13.7h-7.49L84.9,248.82z"/>
	<path class="st0" d="M141.42,272.86h-9.49l-1.83,6.38h-7.66l10.34-30.42h7.83l10.34,30.42h-7.66L141.42,272.86z M136.66,255.76
		c0,0-0.68,3.32-1.23,5.23l-1.74,5.91h6l-1.7-5.91c-0.55-1.91-1.23-5.23-1.23-5.23H136.66z"/>
	<path class="st0" d="M159.02,248.82h7.53l8.42,14.21c1.19,2,2.55,5.19,2.55,5.19h0.09c0,0-0.34-3.27-0.34-5.19v-14.21h7.45v30.42
		h-7.49l-8.47-14.17c-1.19-2-2.55-5.19-2.55-5.19h-0.08c0,0,0.34,3.28,0.34,5.19v14.17h-7.44V248.82z"/>
	<path class="st0" d="M197.13,249.46h15.02v1.7h-13.19v12.42h11.4v1.7h-11.4v13.96h-1.83V249.46z"/>
	<path class="st0" d="M233.38,268.94h-12.64l-3.83,10.3h-1.96l11.15-29.78h1.96l11.15,29.78h-1.96L233.38,268.94z M227.04,251.59
		c0,0-0.64,2.3-1.11,3.57l-4.55,12.08h11.36l-4.51-12.08c-0.47-1.28-1.11-3.57-1.11-3.57H227.04z"/>
	<path class="st0" d="M259.15,248.95c7.06,0,10.64,3.74,10.64,3.74l-1.11,1.36c0,0-3.53-3.36-9.49-3.36
		c-7.32,0-12.89,5.74-12.89,13.44c0,7.74,5.53,13.87,13.02,13.87c6.38,0,10.08-4.04,10.08-4.04l1.15,1.28c0,0-4,4.51-11.23,4.51
		c-8.68,0-14.93-6.98-14.93-15.61C244.39,255.5,250.77,248.95,259.15,248.95z"/>
	<path class="st0" d="M286.04,251.16h-11.11v-1.7h24.04v1.7h-11.1v28.08h-1.83V251.16z"/>
	<path class="st0" d="M317.13,248.95c8.3,0,15.06,6.64,15.06,15.19c0,8.77-6.76,15.61-15.06,15.61c-8.3,0-15.06-6.85-15.06-15.61
		C302.07,255.59,308.83,248.95,317.13,248.95z M317.13,278.01c7.27,0,13.15-6.04,13.15-13.87c0-7.61-5.87-13.44-13.15-13.44
		s-13.15,5.83-13.15,13.44C303.98,271.97,309.85,278.01,317.13,278.01z"/>
	<path class="st0" d="M341.27,249.46h8.72c2.76,0,4.17,0.3,5.36,0.89c2.47,1.23,4.13,3.74,4.13,7.15c0,4.25-2.47,7.45-5.96,8.21
		v0.08c0,0,0.3,0.34,0.68,1.06l6.68,12.38h-2.17l-7.06-13.19h-8.55v13.19h-1.83V249.46z M351.18,264.35c3.91,0,6.38-2.81,6.38-6.85
		c0-2.64-1.32-4.77-3.49-5.74c-0.85-0.38-1.79-0.6-4.17-0.6h-6.81v13.19H351.18z"/>
</g>
<rect x="11.03" y="235.66" class="st1" width="19.75" height="13.17"/>
</svg>
