<?xml version="1.0" encoding="utf-8"?>
<!-- Generator: Adobe Illustrator 24.0.2, SVG Export Plug-In . SVG Version: 6.00 Build 0)  -->
<svg version="1.1" id="Camada_1" xmlns="http://www.w3.org/2000/svg" xmlns:xlink="http://www.w3.org/1999/xlink" x="0px" y="0px"
	 viewBox="0 0 227.6 74.9" style="enable-background:new 0 0 227.6 74.9;" xml:space="preserve">
<style type="text/css">
	.st0{fill:#FFFFFF;}
</style>
<g>
	<g>
		<rect y="22.4" class="st0" width="11.9" height="48.7"/>
		<path class="st0" d="M41.2,22.4H23.9v48.7h17.3c15.3,0,25.1-9.1,25.1-24.5C66.4,31.4,56.6,22.4,41.2,22.4z M40.8,60.9h-4.9V32.7
			h4.9c8,0,13.3,4.8,13.3,14C54,56,49,60.9,40.8,60.9z"/>
		<path class="st0" d="M113.2,0c-6.4,0-13.7,4.8-19.5,12.7c-5.9,8.2-9.4,18.4-9.4,28c0,9.6,3,18.4,8.4,24.6
			c5.3,6.2,12.6,9.6,20.5,9.6s15.2-3.4,20.5-9.6c5.4-6.2,8.4-15,8.4-24.6c0-9.7-3.3-20-9.1-28C127.3,4.8,119.9,0,113.2,0z
			 M113.4,16.7c3.2,0.2,6.7,2.6,9.6,6.4c2.7,3.6,4.5,8.1,4.9,12.6h-6.7c-0.3-2.3-1.2-4.6-2.6-6.5c-1.5-2.1-3.4-3.3-5.2-3.5
			L113.4,16.7L113.4,16.7z M108.5,37.6l-3.2,1.3c-0.6-13.1,4.3-19.2,5.9-20.8c0.8-0.8,1.4-1.2,1.7-1.3v8.9c-0.4,0.2-0.8,0.5-1.2,0.9
			c-0.5,0.6-1.6,1.8-2.3,4C108.7,32.7,108.4,35,108.5,37.6z M108.8,38.1c0,0,0.1,0,0.2,0.1c1.7,0.4,3.3,0.6,4.8,0.6
			c3.1,0,5.6-0.8,7.3-2.5h6.5c-4.9,4.6-13.6,5.8-21.8,3.1L108.8,38.1z M118.2,29.5c1.3,1.8,2.2,4,2.5,6.2h-7.3v-9.5
			C115,26.4,116.8,27.6,118.2,29.5z M113.3,36.2h7.1c-2.4,1.9-6.1,2.5-10.7,1.5L113.3,36.2z M109.1,37.4c-0.1-2.5,0.2-4.7,0.8-6.6
			c0.7-2.1,1.7-3.3,2.2-3.8c0.3-0.3,0.6-0.5,0.8-0.7v9.4L109.1,37.4z M112.9,16.3c-0.6,0.2-1.4,0.8-2.1,1.6c-1.6,1.6-6.7,7.9-6,21.4
			l-3.8,1.6c-1.1-20.4,6.3-31.9,11.9-33.6V16.3z M135.3,40.7c0,8-2.4,15.2-6.7,20.2c-4,4.6-9.5,7.2-15.4,7.2
			c-5.9,0-11.4-2.6-15.4-7.2c-4.3-5-6.7-12.2-6.7-20.2c0-8.2,2.9-17,8.1-24c4-5.4,8.8-9.2,12.8-9.8c-3,1.3-5.9,4.9-8.1,9.9
			c-1.9,4.6-4.1,12.6-3.4,24.4l0,0.4l0.1-0.1c4.1,1.7,8.8,2.4,13.5,2.4c8.5,0,17-2.5,20.9-7C135.2,38.2,135.3,39.5,135.3,40.7z
			 M101.3,41.2l3.7-1.5l0.1,0l0,0.1c3.1,1.1,6.3,1.6,9.4,1.6c5.6,0,10.7-1.8,13.9-5.1h6.6C129.3,43.1,112.7,45.6,101.3,41.2z
			 M128.5,35.7c-0.5-4.6-2.3-9.2-5.1-12.9c-3-4-6.7-6.4-10-6.6V6.8c4.4,0.1,9.8,3.9,14.1,9.9c4,5.6,6.6,12.3,7.5,19H128.5z"/>
		<path class="st0" d="M170.9,31c-9.9,0-15.4,7.4-16.7,11.1H154c0,0,0.3-1.4,0.3-3.2v-6.9H151v39.4h3.3V52.1c0-1.9,0.2-3.7,0.6-5.4
			c2-7.3,8.5-12.5,15.9-12.5c8.8,0,9.7,6.5,9.7,13.3v23.8h3.3v-25C183.9,37.1,181.1,31,170.9,31z"/>
		<path class="st0" d="M227.6,49c0-9.5-5.4-18-16.1-18c-10.1,0-19.2,7.4-19.2,20.8c0,12.5,9.2,20.6,20.4,20.6c8.5,0,14-5.4,14-5.4
			l-1.8-2.8c0,0-4.6,5-12.2,5c-9.1,0-16.9-6.6-16.9-18h31.6C227.4,51.1,227.6,49.8,227.6,49z M196,48c1.4-9.2,8.1-14,15.4-14
			c6.6,0,12.3,4.3,12.7,14H196z"/>
	</g>
</g>
</svg>
